<?xml version="1.0" encoding="UTF-8"?>
<svg xmlns="http://www.w3.org/2000/svg" xmlns:xlink="http://www.w3.org/1999/xlink" viewBox="0 0 155.16 167.48">
  <defs>
    <style>
      .cls-1 {
        fill: #f2f2f3;
      }

      .cls-1, .cls-2, .cls-3, .cls-4, .cls-5, .cls-6, .cls-7, .cls-8, .cls-9, .cls-10, .cls-11, .cls-12, .cls-13, .cls-14, .cls-15, .cls-16, .cls-17, .cls-18, .cls-19, .cls-20 {
        stroke-width: 0px;
      }

      .cls-2 {
        fill: #dad9d8;
      }

      .cls-21 {
        fill: none;
        stroke: #2b3894;
        stroke-width: .26px;
      }

      .cls-3 {
        fill: url(#linear-gradient);
      }

      .cls-22 {
        font-family: Roboto-Regular, Roboto;
        font-size: 12px;
      }

      .cls-22, .cls-18 {
        fill: blue;
      }

      .cls-4 {
        fill: #ea610a;
      }

      .cls-6 {
        fill: #f7ba07;
      }

      .cls-7 {
        fill: #2b3894;
      }

      .cls-8 {
        fill: url(#linear-gradient-5);
      }

      .cls-9 {
        fill: #f59e00;
      }

      .cls-23 {
        letter-spacing: 0em;
      }

      .cls-10 {
        fill: #fff;
      }

      .cls-11 {
        fill: #f8f8f8;
      }

      .cls-12 {
        fill: url(#linear-gradient-2);
      }

      .cls-13 {
        fill: url(#linear-gradient-3);
      }

      .cls-14 {
        fill: #e54a94;
      }

      .cls-15 {
        fill: #05b0a8;
      }

      .cls-16 {
        fill: #1d1d1b;
      }

      .cls-17 {
        fill: #161e6f;
      }

      .cls-19 {
        fill: url(#linear-gradient-4);
      }

      .cls-20 {
        fill: #e20d17;
      }
    </style>
    <linearGradient id="linear-gradient" x1="104.75" y1="-955.38" x2="104.75" y2="-977.18" gradientTransform="translate(0 -883.74) scale(1 -1)" gradientUnits="userSpaceOnUse">
      <stop offset="0" stop-color="#2b3894"/>
      <stop offset="1" stop-color="#293681"/>
    </linearGradient>
    <linearGradient id="linear-gradient-2" x1="115.97" y1="-955.45" x2="115.97" y2="-976.64" xlink:href="#linear-gradient"/>
    <linearGradient id="linear-gradient-3" x1="130.87" x2="130.87" y2="-977.18" xlink:href="#linear-gradient"/>
    <linearGradient id="linear-gradient-4" x1="92.95" y1="-955.38" x2="92.95" y2="-977.18" xlink:href="#linear-gradient"/>
    <linearGradient id="linear-gradient-5" x1="86.13" y1="-967.49" x2="84.41" y2="-956" gradientTransform="translate(0 -883.74) scale(1 -1)" gradientUnits="userSpaceOnUse">
      <stop offset="0" stop-color="#f78610"/>
      <stop offset="1" stop-color="#f79510"/>
    </linearGradient>
  </defs>
  <g id="Layer_2" data-name="Layer 2">
    <rect class="cls-2" x="-210.2" y="-145.02" width="927.32" height="498.37"/>
    <rect class="cls-10" y="-.69" width="153.89" height="166.92"/>
  </g>
  <g id="katman_1" data-name="katman 1">
    <g>
      <path class="cls-20" d="m39.1,127.6c0-4.7,2.15-9.15,5.84-12.06-6.66-5.28-16.34-4.17-21.62,2.49-5.28,6.66-4.17,16.34,2.49,21.62,5.6,4.44,13.53,4.44,19.13,0-3.69-2.91-5.85-7.35-5.84-12.05Z"/>
      <ellipse class="cls-4" cx="44.94" cy="127.6" rx="5.84" ry="12.06"/>
      <path class="cls-9" d="m54.48,112.22c-3.46,0-6.82,1.16-9.54,3.31,6.66,5.26,7.79,14.92,2.53,21.58-.74.94-1.59,1.79-2.53,2.53,6.66,5.28,16.33,4.16,21.6-2.5,5.28-6.66,4.16-16.33-2.5-21.6-2.72-2.16-6.09-3.33-9.57-3.33Z"/>
      <g>
        <path class="cls-5" d="m52.95,146.43c-.69-.16-1.32-.06-1.82.49-.06-.08-.02-.17-.03-.25-.01-.06.03-.14-.04-.19h0s0,0,0,0c-.02-.03-.05-.04-.08-.04-.26,0-.51,0-.77,0-.03,0-.06,0-.07.04h0s0,.09,0,.13c0,1.84,0,3.69,0,5.53,0,.04,0,.09,0,.13,0,.02.02.03.04.03h.88c.07-.04.04-.11.04-.16,0-.54,0-1.09,0-1.63,0-.06-.03-.14.03-.19,0,0,0,0,0,0,.27.29.59.48.99.52.08.05.16.04.24.03,0,0,0,0,0,0,0,0,0,0,0,0,.06,0,.12,0,.18,0,.08.01.16,0,.23-.03,0,0,0,0,0,0,.5-.07.93-.29,1.25-.68.59-.71.7-1.51.41-2.37-.24-.71-.74-1.18-1.48-1.36Zm.49,2.89c-.24.47-.75.72-1.3.66-.53-.06-.95-.44-1.08-.97-.03-.13-.05-.27-.05-.4.01-.48.18-.89.6-1.16.57-.37,1.67-.27,1.94.79.1.38.06.75-.12,1.09Z"/>
        <path class="cls-5" d="m43.53,146.37c-.92.03-1.66.6-1.92,1.48-.12.39-.13.8-.08,1.2.12.86.71,1.53,1.56,1.74.48.12.95.09,1.42-.03.31-.08.59-.23.85-.42.07-.06.09-.1.03-.18-.11-.15-.21-.32-.32-.47-.03-.04-.04-.09-.1-.1-.27.21-.58.35-.92.4-.33.05-.65.04-.96-.11-.37-.18-.56-.49-.63-.89.08-.03.15-.01.22-.01.91,0,1.82,0,2.73,0,.04,0,.09,0,.13,0,.08,0,.11-.02.11-.1,0-.26,0-.53-.04-.79-.2-1.09-1.01-1.76-2.1-1.72Zm.49.91c.4.14.59.46.66.86h0c-.01.07-.06.08-.12.08-.64,0-1.27,0-1.91,0-.09,0-.11-.05-.12-.12.18-.84.95-1.01,1.49-.82Z"/>
        <path class="cls-5" d="m68.26,148.46c-.15-.08-.3-.14-.46-.18-.28-.08-.57-.1-.85-.15-.18-.03-.35-.05-.52-.12-.24-.12-.28-.39-.1-.58.1-.1.22-.15.36-.18.16-.04.33-.04.5-.03.06.03.13.04.2.03,0,0,0,0,0,0,0,0,0,0,0,0,.35.04.67.17.99.33.07-.14.14-.26.21-.38.06-.12.13-.25.19-.37-.35-.24-.84-.4-1.35-.43-.24-.05-.48-.06-.72,0h0s0,0,0,0c-.43.04-.82.16-1.13.48-.56.57-.42,1.5.28,1.88.16.09.34.15.52.19.29.07.58.09.87.14.16.03.33.06.47.14.23.13.26.38.08.57-.06.06-.13.11-.21.14-.11.04-.22.07-.34.08-.2,0-.41,0-.61,0,0,0,0,0,0,0-.41-.03-.78-.18-1.12-.42-.12.2-.24.4-.36.59-.08.14-.08.14.05.22.44.28.92.42,1.44.46.2.05.4.05.6,0h0c.11-.02.22-.02.33-.05.38-.08.73-.22,1-.51.45-.47.49-1.45-.3-1.85Z"/>
        <path class="cls-5" d="m63.96,148.57c-.13-.1-.28-.17-.44-.23-.25-.09-.52-.13-.79-.17-.23-.03-.46-.05-.68-.12-.13-.04-.25-.1-.3-.24,0-.08,0-.15,0-.23.07-.2.25-.28.44-.33.2-.05.41-.05.62-.02.38.05.73.16,1.07.35.13-.25.27-.5.4-.75-.42-.27-.87-.39-1.35-.43-.25-.06-.5-.06-.75,0h0s0,0,0,0c-.36.04-.69.15-.99.37-.58.44-.7,1.57.18,2,.12.06.23.11.36.14.25.08.52.11.78.15.22.03.44.05.64.15.13.06.24.14.25.29.01.17-.06.3-.2.38-.14.09-.29.13-.45.14-.21,0-.43,0-.64,0,0,0,0,0,0,0,0,0,0,0,0,0-.4-.04-.76-.18-1.1-.42-.15.25-.29.48-.44.73.48.35,1.01.51,1.58.55.18.05.35.05.53,0h0s0,0,0,0c.38-.02.75-.11,1.08-.31.33-.2.55-.49.61-.88.05-.14.05-.27,0-.41-.04-.29-.19-.53-.43-.7Z"/>
        <path class="cls-5" d="m36.05,148.4c-.3-.13-.61-.19-.92-.23-.05-.04-.1-.04-.16-.03,0,0,0,0,0,0,0,0,0,0,0,0-.21-.02-.42-.04-.61-.13-.27-.11-.32-.4-.11-.61.09-.08.19-.13.31-.16.24-.06.48-.05.71-.02.32.04.62.14.91.29.05.02.09.05.12-.01.12-.23.25-.46.37-.7-.42-.26-.85-.39-1.32-.42-.09-.04-.18-.03-.28-.03,0,0,0,0,0,0,0,0,0,0,0,0-.09,0-.19,0-.28,0-.08,0-.16-.01-.24.03,0,0,0,0,0,0-.25.01-.48.08-.7.19-.38.19-.63.48-.69.91,0,0,0,0,0,0h0c-.05.15-.05.3,0,.46.03.25.15.45.34.61.15.14.33.23.53.3.31.11.63.14.96.19.21.03.42.06.6.15.26.13.3.42.07.62-.06.05-.12.08-.19.11-.12.05-.25.07-.38.08-.18,0-.35,0-.53,0,0,0,0,0,0,0-.42-.04-.81-.18-1.16-.43-.14.23-.26.44-.39.64-.05.07-.02.11.04.15.14.09.28.17.44.24.56.24,1.14.3,1.73.24.38-.04.74-.15,1.06-.38.66-.47.75-1.65-.23-2.07Z"/>
        <path class="cls-5" d="m40.7,149.86c-.04-.11-.04-.11-.15-.06-.25.12-.5.2-.78.18-.23-.01-.41-.11-.5-.34-.03-.09-.05-.18-.05-.27,0-.67,0-1.34,0-2.01.44,0,.88,0,1.32,0,.06,0,.14.03.19-.04h0s.04-.03.04-.06c0-.24,0-.49,0-.73,0-.03-.01-.05-.04-.05h0c-.45,0-.91,0-1.36,0-.15,0-.15,0-.15-.15,0-.38,0-.76,0-1.14h0s0,0,0,0c-.01-.04-.04-.04-.07-.04-.27,0-.53,0-.8,0-.03,0-.06,0-.07.04h0c0,.07,0,.13,0,.2,0,.36,0,.72,0,1.08-.25,0-.49,0-.74,0-.09,0-.12.03-.11.12,0,.21,0,.42,0,.62,0,.11.04.12.13.12.24,0,.48,0,.72,0,0,.07,0,.13,0,.2,0,.57,0,1.14,0,1.7,0,.1-.02.21.03.31,0,.17.04.34.09.5.13.39.39.64.79.75.28.08.57.09.86.06.28-.03.55-.11.8-.25.08-.04.1-.09.07-.18-.07-.19-.13-.38-.2-.57Z"/>
        <path class="cls-5" d="m47.62,146.91c-.06-.08-.02-.18-.03-.27,0-.06.03-.12-.04-.16h0c-.29,0-.59-.01-.88,0-.08.04-.04.12-.04.18,0,1.31,0,2.62,0,3.93,0,.06,0,.11,0,.17h0s0,0,0,0h0s0,0,0,0c.01.03.04.04.07.04.27,0,.53,0,.8,0,.03,0,.06,0,.07-.04h0c0-.29,0-.59,0-.88,0-.58,0-1.16,0-1.74h0s0,0,0,0c.02-.09.03-.18.05-.27.1-.32.3-.53.64-.58.15,0,.31,0,.46,0,0,0,0,0,0,0,.09,0,.17.03.25.06.05.02.08.02.1-.03.09-.27.18-.54.26-.81-.65-.24-1.34-.15-1.74.42Z"/>
        <path class="cls-5" d="m32.05,146.48h0c-.28,0-.55,0-.83,0-.07,0-.1.02-.09.09,0,.12,0,.25,0,.38-.02,0-.03.01-.05.02-.03-.04-.06-.09-.1-.13-.19-.19-.42-.32-.67-.39-.8-.23-1.7.07-2.21.73-.36.46-.49.99-.47,1.57.05,1.23.99,2.19,2.27,2.12.43-.02.81-.17,1.12-.49.03-.03.04-.08.12-.07v.45s.04.04.08.04c.26,0,.51,0,.77,0,.03,0,.06,0,.07-.04h0c.05-.03.04-.09.04-.13,0-.18,0-.36,0-.53,0-1.13,0-2.27,0-3.4,0-.07.03-.15-.04-.2Zm-1.3,3.19c-.57.54-1.84.46-2.11-.67-.12-.49-.04-.95.3-1.33.35-.4.81-.5,1.31-.37.48.13.77.47.89.94.03.13.05.25.04.33,0,.46-.13.81-.43,1.1Z"/>
        <path class="cls-5" d="m59.66,146.48s0,0,0,0c-.27,0-.54,0-.81,0-.08,0-.11.03-.11.11,0,.12,0,.24,0,.4-.25-.28-.51-.46-.82-.54-.43-.11-.86-.1-1.27.06-.85.33-1.28.97-1.39,1.86-.05.17-.05.35,0,.52.13,1.24,1.07,2.06,2.29,1.99.43-.02.8-.18,1.1-.5.02-.02.04-.07.1-.06v.44h0s.04.04.07.04c.27,0,.53,0,.8,0,.03,0,.06,0,.07-.04h0c0-.07,0-.13,0-.2,0-.76,0-1.51,0-2.27,0-.55,0-1.09,0-1.64,0-.05.04-.12-.04-.16Zm-1.85,3.47c-.85.18-1.49-.34-1.58-1.13-.03-.24-.01-.48.07-.71.19-.55.65-.87,1.25-.87.56,0,1.02.36,1.19.9.02.06.03.13.04.2,0,.17,0,.35,0,.52-.09.57-.44.97-.97,1.08Z"/>
        <path class="cls-5" d="m26.79,147.83c-.05-.71-.49-1.23-1.18-1.41-.22-.06-.45-.07-.68-.06-.46.03-.86.2-1.17.55-.05.06-.1.12-.16.2-.31-.47-.73-.71-1.28-.75-.55-.04-1.01.12-1.37.57-.01-.13-.02-.25-.01-.37,0-.08-.03-.11-.11-.11-.27,0-.54,0-.81,0h0c-.08.04-.04.11-.04.16,0,1.33,0,2.65,0,3.98,0,.04,0,.09,0,.13.01.03.04.04.07.04.27,0,.53,0,.8,0,.03,0,.06,0,.07-.04h0c0-.76,0-1.52,0-2.28,0-.09,0-.17,0-.26.04-.5.32-.84.77-.93.57-.12,1.11.09,1.18.85,0,.1,0,.19,0,.29,0,.71,0,1.43,0,2.14,0,.06-.04.13.03.19h0s0,0,0,0c.02.03.05.03.08.03.26,0,.51,0,.77,0,.03,0,.06,0,.07-.04h0c.06-.05.04-.12.04-.19,0-.58,0-1.16,0-1.73,0-.23,0-.47,0-.7.06-.54.45-.87,1-.88.52,0,.83.25.93.76.03.14.03.28.03.42,0,.77,0,1.55,0,2.32h0s.04.04.07.04c.27,0,.53,0,.8,0,.03,0,.06,0,.07-.04h0s0-.05,0-.07c0-.89,0-1.78,0-2.67,0-.06,0-.12-.03-.18Z"/>
        <path class="cls-5" d="m69.81,150.58s0-.05-.03-.06c-.04-.02-.05.01-.07.04-.02.02-.01.06-.04.07-.06-.02-.04-.14-.13-.1-.07.03-.02.11-.03.17,0,.01,0,.02,0,.04,0,.03.04.04.05.03.08-.08.16,0,.24,0,0-.05,0-.11,0-.16Z"/>
        <path class="cls-5" d="m69.27,150.52c0,.06.08.06.07.12,0,.04-.02.1.07.12.02-.08-.02-.18.08-.24-.08,0-.15-.04-.21,0Z"/>
      </g>
    </g>
    <g>
      <g>
        <path class="cls-17" d="m126.31,118.43h-28.13c-1.57,0-2.86.69-3.11,1.6h34.34c-.25-.91-1.54-1.6-3.11-1.6Z"/>
        <path class="cls-17" d="m123.51,116.94h-22.21c-1.43,0-2.62.58-3.01,1.37h28.24c-.39-.79-1.58-1.37-3.01-1.37Z"/>
        <rect class="cls-17" x="90.34" y="120.25" width="44.13" height="30.24" rx="3.16" ry="3.16"/>
      </g>
      <g>
        <path class="cls-1" d="m99.3,142.95c-.58,0-1.02-.14-1.34-.42-.32-.29-.47-.69-.47-1.22,0-.42.07-.8.21-1.14s.33-.63.57-.89c.24-.24.52-.43.86-.57.34-.14.68-.2,1.05-.2.29,0,.57.03.82.09s.48.15.68.26l-.25,1.03h-.13c-.18-.2-.36-.34-.54-.43s-.39-.14-.63-.14c-.42,0-.78.17-1.06.51-.28.34-.41.78-.41,1.31,0,.34.08.59.23.74.16.16.38.23.67.23.26,0,.51-.05.74-.16.23-.11.45-.24.66-.41h.11l-.25,1.02c-.08.04-.19.08-.3.13s-.23.09-.33.12c-.14.04-.27.07-.39.09-.11.04-.28.04-.49.04h0Z"/>
        <path class="cls-1" d="m105.17,140.37s0,.11-.01.18-.02.14-.04.22l-.48,2.1h-1.05l.37-1.6c.02-.12.05-.23.07-.31s.02-.16.02-.23c0-.13-.03-.22-.1-.28s-.18-.08-.35-.08c-.08,0-.18.02-.29.05s-.23.09-.36.16l-.53,2.29h-1.04l1.03-4.47h1.04l-.37,1.6c.21-.14.41-.25.58-.33s.37-.12.58-.12c.29,0,.52.07.68.22.16.13.24.34.24.6h0Z"/>
        <path class="cls-1" d="m108.73,139.83c-.25-.2-.61-.29-1.09-.29-.32,0-.61.05-.87.16-.27.11-.49.25-.66.43-.19.19-.33.4-.42.65-.1.25-.15.51-.15.81,0,.43.15.77.45,1.01s.72.36,1.27.36h0c.25,0,.48-.02.72-.06.22-.04.43-.11.63-.2l.19-.83h-.11c-.15.1-.32.18-.53.26s-.42.11-.65.11c-.32,0-.57-.07-.72-.19-.16-.13-.24-.31-.24-.53v-.07h2.4c.04-.12.07-.25.1-.37s.04-.25.04-.38c0-.38-.12-.66-.36-.86Zm-.68.92s0,.06-.01.1h0s-1.4,0-1.4,0c.07-.21.19-.37.33-.48s.32-.17.54-.17c.18,0,.31.04.41.12.1.08.14.2.14.35,0,.03,0,.06,0,.09Z"/>
        <path class="cls-1" d="m110.86,142.95c-.22,0-.42-.03-.62-.08s-.36-.14-.5-.26c-.14-.11-.25-.26-.33-.42s-.12-.37-.12-.59c0-.29.05-.56.17-.81.11-.25.26-.47.47-.65.2-.18.44-.33.72-.43.28-.11.59-.16.92-.16.2,0,.39.02.59.07.2.04.38.11.54.19l-.22.89h-.15c-.11-.14-.24-.24-.38-.31s-.31-.1-.48-.1c-.32,0-.59.11-.78.35s-.3.52-.3.87c0,.24.06.42.19.54.12.12.31.18.57.18.2,0,.38-.04.54-.12.16-.08.31-.17.42-.27h.15l-.22.89c-.21.09-.39.16-.54.19s-.36.05-.61.05h0Z"/>
        <polygon class="cls-1" points="115.98 142.86 114.89 142.86 114.25 141.44 113.79 141.85 113.56 142.87 112.51 142.87 113.54 138.39 114.58 138.39 113.97 141.06 115.42 139.64 116.61 139.64 115.11 141.04 115.98 142.86"/>
        <path class="cls-1" d="m119.66,139.87c-.26-.23-.62-.34-1.11-.34-.33,0-.63.05-.89.17s-.49.27-.67.46c-.19.2-.33.42-.42.68-.1.26-.14.53-.14.82,0,.41.13.73.38.96.26.23.63.35,1.11.35.34,0,.63-.05.89-.16s.47-.26.66-.45c.19-.19.33-.42.43-.68.1-.26.15-.54.15-.85h0c0-.4-.13-.71-.38-.95Zm-.77,1.56c-.04.16-.11.31-.2.44h0c-.08.12-.18.22-.3.28-.11.07-.23.1-.36.1-.17,0-.3-.05-.4-.14-.1-.1-.15-.25-.15-.47,0-.19.02-.37.07-.55.05-.18.11-.33.19-.45.08-.13.19-.23.29-.3s.24-.11.38-.11c.19,0,.33.05.41.16.09.11.13.26.13.45,0,.23-.02.42-.07.58Z"/>
        <path class="cls-1" d="m124.17,139.64l-.75,3.23h-1.04l.08-.36c-.1.07-.2.13-.31.19-.1.06-.19.11-.28.14-.11.05-.22.08-.31.1s-.19.02-.28.02c-.28,0-.51-.07-.67-.2s-.25-.34-.25-.6c0-.07,0-.14.01-.2,0-.06.02-.13.04-.2l.48-2.1h1.05l-.37,1.6c-.03.13-.05.23-.07.32-.01.09-.02.16-.02.23,0,.13.03.22.09.28.06.05.18.08.35.08.08,0,.18-.02.29-.05.11-.04.23-.09.36-.16l.53-2.29h1.05Z"/>
        <path class="cls-1" d="m125.49,142.93c-.36,0-.62-.06-.77-.18-.16-.12-.23-.29-.23-.53,0-.06,0-.12.01-.18.01-.06.02-.13.04-.2l.35-1.53h-.42l.16-.68h.42l.22-.92h1.04l-.21.92h.97l-.16.68h-.97l-.27,1.17c-.02.08-.04.16-.05.25s-.02.15-.02.21c0,.11.03.2.1.24.07.05.16.07.3.07.05,0,.13-.01.21-.03.09-.02.16-.04.21-.07h.08l-.16.69c-.12.03-.24.05-.37.07s-.29.03-.47.03h0Z"/>
      </g>
      <path class="cls-1" d="m106.19,127.92l-2.51,6.29-1.02-5.32c-.1-.61-.56-.92-1.13-.92h-4.04v.26c.82.2,1.79.46,2.35.77.36.2.46.36.56.82l1.89,7.37h2.51l3.89-9.21h-2.51v-.05Zm3.53,0l-2,9.21h2.41l2-9.21h-2.41Zm13.71,2.51l.72,3.48h-2l1.28-3.48Zm-.36-2.51c-.46,0-.87.26-1.02.67l-3.58,8.6h2.51l.51-1.38h3.07l.31,1.38h2.2l-1.94-9.21h-2.05v-.05Zm-6.24-.15c-2.35,0-4.04,1.28-4.04,3.07,0,1.33,1.18,2.05,2.1,2.51.92.46,1.23.77,1.23,1.13,0,.61-.77.87-1.43.92-1.18,0-1.89-.31-2.46-.56l-.41,2.05c.56.26,1.59.46,2.66.51,2.51,0,4.14-1.23,4.14-3.17,0-2.46-3.38-2.56-3.33-3.68,0-.31.31-.67,1.02-.77.36-.05,1.28-.1,2.35.41l.41-1.94c-.61-.26-1.33-.46-2.25-.46Z"/>
      <circle class="cls-6" cx="132.29" cy="122.85" r="5.92"/>
      <polygon class="cls-11" points="131.4 126.3 128.44 123.34 129.7 122.08 131.4 123.78 135.15 120.03 136.41 121.29 131.4 126.3"/>
    </g>
    <g>
      <path class="cls-18" d="m123.81,25.87v2.53s0,.04,0,.04v2.45c0,.33.27.59.59.59s.59-.27.59-.59v-2.45s0-.02,0-.01v-.03c0-.53.18-1.02.5-1.39.31-.35.71-.54,1.13-.54.42,0,.82.19,1.13.54.32.37.5.86.5,1.39v2.48c0,.33.27.59.59.59s.59-.27.59-.59v-2.48c0-.82-.28-1.59-.8-2.18-.53-.61-1.25-.94-2.02-.94-.59,0-1.16.2-1.63.57,0-.32-.27-.57-.59-.57s-.59.27-.59.59"/>
      <path class="cls-18" d="m119.31,45.86v-6.86c0-2.11-.73-4.09-2.05-5.6-1.36-1.54-3.17-2.39-5.12-2.39-1.84,0-3.57.76-4.9,2.15v-7.87c0-.63-.51-1.14-1.14-1.14s-1.14.51-1.14,1.14v13.06s0,.02,0,.03v7.36c0,.63.51,1.14,1.14,1.14s1.14-.51,1.14-1.14v-6.9c.04-1.49.55-2.89,1.48-3.93.93-1.05,2.14-1.62,3.42-1.62,1.28,0,2.49.58,3.42,1.62.96,1.09,1.48,2.54,1.48,4.1v6.86c0,.63.51,1.14,1.14,1.14s1.14-.51,1.14-1.14m-15.85-2.61c.09-.37.12-.79.1-1.13,0,0,0-.13,0-.18,0-.05-.01-.09-.01-.09-.26-2.31-2.21-4.05-4.54-4.05h-4.85c-.61,0-1.19-.24-1.62-.67-.43-.43-.67-1.01-.67-1.62,0-.61.24-1.19.67-1.62.43-.43,1.01-.67,1.62-.67h7.19c.63,0,1.14-.51,1.14-1.14s-.51-1.14-1.14-1.14h-7.19c-2.52,0-4.57,2.05-4.57,4.56s2.05,4.56,4.57,4.56h4.85c.61,0,1.19.24,1.62.67.34.34.57.78.64,1.25,0,.02.02.12.03.34,0,.12,0,.25-.04.39-.1.42-.32.75-.32.75-.02.03-.02.02-.04.06-.03.04-.71,1.04-2.8,1.04-.03,0-.15,0-.18,0h-6.56c-.62,0-1.13.51-1.13,1.13s.51,1.13,1.13,1.13h6.56s.14,0,.18,0c3.22,0,4.48-1.73,4.71-2.1.11-.16.46-.73.64-1.49m-14.96-4.31s0-.06,0-.09c0-2.11-.73-4.1-2.05-5.6-1.36-1.54-3.17-2.39-5.12-2.39-.08,0-.16,0-.24.03-.93.02-2.22.23-3.44,1-.53.33-.69,1.03-.35,1.56.22.34.58.53.96.53.21,0,.42-.06.6-.18,1.42-.9,3.08-.61,3.09-.61.03,0,.06,0,.09,0,1.01.17,1.95.71,2.7,1.56.71.81,1.19,1.84,1.38,2.96h-6.33c-2.52,0-4.56,2.05-4.57,4.56,0,2.52,2.05,4.56,4.57,4.57h0s.17,0,.2,0h4.2c1.49,0,2.64-.41,3.41-1.22.87-.92.9-2.01.89-2.27v-4.32s0-.05,0-.08m-2.25,4.49s-.01.36-.28.64c-.32.34-.93.51-1.76.51h-4.2c-.05,0-.09,0-.2,0-.61,0-1.19-.24-1.62-.67-.43-.43-.67-1.01-.67-1.62s.24-1.19.67-1.62c.43-.43,1.01-.67,1.62-.67h6.44v3.38s0,.04,0,.07m-11.74-8.49c.47-.41.51-1.13.1-1.6-1.36-1.54-3.17-2.39-5.12-2.39s-3.76.85-5.12,2.39c-1.32,1.5-2.05,3.49-2.05,5.6,0,1.1.21,2.18.59,3.18v.02s.11.27.11.27c.05.11.11.22.16.33.02.05.04.1.07.14.02.04.04.07.06.1.39.72.88,1.38,1.45,1.96,0,0,0,0,0,0,.07.08,1.69,1.95,4.96,2.15.02,0,.05,0,.07,0,.01,0,.23,0,.34,0,.93,0,2.33-.17,3.64-1,.53-.33.69-1.03.35-1.56-.33-.53-1.03-.69-1.56-.35-.97.61-2.04.67-2.63.65-.02,0-.1,0-.12,0-1.58-.11-2.65-.78-3.08-1.14,0,0-.01-.02-.02-.02-.62-.54-1.13-1.2-1.51-1.97-.4-.84-.61-1.79-.61-2.76,0-1.55.53-3.01,1.48-4.1.92-1.05,2.14-1.62,3.41-1.62,1.28,0,2.49.58,3.42,1.62.4.45,1.15.5,1.6.1m-11.47-2.86c0-.63-.51-1.14-1.14-1.14h-4.9v-5.72c0-.63-.51-1.14-1.14-1.14s-1.14.51-1.14,1.14v16.94s0,0,0,0v1.18c0,.25.02,1.46.94,2.42.47.49,1.35,1.08,2.86,1.08.63,0,1.13-.51,1.13-1.13s-.51-1.13-1.13-1.13c-.56,0-.97-.12-1.22-.37-.31-.32-.32-.8-.32-.8,0-.02,0-.03,0-.05v-1.12s0-9.03,0-9.03h4.9c.63,0,1.14-.51,1.14-1.14m-10.41,7.66c.21-.21.33-.5.33-.8,0-2.11-.73-4.09-2.05-5.6-1.36-1.54-3.17-2.39-5.12-2.39s-3.78.87-5.12,2.39c-1.32,1.5-2.05,3.49-2.05,5.6,0,1.1.21,2.18.6,3.18v.02s.11.27.11.27c.04.08.08.16.12.24.04.07.07.15.11.22.02.05.05.09.08.14.39.71.87,1.36,1.43,1.93,0,0,0,0,0,.01.06.07,1.42,1.62,4.12,2.06.01,0,.35.06.77.09.02,0,.15,0,.15,0,.07,0,.14,0,.21,0,.93,0,2.33-.17,3.64-1,.53-.33.69-1.04.35-1.57-.34-.53-1.04-.69-1.57-.35-.93.59-1.95.67-2.56.65-.01,0-.03,0-.04,0-1.67-.1-2.68-.78-3.12-1.14,0,0-.02-.02-.03-.03-.62-.54-1.13-1.21-1.51-1.98-.24-.51-.41-1.05-.51-1.62h10.84c.3,0,.59-.12.8-.33m-2.04-1.94h-9.6c.19-1.12.67-2.16,1.38-2.96.92-1.05,2.14-1.62,3.41-1.62,1.28,0,2.49.58,3.42,1.62.71.81,1.19,1.84,1.38,2.96m-13.56,7.89v-6.75c0-2.11-.73-4.1-2.05-5.6-1.36-1.54-3.17-2.39-5.12-2.39-1.84,0-3.57.76-4.9,2.15v-1.02c0-.63-.51-1.13-1.14-1.13s-1.14.51-1.14,1.13v6.86s0,.04,0,.06c0,.02,0,.04,0,.06v6.64c0,.63.51,1.14,1.14,1.14s1.14-.51,1.14-1.14v-6.64s0-.04,0-.06c0-.02,0-.04,0-.06,0-1.56.53-3.01,1.48-4.1.92-1.05,2.14-1.62,3.41-1.62,1.28,0,2.49.58,3.42,1.62.96,1.09,1.49,2.55,1.48,4.1v6.75c0,.63.51,1.13,1.14,1.13s1.14-.51,1.14-1.13"/>
      <path class="cls-15" d="m126.43,34.36c-1.01,0-2.02-.26-2.9-.74-.29-.16-.39-.52-.23-.8.16-.29.52-.39.8-.23.71.39,1.52.59,2.34.59.96,0,1.89-.28,2.68-.8.27-.18.64-.1.82.17.18.27.1.64-.17.82-.99.65-2.14,1-3.33,1"/>
      <path class="cls-14" d="m130.64,32.37c-.13,0-.27-.04-.38-.13-.25-.21-.29-.58-.08-.83.72-.87,1.11-1.97,1.11-3.1,0-.79-.19-1.57-.56-2.26-.15-.29-.04-.65.25-.8.29-.15.65-.04.8.25.45.86.69,1.83.69,2.81,0,1.4-.49,2.77-1.38,3.85-.12.14-.29.21-.46.21"/>
      <path class="cls-18" d="m122.61,32.8c-.15,0-.3-.06-.41-.17-1.18-1.15-1.82-2.69-1.82-4.33,0-3.34,2.72-6.06,6.06-6.06,1.62,0,3.14.63,4.28,1.77.23.23.23.6,0,.84-.23.23-.6.23-.84,0-.92-.92-2.14-1.43-3.45-1.43-2.69,0-4.87,2.19-4.87,4.87,0,1.32.52,2.56,1.47,3.48.23.23.24.6,0,.84-.12.12-.27.18-.42.18"/>
    </g>
    <text class="cls-22" transform="translate(41.15 18.24)"><tspan class="cls-23" x="0" y="0">P</tspan><tspan x="7.51" y="0">ayments by:</tspan></text>
    <g id="Layer_2-2" data-name="Layer 2">
      <polygon class="cls-3" points="104.11 73.75 108.55 73.75 105.56 92.95 100.96 92.95 104.11 73.75"/>
      <path class="cls-12" d="m123.13,74.21l-.7,3.94s-4.35-2.03-6.44-.25c-1.75,1.63,3.32,3.72,3.32,3.72,1.71.97,2.85,2.71,3.06,4.66,0,2.96-1.73,5.77-6.81,6.14s-6.76-.75-6.76-.75l.53-4.06c1.5.65,3.08,1.09,4.71,1.29,1.87,0,3.17-.53,3.45-1.48.28-.95-.7-1.78-1.94-2.35s-5.42-2.77-4.84-6.07c.58-3.3,4.28-7.16,12.42-4.78Z"/>
      <path class="cls-13" d="m134.97,92.95h4.56l-4-19.24h-4c-.97.22-1.78.88-2.19,1.78-.53,1.48-7.13,17.42-7.13,17.42h4.66l1.27-3.83h6.16c.31,1.28.53,2.57.67,3.88Zm-5.55-7.03l2.62-6.91s.13-.4.22,0c0,.22.71,3.66,1.36,6.87l-4.2.04Z"/>
      <circle class="cls-21" cx="141.16" cy="91.23" r="1.04"/>
      <path class="cls-7" d="m140.73,91.8v-1.11h.43c.06-.02.13-.02.19,0,.05.01.09.05.1.1.02.05.02.11,0,.16.02.15-.1.29-.25.31,0,0-.01,0-.02,0,.02,0,.05,0,.07,0,.04.04.08.09.1.15l.18.3h-.16l-.13-.22c-.03-.05-.06-.11-.09-.16l-.07-.07h-.19v.49l-.16.06Zm.12-.62h.41l.09-.07s0-.07,0-.1c.01-.09-.05-.17-.14-.18-.02,0-.05,0-.07,0h-.25l-.04.36Z"/>
      <path class="cls-19" d="m96.96,73.75h4.66l-7.49,19.24h-5.17l-4.69-19.24h3.33s1.87-.24,2.31,2.31,1.82,9.93,1.82,9.93c0,0,0,.61.28.19s4.94-12.43,4.94-12.43Z"/>
      <path class="cls-8" d="m83.99,73.75h3.61s1.87-.24,2.31,2.31c.27,1.6.92,5.11,1.38,7.5,0,0-2.38-6.62-11.84-9.81h8.38"/>
    </g>
    <g>
      <path class="cls-16" d="m27.97,98.04c-.14-.16-.32-.28-.52-.34-.21-.09-.44-.13-.66-.13h-.41c-.14.01-.27.05-.4.11-.14.05-.27.13-.38.23-.13.11-.23.23-.32.37-.14-.23-.34-.42-.57-.55-.25-.14-.54-.21-.83-.2h-.33c-.11.02-.23.06-.33.1-.11.05-.22.12-.32.19-.11.09-.2.19-.28.31v-.51h-.88v4.25h.89v-2.32c0-.16.03-.32.09-.47.05-.13.13-.26.23-.36.1-.09.21-.17.33-.22.14-.02.27-.02.41,0,.26-.02.52.08.7.28.18.23.27.52.26.82v2.27h.89v-2.32c0-.3.11-.6.31-.83.1-.09.22-.16.34-.22.14-.02.27-.02.41,0,.26-.02.52.09.7.28.17.24.26.53.24.82v2.27h.91v-2.63c0-.24-.04-.47-.13-.69-.07-.2-.19-.37-.34-.51Z"/>
      <path class="cls-16" d="m32.67,98.18c-.15-.19-.34-.35-.55-.46-.24-.12-.51-.17-.78-.17-.29,0-.57.05-.83.17-.25.11-.48.27-.68.46-.2.2-.35.44-.45.7-.11.28-.17.59-.17.89,0,.31.05.61.17.89.1.26.25.5.45.7.19.2.42.36.68.46.26.11.54.17.83.17.28.03.56-.02.82-.13.21-.11.4-.26.55-.45v.45h.92v-4.2h-.96v.51Zm0,2.13c-.06.16-.15.3-.26.43-.12.12-.26.21-.41.28-.16.07-.34.11-.52.1-.18,0-.37-.04-.54-.1-.15-.07-.28-.17-.4-.29-.11-.13-.19-.28-.26-.43-.06-.17-.09-.35-.09-.52,0-.18.03-.35.09-.52.06-.16.15-.3.26-.43.12-.12.25-.22.4-.29.17-.07.35-.1.54-.1.18,0,.36.03.52.1.15.07.29.17.41.28.11.13.19.28.26.43.12.35.12.73,0,1.07h0Z"/>
      <path class="cls-16" d="m37.87,99.77c-.32-.23-.69-.37-1.09-.41l-.43-.05h-.27l-.23-.08c-.05-.04-.1-.08-.14-.13-.02-.06-.02-.12,0-.18,0-.15.07-.29.2-.37.18-.1.38-.15.59-.14.13-.01.26-.01.4,0l.36.09.32.11.23.13.36-.72c-.24-.14-.51-.25-.78-.33-.31-.08-.63-.12-.95-.11-.25,0-.49.03-.73.1-.2.06-.38.15-.55.27-.15.11-.27.25-.34.42-.08.18-.12.37-.11.56-.01.32.12.62.36.83.31.24.68.38,1.07.42h.43c.2.02.39.07.56.17.11.06.18.18.18.31,0,.16-.1.3-.24.37-.23.1-.48.15-.73.14-.15.01-.31.01-.46,0-.13-.02-.25-.05-.37-.09-.11-.04-.21-.08-.31-.14-.09-.05-.18-.1-.26-.17l-.42.69c.14.11.3.21.47.28.16.07.33.13.5.17l.46.08h.38c.28,0,.55-.03.82-.1.22-.06.43-.15.63-.28.15-.11.28-.26.37-.43.08-.18.13-.37.13-.56.01-.33-.14-.65-.41-.84Z"/>
      <path class="cls-16" d="m46.5,98.17c-.17-.19-.39-.35-.63-.45-.25-.11-.53-.17-.8-.17-.29,0-.59.05-.86.17-.25.1-.48.25-.66.45-.19.2-.34.44-.43.7-.11.29-.16.6-.15.91,0,.31.05.62.15.92.1.26.25.5.45.7.2.2.43.35.69.45.28.11.57.16.87.15.31,0,.62-.04.92-.13.3-.09.58-.25.82-.46l-.46-.66c-.17.14-.37.25-.57.33-.2.07-.42.11-.64.11-.14.02-.29.02-.43,0-.14-.04-.27-.1-.38-.19-.11-.09-.21-.21-.28-.33-.09-.15-.14-.31-.17-.49h3.13v-.34c0-.31-.05-.61-.14-.91-.08-.28-.22-.54-.41-.77Zm-2.55,1.28c.02-.15.06-.29.13-.42.06-.12.14-.23.23-.33.1-.09.21-.17.33-.22.14-.05.29-.08.43-.08.27-.01.53.09.73.28.2.21.32.48.34.77h-2.2Z"/>
      <path class="cls-16" d="m58.76,98.18c-.15-.19-.33-.35-.55-.46-.24-.12-.51-.18-.78-.17-.29,0-.57.05-.83.17-.25.11-.47.27-.66.46-.2.2-.35.44-.46.7-.1.29-.16.59-.15.89,0,.3.05.61.15.89.11.26.26.5.46.7.18.2.41.36.66.46.26.11.54.17.83.17.27.02.53-.02.78-.13.21-.11.4-.26.55-.45v.45h.93v-4.2h-.93v.51Zm0,2.13c-.05.16-.14.31-.26.43-.11.12-.25.21-.4.28-.16.07-.34.11-.52.1-.18,0-.37-.03-.54-.1-.3-.15-.54-.41-.65-.73-.06-.17-.09-.34-.09-.52,0-.18.03-.36.09-.52.05-.16.14-.31.26-.43.11-.12.25-.22.4-.29.17-.07.35-.1.54-.1.18,0,.36.04.52.1.15.07.28.17.4.28.12.12.2.27.26.43.14.34.14.73,0,1.07h0Z"/>
      <path class="cls-16" d="m41.82,101.05c-.14.05-.29.08-.45.08-.08.01-.17.01-.26,0-.08-.03-.16-.08-.22-.14-.06-.07-.11-.15-.14-.24-.02-.12-.02-.25,0-.37v-1.88h1.48v-.83h-1.53v-1.28h-.93v1.28h-.84v.83h.84v1.86c-.05.46.1.93.41,1.28.3.28.7.42,1.11.4.25,0,.49-.04.73-.11.14-.06.27-.12.4-.19l-.32-.77-.28.09Z"/>
      <path class="cls-16" d="m50.15,97.55c-.24,0-.48.05-.7.14-.22.13-.4.31-.52.52v-.55h-.84v4.2h.86v-2.3c0-.16.02-.33.08-.49.04-.13.11-.26.2-.36.09-.1.2-.17.32-.22.13-.05.26-.08.4-.08h.55l.28-.88h-.61Z"/>
      <path class="cls-16" d="m62.97,97.55c-.24,0-.48.05-.7.14-.22.13-.4.31-.52.52v-.55h-.83v4.2h.84v-2.3c0-.16.02-.33.08-.49.04-.13.11-.25.2-.36.09-.1.2-.17.32-.22.13-.05.27-.08.41-.08h.55l.27-.88h-.61Z"/>
      <path class="cls-16" d="m67.29,95.94v2.23c-.15-.19-.34-.35-.55-.46-.24-.12-.51-.17-.78-.17-.29,0-.57.05-.83.17-.25.11-.48.27-.68.46-.2.2-.35.44-.45.7-.11.28-.17.59-.17.89,0,.31.05.61.17.89.1.26.25.5.45.7.19.2.42.36.68.46.26.11.54.17.83.17.27,0,.54-.05.78-.17.21-.11.4-.26.55-.45v.49h.92v-5.93h-.92Zm0,4.37c-.06.16-.15.3-.26.43-.12.12-.26.21-.41.28-.16.07-.34.11-.52.1-.18,0-.37-.04-.54-.1-.15-.07-.28-.17-.4-.29-.11-.13-.19-.28-.26-.43-.06-.17-.09-.35-.09-.52,0-.18.03-.35.09-.52.06-.16.15-.3.26-.43.12-.12.25-.22.4-.29.17-.07.35-.1.54-.1.18,0,.36.03.52.1.15.07.29.17.41.28.11.13.19.28.26.43.12.35.12.73,0,1.07h0Z"/>
      <path class="cls-16" d="m52.36,98.8c.12-.13.26-.22.42-.28.17-.07.34-.1.52-.1h0c.2,0,.39.04.57.1.17.06.32.15.45.27l.45-.74c-.17-.14-.36-.25-.56-.33-.29-.11-.6-.17-.91-.17-.31,0-.62.05-.91.17-.27.1-.51.27-.72.47-.21.2-.37.44-.49.7-.22.57-.22,1.2,0,1.76.11.26.28.5.49.7.2.21.45.37.72.47.29.11.6.17.91.17.31,0,.62-.05.91-.17.2-.08.39-.19.56-.33l-.4-.73c-.13.11-.28.2-.45.26-.18.07-.38.11-.57.1h0c-.18,0-.36-.03-.52-.1-.16-.06-.3-.15-.42-.27-.12-.13-.21-.27-.28-.43-.14-.35-.14-.74,0-1.1.05-.15.13-.3.23-.42Z"/>
      <path class="cls-16" d="m70.15,101.27c.06-.01.12-.01.18,0,.11.04.19.12.23.23.05.1.05.23,0,.33-.04.11-.12.19-.23.23-.11.05-.24.05-.36,0-.11-.02-.21-.09-.27-.19-.05-.1-.05-.23,0-.33.04-.11.12-.19.23-.23.07-.03.14-.04.22-.04Zm0,.74s.09.01.13,0c.03,0,.06,0,.09,0,0-.03,0-.06,0-.09.03-.08.03-.17,0-.26,0-.03,0-.06,0-.09-.03,0-.06,0-.09,0-.04-.01-.09-.01-.13,0-.04-.01-.08-.01-.11,0h-.1c-.07.11-.07.24,0,.34v.09h.1s.08.01.11,0Zm0-.5s.08-.01.11,0c.01.03.01.06,0,.09,0,.02,0,.05,0,.08-.02.01-.05.01-.08,0l.11.14h-.13l-.1-.14h0v.19h-.11v-.38l.19.03Zm-.08.09v.08h.11-.11v-.08Z"/>
      <path class="cls-20" d="m38.89,77.9c0-4.88,2.23-9.48,6.05-12.5-6.9-5.48-16.94-4.32-22.41,2.58-5.48,6.9-4.32,16.94,2.58,22.41,5.81,4.61,14.02,4.61,19.83,0-3.83-3.01-6.06-7.62-6.05-12.49Z"/>
      <ellipse class="cls-4" cx="44.94" cy="77.9" rx="6.05" ry="12.5"/>
      <path class="cls-9" d="m54.83,61.96c-3.59,0-7.07,1.21-9.88,3.44,6.9,5.45,8.08,15.47,2.62,22.37-.77.97-1.65,1.85-2.62,2.62,6.9,5.47,16.92,4.31,22.39-2.59,5.47-6.9,4.31-16.92-2.59-22.39-2.82-2.24-6.32-3.45-9.92-3.45Z"/>
    </g>
  </g>
</svg>