<?xml version="1.0" encoding="UTF-8"?>
<svg xmlns="http://www.w3.org/2000/svg" xmlns:xlink="http://www.w3.org/1999/xlink" viewBox="0 0 183.5 74.68">
  <defs>
    <style>
      .cls-1 {
        fill: #dad9d8;
      }

      .cls-1, .cls-2, .cls-3, .cls-4, .cls-5, .cls-6, .cls-7, .cls-8, .cls-9, .cls-10, .cls-11, .cls-12, .cls-13, .cls-14, .cls-15 {
        stroke-width: 0px;
      }

      .cls-16 {
        fill: none;
        stroke: #2b3894;
        stroke-width: .26px;
      }

      .cls-2 {
        fill: url(#linear-gradient);
      }

      .cls-17 {
        font-family: Roboto-Regular, Roboto;
        font-size: 12px;
      }

      .cls-17, .cls-13 {
        fill: blue;
      }

      .cls-3 {
        fill: #ea610a;
      }

      .cls-4 {
        fill: #2b3894;
      }

      .cls-5 {
        fill: url(#linear-gradient-5);
      }

      .cls-6 {
        fill: #f59e00;
      }

      .cls-18 {
        letter-spacing: 0em;
      }

      .cls-7 {
        fill: #fff;
      }

      .cls-8 {
        fill: url(#linear-gradient-2);
      }

      .cls-9 {
        fill: url(#linear-gradient-3);
      }

      .cls-10 {
        fill: #e54a94;
      }

      .cls-11 {
        fill: #05b0a8;
      }

      .cls-12 {
        fill: #1d1d1b;
      }

      .cls-14 {
        fill: url(#linear-gradient-4);
      }

      .cls-15 {
        fill: #e20d17;
      }
    </style>
    <linearGradient id="linear-gradient" x1="149.91" y1="-659.7" x2="149.91" y2="-674.43" gradientTransform="translate(0 -650.89) scale(1 -1)" gradientUnits="userSpaceOnUse">
      <stop offset="0" stop-color="#2b3894"/>
      <stop offset="1" stop-color="#293681"/>
    </linearGradient>
    <linearGradient id="linear-gradient-2" x1="157.49" y1="-659.75" x2="157.49" y2="-674.06" xlink:href="#linear-gradient"/>
    <linearGradient id="linear-gradient-3" x1="167.56" x2="167.56" y2="-674.43" xlink:href="#linear-gradient"/>
    <linearGradient id="linear-gradient-4" x1="141.94" x2="141.94" xlink:href="#linear-gradient"/>
    <linearGradient id="linear-gradient-5" x1="137.33" y1="-667.88" x2="136.17" y2="-660.12" gradientTransform="translate(0 -650.89) scale(1 -1)" gradientUnits="userSpaceOnUse">
      <stop offset="0" stop-color="#f78610"/>
      <stop offset="1" stop-color="#f79510"/>
    </linearGradient>
  </defs>
  <g id="Layer_2" data-name="Layer 2">
    <rect class="cls-1" x="-197.63" y="-7.1" width="758.36" height="454.4"/>
    <rect class="cls-7" x="-1.27" width="184.76" height="74.68"/>
  </g>
  <g id="katman_1" data-name="katman 1">
    <g>
      <path class="cls-13" d="m107.23,40.02v2.53s0,.04,0,.04v2.45c0,.33.27.59.59.59s.59-.27.59-.59v-2.45s0-.02,0-.01v-.03c0-.53.18-1.02.5-1.39.31-.35.71-.54,1.13-.54.42,0,.82.19,1.13.54.32.37.5.86.5,1.39v2.48c0,.33.27.59.59.59s.59-.27.59-.59v-2.48c0-.82-.28-1.59-.8-2.18-.53-.61-1.25-.94-2.02-.94-.59,0-1.16.2-1.63.57,0-.32-.27-.57-.59-.57s-.59.27-.59.59"/>
      <path class="cls-13" d="m102.73,60.01v-6.86c0-2.11-.73-4.09-2.05-5.6-1.36-1.54-3.17-2.39-5.12-2.39-1.84,0-3.57.76-4.9,2.15v-7.87c0-.63-.51-1.14-1.14-1.14s-1.14.51-1.14,1.14v13.06s0,.02,0,.03v7.36c0,.63.51,1.14,1.14,1.14s1.14-.51,1.14-1.14v-6.9c.04-1.49.55-2.89,1.48-3.93.93-1.05,2.14-1.62,3.42-1.62,1.28,0,2.49.58,3.42,1.62.96,1.09,1.48,2.54,1.48,4.1v6.86c0,.63.51,1.14,1.14,1.14s1.14-.51,1.14-1.14m-15.85-2.61c.09-.37.12-.79.1-1.13,0,0,0-.13,0-.18,0-.05-.01-.09-.01-.09-.26-2.31-2.21-4.05-4.54-4.05h-4.85c-.61,0-1.19-.24-1.62-.67-.43-.43-.67-1.01-.67-1.62,0-.61.24-1.19.67-1.62.43-.43,1.01-.67,1.62-.67h7.19c.63,0,1.14-.51,1.14-1.14s-.51-1.14-1.14-1.14h-7.19c-2.52,0-4.57,2.05-4.57,4.56s2.05,4.56,4.57,4.56h4.85c.61,0,1.19.24,1.62.67.34.34.57.78.64,1.25,0,.02.02.12.03.34,0,.12,0,.25-.04.39-.1.42-.32.75-.32.75-.02.03-.02.02-.04.06-.03.04-.71,1.04-2.8,1.04-.03,0-.15,0-.18,0h-6.56c-.62,0-1.13.51-1.13,1.13s.51,1.13,1.13,1.13h6.56s.14,0,.18,0c3.22,0,4.48-1.73,4.71-2.1.11-.16.46-.73.64-1.49m-14.96-4.31s0-.06,0-.09c0-2.11-.73-4.1-2.05-5.6-1.36-1.54-3.17-2.39-5.12-2.39-.08,0-.16,0-.24.03-.93.02-2.22.23-3.44,1-.53.33-.69,1.03-.35,1.56.22.34.58.53.96.53.21,0,.42-.06.6-.18,1.42-.9,3.08-.61,3.09-.61.03,0,.06,0,.09,0,1.01.17,1.95.71,2.7,1.56.71.81,1.19,1.84,1.38,2.96h-6.33c-2.52,0-4.56,2.05-4.57,4.56,0,2.52,2.05,4.56,4.57,4.57h0s.17,0,.2,0h4.2c1.49,0,2.64-.41,3.41-1.22.87-.92.9-2.01.89-2.27v-4.32s0-.05,0-.08m-2.25,4.49s-.01.36-.28.64c-.32.34-.93.51-1.76.51h-4.2c-.05,0-.09,0-.2,0-.61,0-1.19-.24-1.62-.67-.43-.43-.67-1.01-.67-1.62s.24-1.19.67-1.62c.43-.43,1.01-.67,1.62-.67h6.44v3.38s0,.04,0,.07m-11.74-8.49c.47-.41.51-1.13.1-1.6-1.36-1.54-3.17-2.39-5.12-2.39s-3.76.85-5.12,2.39c-1.32,1.5-2.05,3.49-2.05,5.6,0,1.1.21,2.18.59,3.18v.02s.11.27.11.27c.05.11.11.22.16.33.02.05.04.1.07.14.02.04.04.07.06.1.39.72.88,1.38,1.45,1.96,0,0,0,0,0,0,.07.08,1.69,1.95,4.96,2.15.02,0,.05,0,.07,0,.01,0,.23,0,.34,0,.93,0,2.33-.17,3.64-1,.53-.33.69-1.03.35-1.56-.33-.53-1.03-.69-1.56-.35-.97.61-2.04.67-2.63.65-.02,0-.1,0-.12,0-1.58-.11-2.65-.78-3.08-1.14,0,0-.01-.02-.02-.02-.62-.54-1.13-1.2-1.51-1.97-.4-.84-.61-1.79-.61-2.76,0-1.55.53-3.01,1.48-4.1.92-1.05,2.14-1.62,3.41-1.62,1.28,0,2.49.58,3.42,1.62.4.45,1.15.5,1.6.1m-11.47-2.86c0-.63-.51-1.14-1.14-1.14h-4.9v-5.72c0-.63-.51-1.14-1.14-1.14s-1.14.51-1.14,1.14v16.94s0,0,0,0v1.18c0,.25.02,1.46.94,2.42.47.49,1.35,1.08,2.86,1.08.63,0,1.13-.51,1.13-1.13s-.51-1.13-1.13-1.13c-.56,0-.97-.12-1.22-.37-.31-.32-.32-.8-.32-.8,0-.02,0-.03,0-.05v-1.12s0-9.03,0-9.03h4.9c.63,0,1.14-.51,1.14-1.14m-10.41,7.66c.21-.21.33-.5.33-.8,0-2.11-.73-4.09-2.05-5.6-1.36-1.54-3.17-2.39-5.12-2.39s-3.78.87-5.12,2.39c-1.32,1.5-2.05,3.49-2.05,5.6,0,1.1.21,2.18.6,3.18v.02s.11.27.11.27c.04.08.08.16.12.24.04.07.07.15.11.22.02.05.05.09.08.14.39.71.87,1.36,1.43,1.93,0,0,0,0,0,.01.06.07,1.42,1.62,4.12,2.06.01,0,.35.06.77.09.02,0,.15,0,.15,0,.07,0,.14,0,.21,0,.93,0,2.33-.17,3.64-1,.53-.33.69-1.04.35-1.57-.34-.53-1.04-.69-1.57-.35-.93.59-1.95.67-2.56.65-.01,0-.03,0-.04,0-1.67-.1-2.68-.78-3.12-1.14,0,0-.02-.02-.03-.03-.62-.54-1.13-1.21-1.51-1.98-.24-.51-.41-1.05-.51-1.62h10.84c.3,0,.59-.12.8-.33m-2.04-1.94h-9.6c.19-1.12.67-2.16,1.38-2.96.92-1.05,2.14-1.62,3.41-1.62,1.28,0,2.49.58,3.42,1.62.71.81,1.19,1.84,1.38,2.96m-13.56,7.89v-6.75c0-2.11-.73-4.1-2.05-5.6-1.36-1.54-3.17-2.39-5.12-2.39-1.84,0-3.57.76-4.9,2.15v-1.02c0-.63-.51-1.13-1.14-1.13s-1.14.51-1.14,1.13v6.86s0,.04,0,.06c0,.02,0,.04,0,.06v6.64c0,.63.51,1.14,1.14,1.14s1.14-.51,1.14-1.14v-6.64s0-.04,0-.06c0-.02,0-.04,0-.06,0-1.56.53-3.01,1.48-4.1.92-1.05,2.14-1.62,3.41-1.62,1.28,0,2.49.58,3.42,1.62.96,1.09,1.49,2.55,1.48,4.1v6.75c0,.63.51,1.13,1.14,1.13s1.14-.51,1.14-1.13"/>
      <path class="cls-11" d="m109.85,48.51c-1.01,0-2.02-.26-2.9-.74-.29-.16-.39-.52-.23-.8.16-.29.52-.39.8-.23.71.39,1.52.59,2.34.59.96,0,1.89-.28,2.68-.8.27-.18.64-.1.82.17.18.27.1.64-.17.82-.99.65-2.14,1-3.33,1"/>
      <path class="cls-10" d="m114.07,46.52c-.13,0-.27-.04-.38-.13-.25-.21-.29-.58-.08-.83.72-.87,1.11-1.97,1.11-3.1,0-.79-.19-1.57-.56-2.26-.15-.29-.04-.65.25-.8.29-.15.65-.04.8.25.45.86.69,1.83.69,2.81,0,1.4-.49,2.77-1.38,3.85-.12.14-.29.21-.46.21"/>
      <path class="cls-13" d="m106.03,46.95c-.15,0-.3-.06-.41-.17-1.18-1.15-1.82-2.69-1.82-4.33,0-3.34,2.72-6.06,6.06-6.06,1.62,0,3.14.63,4.28,1.77.23.23.23.6,0,.84-.23.23-.6.23-.84,0-.92-.92-2.14-1.43-3.45-1.43-2.69,0-4.87,2.19-4.87,4.87,0,1.32.52,2.56,1.47,3.48.23.23.24.6,0,.84-.12.12-.27.18-.42.18"/>
    </g>
    <text class="cls-17" transform="translate(24.89 18.24)"><tspan class="cls-18" x="0" y="0">P</tspan><tspan x="7.51" y="0">ayments by:</tspan></text>
    <g id="Layer_2-2" data-name="Layer 2">
      <polygon class="cls-2" points="149.48 10.24 152.48 10.24 150.46 23.21 147.35 23.21 149.48 10.24"/>
      <path class="cls-8" d="m162.33,10.55l-.47,2.66s-2.94-1.37-4.35-.17c-1.18,1.1,2.24,2.51,2.24,2.51,1.16.66,1.93,1.83,2.07,3.15,0,2-1.17,3.9-4.6,4.15s-4.57-.51-4.57-.51l.36-2.74c1.01.44,2.08.73,3.18.87,1.26,0,2.14-.36,2.33-1s-.47-1.2-1.31-1.59-3.66-1.87-3.27-4.1c.39-2.23,2.89-4.84,8.39-3.23Z"/>
      <path class="cls-9" d="m170.33,23.21h3.08l-2.7-13h-2.7c-.65.15-1.2.59-1.48,1.2-.36,1-4.82,11.77-4.82,11.77h3.15l.86-2.59h4.16c.21.86.36,1.74.45,2.62Zm-3.75-4.75l1.77-4.67s.09-.27.15,0c0,.15.48,2.47.92,4.64l-2.84.03Z"/>
      <circle class="cls-16" cx="174.51" cy="22.05" r=".7"/>
      <path class="cls-4" d="m174.22,22.43v-.75h.29s.09-.01.13,0c.03,0,.06.04.07.07.01.04.01.07,0,.11.01.1-.06.2-.17.21,0,0,0,0-.01,0,.02,0,.03,0,.05,0,.03.03.05.06.07.1l.12.2h-.11l-.09-.15s-.04-.07-.06-.11l-.05-.05h-.13v.33l-.11.04Zm.08-.42h.28l.06-.05s0-.05,0-.07c0-.06-.03-.12-.09-.12-.02,0-.03,0-.05,0h-.17l-.03.24Z"/>
      <path class="cls-14" d="m144.65,10.24h3.15l-5.06,13h-3.49l-3.17-13h2.25s1.26-.16,1.56,1.56,1.23,6.71,1.23,6.71c0,0,0,.41.19.13s3.34-8.4,3.34-8.4Z"/>
      <path class="cls-5" d="m135.89,10.24h2.44s1.26-.16,1.56,1.56c.18,1.08.62,3.45.93,5.07,0,0-1.61-4.47-8-6.63h5.66"/>
    </g>
    <g>
      <path class="cls-12" d="m140.74,60.14c-.11-.12-.25-.22-.41-.27-.16-.07-.34-.1-.52-.1h-.32c-.11,0-.21.04-.31.09-.11.04-.21.1-.3.18-.1.08-.18.18-.25.29-.11-.18-.26-.33-.45-.43-.2-.11-.42-.17-.65-.16h-.26c-.09.02-.18.04-.26.08-.09.04-.17.09-.25.15-.09.07-.16.15-.22.24v-.4h-.69v3.33h.7v-1.82c0-.13.02-.25.07-.37.04-.11.1-.2.18-.28.07-.07.16-.13.26-.17.11-.02.21-.02.32,0,.21-.01.41.07.55.22.14.18.21.41.2.64v1.78h.7v-1.82c0-.24.09-.47.24-.65.08-.07.17-.13.27-.17.11-.02.21-.02.32,0,.21-.01.41.07.55.22.13.19.2.41.19.64v1.78h.71v-2.06c0-.18-.03-.37-.1-.54-.06-.15-.15-.29-.27-.4Z"/>
      <path class="cls-12" d="m144.42,60.25c-.12-.15-.26-.27-.43-.36-.19-.09-.4-.14-.61-.13-.22,0-.45.04-.65.13-.2.09-.38.21-.53.36-.15.16-.27.34-.35.55-.09.22-.13.46-.13.7,0,.24.04.48.13.7.08.21.2.39.35.55.15.16.33.28.53.36.2.09.43.13.65.13.22.02.44-.01.64-.1.17-.09.31-.2.43-.35v.35h.72v-3.29h-.75v.4Zm0,1.67c-.05.12-.12.24-.2.34-.09.09-.2.17-.32.22-.13.06-.27.09-.41.08-.14,0-.29-.03-.42-.08-.12-.06-.22-.13-.31-.23-.08-.1-.15-.22-.2-.34-.04-.13-.07-.27-.07-.41,0-.14.03-.28.07-.41.05-.12.12-.24.2-.34.09-.09.19-.17.31-.23.13-.05.28-.08.42-.08.14,0,.28.03.41.08.12.06.23.13.32.22.08.1.15.22.2.34.09.27.09.57,0,.84h0Z"/>
      <path class="cls-12" d="m148.49,61.5c-.25-.18-.54-.29-.85-.32l-.34-.04h-.21l-.18-.06s-.08-.06-.11-.1c-.01-.05-.01-.09,0-.14,0-.12.06-.23.16-.29.14-.08.3-.12.46-.11.1,0,.21,0,.31,0l.28.07.25.09.18.1.28-.56c-.19-.11-.4-.2-.61-.26-.24-.06-.49-.09-.74-.09-.19,0-.38.03-.57.08-.15.05-.3.12-.43.21-.12.09-.21.2-.27.33-.06.14-.09.29-.09.44-.01.25.09.49.28.65.24.19.53.3.84.33h.34c.15.01.3.06.44.13.09.05.14.14.14.24,0,.12-.08.24-.19.29-.18.08-.37.12-.57.11-.12.01-.24.01-.36,0-.1-.02-.2-.04-.29-.07-.08-.03-.16-.07-.24-.11-.07-.04-.14-.08-.2-.13l-.33.54c.11.09.24.16.37.22.13.06.26.1.39.13l.36.06h.3c.22,0,.43-.03.64-.08.17-.04.34-.12.49-.22.12-.09.22-.21.29-.34.07-.14.1-.29.1-.44.01-.26-.11-.51-.32-.66Z"/>
      <path class="cls-12" d="m155.25,60.24c-.13-.15-.3-.27-.49-.35-.2-.09-.41-.13-.63-.13-.23,0-.46.04-.67.13-.2.08-.37.2-.52.35-.15.16-.27.34-.34.55-.08.23-.12.47-.12.71,0,.25.04.49.12.72.08.2.2.39.35.55.15.15.34.27.54.35.22.08.45.12.68.12.24,0,.49-.03.72-.1.24-.07.45-.2.64-.36l-.36-.52c-.13.11-.29.2-.45.26-.16.06-.33.09-.5.09-.11.02-.23.02-.34,0-.11-.03-.21-.08-.3-.15-.09-.07-.16-.16-.22-.26-.07-.12-.11-.25-.13-.38h2.45v-.27c0-.24-.04-.48-.11-.71-.06-.22-.17-.42-.32-.6Zm-2,1c.02-.11.05-.23.1-.33.05-.1.11-.18.18-.26.07-.07.16-.13.26-.17.11-.04.22-.06.34-.06.21,0,.42.07.57.22.16.16.25.38.27.6h-1.72Z"/>
      <path class="cls-12" d="m164.85,60.25c-.11-.15-.26-.27-.43-.36-.19-.09-.4-.14-.61-.13-.22,0-.45.04-.65.13-.19.09-.37.21-.52.36-.15.16-.28.35-.36.55-.08.22-.12.46-.12.7,0,.24.04.48.12.7.08.2.21.39.36.55.14.16.32.28.52.36.2.09.43.13.65.13.21.02.42-.02.61-.1.17-.08.32-.2.43-.35v.35h.73v-3.29h-.73v.4Zm0,1.67c-.04.13-.11.24-.2.34-.09.09-.19.17-.31.22-.13.06-.27.08-.41.08-.14,0-.29-.03-.42-.08-.24-.11-.42-.32-.51-.57-.05-.13-.07-.27-.07-.41,0-.14.02-.28.07-.41.04-.13.11-.24.2-.34.09-.1.19-.17.31-.23.13-.05.28-.08.42-.08.14,0,.28.03.41.08.11.06.22.13.31.22.09.1.16.21.2.34.11.27.11.57,0,.84h0Z"/>
      <path class="cls-12" d="m151.59,62.5c-.11.04-.23.06-.35.06-.07.01-.13.01-.2,0-.06-.02-.12-.06-.17-.11-.05-.06-.08-.12-.11-.19-.02-.1-.02-.19,0-.29v-1.47h1.16v-.65h-1.2v-1h-.73v1h-.66v.65h.66v1.46c-.04.36.08.73.32,1,.23.22.55.33.87.31.19,0,.39-.03.57-.09.11-.04.21-.09.31-.15l-.25-.6-.22.07Z"/>
      <path class="cls-12" d="m158.11,59.76c-.19,0-.38.04-.55.11-.17.1-.31.24-.41.41v-.43h-.66v3.29h.67v-1.8c0-.13.02-.26.06-.38.03-.11.08-.2.16-.28.07-.08.15-.13.25-.17.1-.04.2-.06.31-.06h.43l.22-.69h-.48Z"/>
      <path class="cls-12" d="m168.15,59.76c-.19,0-.38.04-.55.11-.17.1-.31.24-.41.41v-.43h-.65v3.29h.66v-1.8c0-.13.02-.26.06-.38.03-.1.09-.2.16-.28.07-.08.15-.13.25-.17.1-.04.21-.06.32-.06h.43l.21-.69h-.48Z"/>
      <path class="cls-12" d="m171.53,58.5v1.75c-.12-.15-.26-.27-.43-.36-.19-.09-.4-.14-.61-.13-.22,0-.45.04-.65.13-.2.09-.38.21-.53.36-.15.16-.27.34-.35.55-.09.22-.13.46-.13.7,0,.24.04.48.13.7.08.21.2.39.35.55.15.16.33.28.53.36.2.09.43.13.65.13.21,0,.42-.04.61-.13.17-.09.31-.2.43-.35v.38h.72v-4.64h-.72Zm0,3.42c-.05.12-.12.24-.2.34-.09.09-.2.17-.32.22-.13.06-.27.09-.41.08-.14,0-.29-.03-.42-.08-.12-.06-.22-.13-.31-.23-.08-.1-.15-.22-.2-.34-.04-.13-.07-.27-.07-.41,0-.14.03-.28.07-.41.05-.12.12-.24.2-.34.09-.09.19-.17.31-.23.13-.05.28-.08.42-.08.14,0,.28.03.41.08.12.06.23.13.32.22.08.1.15.22.2.34.09.27.09.57,0,.84h0Z"/>
      <path class="cls-12" d="m159.84,60.74c.09-.1.2-.17.33-.22.13-.05.27-.08.41-.08h0c.15,0,.31.03.45.08.13.05.25.12.35.21l.35-.58c-.13-.11-.28-.2-.44-.26-.23-.09-.47-.13-.71-.13-.24,0-.48.04-.71.13-.21.08-.4.21-.56.37-.16.16-.29.34-.38.55-.17.44-.17.94,0,1.38.09.21.22.39.38.55.16.16.35.29.56.37.23.09.47.13.71.13.24,0,.48-.04.71-.13.16-.06.31-.15.44-.26l-.31-.57c-.1.09-.22.15-.35.2-.14.06-.3.08-.45.08h0c-.14,0-.28-.02-.41-.08-.12-.05-.24-.12-.33-.21-.09-.1-.17-.21-.22-.34-.11-.28-.11-.58,0-.86.04-.12.1-.23.18-.33Z"/>
      <path class="cls-12" d="m173.77,62.67s.09,0,.14,0c.08.03.15.1.18.18.04.08.04.18,0,.26-.03.08-.1.15-.18.18-.09.04-.19.04-.28,0-.09-.02-.17-.07-.21-.15-.04-.08-.04-.18,0-.26.03-.08.1-.15.18-.18.05-.02.11-.03.17-.03Zm0,.58s.07.01.1,0c.02,0,.05,0,.07,0,0-.02,0-.05,0-.07.03-.06.03-.14,0-.2,0-.02,0-.05,0-.07-.02,0-.05,0-.07,0-.03-.01-.07-.01-.1,0-.03-.01-.06-.01-.09,0h-.08c-.05.08-.05.19,0,.27v.07h.08s.06.01.09,0Zm0-.39s.06-.01.09,0c.01.02.01.05,0,.07,0,.02,0,.04,0,.06-.02.01-.04.01-.06,0l.09.11h-.1l-.08-.11h0v.15h-.09v-.3l.15.02Zm-.06.07v.06h.09-.09v-.06Z"/>
      <path class="cls-15" d="m149.29,44.37c0-3.82,1.74-7.43,4.74-9.79-5.4-4.29-13.26-3.38-17.55,2.02-4.29,5.4-3.38,13.26,2.02,17.55,4.55,3.61,10.98,3.61,15.52,0-3-2.36-4.74-5.97-4.74-9.78Z"/>
      <ellipse class="cls-3" cx="154.03" cy="44.37" rx="4.74" ry="9.79"/>
      <path class="cls-6" d="m161.77,31.89c-2.81,0-5.54.94-7.74,2.69,5.4,4.27,6.32,12.11,2.05,17.52-.6.76-1.29,1.45-2.05,2.05,5.4,4.28,13.25,3.37,17.53-2.03,4.28-5.4,3.37-13.25-2.03-17.53-2.21-1.75-4.95-2.7-7.77-2.7Z"/>
    </g>
  </g>
</svg>