<?xml version="1.0" encoding="UTF-8"?>
<svg xmlns="http://www.w3.org/2000/svg" xmlns:xlink="http://www.w3.org/1999/xlink" viewBox="0 0 155.16 171.64">
  <defs>
    <style>
      .cls-1 {
        fill: #a0ec00;
      }

      .cls-1, .cls-2, .cls-3, .cls-4, .cls-5, .cls-6, .cls-7, .cls-8, .cls-9, .cls-10, .cls-11, .cls-12, .cls-13, .cls-14, .cls-15, .cls-16, .cls-17, .cls-18, .cls-19, .cls-20, .cls-21 {
        stroke-width: 0px;
      }

      .cls-2, .cls-16 {
        fill: #002751;
      }

      .cls-3 {
        fill: #dad9d8;
      }

      .cls-22 {
        fill: none;
        stroke: #2b3894;
        stroke-width: .26px;
      }

      .cls-4 {
        fill: url(#linear-gradient);
      }

      .cls-23 {
        font-family: Roboto-Regular, Roboto;
        font-size: 12px;
      }

      .cls-23, .cls-18 {
        fill: blue;
      }

      .cls-5 {
        fill: #ea610a;
      }

      .cls-7 {
        fill: #2b3894;
      }

      .cls-8 {
        fill: #a7a7a7;
      }

      .cls-9 {
        fill: url(#linear-gradient-5);
      }

      .cls-10 {
        fill: #f59e00;
      }

      .cls-24 {
        letter-spacing: 0em;
      }

      .cls-11 {
        fill: #fff;
      }

      .cls-12 {
        fill: url(#linear-gradient-2);
      }

      .cls-13 {
        fill: url(#linear-gradient-3);
      }

      .cls-14 {
        fill: #e54a94;
      }

      .cls-15 {
        fill: #05b0a8;
      }

      .cls-16 {
        isolation: isolate;
        opacity: .5;
      }

      .cls-17 {
        fill: #1d1d1b;
      }

      .cls-19 {
        fill: url(#linear-gradient-4);
      }

      .cls-20 {
        fill: #e20d17;
      }

      .cls-21 {
        fill: #cbaeff;
      }
    </style>
    <linearGradient id="linear-gradient" x1="104.75" y1="-1281.83" x2="104.75" y2="-1303.63" gradientTransform="translate(0 -1218.7) scale(1 -1)" gradientUnits="userSpaceOnUse">
      <stop offset="0" stop-color="#2b3894"/>
      <stop offset="1" stop-color="#293681"/>
    </linearGradient>
    <linearGradient id="linear-gradient-2" x1="115.97" y1="-1281.9" x2="115.97" y2="-1303.09" xlink:href="#linear-gradient"/>
    <linearGradient id="linear-gradient-3" x1="130.87" y1="-1281.83" x2="130.87" y2="-1303.63" xlink:href="#linear-gradient"/>
    <linearGradient id="linear-gradient-4" x1="92.95" y1="-1281.83" x2="92.95" y2="-1303.63" xlink:href="#linear-gradient"/>
    <linearGradient id="linear-gradient-5" x1="86.13" y1="-1293.94" x2="84.41" y2="-1282.45" gradientTransform="translate(0 -1218.7) scale(1 -1)" gradientUnits="userSpaceOnUse">
      <stop offset="0" stop-color="#f78610"/>
      <stop offset="1" stop-color="#f79510"/>
    </linearGradient>
  </defs>
  <g id="Layer_2" data-name="Layer 2">
    <rect class="cls-3" x="-567.65" y="-312.5" width="927.32" height="498.37"/>
    <rect class="cls-11" x="-1.27" y=".14" width="156.43" height="171.5"/>
  </g>
  <g id="katman_1" data-name="katman 1">
    <g>
      <path class="cls-1" d="m128.41,122.43v-7.02h-11.72c6.86,0,9.77,3.87,11.72,7.02Z"/>
      <path class="cls-1" d="m98.66,130.88v11.66l6.17-.51c.81,6.99,6.6,7.76,8.81,7.76s8.46-.36,8.69-5.32-7.95-5.19-15.26-7.45c-4.97-1.53-7.42-4.45-8.41-6.15Z"/>
      <path class="cls-1" d="m128.41,136.76v-9.49l-7.42.36c-.52-5.5-5.55-5.86-7.01-5.9s-8,.18-7.76,3.83,4.17,3.86,12.71,6.1c5.81,1.53,8.01,3.8,9.47,5.1Z"/>
      <path class="cls-1" d="m119.7,156.37h8.71v-5.31c-2.44,3.28-6.56,4.82-8.71,5.31Z"/>
      <path class="cls-1" d="m110.65,115.41h-11.99v6.26c2.74-3.92,7.21-6.26,11.99-6.26Z"/>
      <path class="cls-1" d="m98.66,150.02v6.35h12.24c-6.75-.49-10.78-3.28-12.24-6.35Z"/>
      <path class="cls-8" d="m101.56,161.93l.53.14c-.09.38-.29.73-.6.98-.3.23-.67.35-1.05.34-.37.02-.73-.08-1.04-.26-.27-.19-.48-.45-.6-.76-.14-.34-.21-.7-.21-1.06,0-.37.07-.74.23-1.08.15-.29.38-.54.67-.7.29-.16.63-.24.96-.24.36-.01.71.09,1,.3.28.21.48.51.57.85l-.52.13c-.06-.25-.2-.47-.4-.63-.19-.14-.43-.21-.66-.2-.27,0-.54.07-.76.22-.2.15-.36.36-.43.6-.18.53-.18,1.11,0,1.65.08.23.25.43.46.56.2.12.43.19.67.18.27,0,.54-.08.75-.25.23-.2.38-.48.42-.78Z"/>
      <path class="cls-8" d="m107.05,161.39c-.03-.56.16-1.12.53-1.54.35-.37.85-.57,1.37-.55.35,0,.69.08.99.26.29.17.52.42.67.73.16.33.24.7.23,1.07,0,.37-.08.74-.24,1.07-.15.31-.39.56-.69.72-.29.16-.62.25-.96.24-.35,0-.7-.09-1-.27-.29-.18-.52-.43-.67-.74-.15-.31-.23-.65-.23-1Zm.54,0c-.02.42.13.83.42,1.14.25.27.6.42.97.41.37.01.73-.14.97-.42.28-.33.42-.76.39-1.19,0-.29-.05-.58-.17-.85-.1-.23-.27-.42-.48-.55-.21-.14-.46-.21-.71-.2-.36,0-.7.13-.95.38-.32.35-.47.82-.44,1.29h0Z"/>
      <path class="cls-8" d="m116.31,163.32v-3.97h1.36c.24,0,.48.02.71.06.22.04.42.14.6.28.21.18.37.42.47.68.19.56.21,1.17.05,1.74-.05.21-.15.41-.27.6-.1.14-.22.26-.36.36-.14.1-.3.16-.47.2-.21.05-.42.07-.64.07l-1.44-.02Zm.53-.47h.85c.2,0,.4-.02.6-.07.13-.04.25-.11.35-.21.14-.14.24-.31.29-.5.07-.25.11-.51.1-.76.02-.33-.05-.66-.2-.95-.11-.2-.29-.36-.5-.45-.22-.05-.44-.07-.66-.05h-.83v3Z"/>
      <path class="cls-8" d="m125.38,163.32v-3.97h2.86v.5h-2.34v1.19h2.2v.47h-2.2v1.32h2.43v.47l-2.95.02Z"/>
      <path class="cls-6" d="m129.32,159.4v-.8h.31s.09,0,.14,0c.04.01.06.04.08.08.07.1.04.23-.06.3-.03.02-.07.03-.11.04l.06.04.08.11.12.21h-.12l-.09-.12-.07-.11-.05-.05h-.2v.35l-.1-.05Zm.1-.44h.2s.06,0,.1,0c.02,0,.04-.03.05-.05,0-.02,0-.05,0-.07,0-.04-.01-.07-.04-.1-.03-.03-.07-.04-.11-.04h-.21l.02.25Z"/>
    </g>
    <g>
      <path class="cls-20" d="m37.87,131.75c0-4.7,2.15-9.15,5.84-12.06-6.66-5.28-16.34-4.17-21.62,2.49-5.28,6.66-4.17,16.34,2.49,21.62,5.6,4.44,13.53,4.44,19.13,0-3.69-2.91-5.85-7.35-5.84-12.05Z"/>
      <ellipse class="cls-5" cx="43.71" cy="131.75" rx="5.84" ry="12.06"/>
      <path class="cls-10" d="m53.25,116.37c-3.46,0-6.82,1.16-9.54,3.31,6.66,5.26,7.79,14.92,2.53,21.58-.74.94-1.59,1.79-2.53,2.53,6.66,5.28,16.33,4.16,21.6-2.5,5.28-6.66,4.16-16.33-2.5-21.6-2.72-2.16-6.09-3.33-9.57-3.33Z"/>
      <g>
        <path class="cls-6" d="m51.72,150.58c-.69-.16-1.32-.06-1.82.49-.06-.08-.02-.17-.03-.25-.01-.06.03-.14-.04-.19h0s0,0,0,0c-.02-.03-.05-.04-.08-.04-.26,0-.51,0-.77,0-.03,0-.06,0-.07.04h0s0,.09,0,.13c0,1.84,0,3.69,0,5.53,0,.04,0,.09,0,.13,0,.02.02.03.04.03h.88c.07-.04.04-.11.04-.16,0-.54,0-1.09,0-1.63,0-.06-.03-.14.03-.19,0,0,0,0,0,0,.27.29.59.48.99.52.08.05.16.04.24.03,0,0,0,0,0,0,0,0,0,0,0,0,.06,0,.12,0,.18,0,.08.01.16,0,.23-.03,0,0,0,0,0,0,.5-.07.93-.29,1.25-.68.59-.71.7-1.51.41-2.37-.24-.71-.74-1.18-1.48-1.36Zm.49,2.89c-.24.47-.75.72-1.3.66-.53-.06-.95-.44-1.08-.97-.03-.13-.05-.27-.05-.4.01-.48.18-.89.6-1.16.57-.37,1.67-.27,1.94.79.1.38.06.75-.12,1.09Z"/>
        <path class="cls-6" d="m42.31,150.52c-.92.03-1.66.6-1.92,1.48-.12.39-.13.8-.08,1.2.12.86.71,1.53,1.56,1.74.48.12.95.09,1.42-.03.31-.08.59-.23.85-.42.07-.06.09-.1.03-.18-.11-.15-.21-.32-.32-.47-.03-.04-.04-.09-.1-.1-.27.21-.58.35-.92.4-.33.05-.65.04-.96-.11-.37-.18-.56-.49-.63-.89.08-.03.15-.01.22-.01.91,0,1.82,0,2.73,0,.04,0,.09,0,.13,0,.08,0,.11-.02.11-.1,0-.26,0-.53-.04-.79-.2-1.09-1.01-1.76-2.1-1.72Zm.49.91c.4.14.59.46.66.86h0c-.01.07-.06.08-.12.08-.64,0-1.27,0-1.91,0-.09,0-.11-.05-.12-.12.18-.84.95-1.01,1.49-.82Z"/>
        <path class="cls-6" d="m67.03,152.61c-.15-.08-.3-.14-.46-.18-.28-.08-.57-.1-.85-.15-.18-.03-.35-.05-.52-.12-.24-.12-.28-.39-.1-.58.1-.1.22-.15.36-.18.16-.04.33-.04.5-.03.06.03.13.04.2.03,0,0,0,0,0,0,0,0,0,0,0,0,.35.04.67.17.99.33.07-.14.14-.26.21-.38.06-.12.13-.25.19-.37-.35-.24-.84-.4-1.35-.43-.24-.05-.48-.06-.72,0h0s0,0,0,0c-.43.04-.82.16-1.13.48-.56.57-.42,1.5.28,1.88.16.09.34.15.52.19.29.07.58.09.87.14.16.03.33.06.47.14.23.13.26.38.08.57-.06.06-.13.11-.21.14-.11.04-.22.07-.34.08-.2,0-.41,0-.61,0,0,0,0,0,0,0-.41-.03-.78-.18-1.12-.42-.12.2-.24.4-.36.59-.08.14-.08.14.05.22.44.28.92.42,1.44.46.2.05.4.05.6,0h0c.11-.02.22-.02.33-.05.38-.08.73-.22,1-.51.45-.47.49-1.45-.3-1.85Z"/>
        <path class="cls-6" d="m62.73,152.73c-.13-.1-.28-.17-.44-.23-.25-.09-.52-.13-.79-.17-.23-.03-.46-.05-.68-.12-.13-.04-.25-.1-.3-.24,0-.08,0-.15,0-.23.07-.2.25-.28.44-.33.2-.05.41-.05.62-.02.38.05.73.16,1.07.35.13-.25.27-.5.4-.75-.42-.27-.87-.39-1.35-.43-.25-.06-.5-.06-.75,0h0s0,0,0,0c-.36.04-.69.15-.99.37-.58.44-.7,1.57.18,2,.12.06.23.11.36.14.25.08.52.11.78.15.22.03.44.05.64.15.13.06.24.14.25.29.01.17-.06.3-.2.38-.14.09-.29.13-.45.14-.21,0-.43,0-.64,0,0,0,0,0,0,0,0,0,0,0,0,0-.4-.04-.76-.18-1.1-.42-.15.25-.29.48-.44.73.48.35,1.01.51,1.58.55.18.05.35.05.53,0h0s0,0,0,0c.38-.02.75-.11,1.08-.31.33-.2.55-.49.61-.88.05-.14.05-.27,0-.41-.04-.29-.19-.53-.43-.7Z"/>
        <path class="cls-6" d="m34.82,152.55c-.3-.13-.61-.19-.92-.23-.05-.04-.1-.04-.16-.03,0,0,0,0,0,0,0,0,0,0,0,0-.21-.02-.42-.04-.61-.13-.27-.11-.32-.4-.11-.61.09-.08.19-.13.31-.16.24-.06.48-.05.71-.02.32.04.62.14.91.29.05.02.09.05.12-.01.12-.23.25-.46.37-.7-.42-.26-.85-.39-1.32-.42-.09-.04-.18-.03-.28-.03,0,0,0,0,0,0,0,0,0,0,0,0-.09,0-.19,0-.28,0-.08,0-.16-.01-.24.03,0,0,0,0,0,0-.25.01-.48.08-.7.19-.38.19-.63.48-.69.91,0,0,0,0,0,0h0c-.05.15-.05.3,0,.46.03.25.15.45.34.61.15.14.33.23.53.3.31.11.63.14.96.19.21.03.42.06.6.15.26.13.3.42.07.62-.06.05-.12.08-.19.11-.12.05-.25.07-.38.08-.18,0-.35,0-.53,0,0,0,0,0,0,0-.42-.04-.81-.18-1.16-.43-.14.23-.26.44-.39.64-.05.07-.02.11.04.15.14.09.28.17.44.24.56.24,1.14.3,1.73.24.38-.04.74-.15,1.06-.38.66-.47.75-1.65-.23-2.07Z"/>
        <path class="cls-6" d="m39.47,154.01c-.04-.11-.04-.11-.15-.06-.25.12-.5.2-.78.18-.23-.01-.41-.11-.5-.34-.03-.09-.05-.18-.05-.27,0-.67,0-1.34,0-2.01.44,0,.88,0,1.32,0,.06,0,.14.03.19-.04h0s.04-.03.04-.06c0-.24,0-.49,0-.73,0-.03-.01-.05-.04-.05h0c-.45,0-.91,0-1.36,0-.15,0-.15,0-.15-.15,0-.38,0-.76,0-1.14h0s0,0,0,0c-.01-.04-.04-.04-.07-.04-.27,0-.53,0-.8,0-.03,0-.06,0-.07.04h0c0,.07,0,.13,0,.2,0,.36,0,.72,0,1.08-.25,0-.49,0-.74,0-.09,0-.12.03-.11.12,0,.21,0,.42,0,.62,0,.11.04.12.13.12.24,0,.48,0,.72,0,0,.07,0,.13,0,.2,0,.57,0,1.14,0,1.7,0,.1-.02.21.03.31,0,.17.04.34.09.5.13.39.39.64.79.75.28.08.57.09.86.06.28-.03.55-.11.8-.25.08-.04.1-.09.07-.18-.07-.19-.13-.38-.2-.57Z"/>
        <path class="cls-6" d="m46.39,151.06c-.06-.08-.02-.18-.03-.27,0-.06.03-.12-.04-.16h0c-.29,0-.59-.01-.88,0-.08.04-.04.12-.04.18,0,1.31,0,2.62,0,3.93,0,.06,0,.11,0,.17h0s0,0,0,0h0s0,0,0,0c.01.03.04.04.07.04.27,0,.53,0,.8,0,.03,0,.06,0,.07-.04h0c0-.29,0-.59,0-.88,0-.58,0-1.16,0-1.74,0,0,0,0,0,0h0c.02-.09.03-.18.05-.27.1-.32.3-.53.64-.58.15,0,.31,0,.46,0,0,0,0,0,0,0,.09,0,.17.03.25.06.05.02.08.02.1-.03.09-.27.18-.54.26-.81-.65-.24-1.34-.15-1.74.42Z"/>
        <path class="cls-6" d="m30.82,150.63h0c-.28,0-.55,0-.83,0-.07,0-.1.02-.09.09,0,.12,0,.25,0,.38-.02,0-.03.01-.05.02-.03-.04-.06-.09-.1-.13-.19-.19-.42-.32-.67-.39-.8-.23-1.7.07-2.21.73-.36.46-.49.99-.47,1.57.05,1.23.99,2.19,2.27,2.12.43-.02.81-.17,1.12-.49.03-.03.04-.08.12-.07v.45s.04.04.08.04c.26,0,.51,0,.77,0,.03,0,.06,0,.07-.04h0c.05-.03.04-.09.04-.13,0-.18,0-.36,0-.53,0-1.13,0-2.27,0-3.4,0-.07.03-.15-.04-.2Zm-1.3,3.19c-.57.54-1.84.46-2.11-.67-.12-.49-.04-.95.3-1.33.35-.4.81-.5,1.31-.37.48.13.77.47.89.94.03.13.05.25.04.33,0,.46-.13.81-.43,1.1Z"/>
        <path class="cls-6" d="m58.43,150.63s0,0,0,0c-.27,0-.54,0-.81,0-.08,0-.11.03-.11.11,0,.12,0,.24,0,.4-.25-.28-.51-.46-.82-.54-.43-.11-.86-.1-1.27.06-.85.33-1.28.97-1.39,1.86-.05.17-.05.35,0,.52.13,1.24,1.07,2.06,2.29,1.99.43-.02.8-.18,1.1-.5.02-.02.04-.07.1-.06v.44h0s.04.04.07.04c.27,0,.53,0,.8,0,.03,0,.06,0,.07-.04h0c0-.07,0-.13,0-.2,0-.76,0-1.51,0-2.27,0-.55,0-1.09,0-1.64,0-.05.04-.12-.04-.16Zm-1.85,3.47c-.85.18-1.49-.34-1.58-1.13-.03-.24-.01-.48.07-.71.19-.55.65-.87,1.25-.87.56,0,1.02.36,1.19.9.02.06.03.13.04.2,0,.17,0,.35,0,.52-.09.57-.44.97-.97,1.08Z"/>
        <path class="cls-6" d="m25.56,151.99c-.05-.71-.49-1.23-1.18-1.41-.22-.06-.45-.07-.68-.06-.46.03-.86.2-1.17.55-.05.06-.1.12-.16.2-.31-.47-.73-.71-1.28-.75-.55-.04-1.01.12-1.37.57-.01-.13-.02-.25-.01-.37,0-.08-.03-.11-.11-.11-.27,0-.54,0-.81,0h0c-.08.04-.04.11-.04.16,0,1.33,0,2.65,0,3.98,0,.04,0,.09,0,.13.01.03.04.04.07.04.27,0,.53,0,.8,0,.03,0,.06,0,.07-.04h0c0-.76,0-1.52,0-2.28,0-.09,0-.17,0-.26.04-.5.32-.84.77-.93.57-.12,1.11.09,1.18.85,0,.1,0,.19,0,.29,0,.71,0,1.43,0,2.14,0,.06-.04.13.03.19h0s0,0,0,0c.02.03.05.03.08.03.26,0,.51,0,.77,0,.03,0,.06,0,.07-.04h0c.06-.05.04-.12.04-.19,0-.58,0-1.16,0-1.73,0-.23,0-.47,0-.7.06-.54.45-.87,1-.88.52,0,.83.25.93.76.03.14.03.28.03.42,0,.77,0,1.55,0,2.32h0s.04.04.07.04c.27,0,.53,0,.8,0,.03,0,.06,0,.07-.04h0s0-.05,0-.07c0-.89,0-1.78,0-2.67,0-.06,0-.12-.03-.18Z"/>
        <path class="cls-6" d="m68.58,154.73s0-.05-.03-.06c-.04-.02-.05.01-.07.04-.02.02-.01.06-.04.07-.06-.02-.04-.14-.13-.1-.07.03-.02.11-.03.17,0,.01,0,.02,0,.04,0,.03.04.04.05.03.08-.08.16,0,.24,0,0-.05,0-.11,0-.16Z"/>
        <path class="cls-6" d="m68.04,154.67c0,.06.08.06.07.12,0,.04-.02.1.07.12.02-.08-.02-.18.08-.24-.08,0-.15-.04-.21,0Z"/>
      </g>
    </g>
    <g>
      <path class="cls-18" d="m123.81,25.87v2.53s0,.04,0,.04v2.45c0,.33.27.59.59.59s.59-.27.59-.59v-2.45s0-.02,0-.01v-.03c0-.53.18-1.02.5-1.39.31-.35.71-.54,1.13-.54.42,0,.82.19,1.13.54.32.37.5.86.5,1.39v2.48c0,.33.27.59.59.59s.59-.27.59-.59v-2.48c0-.82-.28-1.59-.8-2.18-.53-.61-1.25-.94-2.02-.94-.59,0-1.16.2-1.63.57,0-.32-.27-.57-.59-.57s-.59.27-.59.59"/>
      <path class="cls-18" d="m119.31,45.86v-6.86c0-2.11-.73-4.09-2.05-5.6-1.36-1.54-3.17-2.39-5.12-2.39-1.84,0-3.57.76-4.9,2.15v-7.87c0-.63-.51-1.14-1.14-1.14s-1.14.51-1.14,1.14v13.06s0,.02,0,.03v7.36c0,.63.51,1.14,1.14,1.14s1.14-.51,1.14-1.14v-6.9c.04-1.49.55-2.89,1.48-3.93.93-1.05,2.14-1.62,3.42-1.62,1.28,0,2.49.58,3.42,1.62.96,1.09,1.48,2.54,1.48,4.1v6.86c0,.63.51,1.14,1.14,1.14s1.14-.51,1.14-1.14m-15.85-2.61c.09-.37.12-.79.1-1.13,0,0,0-.13,0-.18,0-.05-.01-.09-.01-.09-.26-2.31-2.21-4.05-4.54-4.05h-4.85c-.61,0-1.19-.24-1.62-.67-.43-.43-.67-1.01-.67-1.62,0-.61.24-1.19.67-1.62.43-.43,1.01-.67,1.62-.67h7.19c.63,0,1.14-.51,1.14-1.14s-.51-1.14-1.14-1.14h-7.19c-2.52,0-4.57,2.05-4.57,4.56s2.05,4.56,4.57,4.56h4.85c.61,0,1.19.24,1.62.67.34.34.57.78.64,1.25,0,.02.02.12.03.34,0,.12,0,.25-.04.39-.1.42-.32.75-.32.75-.02.03-.02.02-.04.06-.03.04-.71,1.04-2.8,1.04-.03,0-.15,0-.18,0h-6.56c-.62,0-1.13.51-1.13,1.13s.51,1.13,1.13,1.13h6.56s.14,0,.18,0c3.22,0,4.48-1.73,4.71-2.1.11-.16.46-.73.64-1.49m-14.96-4.31s0-.06,0-.09c0-2.11-.73-4.1-2.05-5.6-1.36-1.54-3.17-2.39-5.12-2.39-.08,0-.16,0-.24.03-.93.02-2.22.23-3.44,1-.53.33-.69,1.03-.35,1.56.22.34.58.53.96.53.21,0,.42-.06.6-.18,1.42-.9,3.08-.61,3.09-.61.03,0,.06,0,.09,0,1.01.17,1.95.71,2.7,1.56.71.81,1.19,1.84,1.38,2.96h-6.33c-2.52,0-4.56,2.05-4.57,4.56,0,2.52,2.05,4.56,4.57,4.57h0s.17,0,.2,0h4.2c1.49,0,2.64-.41,3.41-1.22.87-.92.9-2.01.89-2.27v-4.32s0-.05,0-.08m-2.25,4.49s-.01.36-.28.64c-.32.34-.93.51-1.76.51h-4.2c-.05,0-.09,0-.2,0-.61,0-1.19-.24-1.62-.67-.43-.43-.67-1.01-.67-1.62s.24-1.19.67-1.62c.43-.43,1.01-.67,1.62-.67h6.44v3.38s0,.04,0,.07m-11.74-8.49c.47-.41.51-1.13.1-1.6-1.36-1.54-3.17-2.39-5.12-2.39s-3.76.85-5.12,2.39c-1.32,1.5-2.05,3.49-2.05,5.6,0,1.1.21,2.18.59,3.18v.02s.11.27.11.27c.05.11.11.22.16.33.02.05.04.1.07.14.02.04.04.07.06.1.39.72.88,1.38,1.45,1.96,0,0,0,0,0,0,.07.08,1.69,1.95,4.96,2.15.02,0,.05,0,.07,0,.01,0,.23,0,.34,0,.93,0,2.33-.17,3.64-1,.53-.33.69-1.03.35-1.56-.33-.53-1.03-.69-1.56-.35-.97.61-2.04.67-2.63.65-.02,0-.1,0-.12,0-1.58-.11-2.65-.78-3.08-1.14,0,0-.01-.02-.02-.02-.62-.54-1.13-1.2-1.51-1.97-.4-.84-.61-1.79-.61-2.76,0-1.55.53-3.01,1.48-4.1.92-1.05,2.14-1.62,3.41-1.62,1.28,0,2.49.58,3.42,1.62.4.45,1.15.5,1.6.1m-11.47-2.86c0-.63-.51-1.14-1.14-1.14h-4.9v-5.72c0-.63-.51-1.14-1.14-1.14s-1.14.51-1.14,1.14v16.94s0,0,0,0v1.18c0,.25.02,1.46.94,2.42.47.49,1.35,1.08,2.86,1.08.63,0,1.13-.51,1.13-1.13s-.51-1.13-1.13-1.13c-.56,0-.97-.12-1.22-.37-.31-.32-.32-.8-.32-.8,0-.02,0-.03,0-.05v-1.12s0-9.03,0-9.03h4.9c.63,0,1.14-.51,1.14-1.14m-10.41,7.66c.21-.21.33-.5.33-.8,0-2.11-.73-4.09-2.05-5.6-1.36-1.54-3.17-2.39-5.12-2.39s-3.78.87-5.12,2.39c-1.32,1.5-2.05,3.49-2.05,5.6,0,1.1.21,2.18.6,3.18v.02s.11.27.11.27c.04.08.08.16.12.24.04.07.07.15.11.22.02.05.05.09.08.14.39.71.87,1.36,1.43,1.93,0,0,0,0,0,.01.06.07,1.42,1.62,4.12,2.06.01,0,.35.06.77.09.02,0,.15,0,.15,0,.07,0,.14,0,.21,0,.93,0,2.33-.17,3.64-1,.53-.33.69-1.04.35-1.57-.34-.53-1.04-.69-1.57-.35-.93.59-1.95.67-2.56.65-.01,0-.03,0-.04,0-1.67-.1-2.68-.78-3.12-1.14,0,0-.02-.02-.03-.03-.62-.54-1.13-1.21-1.51-1.98-.24-.51-.41-1.05-.51-1.62h10.84c.3,0,.59-.12.8-.33m-2.04-1.94h-9.6c.19-1.12.67-2.16,1.38-2.96.92-1.05,2.14-1.62,3.41-1.62,1.28,0,2.49.58,3.42,1.62.71.81,1.19,1.84,1.38,2.96m-13.56,7.89v-6.75c0-2.11-.73-4.1-2.05-5.6-1.36-1.54-3.17-2.39-5.12-2.39-1.84,0-3.57.76-4.9,2.15v-1.02c0-.63-.51-1.13-1.14-1.13s-1.14.51-1.14,1.13v6.86s0,.04,0,.06c0,.02,0,.04,0,.06v6.64c0,.63.51,1.14,1.14,1.14s1.14-.51,1.14-1.14v-6.64s0-.04,0-.06c0-.02,0-.04,0-.06,0-1.56.53-3.01,1.48-4.1.92-1.05,2.14-1.62,3.41-1.62,1.28,0,2.49.58,3.42,1.62.96,1.09,1.49,2.55,1.48,4.1v6.75c0,.63.51,1.13,1.14,1.13s1.14-.51,1.14-1.13"/>
      <path class="cls-15" d="m126.43,34.36c-1.01,0-2.02-.26-2.9-.74-.29-.16-.39-.52-.23-.8.16-.29.52-.39.8-.23.71.39,1.52.59,2.34.59.96,0,1.89-.28,2.68-.8.27-.18.64-.1.82.17.18.27.1.64-.17.82-.99.65-2.14,1-3.33,1"/>
      <path class="cls-14" d="m130.64,32.37c-.13,0-.27-.04-.38-.13-.25-.21-.29-.58-.08-.83.72-.87,1.11-1.97,1.11-3.1,0-.79-.19-1.57-.56-2.26-.15-.29-.04-.65.25-.8.29-.15.65-.04.8.25.45.86.69,1.83.69,2.81,0,1.4-.49,2.77-1.38,3.85-.12.14-.29.21-.46.21"/>
      <path class="cls-18" d="m122.61,32.8c-.15,0-.3-.06-.41-.17-1.18-1.15-1.82-2.69-1.82-4.33,0-3.34,2.72-6.06,6.06-6.06,1.62,0,3.14.63,4.28,1.77.23.23.23.6,0,.84-.23.23-.6.23-.84,0-.92-.92-2.14-1.43-3.45-1.43-2.69,0-4.87,2.19-4.87,4.87,0,1.32.52,2.56,1.47,3.48.23.23.24.6,0,.84-.12.12-.27.18-.42.18"/>
    </g>
    <text class="cls-23" transform="translate(41.15 18.24)"><tspan class="cls-24" x="0" y="0">P</tspan><tspan x="7.51" y="0">ayments by:</tspan></text>
    <g id="Layer_2-2" data-name="Layer 2">
      <polygon class="cls-4" points="104.11 65.25 108.55 65.25 105.56 84.45 100.96 84.45 104.11 65.25"/>
      <path class="cls-12" d="m123.13,65.71l-.7,3.94s-4.35-2.03-6.44-.25c-1.75,1.63,3.32,3.72,3.32,3.72,1.71.97,2.85,2.71,3.06,4.66,0,2.96-1.73,5.77-6.81,6.14-5.08.37-6.76-.75-6.76-.75l.53-4.06c1.5.65,3.08,1.09,4.71,1.29,1.87,0,3.17-.53,3.45-1.48.28-.95-.7-1.78-1.94-2.35s-5.42-2.77-4.84-6.07c.58-3.3,4.28-7.16,12.42-4.78Z"/>
      <path class="cls-13" d="m134.97,84.45h4.56l-4-19.24h-4c-.97.22-1.78.88-2.19,1.78-.53,1.48-7.13,17.42-7.13,17.42h4.66l1.27-3.83h6.16c.31,1.28.53,2.57.67,3.88Zm-5.55-7.03l2.62-6.91s.13-.4.22,0c0,.22.71,3.66,1.36,6.87l-4.2.04Z"/>
      <circle class="cls-22" cx="141.16" cy="82.73" r="1.04"/>
      <path class="cls-7" d="m140.73,83.29v-1.11h.43c.06-.02.13-.02.19,0,.05.01.09.05.1.1.02.05.02.11,0,.16.02.15-.1.29-.25.31,0,0-.01,0-.02,0,.02,0,.05,0,.07,0,.04.04.08.09.1.15l.18.3h-.16l-.13-.22c-.03-.05-.06-.11-.09-.16l-.07-.07h-.19v.49l-.16.06Zm.12-.62h.41l.09-.07s0-.07,0-.1c.01-.09-.05-.17-.14-.18-.02,0-.05,0-.07,0h-.25l-.04.36Z"/>
      <path class="cls-19" d="m96.96,65.25h4.66l-7.49,19.24h-5.17l-4.69-19.24h3.33s1.87-.24,2.31,2.31,1.82,9.93,1.82,9.93c0,0,0,.61.28.19s4.94-12.43,4.94-12.43Z"/>
      <path class="cls-9" d="m83.99,65.25h3.61s1.87-.24,2.31,2.31c.27,1.6.92,5.11,1.38,7.5,0,0-2.38-6.62-11.84-9.81h8.38"/>
    </g>
    <g>
      <path class="cls-17" d="m26.74,98.04c-.14-.16-.32-.28-.52-.34-.21-.09-.44-.13-.66-.13h-.41c-.14.01-.27.05-.4.11-.14.05-.27.13-.38.23-.13.11-.23.23-.32.37-.14-.23-.34-.42-.57-.55-.25-.14-.54-.21-.83-.2h-.33c-.11.02-.23.06-.33.1-.11.05-.22.12-.32.19-.11.09-.2.19-.28.31v-.51h-.88v4.25h.89v-2.32c0-.16.03-.32.09-.47.05-.13.13-.26.23-.36.1-.09.21-.17.33-.22.14-.02.27-.02.41,0,.26-.02.52.08.7.28.18.23.27.52.26.82v2.27h.89v-2.32c0-.3.11-.6.31-.83.1-.09.22-.16.34-.22.14-.02.27-.02.41,0,.26-.02.52.09.7.28.17.24.26.53.24.82v2.27h.91v-2.63c0-.24-.04-.47-.13-.69-.07-.2-.19-.37-.34-.51Z"/>
      <path class="cls-17" d="m31.44,98.18c-.15-.19-.34-.35-.55-.46-.24-.12-.51-.17-.78-.17-.29,0-.57.05-.83.17-.25.11-.48.27-.68.46-.2.2-.35.44-.45.7-.11.28-.17.59-.17.89,0,.31.05.61.17.89.1.26.25.5.45.7.19.2.42.36.68.46.26.11.54.17.83.17.28.03.56-.02.82-.13.21-.11.4-.26.55-.45v.45h.92v-4.2h-.96v.51Zm0,2.13c-.06.16-.15.3-.26.43-.12.12-.26.21-.41.28-.16.07-.34.11-.52.1-.18,0-.37-.04-.54-.1-.15-.07-.28-.17-.4-.29-.11-.13-.19-.28-.26-.43-.06-.17-.09-.35-.09-.52,0-.18.03-.35.09-.52.06-.16.15-.3.26-.43.12-.12.25-.22.4-.29.17-.07.35-.1.54-.1.18,0,.36.03.52.1.15.07.29.17.41.28.11.13.19.28.26.43.12.35.12.73,0,1.07h0Z"/>
      <path class="cls-17" d="m36.64,99.77c-.32-.23-.69-.37-1.09-.41l-.43-.05h-.27l-.23-.08c-.05-.04-.1-.08-.14-.13-.02-.06-.02-.12,0-.18,0-.15.07-.29.2-.37.18-.1.38-.15.59-.14.13-.01.26-.01.4,0l.36.09.32.11.23.13.36-.72c-.24-.14-.51-.25-.78-.33-.31-.08-.63-.12-.95-.11-.25,0-.49.03-.73.1-.2.06-.38.15-.55.27-.15.11-.27.25-.34.42-.08.18-.12.37-.11.56-.01.32.12.62.36.83.31.24.68.38,1.07.42h.43c.2.02.39.07.56.17.11.06.18.18.18.31,0,.16-.1.3-.24.37-.23.1-.48.15-.73.14-.15.01-.31.01-.46,0-.13-.02-.25-.05-.37-.09-.11-.04-.21-.08-.31-.14-.09-.05-.18-.1-.26-.17l-.42.69c.14.11.3.21.47.28.16.07.33.13.5.17l.46.08h.38c.28,0,.55-.03.82-.1.22-.06.43-.15.63-.28.15-.11.28-.26.37-.43.08-.18.13-.37.13-.56.01-.33-.14-.65-.41-.84Z"/>
      <path class="cls-17" d="m45.27,98.17c-.17-.19-.39-.35-.63-.45-.25-.11-.53-.17-.8-.17-.29,0-.59.05-.86.17-.25.1-.48.25-.66.45-.19.2-.34.44-.43.7-.11.29-.16.6-.15.91,0,.31.05.62.15.92.1.26.25.5.45.7.2.2.43.35.69.45.28.11.57.16.87.15.31,0,.62-.04.92-.13.3-.09.58-.25.82-.46l-.46-.66c-.17.14-.37.25-.57.33-.2.07-.42.11-.64.11-.14.02-.29.02-.43,0-.14-.04-.27-.1-.38-.19-.11-.09-.21-.21-.28-.33-.09-.15-.14-.31-.17-.49h3.13v-.34c0-.31-.05-.61-.14-.91-.08-.28-.22-.54-.41-.77Zm-2.55,1.28c.02-.15.06-.29.13-.42.06-.12.14-.23.23-.33.1-.09.21-.17.33-.22.14-.05.29-.08.43-.08.27-.01.53.09.73.28.2.21.32.48.34.77h-2.2Z"/>
      <path class="cls-17" d="m57.53,98.18c-.15-.19-.33-.35-.55-.46-.24-.12-.51-.18-.78-.17-.29,0-.57.05-.83.17-.25.11-.47.27-.66.46-.2.2-.35.44-.46.7-.1.29-.16.59-.15.89,0,.3.05.61.15.89.11.26.26.5.46.7.18.2.41.36.66.46.26.11.54.17.83.17.27.02.53-.02.78-.13.21-.11.4-.26.55-.45v.45h.93v-4.2h-.93v.51Zm0,2.13c-.05.16-.14.31-.26.43-.11.12-.25.21-.4.28-.16.07-.34.11-.52.1-.18,0-.37-.03-.54-.1-.3-.15-.54-.41-.65-.73-.06-.17-.09-.34-.09-.52,0-.18.03-.36.09-.52.05-.16.14-.31.26-.43.11-.12.25-.22.4-.29.17-.07.35-.1.54-.1.18,0,.36.04.52.1.15.07.28.17.4.28.12.12.2.27.26.43.14.34.14.73,0,1.07h0Z"/>
      <path class="cls-17" d="m40.6,101.05c-.14.05-.29.08-.45.08-.08.01-.17.01-.26,0-.08-.03-.16-.08-.22-.14-.06-.07-.11-.15-.14-.24-.02-.12-.02-.25,0-.37v-1.88h1.48v-.83h-1.53v-1.28h-.93v1.28h-.84v.83h.84v1.86c-.05.46.1.93.41,1.28.3.28.7.42,1.11.4.25,0,.49-.04.73-.11.14-.06.27-.12.4-.19l-.32-.77-.28.09Z"/>
      <path class="cls-17" d="m48.92,97.55c-.24,0-.48.05-.7.14-.22.13-.4.31-.52.52v-.55h-.84v4.2h.86v-2.3c0-.16.02-.33.08-.49.04-.13.11-.26.2-.36.09-.1.2-.17.32-.22.13-.05.26-.08.4-.08h.55l.28-.88h-.61Z"/>
      <path class="cls-17" d="m61.75,97.55c-.24,0-.48.05-.7.14-.22.13-.4.31-.52.52v-.55h-.83v4.2h.84v-2.3c0-.16.02-.33.08-.49.04-.13.11-.25.2-.36.09-.1.2-.17.32-.22.13-.05.27-.08.41-.08h.55l.27-.88h-.61Z"/>
      <path class="cls-17" d="m66.06,95.94v2.23c-.15-.19-.34-.35-.55-.46-.24-.12-.51-.17-.78-.17-.29,0-.57.05-.83.17-.25.11-.48.27-.68.46-.2.2-.35.44-.45.7-.11.28-.17.59-.17.89,0,.31.05.61.17.89.1.26.25.5.45.7.19.2.42.36.68.46.26.11.54.17.83.17.27,0,.54-.05.78-.17.21-.11.4-.26.55-.45v.49h.92v-5.93h-.92Zm0,4.37c-.06.16-.15.3-.26.43-.12.12-.26.21-.41.28-.16.07-.34.11-.52.1-.18,0-.37-.04-.54-.1-.15-.07-.28-.17-.4-.29-.11-.13-.19-.28-.26-.43-.06-.17-.09-.35-.09-.52,0-.18.03-.35.09-.52.06-.16.15-.3.26-.43.12-.12.25-.22.4-.29.17-.07.35-.1.54-.1.18,0,.36.03.52.1.15.07.29.17.41.28.11.13.19.28.26.43.12.35.12.73,0,1.07h0Z"/>
      <path class="cls-17" d="m51.13,98.8c.12-.13.26-.22.42-.28.17-.07.34-.1.52-.1h0c.2,0,.39.04.57.1.17.06.32.15.45.27l.45-.74c-.17-.14-.36-.25-.56-.33-.29-.11-.6-.17-.91-.17-.31,0-.62.05-.91.17-.27.1-.51.27-.72.47-.21.2-.37.44-.49.7-.22.57-.22,1.2,0,1.76.11.26.28.5.49.7.2.21.45.37.72.47.29.11.6.17.91.17.31,0,.62-.05.91-.17.2-.08.39-.19.56-.33l-.4-.73c-.13.11-.28.2-.45.26-.18.07-.38.11-.57.1h0c-.18,0-.36-.03-.52-.1-.16-.06-.3-.15-.42-.27-.12-.13-.21-.27-.28-.43-.14-.35-.14-.74,0-1.1.05-.15.13-.3.23-.42Z"/>
      <path class="cls-17" d="m68.92,101.27c.06-.01.12-.01.18,0,.11.04.19.12.23.23.05.1.05.23,0,.33-.04.11-.12.19-.23.23-.11.05-.24.05-.36,0-.11-.02-.21-.09-.27-.19-.05-.1-.05-.23,0-.33.04-.11.12-.19.23-.23.07-.03.14-.04.22-.04Zm0,.74s.09.01.13,0c.03,0,.06,0,.09,0,0-.03,0-.06,0-.09.03-.08.03-.17,0-.26,0-.03,0-.06,0-.09-.03,0-.06,0-.09,0-.04-.01-.09-.01-.13,0-.04-.01-.08-.01-.11,0h-.1c-.07.11-.07.24,0,.34v.09h.1s.08.01.11,0Zm0-.5s.08-.01.11,0c.01.03.01.06,0,.09,0,.02,0,.05,0,.08-.02.01-.05.01-.08,0l.11.14h-.13l-.1-.14h0v.19h-.11v-.38l.19.03Zm-.08.09v.08h.11-.11v-.08Z"/>
      <path class="cls-20" d="m37.66,77.9c0-4.88,2.23-9.48,6.05-12.5-6.9-5.48-16.94-4.32-22.41,2.58-5.48,6.9-4.32,16.94,2.58,22.41,5.81,4.61,14.02,4.61,19.83,0-3.83-3.01-6.06-7.62-6.05-12.49Z"/>
      <ellipse class="cls-5" cx="43.71" cy="77.9" rx="6.05" ry="12.5"/>
      <path class="cls-10" d="m53.6,61.96c-3.59,0-7.07,1.21-9.88,3.44,6.9,5.45,8.08,15.47,2.62,22.37-.77.97-1.65,1.85-2.62,2.62,6.9,5.47,16.92,4.31,22.39-2.59,5.47-6.9,4.31-16.92-2.59-22.39-2.82-2.24-6.32-3.45-9.92-3.45Z"/>
    </g>
    <g>
      <rect class="cls-21" x="85.4" y="92.16" width="55.34" height="15.24" rx="2.96" ry="2.96"/>
      <g>
        <g>
          <path class="cls-2" d="m108.02,98.2v.41h.02c.08-.18.22-.29.39-.37s.37-.12.59-.12c.24,0,.45.04.63.14.18.08.32.21.43.35.12.16.2.31.26.51s.1.41.1.62-.02.43-.08.62-.14.37-.26.51c-.14.16-.28.27-.45.35s-.37.12-.61.12c-.08,0-.16,0-.26-.02s-.18-.04-.28-.08c-.1-.04-.18-.08-.26-.14-.08-.06-.16-.14-.2-.23h-.04v1.58h-.49v-4.25h.49Zm1.83,1.09c-.04-.14-.1-.25-.18-.37-.08-.1-.18-.2-.3-.25s-.26-.1-.43-.1-.32.04-.43.1c-.12.06-.22.16-.3.27-.08.12-.14.23-.16.37-.04.14-.06.27-.06.43s.02.29.06.43c.04.14.1.27.18.37s.18.2.3.25.28.1.45.1.32-.04.43-.1c.12-.06.22-.16.28-.27.08-.12.12-.23.16-.39.04-.14.04-.29.04-.45,0-.1,0-.25-.04-.39"/>
          <path class="cls-2" d="m113.65,101.28c-.08.06-.22.08-.36.08s-.24-.04-.32-.12-.12-.2-.12-.35c-.14.18-.3.29-.49.35-.18.08-.37.12-.59.12-.14,0-.28-.02-.39-.04-.12-.04-.24-.08-.32-.16-.1-.06-.16-.16-.22-.27-.06-.12-.08-.23-.08-.39,0-.18.04-.31.1-.43s.14-.2.24-.27.22-.12.34-.16.26-.06.37-.1c.14-.02.28-.04.39-.06s.24-.04.34-.06.18-.06.22-.12c.06-.06.08-.12.08-.21,0-.12-.02-.2-.06-.27-.04-.06-.1-.12-.16-.16s-.14-.06-.22-.08c-.08-.02-.16-.02-.24-.02-.22,0-.39.04-.53.12-.14.08-.22.23-.24.47h-.51c0-.2.04-.35.12-.49s.16-.23.3-.31c.12-.08.26-.14.41-.18.16-.04.32-.06.49-.06.14,0,.28.02.41.04.14.02.26.06.37.12.12.06.2.16.28.25.06.12.1.25.1.43v1.58c0,.12,0,.21.02.25.02.06.06.08.14.08.04,0,.1,0,.16-.02v.43h-.04Zm-.81-1.58c-.06.04-.14.08-.26.1-.1.02-.22.04-.32.06-.12.02-.24.04-.34.04-.12.02-.22.04-.32.08-.1.04-.16.1-.22.18-.06.08-.08.18-.08.29,0,.08.02.16.06.21.04.06.08.1.14.14.06.04.12.06.2.08s.14.02.22.02c.16,0,.32-.02.43-.06.12-.04.22-.1.3-.18s.14-.14.16-.23c.04-.08.06-.16.06-.23v-.49h-.04Z"/>
          <path class="cls-2" d="m115.2,101.69c-.06.16-.12.27-.18.39-.06.1-.12.2-.2.25s-.14.12-.24.14c-.08.04-.18.04-.3.04-.06,0-.12,0-.18-.02-.06,0-.12-.02-.18-.04v-.45s.1.04.16.06c.06.02.1.02.14.02.1,0,.2-.02.26-.08.08-.06.12-.12.16-.21l.22-.53-1.22-3.06h.57l.91,2.52h.02l.87-2.52h.53l-1.34,3.49Z"/>
          <path class="cls-2" d="m116.68,98.65v-.45h.51v-.45c0-.25.08-.45.22-.57.14-.14.36-.2.63-.2.04,0,.1,0,.16.02.06,0,.12.02.16.04v.45s-.1-.02-.14-.04h-.14c-.12,0-.22.02-.3.08-.06.04-.1.14-.1.27v.43h.59v.45h-.59v2.63h-.51v-2.63h-.49v-.04Z"/>
          <rect class="cls-2" x="118.78" y="97.03" width=".51" height="4.25"/>
          <path class="cls-2" d="m122.13,101.09c-.24.18-.51.25-.87.25-.24,0-.45-.04-.63-.12-.18-.08-.34-.2-.45-.33-.12-.14-.22-.31-.28-.51s-.1-.41-.1-.64.04-.45.1-.64c.08-.2.18-.37.3-.51.14-.14.28-.25.45-.33s.37-.12.57-.12c.28,0,.49.06.69.18.18.12.34.25.43.43.12.18.18.37.22.57.04.21.06.41.06.59h-2.31c0,.14.02.25.04.39.04.12.1.23.18.31.08.1.18.18.3.21.12.06.28.08.43.08.22,0,.39-.06.53-.16s.24-.25.28-.45h.49c-.04.37-.2.62-.43.8m-.12-1.97c-.04-.1-.1-.2-.18-.27s-.18-.14-.28-.18-.22-.08-.36-.08-.26.02-.36.08c-.1.04-.2.12-.28.2s-.14.18-.18.27c-.04.1-.08.21-.08.33h1.78c0-.14-.04-.25-.08-.35"/>
          <polygon class="cls-2" points="122.68 98.2 123.31 98.2 124.06 99.29 124.83 98.2 125.44 98.2 124.38 99.62 125.56 101.28 124.91 101.28 124.06 100.01 123.19 101.28 122.58 101.28 123.75 99.66 122.68 98.2"/>
        </g>
        <g>
          <path class="cls-2" d="m105.52,98.15s.1-.08.15-.15h0c.23-.23.23-.62,0-.85-.02-.02-.04-.04-.06-.06-.19-.15-.46-.15-.66-.04-.04.02-.08.06-.12.08-.04.04-.1.1-.15.15-.23.27-.42.54-.56.85-.12.27-.23.56-.29.85.29-.06.58-.15.85-.29.31-.12.6-.31.85-.54"/>
          <path class="cls-2" d="m101.57,97.3s-.08-.1-.15-.15h0c-.23-.23-.62-.23-.85,0-.02.02-.06.06-.08.1-.12.19-.12.44-.02.64.02.04.06.08.08.12.04.04.1.1.15.15.25.23.54.42.83.56.27.12.56.23.85.29-.06-.29-.15-.58-.29-.85-.1-.31-.29-.6-.52-.87"/>
          <path class="cls-2" d="m105.66,101.44s-.1-.1-.15-.15c-.25-.23-.54-.42-.83-.56-.27-.12-.56-.23-.85-.29.06.29.15.58.29.85.15.31.33.58.56.85.04.04.08.1.15.15h0c.23.23.62.23.85,0,.02-.02.04-.04.04-.06.15-.19.17-.46.04-.66-.02-.04-.06-.08-.1-.12"/>
          <path class="cls-2" d="m100.74,101.29s-.1.08-.15.15c-.04.04-.08.1-.1.15-.12.23-.08.52.1.71.04.04.06.06.1.08.17.1.37.12.54.04.06-.02.15-.08.19-.12.04-.04.1-.1.15-.15.23-.27.42-.54.56-.85.12-.27.23-.56.29-.85-.29.06-.56.15-.83.29-.31.15-.6.33-.85.56"/>
          <path class="cls-16" d="m103.13,100.38c-.25,0-.48.02-.71.06-.06.29-.15.58-.29.85-.15.31-.33.58-.56.85-.04.04-.08.1-.15.15-.06.06-.12.1-.19.12.06-.02.12-.06.19-.12.04-.04.08-.08.15-.12.46-.39,1-.58,1.56-.58s1.1.19,1.56.58c.04.04.1.08.15.12-.04-.04-.1-.1-.15-.15-.23-.27-.42-.54-.56-.85-.12-.27-.23-.56-.29-.85-.23-.04-.48-.06-.71-.06m-1.89,2.04h0"/>
          <path class="cls-16" d="m100.49,97.9s.06.08.08.12c.04.04.08.08.12.15.77.89.77,2.24,0,3.14-.04.04-.08.08-.12.15.04-.04.1-.08.15-.15.25-.23.54-.42.83-.56.27-.12.56-.23.85-.29.1-.48.1-.96,0-1.43-.29-.06-.58-.15-.85-.29-.29-.15-.58-.33-.83-.56-.04-.04-.1-.08-.15-.15-.02-.04-.06-.08-.08-.12m.1,3.53s-.02,0,0,0c-.04.04-.08.1-.1.15,0-.04.04-.1.1-.15-.02,0,0,0,0,0"/>
          <path class="cls-16" d="m105.66,98.01s-.1.1-.15.15c-.25.23-.54.42-.83.56-.27.12-.56.23-.85.29-.1.48-.1.96,0,1.43.29.06.58.15.85.29.29.15.58.33.83.56.04.04.1.08.15.15.04.04.08.08.1.15-.02-.04-.06-.1-.1-.15s-.08-.08-.12-.15c-.77-.89-.77-2.24,0-3.14.04-.04.08-.08.12-.15"/>
          <path class="cls-16" d="m104.93,97.07s-.08.06-.12.08c-.04.04-.08.08-.15.12-.46.39-1,.58-1.56.58s-1.1-.19-1.56-.58c-.04-.04-.1-.08-.15-.12.04.04.1.1.15.15.23.27.42.54.56.85.12.27.23.56.29.85.23.04.48.06.71.06.25,0,.48-.02.71-.06.06-.29.15-.58.29-.85.15-.31.33-.58.56-.85.04-.04.08-.1.15-.15.04-.04.08-.06.12-.08"/>
        </g>
      </g>
    </g>
  </g>
</svg>