<?xml version="1.0" encoding="UTF-8"?>
<svg xmlns="http://www.w3.org/2000/svg" xmlns:xlink="http://www.w3.org/1999/xlink" viewBox="0 0 155.16 108.04">
  <defs>
    <style>
      .cls-1 {
        fill: #dad9d8;
      }

      .cls-1, .cls-2, .cls-3, .cls-4, .cls-5, .cls-6, .cls-7, .cls-8, .cls-9, .cls-10, .cls-11, .cls-12, .cls-13, .cls-14, .cls-15 {
        stroke-width: 0px;
      }

      .cls-16 {
        fill: none;
        stroke: #2b3894;
        stroke-width: .26px;
      }

      .cls-2 {
        fill: url(#linear-gradient);
      }

      .cls-17 {
        font-family: Roboto-Regular, Roboto;
        font-size: 12px;
      }

      .cls-17, .cls-13 {
        fill: blue;
      }

      .cls-3 {
        fill: #ea610a;
      }

      .cls-4 {
        fill: #2b3894;
      }

      .cls-5 {
        fill: url(#linear-gradient-5);
      }

      .cls-6 {
        fill: #f59e00;
      }

      .cls-18 {
        letter-spacing: 0em;
      }

      .cls-7 {
        fill: #fff;
      }

      .cls-8 {
        fill: url(#linear-gradient-2);
      }

      .cls-9 {
        fill: url(#linear-gradient-3);
      }

      .cls-10 {
        fill: #e54a94;
      }

      .cls-11 {
        fill: #05b0a8;
      }

      .cls-12 {
        fill: #1d1d1b;
      }

      .cls-14 {
        fill: url(#linear-gradient-4);
      }

      .cls-15 {
        fill: #e20d17;
      }
    </style>
    <linearGradient id="linear-gradient" x1="104.75" y1="-689.85" x2="104.75" y2="-711.65" gradientTransform="translate(0 -618.21) scale(1 -1)" gradientUnits="userSpaceOnUse">
      <stop offset="0" stop-color="#2b3894"/>
      <stop offset="1" stop-color="#293681"/>
    </linearGradient>
    <linearGradient id="linear-gradient-2" x1="115.97" y1="-689.92" x2="115.97" y2="-711.1" xlink:href="#linear-gradient"/>
    <linearGradient id="linear-gradient-3" x1="130.87" x2="130.87" y2="-711.65" xlink:href="#linear-gradient"/>
    <linearGradient id="linear-gradient-4" x1="92.95" y1="-689.85" x2="92.95" y2="-711.65" xlink:href="#linear-gradient"/>
    <linearGradient id="linear-gradient-5" x1="86.13" y1="-701.96" x2="84.41" y2="-690.47" gradientTransform="translate(0 -618.21) scale(1 -1)" gradientUnits="userSpaceOnUse">
      <stop offset="0" stop-color="#f78610"/>
      <stop offset="1" stop-color="#f79510"/>
    </linearGradient>
  </defs>
  <g id="Layer_2" data-name="Layer 2">
    <rect class="cls-1" x="-210.2" y="-12.26" width="927.32" height="498.37"/>
    <rect class="cls-7" width="153.89" height="107.34"/>
  </g>
  <g id="katman_1" data-name="katman 1">
    <g>
      <path class="cls-13" d="m123.81,25.87v2.53s0,.04,0,.04v2.45c0,.33.27.59.59.59s.59-.27.59-.59v-2.45s0-.02,0-.01v-.03c0-.53.18-1.02.5-1.39.31-.35.71-.54,1.13-.54.42,0,.82.19,1.13.54.32.37.5.86.5,1.39v2.48c0,.33.27.59.59.59s.59-.27.59-.59v-2.48c0-.82-.28-1.59-.8-2.18-.53-.61-1.25-.94-2.02-.94-.59,0-1.16.2-1.63.57,0-.32-.27-.57-.59-.57s-.59.27-.59.59"/>
      <path class="cls-13" d="m119.31,45.86v-6.86c0-2.11-.73-4.09-2.05-5.6-1.36-1.54-3.17-2.39-5.12-2.39-1.84,0-3.57.76-4.9,2.15v-7.87c0-.63-.51-1.14-1.14-1.14s-1.14.51-1.14,1.14v13.06s0,.02,0,.03v7.36c0,.63.51,1.14,1.14,1.14s1.14-.51,1.14-1.14v-6.9c.04-1.49.55-2.89,1.48-3.93.93-1.05,2.14-1.62,3.42-1.62,1.28,0,2.49.58,3.42,1.62.96,1.09,1.48,2.54,1.48,4.1v6.86c0,.63.51,1.14,1.14,1.14s1.14-.51,1.14-1.14m-15.85-2.61c.09-.37.12-.79.1-1.13,0,0,0-.13,0-.18,0-.05-.01-.09-.01-.09-.26-2.31-2.21-4.05-4.54-4.05h-4.85c-.61,0-1.19-.24-1.62-.67-.43-.43-.67-1.01-.67-1.62,0-.61.24-1.19.67-1.62.43-.43,1.01-.67,1.62-.67h7.19c.63,0,1.14-.51,1.14-1.14s-.51-1.14-1.14-1.14h-7.19c-2.52,0-4.57,2.05-4.57,4.56s2.05,4.56,4.57,4.56h4.85c.61,0,1.19.24,1.62.67.34.34.57.78.64,1.25,0,.02.02.12.03.34,0,.12,0,.25-.04.39-.1.42-.32.75-.32.75-.02.03-.02.02-.04.06-.03.04-.71,1.04-2.8,1.04-.03,0-.15,0-.18,0h-6.56c-.62,0-1.13.51-1.13,1.13s.51,1.13,1.13,1.13h6.56s.14,0,.18,0c3.22,0,4.48-1.73,4.71-2.1.11-.16.46-.73.64-1.49m-14.96-4.31s0-.06,0-.09c0-2.11-.73-4.1-2.05-5.6-1.36-1.54-3.17-2.39-5.12-2.39-.08,0-.16,0-.24.03-.93.02-2.22.23-3.44,1-.53.33-.69,1.03-.35,1.56.22.34.58.53.96.53.21,0,.42-.06.6-.18,1.42-.9,3.08-.61,3.09-.61.03,0,.06,0,.09,0,1.01.17,1.95.71,2.7,1.56.71.81,1.19,1.84,1.38,2.96h-6.33c-2.52,0-4.56,2.05-4.57,4.56,0,2.52,2.05,4.56,4.57,4.57h0s.17,0,.2,0h4.2c1.49,0,2.64-.41,3.41-1.22.87-.92.9-2.01.89-2.27v-4.32s0-.05,0-.08m-2.25,4.49s-.01.36-.28.64c-.32.34-.93.51-1.76.51h-4.2c-.05,0-.09,0-.2,0-.61,0-1.19-.24-1.62-.67-.43-.43-.67-1.01-.67-1.62s.24-1.19.67-1.62c.43-.43,1.01-.67,1.62-.67h6.44v3.38s0,.04,0,.07m-11.74-8.49c.47-.41.51-1.13.1-1.6-1.36-1.54-3.17-2.39-5.12-2.39s-3.76.85-5.12,2.39c-1.32,1.5-2.05,3.49-2.05,5.6,0,1.1.21,2.18.59,3.18v.02s.11.27.11.27c.05.11.11.22.16.33.02.05.04.1.07.14.02.04.04.07.06.1.39.72.88,1.38,1.45,1.96,0,0,0,0,0,0,.07.08,1.69,1.95,4.96,2.15.02,0,.05,0,.07,0,.01,0,.23,0,.34,0,.93,0,2.33-.17,3.64-1,.53-.33.69-1.03.35-1.56-.33-.53-1.03-.69-1.56-.35-.97.61-2.04.67-2.63.65-.02,0-.1,0-.12,0-1.58-.11-2.65-.78-3.08-1.14,0,0-.01-.02-.02-.02-.62-.54-1.13-1.2-1.51-1.97-.4-.84-.61-1.79-.61-2.76,0-1.55.53-3.01,1.48-4.1.92-1.05,2.14-1.62,3.41-1.62,1.28,0,2.49.58,3.42,1.62.4.45,1.15.5,1.6.1m-11.47-2.86c0-.63-.51-1.14-1.14-1.14h-4.9v-5.72c0-.63-.51-1.14-1.14-1.14s-1.14.51-1.14,1.14v16.94s0,0,0,0v1.18c0,.25.02,1.46.94,2.42.47.49,1.35,1.08,2.86,1.08.63,0,1.13-.51,1.13-1.13s-.51-1.13-1.13-1.13c-.56,0-.97-.12-1.22-.37-.31-.32-.32-.8-.32-.8,0-.02,0-.03,0-.05v-1.12s0-9.03,0-9.03h4.9c.63,0,1.14-.51,1.14-1.14m-10.41,7.66c.21-.21.33-.5.33-.8,0-2.11-.73-4.09-2.05-5.6-1.36-1.54-3.17-2.39-5.12-2.39s-3.78.87-5.12,2.39c-1.32,1.5-2.05,3.49-2.05,5.6,0,1.1.21,2.18.6,3.18v.02s.11.27.11.27c.04.08.08.16.12.24.04.07.07.15.11.22.02.05.05.09.08.14.39.71.87,1.36,1.43,1.93,0,0,0,0,0,.01.06.07,1.42,1.62,4.12,2.06.01,0,.35.06.77.09.02,0,.15,0,.15,0,.07,0,.14,0,.21,0,.93,0,2.33-.17,3.64-1,.53-.33.69-1.04.35-1.57-.34-.53-1.04-.69-1.57-.35-.93.59-1.95.67-2.56.65-.01,0-.03,0-.04,0-1.67-.1-2.68-.78-3.12-1.14,0,0-.02-.02-.03-.03-.62-.54-1.13-1.21-1.51-1.98-.24-.51-.41-1.05-.51-1.62h10.84c.3,0,.59-.12.8-.33m-2.04-1.94h-9.6c.19-1.12.67-2.16,1.38-2.96.92-1.05,2.14-1.62,3.41-1.62,1.28,0,2.49.58,3.42,1.62.71.81,1.19,1.84,1.38,2.96m-13.56,7.89v-6.75c0-2.11-.73-4.1-2.05-5.6-1.36-1.54-3.17-2.39-5.12-2.39-1.84,0-3.57.76-4.9,2.15v-1.02c0-.63-.51-1.13-1.14-1.13s-1.14.51-1.14,1.13v6.86s0,.04,0,.06c0,.02,0,.04,0,.06v6.64c0,.63.51,1.14,1.14,1.14s1.14-.51,1.14-1.14v-6.64s0-.04,0-.06c0-.02,0-.04,0-.06,0-1.56.53-3.01,1.48-4.1.92-1.05,2.14-1.62,3.41-1.62,1.28,0,2.49.58,3.42,1.62.96,1.09,1.49,2.55,1.48,4.1v6.75c0,.63.51,1.13,1.14,1.13s1.14-.51,1.14-1.13"/>
      <path class="cls-11" d="m126.43,34.36c-1.01,0-2.02-.26-2.9-.74-.29-.16-.39-.52-.23-.8.16-.29.52-.39.8-.23.71.39,1.52.59,2.34.59.96,0,1.89-.28,2.68-.8.27-.18.64-.1.82.17.18.27.1.64-.17.82-.99.65-2.14,1-3.33,1"/>
      <path class="cls-10" d="m130.64,32.37c-.13,0-.27-.04-.38-.13-.25-.21-.29-.58-.08-.83.72-.87,1.11-1.97,1.11-3.1,0-.79-.19-1.57-.56-2.26-.15-.29-.04-.65.25-.8.29-.15.65-.04.8.25.45.86.69,1.83.69,2.81,0,1.4-.49,2.77-1.38,3.85-.12.14-.29.21-.46.21"/>
      <path class="cls-13" d="m122.61,32.8c-.15,0-.3-.06-.41-.17-1.18-1.15-1.82-2.69-1.82-4.33,0-3.34,2.72-6.06,6.06-6.06,1.62,0,3.14.63,4.28,1.77.23.23.23.6,0,.84-.23.23-.6.23-.84,0-.92-.92-2.14-1.43-3.45-1.43-2.69,0-4.87,2.19-4.87,4.87,0,1.32.52,2.56,1.47,3.48.23.23.24.6,0,.84-.12.12-.27.18-.42.18"/>
    </g>
    <text class="cls-17" transform="translate(41.15 18.24)"><tspan class="cls-18" x="0" y="0">P</tspan><tspan x="7.51" y="0">ayments by:</tspan></text>
    <g id="Layer_2-2" data-name="Layer 2">
      <polygon class="cls-2" points="104.11 73.75 108.55 73.75 105.56 92.95 100.96 92.95 104.11 73.75"/>
      <path class="cls-8" d="m123.13,74.21l-.7,3.94s-4.35-2.03-6.44-.25c-1.75,1.63,3.32,3.72,3.32,3.72,1.71.97,2.85,2.71,3.06,4.66,0,2.96-1.73,5.77-6.81,6.14s-6.76-.75-6.76-.75l.53-4.06c1.5.65,3.08,1.09,4.71,1.29,1.87,0,3.17-.53,3.45-1.48.28-.95-.7-1.78-1.94-2.35s-5.42-2.77-4.84-6.07c.58-3.3,4.28-7.16,12.42-4.78Z"/>
      <path class="cls-9" d="m134.97,92.95h4.56l-4-19.24h-4c-.97.22-1.78.88-2.19,1.78-.53,1.48-7.13,17.42-7.13,17.42h4.66l1.27-3.83h6.16c.31,1.28.53,2.57.67,3.88Zm-5.55-7.03l2.62-6.91s.13-.4.22,0c0,.22.71,3.66,1.36,6.87l-4.2.04Z"/>
      <circle class="cls-16" cx="141.16" cy="91.23" r="1.04"/>
      <path class="cls-4" d="m140.73,91.8v-1.11h.43c.06-.02.13-.02.19,0,.05.01.09.05.1.1.02.05.02.11,0,.16.02.15-.1.29-.25.31,0,0-.01,0-.02,0,.02,0,.05,0,.07,0,.04.04.08.09.1.15l.18.3h-.16l-.13-.22c-.03-.05-.06-.11-.09-.16l-.07-.07h-.19v.49l-.16.06Zm.12-.62h.41l.09-.07s0-.07,0-.1c.01-.09-.05-.17-.14-.18-.02,0-.05,0-.07,0h-.25l-.04.36Z"/>
      <path class="cls-14" d="m96.96,73.75h4.66l-7.49,19.24h-5.17l-4.69-19.24h3.33s1.87-.24,2.31,2.31,1.82,9.93,1.82,9.93c0,0,0,.61.28.19s4.94-12.43,4.94-12.43Z"/>
      <path class="cls-5" d="m83.99,73.75h3.61s1.87-.24,2.31,2.31c.27,1.6.92,5.11,1.38,7.5,0,0-2.38-6.62-11.84-9.81h8.38"/>
    </g>
    <g>
      <path class="cls-12" d="m27.26,98.04c-.14-.16-.32-.28-.52-.34-.21-.09-.44-.13-.66-.13h-.41c-.14.01-.27.05-.4.11-.14.05-.27.13-.38.23-.13.11-.23.23-.32.37-.14-.23-.34-.42-.57-.55-.25-.14-.54-.21-.83-.2h-.33c-.11.02-.23.06-.33.1-.11.05-.22.12-.32.19-.11.09-.2.19-.28.31v-.51h-.88v4.25h.89v-2.32c0-.16.03-.32.09-.47.05-.13.13-.26.23-.36.1-.09.21-.17.33-.22.14-.02.27-.02.41,0,.26-.02.52.08.7.28.18.23.27.52.26.82v2.27h.89v-2.32c0-.3.11-.6.31-.83.1-.09.22-.16.34-.22.14-.02.27-.02.41,0,.26-.02.52.09.7.28.17.24.26.53.24.82v2.27h.91v-2.63c0-.24-.04-.47-.13-.69-.07-.2-.19-.37-.34-.51Z"/>
      <path class="cls-12" d="m31.96,98.18c-.15-.19-.34-.35-.55-.46-.24-.12-.51-.17-.78-.17-.29,0-.57.05-.83.17-.25.11-.48.27-.68.46-.2.2-.35.44-.45.7-.11.28-.17.59-.17.89,0,.31.05.61.17.89.1.26.25.5.45.7.19.2.42.36.68.46.26.11.54.17.83.17.28.03.56-.02.82-.13.21-.11.4-.26.55-.45v.45h.92v-4.2h-.96v.51Zm0,2.13c-.06.16-.15.3-.26.43-.12.12-.26.21-.41.28-.16.07-.34.11-.52.1-.18,0-.37-.04-.54-.1-.15-.07-.28-.17-.4-.29-.11-.13-.19-.28-.26-.43-.06-.17-.09-.35-.09-.52,0-.18.03-.35.09-.52.06-.16.15-.3.26-.43.12-.12.25-.22.4-.29.17-.07.35-.1.54-.1.18,0,.36.03.52.1.15.07.29.17.41.28.11.13.19.28.26.43.12.35.12.73,0,1.07h0Z"/>
      <path class="cls-12" d="m37.16,99.77c-.32-.23-.69-.37-1.09-.41l-.43-.05h-.27l-.23-.08c-.05-.04-.1-.08-.14-.13-.02-.06-.02-.12,0-.18,0-.15.07-.29.2-.37.18-.1.38-.15.59-.14.13-.01.26-.01.4,0l.36.09.32.11.23.13.36-.72c-.24-.14-.51-.25-.78-.33-.31-.08-.63-.12-.95-.11-.25,0-.49.03-.73.1-.2.06-.38.15-.55.27-.15.11-.27.25-.34.42-.08.18-.12.37-.11.56-.01.32.12.62.36.83.31.24.68.38,1.07.42h.43c.2.02.39.07.56.17.11.06.18.18.18.31,0,.16-.1.3-.24.37-.23.1-.48.15-.73.14-.15.01-.31.01-.46,0-.13-.02-.25-.05-.37-.09-.11-.04-.21-.08-.31-.14-.09-.05-.18-.1-.26-.17l-.42.69c.14.11.3.21.47.28.16.07.33.13.5.17l.46.08h.38c.28,0,.55-.03.82-.1.22-.06.43-.15.63-.28.15-.11.28-.26.37-.43.08-.18.13-.37.13-.56.01-.33-.14-.65-.41-.84Z"/>
      <path class="cls-12" d="m45.79,98.17c-.17-.19-.39-.35-.63-.45-.25-.11-.53-.17-.8-.17-.29,0-.59.05-.86.17-.25.1-.48.25-.66.45-.19.2-.34.44-.43.7-.11.29-.16.6-.15.91,0,.31.05.62.15.92.1.26.25.5.45.7.2.2.43.35.69.45.28.11.57.16.87.15.31,0,.62-.04.92-.13.3-.09.58-.25.82-.46l-.46-.66c-.17.14-.37.25-.57.33-.2.07-.42.11-.64.11-.14.02-.29.02-.43,0-.14-.04-.27-.1-.38-.19-.11-.09-.21-.21-.28-.33-.09-.15-.14-.31-.17-.49h3.13v-.34c0-.31-.05-.61-.14-.91-.08-.28-.22-.54-.41-.77Zm-2.55,1.28c.02-.15.06-.29.13-.42.06-.12.14-.23.23-.33.1-.09.21-.17.33-.22.14-.05.29-.08.43-.08.27-.01.53.09.73.28.2.21.32.48.34.77h-2.2Z"/>
      <path class="cls-12" d="m58.05,98.18c-.15-.19-.33-.35-.55-.46-.24-.12-.51-.18-.78-.17-.29,0-.57.05-.83.17-.25.11-.47.27-.66.46-.2.2-.35.44-.46.7-.1.29-.16.59-.15.89,0,.3.05.61.15.89.11.26.26.5.46.7.18.2.41.36.66.46.26.11.54.17.83.17.27.02.53-.02.78-.13.21-.11.4-.26.55-.45v.45h.93v-4.2h-.93v.51Zm0,2.13c-.05.16-.14.31-.26.43-.11.12-.25.21-.4.28-.16.07-.34.11-.52.1-.18,0-.37-.03-.54-.1-.3-.15-.54-.41-.65-.73-.06-.17-.09-.34-.09-.52,0-.18.03-.36.09-.52.05-.16.14-.31.26-.43.11-.12.25-.22.4-.29.17-.07.35-.1.54-.1.18,0,.36.04.52.1.15.07.28.17.4.28.12.12.2.27.26.43.14.34.14.73,0,1.07h0Z"/>
      <path class="cls-12" d="m41.12,101.05c-.14.05-.29.08-.45.08-.08.01-.17.01-.26,0-.08-.03-.16-.08-.22-.14-.06-.07-.11-.15-.14-.24-.02-.12-.02-.25,0-.37v-1.88h1.48v-.83h-1.53v-1.28h-.93v1.28h-.84v.83h.84v1.86c-.05.46.1.93.41,1.28.3.28.7.42,1.11.4.25,0,.49-.04.73-.11.14-.06.27-.12.4-.19l-.32-.77-.28.09Z"/>
      <path class="cls-12" d="m49.44,97.55c-.24,0-.48.05-.7.14-.22.13-.4.31-.52.52v-.55h-.84v4.2h.86v-2.3c0-.16.02-.33.08-.49.04-.13.11-.26.2-.36.09-.1.2-.17.32-.22.13-.05.26-.08.4-.08h.55l.28-.88h-.61Z"/>
      <path class="cls-12" d="m62.27,97.55c-.24,0-.48.05-.7.14-.22.13-.4.31-.52.52v-.55h-.83v4.2h.84v-2.3c0-.16.02-.33.08-.49.04-.13.11-.25.2-.36.09-.1.2-.17.32-.22.13-.05.27-.08.41-.08h.55l.27-.88h-.61Z"/>
      <path class="cls-12" d="m66.58,95.94v2.23c-.15-.19-.34-.35-.55-.46-.24-.12-.51-.17-.78-.17-.29,0-.57.05-.83.17-.25.11-.48.27-.68.46-.2.2-.35.44-.45.7-.11.28-.17.59-.17.89,0,.31.05.61.17.89.1.26.25.5.45.7.19.2.42.36.68.46.26.11.54.17.83.17.27,0,.54-.05.78-.17.21-.11.4-.26.55-.45v.49h.92v-5.93h-.92Zm0,4.37c-.06.16-.15.3-.26.43-.12.12-.26.21-.41.28-.16.07-.34.11-.52.1-.18,0-.37-.04-.54-.1-.15-.07-.28-.17-.4-.29-.11-.13-.19-.28-.26-.43-.06-.17-.09-.35-.09-.52,0-.18.03-.35.09-.52.06-.16.15-.3.26-.43.12-.12.25-.22.4-.29.17-.07.35-.1.54-.1.18,0,.36.03.52.1.15.07.29.17.41.28.11.13.19.28.26.43.12.35.12.73,0,1.07h0Z"/>
      <path class="cls-12" d="m51.65,98.8c.12-.13.26-.22.42-.28.17-.07.34-.1.52-.1h0c.2,0,.39.04.57.1.17.06.32.15.45.27l.45-.74c-.17-.14-.36-.25-.56-.33-.29-.11-.6-.17-.91-.17-.31,0-.62.05-.91.17-.27.1-.51.27-.72.47-.21.2-.37.44-.49.7-.22.57-.22,1.2,0,1.76.11.26.28.5.49.7.2.21.45.37.72.47.29.11.6.17.91.17.31,0,.62-.05.91-.17.2-.08.39-.19.56-.33l-.4-.73c-.13.11-.28.2-.45.26-.18.07-.38.11-.57.1h0c-.18,0-.36-.03-.52-.1-.16-.06-.3-.15-.42-.27-.12-.13-.21-.27-.28-.43-.14-.35-.14-.74,0-1.1.05-.15.13-.3.23-.42Z"/>
      <path class="cls-12" d="m69.44,101.27c.06-.01.12-.01.18,0,.11.04.19.12.23.23.05.1.05.23,0,.33-.04.11-.12.19-.23.23-.11.05-.24.05-.36,0-.11-.02-.21-.09-.27-.19-.05-.1-.05-.23,0-.33.04-.11.12-.19.23-.23.07-.03.14-.04.22-.04Zm0,.74s.09.01.13,0c.03,0,.06,0,.09,0,0-.03,0-.06,0-.09.03-.08.03-.17,0-.26,0-.03,0-.06,0-.09-.03,0-.06,0-.09,0-.04-.01-.09-.01-.13,0-.04-.01-.08-.01-.11,0h-.1c-.07.11-.07.24,0,.34v.09h.1s.08.01.11,0Zm0-.5s.08-.01.11,0c.01.03.01.06,0,.09,0,.02,0,.05,0,.08-.02.01-.05.01-.08,0l.11.14h-.13l-.1-.14h0v.19h-.11v-.38l.19.03Zm-.08.09v.08h.11-.11v-.08Z"/>
      <path class="cls-15" d="m38.18,77.9c0-4.88,2.23-9.48,6.05-12.5-6.9-5.48-16.94-4.32-22.41,2.58-5.48,6.9-4.32,16.94,2.58,22.41,5.81,4.61,14.02,4.61,19.83,0-3.83-3.01-6.06-7.62-6.05-12.49Z"/>
      <ellipse class="cls-3" cx="44.23" cy="77.9" rx="6.05" ry="12.5"/>
      <path class="cls-6" d="m54.12,61.96c-3.59,0-7.07,1.21-9.88,3.44,6.9,5.45,8.08,15.47,2.62,22.37-.77.97-1.65,1.85-2.62,2.62,6.9,5.47,16.92,4.31,22.39-2.59,5.47-6.9,4.31-16.92-2.59-22.39-2.82-2.24-6.32-3.45-9.92-3.45Z"/>
    </g>
  </g>
</svg>