<?xml version="1.0" encoding="UTF-8"?>
<svg xmlns="http://www.w3.org/2000/svg" xmlns:xlink="http://www.w3.org/1999/xlink" viewBox="0 0 155.16 162.64">
  <defs>
    <style>
      .cls-1 {
        fill: #dad9d8;
      }

      .cls-1, .cls-2, .cls-3, .cls-4, .cls-5, .cls-6, .cls-7, .cls-8, .cls-9, .cls-10, .cls-11, .cls-12, .cls-13, .cls-14, .cls-15, .cls-16, .cls-17, .cls-18 {
        stroke-width: 0px;
      }

      .cls-19 {
        fill: none;
        stroke: #2b3894;
        stroke-width: .26px;
      }

      .cls-2 {
        fill: url(#linear-gradient);
      }

      .cls-20 {
        font-family: Roboto-Regular, Roboto;
        font-size: 12px;
      }

      .cls-20, .cls-16 {
        fill: blue;
      }

      .cls-3 {
        fill: #ea610a;
      }

      .cls-4 {
        fill: #2b3894;
      }

      .cls-5 {
        fill: url(#linear-gradient-5);
      }

      .cls-6 {
        fill: #f59e00;
      }

      .cls-21 {
        letter-spacing: 0em;
      }

      .cls-7 {
        fill: #fff;
      }

      .cls-8 {
        fill: url(#linear-gradient-2);
      }

      .cls-9 {
        fill: url(#linear-gradient-3);
      }

      .cls-10 {
        fill: #231f20;
      }

      .cls-11 {
        fill: #e54a94;
      }

      .cls-12 {
        fill: url(#radial-gradient);
      }

      .cls-13 {
        fill: #05b0a8;
      }

      .cls-14 {
        fill: #004a98;
      }

      .cls-15 {
        fill: #1d1d1b;
      }

      .cls-17 {
        fill: url(#linear-gradient-4);
      }

      .cls-18 {
        fill: #e20d17;
      }
    </style>
    <linearGradient id="linear-gradient" x1="102.34" y1="-677.75" x2="102.34" y2="-698.63" gradientTransform="translate(0 -618.21) scale(1 -1)" gradientUnits="userSpaceOnUse">
      <stop offset="0" stop-color="#2b3894"/>
      <stop offset="1" stop-color="#293681"/>
    </linearGradient>
    <linearGradient id="linear-gradient-2" x1="113.08" y1="-677.82" x2="113.08" y2="-698.11" xlink:href="#linear-gradient"/>
    <linearGradient id="linear-gradient-3" x1="127.35" y1="-677.75" x2="127.35" y2="-698.63" xlink:href="#linear-gradient"/>
    <linearGradient id="linear-gradient-4" x1="91.03" y1="-677.75" x2="91.03" xlink:href="#linear-gradient"/>
    <linearGradient id="linear-gradient-5" x1="84.5" y1="-689.35" x2="82.86" y2="-678.35" gradientTransform="translate(0 -618.21) scale(1 -1)" gradientUnits="userSpaceOnUse">
      <stop offset="0" stop-color="#f78610"/>
      <stop offset="1" stop-color="#f79510"/>
    </linearGradient>
    <radialGradient id="radial-gradient" cx="-56.64" cy="765.11" fx="-56.64" fy="765.11" r="53.16" gradientTransform="translate(83.62 -634.11) scale(.97)" gradientUnits="userSpaceOnUse">
      <stop offset="0" stop-color="#9dd5f6"/>
      <stop offset=".07" stop-color="#98d3f5"/>
      <stop offset=".16" stop-color="#89cef3"/>
      <stop offset=".25" stop-color="#70c6ef"/>
      <stop offset=".35" stop-color="#4ebbea"/>
      <stop offset=".45" stop-color="#23ade3"/>
      <stop offset=".5" stop-color="#0da6e0"/>
      <stop offset="1" stop-color="#2e77bc"/>
    </radialGradient>
  </defs>
  <g id="Layer_2" data-name="Layer 2">
    <rect class="cls-1" x="-23.31" y="-12.26" width="927.32" height="498.37"/>
    <rect class="cls-7" width="153.89" height="163.62"/>
  </g>
  <g id="katman_1" data-name="katman 1">
    <g>
      <path class="cls-16" d="m123.81,25.87v2.53s0,.04,0,.04v2.45c0,.33.27.59.59.59s.59-.27.59-.59v-2.45s0-.02,0-.01v-.03c0-.53.18-1.02.5-1.39.31-.35.71-.54,1.13-.54.42,0,.82.19,1.13.54.32.37.5.86.5,1.39v2.48c0,.33.27.59.59.59s.59-.27.59-.59v-2.48c0-.82-.28-1.59-.8-2.18-.53-.61-1.25-.94-2.02-.94-.59,0-1.16.2-1.63.57,0-.32-.27-.57-.59-.57s-.59.27-.59.59"/>
      <path class="cls-16" d="m119.31,45.86v-6.86c0-2.11-.73-4.09-2.05-5.6-1.36-1.54-3.17-2.39-5.12-2.39-1.84,0-3.57.76-4.9,2.15v-7.87c0-.63-.51-1.14-1.14-1.14s-1.14.51-1.14,1.14v13.06s0,.02,0,.03v7.36c0,.63.51,1.14,1.14,1.14s1.14-.51,1.14-1.14v-6.9c.04-1.49.55-2.89,1.48-3.93.93-1.05,2.14-1.62,3.42-1.62,1.28,0,2.49.58,3.42,1.62.96,1.09,1.48,2.54,1.48,4.1v6.86c0,.63.51,1.14,1.14,1.14s1.14-.51,1.14-1.14m-15.85-2.61c.09-.37.12-.79.1-1.13,0,0,0-.13,0-.18,0-.05-.01-.09-.01-.09-.26-2.31-2.21-4.05-4.54-4.05h-4.85c-.61,0-1.19-.24-1.62-.67-.43-.43-.67-1.01-.67-1.62,0-.61.24-1.19.67-1.62.43-.43,1.01-.67,1.62-.67h7.19c.63,0,1.14-.51,1.14-1.14s-.51-1.14-1.14-1.14h-7.19c-2.52,0-4.57,2.05-4.57,4.56s2.05,4.56,4.57,4.56h4.85c.61,0,1.19.24,1.62.67.34.34.57.78.64,1.25,0,.02.02.12.03.34,0,.12,0,.25-.04.39-.1.42-.32.75-.32.75-.02.03-.02.02-.04.06-.03.04-.71,1.04-2.8,1.04-.03,0-.15,0-.18,0h-6.56c-.62,0-1.13.51-1.13,1.13s.51,1.13,1.13,1.13h6.56s.14,0,.18,0c3.22,0,4.48-1.73,4.71-2.1.11-.16.46-.73.64-1.49m-14.96-4.31s0-.06,0-.09c0-2.11-.73-4.1-2.05-5.6-1.36-1.54-3.17-2.39-5.12-2.39-.08,0-.16,0-.24.03-.93.02-2.22.23-3.44,1-.53.33-.69,1.03-.35,1.56.22.34.58.53.96.53.21,0,.42-.06.6-.18,1.42-.9,3.08-.61,3.09-.61.03,0,.06,0,.09,0,1.01.17,1.95.71,2.7,1.56.71.81,1.19,1.84,1.38,2.96h-6.33c-2.52,0-4.56,2.05-4.57,4.56,0,2.52,2.05,4.56,4.57,4.57h0s.17,0,.2,0h4.2c1.49,0,2.64-.41,3.41-1.22.87-.92.9-2.01.89-2.27v-4.32s0-.05,0-.08m-2.25,4.49s-.01.36-.28.64c-.32.34-.93.51-1.76.51h-4.2c-.05,0-.09,0-.2,0-.61,0-1.19-.24-1.62-.67-.43-.43-.67-1.01-.67-1.62s.24-1.19.67-1.62c.43-.43,1.01-.67,1.62-.67h6.44v3.38s0,.04,0,.07m-11.74-8.49c.47-.41.51-1.13.1-1.6-1.36-1.54-3.17-2.39-5.12-2.39s-3.76.85-5.12,2.39c-1.32,1.5-2.05,3.49-2.05,5.6,0,1.1.21,2.18.59,3.18v.02s.11.27.11.27c.05.11.11.22.16.33.02.05.04.1.07.14.02.04.04.07.06.1.39.72.88,1.38,1.45,1.96,0,0,0,0,0,0,.07.08,1.69,1.95,4.96,2.15.02,0,.05,0,.07,0,.01,0,.23,0,.34,0,.93,0,2.33-.17,3.64-1,.53-.33.69-1.03.35-1.56-.33-.53-1.03-.69-1.56-.35-.97.61-2.04.67-2.63.65-.02,0-.1,0-.12,0-1.58-.11-2.65-.78-3.08-1.14,0,0-.01-.02-.02-.02-.62-.54-1.13-1.2-1.51-1.97-.4-.84-.61-1.79-.61-2.76,0-1.55.53-3.01,1.48-4.1.92-1.05,2.14-1.62,3.41-1.62,1.28,0,2.49.58,3.42,1.62.4.45,1.15.5,1.6.1m-11.47-2.86c0-.63-.51-1.14-1.14-1.14h-4.9v-5.72c0-.63-.51-1.14-1.14-1.14s-1.14.51-1.14,1.14v16.94s0,0,0,0v1.18c0,.25.02,1.46.94,2.42.47.49,1.35,1.08,2.86,1.08.63,0,1.13-.51,1.13-1.13s-.51-1.13-1.13-1.13c-.56,0-.97-.12-1.22-.37-.31-.32-.32-.8-.32-.8,0-.02,0-.03,0-.05v-1.12s0-9.03,0-9.03h4.9c.63,0,1.14-.51,1.14-1.14m-10.41,7.66c.21-.21.33-.5.33-.8,0-2.11-.73-4.09-2.05-5.6-1.36-1.54-3.17-2.39-5.12-2.39s-3.78.87-5.12,2.39c-1.32,1.5-2.05,3.49-2.05,5.6,0,1.1.21,2.18.6,3.18v.02s.11.27.11.27c.04.08.08.16.12.24.04.07.07.15.11.22.02.05.05.09.08.14.39.71.87,1.36,1.43,1.93,0,0,0,0,0,.01.06.07,1.42,1.62,4.12,2.06.01,0,.35.06.77.09.02,0,.15,0,.15,0,.07,0,.14,0,.21,0,.93,0,2.33-.17,3.64-1,.53-.33.69-1.04.35-1.57-.34-.53-1.04-.69-1.57-.35-.93.59-1.95.67-2.56.65-.01,0-.03,0-.04,0-1.67-.1-2.68-.78-3.12-1.14,0,0-.02-.02-.03-.03-.62-.54-1.13-1.21-1.51-1.98-.24-.51-.41-1.05-.51-1.62h10.84c.3,0,.59-.12.8-.33m-2.04-1.94h-9.6c.19-1.12.67-2.16,1.38-2.96.92-1.05,2.14-1.62,3.41-1.62,1.28,0,2.49.58,3.42,1.62.71.81,1.19,1.84,1.38,2.96m-13.56,7.89v-6.75c0-2.11-.73-4.1-2.05-5.6-1.36-1.54-3.17-2.39-5.12-2.39-1.84,0-3.57.76-4.9,2.15v-1.02c0-.63-.51-1.13-1.14-1.13s-1.14.51-1.14,1.13v6.86s0,.04,0,.06c0,.02,0,.04,0,.06v6.64c0,.63.51,1.14,1.14,1.14s1.14-.51,1.14-1.14v-6.64s0-.04,0-.06c0-.02,0-.04,0-.06,0-1.56.53-3.01,1.48-4.1.92-1.05,2.14-1.62,3.41-1.62,1.28,0,2.49.58,3.42,1.62.96,1.09,1.49,2.55,1.48,4.1v6.75c0,.63.51,1.13,1.14,1.13s1.14-.51,1.14-1.13"/>
      <path class="cls-13" d="m126.43,34.36c-1.01,0-2.02-.26-2.9-.74-.29-.16-.39-.52-.23-.8.16-.29.52-.39.8-.23.71.39,1.52.59,2.34.59.96,0,1.89-.28,2.68-.8.27-.18.64-.1.82.17.18.27.1.64-.17.82-.99.65-2.14,1-3.33,1"/>
      <path class="cls-11" d="m130.64,32.37c-.13,0-.27-.04-.38-.13-.25-.21-.29-.58-.08-.83.72-.87,1.11-1.97,1.11-3.1,0-.79-.19-1.57-.56-2.26-.15-.29-.04-.65.25-.8.29-.15.65-.04.8.25.45.86.69,1.83.69,2.81,0,1.4-.49,2.77-1.38,3.85-.12.14-.29.21-.46.21"/>
      <path class="cls-16" d="m122.61,32.8c-.15,0-.3-.06-.41-.17-1.18-1.15-1.82-2.69-1.82-4.33,0-3.34,2.72-6.06,6.06-6.06,1.62,0,3.14.63,4.28,1.77.23.23.23.6,0,.84-.23.23-.6.23-.84,0-.92-.92-2.14-1.43-3.45-1.43-2.69,0-4.87,2.19-4.87,4.87,0,1.32.52,2.56,1.47,3.48.23.23.24.6,0,.84-.12.12-.27.18-.42.18"/>
    </g>
    <text class="cls-20" transform="translate(41.15 18.24)"><tspan class="cls-21" x="0" y="0">P</tspan><tspan x="7.51" y="0">ayments by:</tspan></text>
    <g id="Layer_2-2" data-name="Layer 2">
      <polygon class="cls-2" points="101.72 61.57 105.97 61.57 103.11 79.95 98.7 79.95 101.72 61.57"/>
      <path class="cls-8" d="m119.94,62l-.67,3.77s-4.17-1.94-6.17-.24c-1.67,1.56,3.18,3.56,3.18,3.56,1.64.93,2.73,2.59,2.93,4.47,0,2.84-1.66,5.53-6.52,5.88s-6.48-.72-6.48-.72l.51-3.88c1.44.62,2.95,1.04,4.51,1.23,1.79,0,3.03-.51,3.3-1.42s-.67-1.7-1.86-2.25-5.19-2.65-4.64-5.81,4.1-6.86,11.89-4.58Z"/>
      <path class="cls-9" d="m131.28,79.95h4.37l-3.83-18.43h-3.83c-.93.21-1.7.84-2.1,1.7-.51,1.42-6.83,16.69-6.83,16.69h4.47l1.22-3.67h5.9c.3,1.22.51,2.46.64,3.71Zm-5.32-6.73l2.51-6.62s.13-.38.21,0c0,.21.68,3.5,1.3,6.58l-4.03.04Z"/>
      <circle class="cls-19" cx="137.2" cy="78.31" r=".99"/>
      <path class="cls-4" d="m136.79,78.85v-1.06h.41c.06-.02.12-.02.18,0,.05.01.09.05.1.1.01.05.01.1,0,.16.02.15-.09.28-.24.3,0,0-.01,0-.02,0,.02,0,.05,0,.07,0,.04.04.07.09.1.14l.17.28h-.16l-.13-.21s-.06-.1-.09-.16l-.07-.07h-.18v.47l-.16.06Zm.11-.6h.4l.09-.07s0-.07,0-.1c.01-.09-.05-.16-.13-.18-.02,0-.04,0-.06,0h-.24l-.04.34Z"/>
      <path class="cls-17" d="m94.87,61.57h4.47l-7.17,18.43h-4.95l-4.49-18.43h3.19s1.79-.23,2.21,2.21c.43,2.44,1.74,9.51,1.74,9.51,0,0,0,.58.27.18s4.73-11.91,4.73-11.91Z"/>
      <path class="cls-5" d="m82.46,61.57h3.46s1.79-.23,2.21,2.21c.26,1.53.88,4.89,1.32,7.19,0,0-2.28-6.34-11.34-9.4h8.02"/>
    </g>
    <g>
      <path class="cls-15" d="m27.29,89.31c-.14-.16-.32-.28-.53-.35-.21-.09-.44-.13-.67-.13h-.41c-.14.01-.27.05-.4.12-.14.05-.27.13-.38.23-.13.11-.23.23-.32.37-.14-.23-.34-.42-.58-.55-.25-.14-.54-.21-.83-.2h-.33c-.11.02-.23.06-.33.1-.11.05-.22.12-.32.19-.11.09-.21.19-.28.31v-.51h-.88v4.27h.9v-2.33c0-.16.03-.32.09-.47.05-.14.13-.26.23-.36.1-.09.21-.17.33-.22.14-.02.27-.02.41,0,.27-.02.53.09.7.28.18.24.27.53.26.82v2.28h.9v-2.33c0-.31.11-.6.31-.83.1-.09.22-.16.35-.22.14-.02.27-.02.41,0,.27-.02.52.09.7.28.17.24.26.53.24.82v2.28h.91v-2.64c0-.24-.04-.47-.13-.69-.07-.2-.19-.37-.35-.51Z"/>
      <path class="cls-15" d="m32,89.45c-.15-.19-.34-.35-.55-.46-.24-.12-.51-.17-.78-.17-.29,0-.57.05-.83.17-.25.11-.48.27-.68.46-.2.2-.35.44-.45.7-.12.28-.17.59-.17.9,0,.31.05.61.17.9.1.26.25.5.45.7.19.2.42.36.68.46.26.12.55.17.83.17.28.03.56-.02.82-.13.21-.11.4-.26.55-.45v.45h.92v-4.21h-.96v.51Zm0,2.14c-.06.16-.15.3-.26.44-.12.12-.26.22-.41.28-.16.07-.34.11-.53.1-.18,0-.37-.04-.54-.1-.15-.07-.29-.17-.4-.29-.11-.13-.19-.28-.26-.44-.06-.17-.09-.35-.09-.53,0-.18.03-.36.09-.53.06-.16.15-.3.26-.44.12-.12.25-.22.4-.29.17-.07.35-.1.54-.1.18,0,.36.03.53.1.15.07.29.17.41.28.11.13.19.28.26.44.12.35.12.73,0,1.08h0Z"/>
      <path class="cls-15" d="m37.21,91.05c-.32-.23-.7-.37-1.09-.41l-.44-.05h-.27l-.23-.08c-.05-.04-.1-.08-.14-.13-.02-.06-.02-.12,0-.18,0-.15.07-.29.2-.37.18-.1.38-.15.59-.14.13-.01.27-.01.4,0l.36.09.32.12.23.13.36-.72c-.25-.14-.51-.26-.78-.33-.31-.08-.63-.12-.95-.12-.25,0-.49.03-.73.1-.2.06-.38.15-.55.27-.15.11-.27.25-.35.42-.08.18-.12.37-.12.56-.01.32.12.62.36.83.31.24.68.39,1.08.42h.44c.2.02.39.07.56.17.11.06.18.18.18.31,0,.16-.1.3-.24.37-.23.11-.48.15-.73.14-.15.01-.31.01-.46,0-.13-.02-.25-.05-.37-.09-.11-.04-.21-.08-.31-.14-.09-.05-.18-.1-.26-.17l-.42.69c.14.12.3.21.47.28.16.07.33.13.5.17l.46.08h.38c.28,0,.55-.03.82-.1.22-.06.44-.15.63-.28.16-.12.28-.26.37-.44.09-.18.13-.37.13-.56.01-.33-.14-.65-.41-.85Z"/>
      <path class="cls-15" d="m45.87,89.44c-.17-.2-.39-.35-.63-.45-.25-.12-.53-.17-.81-.17-.29,0-.59.05-.86.17-.25.1-.48.25-.67.45-.19.2-.34.44-.44.7-.11.29-.16.6-.15.91,0,.31.05.63.15.92.1.26.25.5.45.7.2.2.43.35.69.45.28.11.57.16.87.15.31,0,.62-.04.92-.13.3-.1.58-.25.82-.46l-.46-.67c-.17.14-.37.26-.58.33-.21.07-.42.11-.64.12-.14.02-.29.02-.44,0-.14-.04-.27-.1-.38-.19-.11-.09-.21-.21-.28-.33-.09-.15-.14-.31-.17-.49h3.14v-.35c0-.31-.05-.62-.14-.91-.08-.28-.22-.54-.41-.77Zm-2.56,1.28c.02-.15.06-.29.13-.42.06-.12.14-.23.23-.33.1-.09.21-.17.33-.22.14-.05.29-.08.44-.08.27-.01.54.09.73.28.2.21.32.48.35.77h-2.2Z"/>
      <path class="cls-15" d="m58.17,89.45c-.15-.19-.33-.35-.55-.46-.24-.12-.51-.18-.78-.17-.29,0-.57.05-.83.17-.25.11-.47.27-.67.46-.2.2-.35.44-.46.7-.1.29-.16.59-.15.9,0,.31.05.61.15.9.11.26.26.5.46.7.18.2.41.36.67.46.26.11.55.17.83.17.27.02.54-.02.78-.13.22-.11.4-.26.55-.45v.45h.94v-4.21h-.94v.51Zm0,2.14c-.05.16-.14.31-.26.44-.11.12-.25.21-.4.28-.17.07-.34.11-.53.1-.18,0-.37-.03-.54-.1-.31-.15-.54-.41-.65-.73-.06-.17-.09-.35-.09-.53,0-.18.03-.36.09-.53.05-.16.14-.31.26-.44.11-.12.25-.22.4-.29.17-.07.35-.1.54-.1.18,0,.36.04.53.1.15.07.28.17.4.28.12.12.2.27.26.44.14.35.14.73,0,1.08h0Z"/>
      <path class="cls-15" d="m41.18,92.33c-.14.05-.3.08-.45.08-.08.01-.17.01-.26,0-.08-.03-.16-.08-.22-.14-.06-.07-.11-.16-.14-.24-.02-.12-.02-.25,0-.37v-1.88h1.49v-.83h-1.54v-1.28h-.94v1.28h-.85v.83h.85v1.87c-.05.47.1.93.41,1.28.3.28.7.42,1.11.4.25,0,.5-.04.73-.12.14-.06.27-.12.4-.19l-.32-.77-.28.09Z"/>
      <path class="cls-15" d="m49.54,88.82c-.24,0-.48.05-.7.14-.22.13-.4.31-.53.53v-.55h-.85v4.21h.86v-2.31c0-.17.02-.33.08-.49.04-.14.11-.26.2-.36.09-.1.2-.17.32-.22.13-.05.26-.08.4-.08h.55l.28-.88h-.61Z"/>
      <path class="cls-15" d="m62.4,88.82c-.24,0-.48.05-.7.14-.22.13-.4.31-.53.53v-.55h-.83v4.21h.85v-2.31c0-.17.02-.33.08-.49.04-.13.11-.26.2-.36.09-.1.2-.17.32-.22.13-.05.27-.08.41-.08h.55l.27-.88h-.61Z"/>
      <path class="cls-15" d="m66.73,87.21v2.24c-.15-.19-.34-.35-.55-.46-.24-.12-.51-.17-.78-.17-.29,0-.57.05-.83.17-.25.11-.48.27-.68.46-.2.2-.35.44-.45.7-.12.28-.17.59-.17.9,0,.31.05.61.17.9.1.26.25.5.45.7.19.2.42.36.68.46.26.12.55.17.83.17.27,0,.54-.05.78-.17.21-.11.4-.26.55-.45v.49h.92v-5.94h-.92Zm0,4.38c-.06.16-.15.3-.26.44-.12.12-.26.22-.41.28-.16.07-.34.11-.53.1-.18,0-.37-.04-.54-.1-.15-.07-.29-.17-.4-.29-.11-.13-.19-.28-.26-.44-.06-.17-.09-.35-.09-.53,0-.18.03-.36.09-.53.06-.16.15-.3.26-.44.12-.12.25-.22.4-.29.17-.07.35-.1.54-.1.18,0,.36.03.53.1.15.07.29.17.41.28.11.13.19.28.26.44.12.35.12.73,0,1.08h0Z"/>
      <path class="cls-15" d="m51.75,90.08c.12-.13.26-.22.42-.28.17-.07.35-.1.53-.1h0c.2,0,.39.04.58.1.17.06.32.15.45.27l.45-.74c-.17-.14-.36-.25-.56-.33-.29-.11-.6-.17-.91-.17-.31,0-.62.05-.91.17-.27.1-.52.27-.72.47-.21.2-.37.44-.49.7-.22.57-.22,1.2,0,1.77.11.27.28.51.49.7.2.21.45.37.72.47.29.12.6.17.91.17.31,0,.62-.05.91-.17.2-.08.39-.2.56-.33l-.4-.73c-.13.11-.29.2-.45.26-.18.07-.38.11-.58.1h0c-.18,0-.36-.03-.53-.1-.16-.06-.3-.15-.42-.27-.12-.13-.22-.27-.28-.44-.14-.35-.14-.75,0-1.1.05-.15.13-.3.23-.42Z"/>
      <path class="cls-15" d="m69.59,92.55c.06-.01.12-.01.18,0,.11.04.19.12.23.23.05.11.05.23,0,.33-.04.11-.12.19-.23.23-.11.05-.24.05-.36,0-.11-.02-.21-.09-.27-.19-.05-.11-.05-.23,0-.33.04-.11.12-.19.23-.23.07-.03.14-.04.22-.04Zm0,.74s.09.01.13,0c.03,0,.06,0,.09,0,0-.03,0-.06,0-.09.03-.08.03-.17,0-.26,0-.03,0-.06,0-.09-.03,0-.06,0-.09,0-.04-.01-.09-.01-.13,0-.04-.01-.08-.01-.12,0h-.1c-.07.11-.07.24,0,.35v.09h.1s.08.01.12,0Zm0-.5s.08-.01.12,0c.01.03.01.06,0,.09,0,.02,0,.05,0,.08-.02.01-.05.01-.08,0l.12.14h-.13l-.1-.14h0v.19h-.12v-.38l.19.03Zm-.08.09v.08h.12-.12v-.08Z"/>
      <path class="cls-18" d="m38.24,69.11c0-4.89,2.23-9.51,6.07-12.54-6.92-5.49-16.98-4.33-22.48,2.59-5.49,6.92-4.33,16.98,2.59,22.48,5.82,4.62,14.06,4.62,19.89,0-3.84-3.02-6.08-7.64-6.07-12.53Z"/>
      <ellipse class="cls-3" cx="44.31" cy="69.11" rx="6.07" ry="12.54"/>
      <path class="cls-6" d="m54.22,53.13c-3.6,0-7.09,1.21-9.91,3.45,6.92,5.47,8.1,15.51,2.63,22.43-.77.98-1.66,1.86-2.63,2.63,6.92,5.48,16.97,4.32,22.46-2.6,5.48-6.92,4.32-16.97-2.6-22.46-2.83-2.24-6.34-3.46-9.95-3.46Z"/>
    </g>
    <g>
      <path class="cls-14" d="m114.14,136.53c8.11,0,15.53-6.69,15.53-14.73-.1-8.38-6.97-15.09-15.35-14.99-.06,0-.12,0-.18,0h-6.99c-8.09-.19-14.8,6.22-14.98,14.31,0,.23,0,.45,0,.68.09,8.2,6.79,14.78,14.98,14.73h6.99Z"/>
      <path class="cls-7" d="m110.27,129.69v-16.07c4.44,1.73,6.63,6.73,4.9,11.17-.88,2.25-2.65,4.02-4.9,4.9m-11.72-8.03c.02-3.56,2.22-6.75,5.54-8.03v16.07c-3.33-1.28-5.53-4.47-5.54-8.03m8.62-13.6c-7.51,0-13.6,6.09-13.6,13.6s6.09,13.6,13.6,13.6,13.6-6.09,13.6-13.6c0,0,0,0,0-.01,0-7.51-6.09-13.6-13.6-13.6"/>
      <path class="cls-10" d="m85.59,146.34c0,.91.66,1.02,1.22,1.02,1.8.07,3.32-1.33,3.4-3.13,0-.17,0-.35-.02-.52.14-1.94-1.31-3.63-3.25-3.77-.14-.01-.28-.01-.41,0h-.92v6.41Zm-1.1-5.44c0-1.06-.55-.99-1.08-.99v-.35h3.36c2.35-.23,4.44,1.49,4.67,3.83,0,.09.01.18.02.26,0,1.16-.68,4.02-4.83,4.02h-3.27v-.31c.71-.07,1.04-.09,1.08-.9l.05-5.57Z"/>
      <path class="cls-10" d="m93.13,140.57c-.32,0-.58-.26-.58-.58s.26-.58.58-.58.58.26.58.58-.26.58-.58.58m-1.25,6.86h.21c.33,0,.56,0,.56-.39v-3.17c0-.52-.17-.59-.6-.82v-.19c.55-.17,1.21-.39,1.25-.43.07-.02.14-.02.21,0,0,0,.08.07.08.16v4.5c0,.39.25.39.59.39h.2v.31h-2.5v-.36Z"/>
      <path class="cls-10" d="m95.5,143.93c0-.43-.13-.55-.68-.78v-.21c.53-.16,1.05-.35,1.55-.56,0,0,.07,0,.07.11v.76c.56-.5,1.27-.8,2.02-.87,1,0,1.34.72,1.34,1.63v3.03c0,.39.25.39.59.39h.17v.31h-2.57v-.31h.21c.32,0,.56,0,.56-.39v-3.04c0-.67-.42-.99-1.08-.99-.48.08-.94.27-1.34.56v3.47c0,.39.25.39.59.39h.2v.31h-2.57v-.31h.21c.32,0,.56,0,.56-.39l.16-3.11Z"/>
      <path class="cls-10" d="m103.57,144.12c.29,0,.32-.15.32-.29.04-.55-.36-1.02-.91-1.07-.04,0-.07,0-.11,0-.71,0-1.21.52-1.34,1.34l2.04.03Zm-2.08.37c-.03.23-.03.46,0,.68-.04,1.03.72,1.91,1.74,2.02.61-.03,1.19-.31,1.59-.78l.16.16c-.46.77-1.27,1.27-2.17,1.34-1.3-.05-2.32-1.14-2.27-2.44,0-.04,0-.09,0-.13,0-2.3,1.54-2.97,2.37-2.97,1.02-.07,1.9.7,1.96,1.72,0,.04,0,.07,0,.11v.21l-.11.07h-3.29Z"/>
      <path class="cls-10" d="m105.18,147.43h.31c.33,0,.56,0,.56-.39v-3.29c0-.36-.43-.43-.6-.52v-.17c.86-.36,1.34-.67,1.43-.67s.09,0,.09.15v1.06h0c.29-.46.79-1.21,1.5-1.21.35-.02.65.26.67.61,0,0,0,0,0,0,0,.31-.24.57-.55.59-.36,0-.36-.28-.78-.28-.48.07-.85.48-.86.96v2.76c0,.39.24.39.56.39h.66v.31h-2.97l-.03-.29Z"/>
      <path class="cls-10" d="m109.68,146.1c.03.81.68,1.47,1.49,1.5.46.06.88-.27.94-.73,0-.03,0-.07,0-.1,0-1.34-2.56-.94-2.56-2.83.05-.89.81-1.56,1.7-1.51.04,0,.07,0,.11.01.47.01.92.13,1.34.33l.08,1.19h-.27c-.02-.66-.56-1.18-1.22-1.16-.04,0-.08,0-.12,0-.45-.05-.85.27-.91.72,0,.02,0,.04,0,.06,0,1.34,2.68.94,2.68,2.79,0,.76-.63,1.59-2.02,1.59-.5-.01-1-.15-1.43-.4l-.12-1.34.31-.13Z"/>
      <path class="cls-10" d="m123.63,141.67h-.31c-.16-1.22-1.27-2.08-2.49-1.92,0,0,0,0-.01,0-1.84,0-3.33,1.5-3.33,3.34,0,.12,0,.25.02.37-.12,2.06,1.43,3.85,3.49,4.02,1.15-.02,2.12-.85,2.32-1.98l.28.08-.28,1.7c-.81.39-1.69.6-2.58.63-2.29.17-4.29-1.54-4.47-3.84-.01-.19-.02-.38,0-.57.09-2.36,2.07-4.2,4.43-4.12.95.05,1.89.26,2.77.62l.16,1.67Z"/>
      <path class="cls-10" d="m124.05,147.43h.23c.32,0,.56,0,.56-.39v-6.52c0-.76-.17-.79-.63-.92v-.19c.42-.13.83-.3,1.22-.5.08-.05.16-.1.25-.13,0,0,.09,0,.09.16v8.03c0,.39.25.39.59.39h.19v.31h-2.56l.05-.24Z"/>
      <path class="cls-10" d="m131.57,147.08c0,.21.13.23.32.23h.47v.29c-.57.08-1.13.2-1.69.36h0v-.95c-.54.58-1.28.93-2.08.99-.74,0-1.34-.6-1.34-1.34v-3.08c0-.31,0-.6-.71-.66v-.23l1.51-.08c.13,0,.13.08.13.33v3.03c0,.35,0,1.34,1.02,1.34.54-.08,1.03-.33,1.42-.71v-3.2c0-.24-.56-.36-.99-.48v-.21c1.06,0,1.71-.16,1.83-.16s.09.08.09.21v4.31Z"/>
      <path class="cls-10" d="m133.9,146.41c.03.65.56,1.16,1.21,1.19,1.26,0,1.78-1.23,1.78-2.28.06-1.14-.75-2.13-1.87-2.32-.42.05-.82.24-1.11.55v2.85Zm0-3.19c.47-.47,1.08-.77,1.74-.84,1.26.05,2.24,1.1,2.19,2.36,0,.03,0,.07,0,.1.06,1.61-1.18,2.98-2.8,3.07-.57,0-1.13-.14-1.63-.42l-.35.27-.24-.16c.11-.69.16-1.39.16-2.09v-4.99c0-.76-.17-.79-.62-.92v-.19c.41-.13.82-.3,1.21-.5.08-.05.16-.1.25-.13,0,0,.09,0,.09.16v4.28Z"/>
      <path class="cls-10" d="m83.36,154.54h.09c.23,0,.47,0,.47-.36v-3.33c0-.33-.24-.36-.47-.36h-.09v-.2h1.95v.2h-.09c-.23,0-.47,0-.47.36v3.33c0,.33.24.36.47.36h.09v.2h-1.95v-.2Z"/>
      <path class="cls-10" d="m85.27,154.71v-.15h0c-.23,0-.5,0-.5-.39v-3.33c0-.35.27-.39.5-.39h0v-.17h-1.89v.15h0c.23,0,.5,0,.5.39v3.33c0,.36-.27.39-.5.39h0v.15h1.89m0,0h-1.95v-.25h.12c.23,0,.44,0,.44-.33v-3.25c0-.31-.21-.33-.44-.33h-.12v-.23h1.95v.25h-.12c-.23,0-.44,0-.44.33v3.33c0,.32.21.33.44.33h.12v.25-.11Z"/>
      <path class="cls-10" d="m89.69,153.48h0v-2.41c.04-.29-.16-.55-.45-.59-.04,0-.08,0-.11,0h-.13v-.2h1.65v.2h-.09c-.27,0-.58,0-.58.8v2.91c-.01.21-.01.43,0,.64h-.12l-3.28-3.66v2.68c0,.55.11.74.6.74h.11v.2h-1.69v-.2h.08c.44,0,.58-.29.58-.8v-2.68c0-.31-.25-.56-.56-.56,0,0,0,0-.01,0h-.08v-.27h1.3l2.8,3.2Z"/>
      <path class="cls-10" d="m89.66,153.47.12,1.34h.21c-.01-.21-.01-.41,0-.62v-2.91c0-.76.32-.83.6-.83h.07v-.17h-1.67v.15h.11c.3-.02.57.2.59.5,0,.04,0,.08,0,.11v2.41h0l-2.84-3.17h-1.27v.15h0c.33,0,.6.26.6.59v2.68c0,.51-.15.83-.6.84h0v.15h1.63v-.13h-.04c-.51,0-.63-.23-.63-.78v-2.68l3.24,3.71Zm.24,0h-.17l-3.24-3.6v2.56c0,.55.09.71.58.71h.13v.25h-1.69v-.25h.12c.43,0,.55-.27.55-.78v-2.68c0-.3-.24-.54-.54-.54,0,0,0,0-.01,0h-.12v-.2h1.31l2.8,3.16v-2.37c0-.5-.33-.56-.52-.56h-.16v-.23h1.58v.25h-.12c-.27,0-.54,0-.55.78v2.91c-.01.21-.01.42,0,.63h0l.05-.04Z"/>
      <path class="cls-10" d="m91.63,150.6c-.48,0-.5.12-.59.58h-.19v-.54c.01-.18.01-.36,0-.54h.33c0,.19.2.17.37.17h3.29c.17,0,.33,0,.35-.19h.15c0,.17,0,.35-.07.52s0,.35,0,.52h-.19c0-.24,0-.62-.48-.62h-1.04v3.39c0,.5.23.55.54.55h.12v.2h-2.12v-.2h.12c.35,0,.52,0,.52-.54v-3.32h-1.12Z"/>
      <path class="cls-10" d="m94.15,154.77h-2.12v-.25h.15c.35,0,.5,0,.5-.51v-3.37h-1.02,1.07v3.43c0,.52-.2.56-.55.58h-.09v.13h2.06v-.13h-.09c-.31,0-.56-.08-.56-.59v-3.47h1.07c.43,0,.48.36.5.6h.15v-.99h0c0,.19-.2.2-.36.19h-3.37c-.15,0-.32,0-.37-.17h-.11c.01.17.01.34,0,.51v.51h.13c.09-.44.15-.58.62-.58h0c-.47,0-.46.09-.56.56h-.25c0-.17,0-.36.07-.54.01-.18.01-.36,0-.54h.2c0,.16.16.16.32.16h3.32c.17,0,.31,0,.32-.17h.17v1.03h0l-.23.08h0c0-.24,0-.59-.46-.59h-1.02v3.36c0,.48.2.52.51.52h.15v.25h-.13Z"/>
      <path class="cls-10" d="m95.49,154.54h.09c.23,0,.47,0,.47-.36v-3.33c0-.33-.24-.36-.47-.36h-.09v-.2h3.23c-.02.33-.02.65,0,.98h-.2c0-.42-.11-.75-.78-.75h-.88v1.67h.76c.37,0,.46-.21.5-.56h.2v1.47h-.2c0-.39,0-.63-.5-.63h-.76v1.49c0,.42.37.42.78.42.76,0,1.1,0,1.34-.78h.17c-.08.33-.16.67-.21,1.02h-3.41l-.03-.07Z"/>
      <path class="cls-10" d="m98.87,154.71c0-.32.13-.66.21-.98h-.13c-.19.71-.56.78-1.34.78-.4,0-.8,0-.8-.44v-1.54h.79c.44,0,.5.25.52.63h.13v-1.42h-.13c0,.33-.13.56-.52.56h-.79v-1.77h.91c.67,0,.78.33.8.74h.13v-.99h-3.15v.15h.07c.23,0,.5,0,.5.39v3.33c0,.36-.27.39-.5.4h-.07v.13h3.36m0,0h-3.41v-.25h.12c.23,0,.44,0,.44-.33v-3.25c0-.31-.21-.33-.44-.33h-.12v-.23h3.23c0,.11,0,.22,0,.33v.64h-.23c0-.42-.09-.71-.75-.72h-.86v1.62h.74c.36,0,.43-.19.47-.54h.25v1.47h-.23c0-.39,0-.6-.47-.6h-.74v1.46c0,.39.33.39.75.39.76,0,1.07,0,1.27-.76h.2c-.08.35-.16.68-.21,1.02h0v.09Z"/>
      <path class="cls-10" d="m100.79,152.44h.31c.64,0,.99-.24.99-.99.03-.48-.33-.89-.81-.92-.04,0-.08,0-.13,0h-.36v1.91Zm-.82-1.47c0-.47-.25-.48-.46-.48h-.11v-.2h2.01c.8,0,1.53.23,1.53,1.12-.02.53-.38.99-.9,1.12l1.1,1.63c.12.23.36.38.62.37v.2h-1.22c-.5-.66-.94-1.35-1.34-2.08h-.43v1.34c0,.5.23.51.52.51h.12v.2h-2.02v-.2h.11c.24,0,.46-.11.46-.33v-3.21Z"/>
      <path class="cls-10" d="m101.1,152.41c.64,0,.95-.23.96-.96.03-.46-.32-.87-.79-.9-.04,0-.08,0-.13,0h-.33v1.85h.28Zm-.31,0h0v-1.89h.39c.49-.04.93.33.96.83,0,.04,0,.08,0,.12,0,.76-.36,1.02-1.02,1.02l-.33-.08Zm0,.17h.44c.41.71.85,1.4,1.34,2.06h1.19v-.08c-.26-.01-.49-.16-.62-.39l-1.11-1.66h0c.5-.14.85-.58.87-1.1,0-.88-.7-1.08-1.5-1.1h-1.98v.15h.08c.2,0,.48,0,.48.51v3.24c0,.25-.24.36-.48.37h-.08v.13h1.97v-.13h-.09c-.29,0-.55,0-.55-.55v-1.34l.04-.12Zm2.97,2.13h-1.25c-.49-.65-.94-1.34-1.34-2.05h-.37v1.34c0,.48.2.48.5.48h.15v.25h-2.02v-.25h.13c.24,0,.43-.09.43-.31v-3.21c0-.46-.23-.46-.43-.46h-.13v-.23h2.01c.8,0,1.55.23,1.55,1.15-.02.53-.37.98-.87,1.14l1.07,1.61c.12.22.34.36.59.36h0v.23-.05Z"/>
      <path class="cls-10" d="m108.09,153.48h0v-2.41c.05-.28-.14-.54-.42-.58-.04,0-.09,0-.13,0h-.15v-.2h1.69v.2h-.11c-.27,0-.56,0-.56.8v2.91c-.01.21-.01.43,0,.64h-.24l-3.28-3.66v2.68c0,.55.11.74.59.74h.11v.2h-1.69v-.2h.09c.44,0,.58-.29.58-.8v-2.68c0-.31-.25-.56-.56-.56,0,0,0,0-.01,0h-.09v-.27h1.3l2.89,3.2Z"/>
      <path class="cls-10" d="m108.07,153.47.13,1.34h.2c-.01-.21-.01-.41,0-.62v-2.91c0-.76.32-.83.59-.83h0v-.17h-1.62v.15h.12c.3-.02.56.21.58.52,0,.03,0,.07,0,.1v2.41h0l-2.83-3.17h-1.27v.15h0c.33,0,.6.26.6.59v2.68c0,.51-.15.83-.6.84h0v.15h1.63v-.13h-.08c-.5,0-.62-.23-.63-.78v-2.68l3.31,3.71Zm.24,0h-.27l-3.23-3.6v2.56c0,.55.08.71.56.71h.13v.25h-1.69v-.25h.12c.42,0,.54-.27.55-.78v-2.68c0-.3-.24-.54-.54-.54,0,0,0,0-.01,0h-.12v-.2h1.33l2.8,3.16v-2.37c0-.5-.33-.56-.52-.56h-.17v-.23h1.69v.25h-.13c-.25,0-.52,0-.54.78v2.91c-.02.21-.02.43,0,.64h0l.04-.05Z"/>
      <path class="cls-10" d="m111.05,151h0l-.6,1.79h1.19l-.59-1.79Zm-.94,2.83c-.08.15-.13.31-.17.47,0,.19.27.21.47.21h.08v.2h-1.46v-.2h0c.26,0,.49-.17.56-.42l1.02-2.92c.1-.26.18-.52.24-.79.2-.07.39-.17.58-.28h0c0,.05,0,.11,0,.16l1.18,3.33c.08.21.15.46.24.64.06.18.23.28.42.25h0v.2h-1.83v-.2h0c.15,0,.4,0,.4-.17-.03-.16-.07-.32-.13-.47l-.25-.74h-1.12l-.2.71Z"/>
      <path class="cls-10" d="m111.02,151-.55,1.77h1.12l-.56-1.7-.56,1.7Zm-.07,0l.6-1.85h0l.6,1.85h-1.21Zm1.34,1.87h1.78v-.13h0c-.19.02-.37-.09-.44-.27-.09-.21-.17-.43-.24-.66l-1.23-3.31s0-.1,0-.15h0c-.18.11-.36.19-.56.25-.06.27-.14.54-.24.8l-1.02,2.92c-.07.26-.32.44-.59.43h0v.13h1.34v-.13h0c-.2,0-.5,0-.5-.24.02-.17.07-.35.13-.51h0l.21-.68h1.49l.25.76c.06.15.11.31.13.47,0,.19-.28.2-.43.2h0l-.09.11Zm1.81,0h-1.83v-.25h.09c.15,0,.36,0,.36-.15-.02-.16-.06-.31-.12-.46l-.24-.72h-1.34l-.2.64c-.06.16-.11.33-.13.5,0,.15.24.19.44.19h.11v.25h-1.45v-.25h.07c.25,0,.46-.15.54-.39l1.02-2.93c.1-.26.19-.53.25-.8.2-.07.39-.17.58-.28h0v.16l1.18,3.33c.08.23.15.46.23.64.06.16.23.26.4.24h0v.25l.05.03Z"/>
      <path class="cls-10" d="m113.79,150.6c-.48,0-.5.12-.59.58h-.2c0-.17,0-.35.08-.54.01-.18.01-.36,0-.54h.15c0,.19.21.17.39.17h3.28c.17,0,.33,0,.35-.19h.16l-.08.52v.52h-.19c0-.24,0-.62-.47-.62h-1.04v3.39c0,.5.23.55.52.55h.12v.2h-2.12v-.2h.12c.36,0,.54,0,.54-.54v-3.32h-1.02Z"/>
      <path class="cls-10" d="m116.29,154.77h-2.12v-.25h.15c.36,0,.5,0,.51-.51v-3.37h-1.02,1.07v3.43c0,.52-.21.56-.56.56h-.09v.15h2.06v-.2h-.09c-.31,0-.55,0-.55-.58v-3.41h1.07c.43,0,.48.36.5.6h.13v-.99h-.09c0,.19-.21.2-.37.19h-3.27c-.15,0-.31,0-.36-.17h-.11c.01.17.01.34,0,.51,0,.17,0,.35-.07.51h.13c.08-.44.13-.58.62-.58h0c-.47,0-.47.09-.56.56h-.24l.08-.54c.01-.18.01-.36,0-.54h.2c0,.16.16.16.32.16h3.32c.19,0,.31,0,.32-.17h.19l-.08.51v.52h0l-.23.08h0c0-.24,0-.59-.44-.59h-1.02v3.36c0,.48.2.52.5.52h.15v.25h-.04Z"/>
      <path class="cls-10" d="m117.67,154.54h.09c.23,0,.47,0,.47-.36v-3.33c0-.33-.24-.36-.47-.36h-.09v-.2h1.94v.2h-.08c-.23,0-.48,0-.48.36v3.33c0,.33.25.36.48.36h.08v.2h-1.94v-.2Z"/>
      <path class="cls-10" d="m119.59,154.71v-.15h0c-.23,0-.51,0-.51-.39v-3.33c0-.35.28-.39.51-.39h0v-.17h-1.89v.15h0c.23,0,.5,0,.5.39v3.33c0,.36-.27.39-.5.39h0v.15h1.89m0,0h-1.94v-.25h.12c.23,0,.44,0,.44-.33v-3.25c0-.31-.21-.33-.44-.33h-.12v-.23h1.94v.25h-.11c-.24,0-.44,0-.46.33v3.33c0,.32.21.33.46.33h.11v.25-.11Z"/>
      <path class="cls-10" d="m122.25,154.55c1.25,0,1.46-1.1,1.46-2.02s-.51-2.06-1.57-2.06-1.5.99-1.5,1.85c0,1.14.52,2.24,1.55,2.24m-.09-4.37c1.22-.18,2.36.67,2.53,1.89.02.11.02.21.02.32.05,1.29-.95,2.38-2.25,2.44-.05,0-.11,0-.16,0-1.24.07-2.31-.87-2.38-2.11,0-.06,0-.12,0-.18-.02-1.28,1-2.33,2.28-2.36.02,0,.04,0,.07,0"/>
      <path class="cls-10" d="m120.65,152.32c0-.86.33-1.87,1.47-1.87s1.59,1.15,1.59,2.09-.21,2.05-1.49,2.05h0c1.22,0,1.43-1.07,1.43-2s-.5-2.04-1.54-2.04-1.42.98-1.42,1.82c0,1.14.52,2.21,1.53,2.21h0c-1.06,0-1.58-1.11-1.58-2.26m-.9.23c-.01-1.3,1.03-2.37,2.33-2.38.02,0,.04,0,.05,0h0c-1.26-.01-2.3,1-2.32,2.26,0,.02,0,.04,0,.07-.02,1.23.95,2.24,2.18,2.27.06,0,.12,0,.18,0,1.29.03,2.35-.99,2.38-2.27,0-.05,0-.1,0-.15-.08-1.22-1.14-2.14-2.36-2.05-.01,0-.03,0-.04,0h0c1.25-.13,2.37.78,2.5,2.03,0,.02,0,.05,0,.07.06,1.31-.95,2.42-2.26,2.48-.06,0-.12,0-.18,0-1.27.07-2.35-.91-2.42-2.18,0-.05,0-.09,0-.14"/>
      <path class="cls-10" d="m128.89,153.48h0v-2.41c.05-.28-.14-.54-.42-.58-.04,0-.09,0-.13,0h-.13v-.2h1.67v.2h-.09c-.27,0-.58,0-.58.8v2.91c-.01.21-.01.43,0,.64h-.24l-3.28-3.66v2.68c0,.55.11.74.59.74h.12v.2h-1.7v-.2h.09c.44,0,.58-.29.58-.8v-2.68c0-.31-.25-.56-.56-.56,0,0,0,0-.01,0h-.09v-.27h1.31l2.88,3.2Z"/>
      <path class="cls-10" d="m128.88,153.47.13,1.34h.21c-.01-.21-.01-.41,0-.62v-2.91c0-.76.32-.83.6-.83h0v-.17h-1.62v.15h.11c.3-.02.56.21.58.52,0,.03,0,.07,0,.1v2.41h0l-2.83-3.17h-1.29v.15h0c.33,0,.6.26.6.59v2.68c0,.51-.15.83-.6.84h0v.15h1.65v-.13h-.09c-.5,0-.62-.23-.62-.78v-2.68l3.29,3.71Zm.24,0h-.27l-3.23-3.6v2.56c0,.55.09.71.56.71h.15v.25h-1.7v-.25h.12c.43,0,.55-.27.55-.78v-2.68c0-.3-.24-.54-.54-.54,0,0,0,0-.01,0h-.12v-.2h1.33l2.8,3.16v-2.37c0-.5-.33-.56-.52-.56h-.17v-.23h1.67v.25h-.12c-.27,0-.54,0-.55.78v2.91c-.01.21-.01.43,0,.64h0l.05-.05Z"/>
      <path class="cls-10" d="m131.85,151h0l-.59,1.79h1.19l-.6-1.79Zm-.94,2.83c-.06.16-.1.33-.13.5,0,.19.27.21.47.21h.11v.2h-1.46v-.2h0c.26,0,.49-.17.56-.42l1.02-2.92c.1-.26.18-.52.24-.79.2-.07.39-.17.58-.28h0v.16l1.16,3.33c.08.21.16.46.24.64.06.17.23.28.42.25h0v.2h-1.83v-.2h0c.15,0,.4,0,.4-.17-.03-.16-.07-.32-.13-.47l-.24-.74h-1.18l-.21.68Z"/>
      <path class="cls-10" d="m131.83,151-.55,1.77h1.12l-.56-1.7-.56,1.7Zm0,0l.6-1.85h0l.6,1.85h-1.21Zm1.34,1.89h1.78v-.13h0c-.19.02-.37-.09-.44-.27-.08-.19-.16-.43-.24-.66l-1.29-3.32s0-.1,0-.15h-.07c-.17.11-.36.2-.56.25-.06.27-.14.54-.24.8l-1.02,2.92c-.07.26-.31.44-.58.43h0v.13h1.34v-.13h0c-.2,0-.5,0-.5-.24.03-.17.07-.34.13-.51h0l.21-.68h1.49l.25.76c.06.15.11.31.13.47,0,.19-.28.2-.43.2h0v.12Zm1.81,0h-1.83v-.25h.09c.15,0,.37,0,.37-.15-.03-.16-.07-.31-.13-.46l-.24-.72h-1.34l-.2.64c-.06.16-.11.33-.13.5,0,.15.24.19.44.19h-.09v.25h-1.46v-.25h0c.24,0,.45-.16.52-.39l1.02-2.93c.1-.26.19-.53.25-.8.2-.07.39-.17.58-.28h0s.05,0,.07,0v.16l1.16,3.33c.08.23.15.46.24.66.06.16.22.25.39.23h0v.25l.29.03Z"/>
      <path class="cls-10" d="m135.92,154.11c0,.25.17.33.39.36.28.02.55.02.83,0,.24-.03.46-.16.62-.35.09-.14.16-.29.2-.46h.19l-.24,1.08h-3.36v-.2h.08c.23,0,.48,0,.48-.43v-3.28c0-.33-.25-.36-.48-.36h-.08v-.2h1.97v.2h-.16c-.24,0-.43,0-.43.33v3.29Z"/>
      <path class="cls-10" d="m137.88,154.71c.08-.35.16-.68.23-1.03h-.13c-.04.16-.1.31-.19.44-.15.2-.38.33-.63.36h-.86c-.2,0-.4-.12-.4-.39v-3.28c0-.35.23-.36.46-.36h.13v-.17h-1.91v.15h0c.23,0,.51,0,.51.39v3.27c0,.42-.28.46-.51.46h0v.15h3.31m0,0h-3.36v-.25h.11c.23,0,.46,0,.46-.4v-3.19c0-.31-.21-.33-.46-.33h-.11v-.23h1.97v.25h-.19c-.24,0-.4,0-.4.31v3.29c0,.24.16.31.36.33h.94c.23-.04.44-.15.59-.33.1-.14.17-.29.2-.46h.24l-.24,1.08h0l-.11-.08Z"/>
      <path class="cls-10" d="m137.96,150.78h.09c.08,0,.12-.07.12-.17s0-.13-.13-.13h0l-.08.31Zm-.23.36h.09v-.51s0-.09-.09-.08h.32c.12,0,.23,0,.23.17,0,.1-.07.19-.16.21l.11.15c.04.06.09.11.15.16h-.13s-.11-.13-.24-.32h0v.23h.09-.36Zm.33.19c.29-.1.44-.41.34-.7-.06-.17-.19-.3-.36-.35-.3,0-.54.25-.54.55,0,.3.23.54.52.55,0,0,0,0,.01,0m0-1.22c.37,0,.67.3.67.67s-.3.67-.67.67-.67-.3-.67-.67c0-.36.28-.66.64-.67,0,0,.02,0,.03,0"/>
    </g>
    <g>
      <path class="cls-12" d="m73.78,100.85H18.69v54.9h55.09v-18.14c.23-.36.34-.78.32-1.21.03-.43-.08-.85-.32-1.21"/>
      <path class="cls-7" d="m23.66,124.59l-1.06-2.56-1.06,2.56m25.44-1.02c-.24.12-.5.17-.76.13h-1.86v-1.43h1.9c.25-.02.5.02.74.12.21.11.34.33.32.56.03.26-.09.52-.32.66v-.04Zm13.39,1.02l-1.07-2.56-1.06,2.56h2.13Zm-24.96,2.77h-1.59v-5.09l-2.25,5.09h-1.34l-2.28-5.09v5.09h-3.15l-.59-1.43h-3.23l-.6,1.43h-1.67l2.77-6.43h2.29l2.68,6.09v-6.09h2.53l2.02,4.37,1.82-4.37h2.58s0,6.43,0,6.43Zm6.32,0h-5.17v-6.43h5.17v1.34h-3.63v1.16h3.53v1.34h-3.53v1.34h3.63v1.25Zm7.28-4.69c.03.73-.38,1.4-1.04,1.71.3.1.56.29.76.54.21.35.3.77.25,1.18v1.26h-1.59v-.8c.07-.43-.02-.88-.24-1.26-.23-.23-.58-.27-1.12-.27h-1.67v2.33h-1.55v-6.43h3.56c.64-.06,1.29.04,1.87.31.52.28.82.84.78,1.43Zm2.48,4.69h-1.58v-6.43h1.58v6.43Zm18.33,0h-2.2l-2.93-4.82v4.82h-3.15l-.6-1.43h-3.23l-.58,1.43h-1.81c-.81.05-1.62-.2-2.25-.71-.61-.66-.91-1.55-.83-2.45-.07-.92.23-1.82.83-2.52.65-.56,1.5-.83,2.36-.75h1.5v1.34h-1.47c-.44-.05-.87.09-1.19.39-.32.41-.48.93-.44,1.45-.05.54.1,1.08.43,1.51.3.25.69.37,1.08.33h.66l2.21-5.02h2.33l2.68,6.08v-6.08h2.29l2.68,4.49v-4.49h1.58v6.43h.05Zm-51.14,1.27h2.68l.59-1.43h1.34l.58,1.43h5.21v-1.1l.47,1.1h2.68l.46-1.11v1.11h12.93v-2.34h.24c.19,0,.23,0,.23.31v2.04h6.69v-.55c.77.38,1.62.57,2.48.55h2.83l.6-1.43h1.34l.59,1.43h5.36v-1.34l.83,1.34h4.34v-8.97h-4.23v1.06l-.6-1.06h-4.42v1.06l-.52-1.06h-5.99c-.89-.04-1.78.14-2.58.52v-.52h-4.11v.52c-.5-.38-1.12-.57-1.75-.52h-15.02l-1.02,2.32-1.03-2.32h-4.73v1.06l-.52-1.06h-4.02l-1.87,4.26v4.71h-.03Z"/>
      <path class="cls-7" d="m73.78,133.37h-2.83c-.22-.02-.44.02-.63.12-.16.1-.24.27-.23.46,0,.22.13.41.33.48.2.05.4.08.6.07h.84c.63-.07,1.26.12,1.75.52.06.04.11.09.15.15m0,2.41c-.52.6-1.31.91-2.1.83h-3v-1.41h2.99c.22.03.45-.03.63-.16.11-.11.18-.26.17-.42,0-.16-.06-.32-.19-.43-.16-.11-.35-.17-.55-.15-1.45,0-3.27,0-3.27-1.98,0-.94.6-1.91,2.22-1.91h3.09v-1.34h-2.87c-.69-.04-1.37.15-1.94.52v-.52h-4.24c-.66-.03-1.3.15-1.85.52v-.52h-7.57v.52c-.64-.36-1.36-.54-2.09-.52h-4.99v.52c-.65-.4-1.41-.59-2.17-.52h-5.6l-1.34,1.34-1.21-1.34h-8.27v9.06h8.19l1.34-1.34,1.25,1.34h5.05v-2.09h.5c.73.05,1.47-.06,2.16-.32v2.41h4.14v-2.32h.2c.25,0,.28,0,.28.25v2.06h12.64c.74.03,1.48-.17,2.1-.58v.58h4.02c.78.02,1.56-.12,2.28-.42v-1.69Zm-6.19-2.56c.34.36.51.85.47,1.34,0,1.34-.87,2.04-2.44,2.04h-3.01v-1.39h3c.23.03.45-.03.64-.16.11-.11.18-.26.17-.42,0-.16-.07-.32-.19-.43-.16-.11-.35-.16-.55-.15-1.45,0-3.25,0-3.25-1.98,0-.94.59-1.91,2.21-1.91h3.11v1.34h-2.84c-.22-.03-.44.02-.63.12-.16.1-.24.27-.23.46,0,.22.13.41.33.48.2.06.4.08.6.07h.83c.65-.04,1.29.19,1.77.63v-.03Zm-13.97-.4c-.24.11-.5.16-.76.13h-1.87v-1.42h1.9c.25-.03.51.01.74.12.21.11.34.34.32.58.01.25-.11.48-.32.62v-.03Zm.94.8c.3.1.57.29.76.54.21.36.3.77.25,1.18v1.34h-1.55v-.8c.06-.44-.03-.88-.25-1.26-.32-.25-.73-.35-1.14-.29h-1.65v2.36h-1.57v-6.43h3.58c.64-.06,1.28.04,1.86.29.53.28.84.84.8,1.43,0,.73-.43,1.39-1.1,1.67v-.03Zm1.95-3.44h5.17v1.34h-3.63v1.16h3.53v1.34h-3.53v1.34h3.63v1.34h-5.17v-6.52Zm-10.44,2.96h-2v-1.61h2.01c.56,0,.95.23.95.79s-.4.84-.96.84v-.03Zm-3.55,2.88l-2.37-2.68,2.37-2.54v5.22Zm-6.13-.75h-3.8v-1.34h3.4v-1.34h-3.4v-1.16h3.88l1.69,1.87-1.77,1.97Zm12.31-2.97c0,1.78-1.34,2.16-2.68,2.16h-1.94v2.16h-3.01l-1.9-2.13-1.98,2.13h-6.13v-6.43h6.21l1.9,2.1,1.97-2.1h4.94c1.25.03,2.62.36,2.62,2.14v-.03Z"/>
    </g>
  </g>
</svg>