<?xml version="1.0" encoding="UTF-8"?>
<svg xmlns="http://www.w3.org/2000/svg" xmlns:xlink="http://www.w3.org/1999/xlink" viewBox="0 0 155.16 171.64">
  <defs>
    <style>
      .cls-1 {
        fill: #a0ec00;
      }

      .cls-1, .cls-2, .cls-3, .cls-4, .cls-5, .cls-6, .cls-7, .cls-8, .cls-9, .cls-10, .cls-11, .cls-12, .cls-13, .cls-14, .cls-15, .cls-16, .cls-17, .cls-18, .cls-19, .cls-20, .cls-21, .cls-22, .cls-23, .cls-24, .cls-25, .cls-26, .cls-27 {
        stroke-width: 0px;
      }

      .cls-2, .cls-22 {
        fill: #002751;
      }

      .cls-3 {
        fill: #dad9d8;
      }

      .cls-28 {
        fill: none;
        stroke: #2b3894;
        stroke-width: .26px;
      }

      .cls-4 {
        fill: url(#linear-gradient);
      }

      .cls-29 {
        font-family: Roboto-Regular, Roboto;
        font-size: 12px;
      }

      .cls-29, .cls-24 {
        fill: blue;
      }

      .cls-5 {
        fill: url(#linear-gradient-6);
      }

      .cls-6 {
        fill: #ea610a;
      }

      .cls-8 {
        fill: #2b3894;
      }

      .cls-9 {
        fill: #a7a7a7;
      }

      .cls-10 {
        fill: url(#linear-gradient-5);
      }

      .cls-11 {
        fill: #f59e00;
      }

      .cls-30 {
        letter-spacing: 0em;
      }

      .cls-12 {
        fill: #00b0a0;
      }

      .cls-13 {
        fill: #fff;
      }

      .cls-14 {
        fill: url(#linear-gradient-2);
      }

      .cls-15 {
        fill: url(#linear-gradient-7);
      }

      .cls-16 {
        fill: url(#linear-gradient-3);
      }

      .cls-17 {
        fill: #231f20;
      }

      .cls-18 {
        fill: #e54a94;
      }

      .cls-19 {
        fill: url(#linear-gradient-9);
      }

      .cls-20 {
        fill: url(#linear-gradient-8);
      }

      .cls-21 {
        fill: #05b0a8;
      }

      .cls-22 {
        isolation: isolate;
        opacity: .5;
      }

      .cls-23 {
        fill: #1d1d1b;
      }

      .cls-25 {
        fill: url(#linear-gradient-4);
      }

      .cls-26 {
        fill: #e20d17;
      }

      .cls-27 {
        fill: #cbaeff;
      }
    </style>
    <linearGradient id="linear-gradient" x1="13.69" y1="1012.4" x2="28.56" y2="1029.23" gradientTransform="translate(0 -898)" gradientUnits="userSpaceOnUse">
      <stop offset="0" stop-color="#00ad88"/>
      <stop offset="1" stop-color="#00aec3"/>
    </linearGradient>
    <linearGradient id="linear-gradient-2" x1="10.8" y1="1014.96" x2="25.67" y2="1031.79" xlink:href="#linear-gradient"/>
    <linearGradient id="linear-gradient-3" x1="9.62" y1="1016" x2="24.48" y2="1032.84" xlink:href="#linear-gradient"/>
    <linearGradient id="linear-gradient-4" x1="9.65" y1="1015.97" x2="24.52" y2="1032.81" xlink:href="#linear-gradient"/>
    <linearGradient id="linear-gradient-5" x1="104.75" y1="-1290.33" x2="104.75" y2="-1312.14" gradientTransform="translate(0 -1218.7) scale(1 -1)" gradientUnits="userSpaceOnUse">
      <stop offset="0" stop-color="#2b3894"/>
      <stop offset="1" stop-color="#293681"/>
    </linearGradient>
    <linearGradient id="linear-gradient-6" x1="115.97" y1="-1290.41" x2="115.97" y2="-1311.59" xlink:href="#linear-gradient-5"/>
    <linearGradient id="linear-gradient-7" x1="130.87" y1="-1290.33" x2="130.87" y2="-1312.14" xlink:href="#linear-gradient-5"/>
    <linearGradient id="linear-gradient-8" x1="92.95" y1="-1290.33" x2="92.95" y2="-1312.14" xlink:href="#linear-gradient-5"/>
    <linearGradient id="linear-gradient-9" x1="86.13" y1="-1302.44" x2="84.41" y2="-1290.95" gradientTransform="translate(0 -1218.7) scale(1 -1)" gradientUnits="userSpaceOnUse">
      <stop offset="0" stop-color="#f78610"/>
      <stop offset="1" stop-color="#f79510"/>
    </linearGradient>
  </defs>
  <g id="Layer_2" data-name="Layer 2">
    <rect class="cls-3" x="-741.27" y="-312.5" width="927.32" height="498.37"/>
    <rect class="cls-13" y=".14" width="155.16" height="171.5"/>
  </g>
  <g id="katman_1" data-name="katman 1">
    <g id="Layer_2-2" data-name="Layer 2">
      <path class="cls-17" d="m55.28,118.75c-2.67,0-4.87,2.2-4.87,4.87s2.2,4.87,4.87,4.87,4.87-2.2,4.87-4.87h0c0-2.74-2.2-4.87-4.87-4.87Zm0,7.61c-1.53,0-2.8-1.27-2.8-2.8s1.27-2.8,2.8-2.8,2.8,1.27,2.8,2.8-1.27,2.8-2.8,2.8h0Z"/>
      <path class="cls-17" d="m35.99,118.75c-2.67,0-4.87,2.2-4.87,4.87s2.2,4.87,4.87,4.87,4.87-2.2,4.87-4.87h0c0-2.74-2.2-4.87-4.87-4.87Zm0,7.61c-1.53,0-2.8-1.27-2.8-2.8s1.27-2.8,2.8-2.8,2.8,1.27,2.8,2.8h0c-.07,1.6-1.27,2.8-2.8,2.8h0Z"/>
      <path class="cls-17" d="m49.87,128.23h-8.28v-1.6l5.01-5.67h-4c-.53,0-.93-.4-.93-.93v-1.07h8.21v1.67l-5.21,5.61h4.27c.53,0,.93.4.93.93h0v1.07Z"/>
      <path class="cls-17" d="m71.56,128.29h-2.27l-1.8-5.47-1.87,5.47h-2.2l-3.07-9.34h1.47c.53,0,1.07.33,1.2.87l1.53,4.87,1.87-5.74h1.94l1.87,5.74,1.53-4.87c.2-.53.67-.87,1.2-.87h1.67l-3.07,9.34Z"/>
      <path class="cls-4" d="m27.31,125.96c-.4.07-.8-.27-.87-.67h0c-.47-3.74-3.67-6.54-7.41-6.54-2,0-3.94.8-5.34,2.2h0c-.33.33-.8.33-1.13,0h0c-.33-.33-.33-.8,0-1.13h0c1.67-1.74,4-2.67,6.41-2.67,4.54,0,8.41,3.4,9.01,7.94h0c.07.47-.27.8-.67.87h0Z"/>
      <path class="cls-14" d="m18.97,129.09c-1.6,0-2.87-1.33-2.87-2.87s1.33-2.87,2.87-2.87,2.87,1.27,2.87,2.87c.07,1.6-1.2,2.87-2.87,2.87q.07,0,0,0Zm0-4.14c-.73,0-1.33.6-1.33,1.33s.6,1.33,1.33,1.33,1.33-.6,1.33-1.33-.53-1.33-1.33-1.33Z"/>
      <path class="cls-16" d="m20.84,121.15v.2c-.07.33-.4.6-.73.6h-.2c-.27-.07-.6-.13-.93-.13-1.07,0-2.14.4-3,1.13-.4.33-.73.73-1.13,1.13l-.53.6-2.74,2.74-.93.93c-.13.13-.4.13-.53,0-.07-.07-.07-.13-.13-.2,0-.2-.07-.4-.07-.6-.07-.4.07-.8.4-1.07l1.33-1.33,1.6-1.6.53-.53c.4-.4.8-.87,1.2-1.2,1.47-1.2,3.4-1.74,5.27-1.33.33,0,.6.33.6.67Z"/>
      <path class="cls-25" d="m18.97,135.3c-3.14,0-6.07-1.74-7.74-4.47-.2-.33-.13-.67.13-.93l2.27-2.27c.33-.33.8-.33,1.07,0,.07.07.13.13.2.27.87,2.27,3.47,3.34,5.74,2.47,1.67-.67,2.8-2.34,2.8-4.14v-.47c-.13-1-.6-1.94-1.33-2.6h0c-.27-.33-.27-.8,0-1.13h0c.33-.33.8-.33,1.07,0h0c1,.93,1.6,2.2,1.8,3.54v.73c0,3.27-2.67,5.94-5.94,6.01-2,0-3.94-1-5.01-2.74l-1.13,1.07c2.4,3.4,7.07,4.2,10.41,1.8.6-.4,1.07-.87,1.53-1.4h0c.27-.33.73-.4,1.07-.13h0c.33.27.4.73.13,1.07h0c-1.74,2.07-4.34,3.34-7.07,3.34Z"/>
      <path class="cls-12" d="m32.65,131.43c-.27,0-.47.13-.47.27,0,.6,1.53.27,1.47,1.27,0,.47-.47.8-1.07.8-.4,0-.8-.13-1.13-.47l.2-.4c.27.27.6.4.93.4s.53-.13.53-.33c0-.6-1.53-.27-1.53-1.27,0-.47.4-.8,1-.8.33,0,.67.07,1,.27l-.2.4c-.13-.07-.47-.13-.73-.13Z"/>
      <path class="cls-12" d="m36.06,132.9h-1.6c.07.33.33.53.67.53.2,0,.47-.07.6-.27l.27.27c-.2.27-.53.33-.87.33-.53.07-1.07-.4-1.07-.93v-.13c0-.53.4-1.07,1-1.07h.07c.73,0,1,.47.93,1.27Zm-.4-.33c0-.27-.2-.53-.53-.53h-.07c-.33,0-.6.2-.6.53h1.2Z"/>
      <path class="cls-12" d="m37.46,132.03c-.4,0-.67.27-.67.67s.27.67.67.67c.27,0,.47-.07.6-.27l.27.27c-.2.27-.53.4-.87.4-.6,0-1.07-.47-1.07-1.07s.47-1.07,1.07-1.07c.33,0,.67.13.87.33l-.27.27c-.2-.13-.4-.2-.6-.2Z"/>
      <path class="cls-12" d="m40.73,131.63v2.14h-.47v-.4c-.13.27-.47.47-.73.4-.4,0-.73-.27-.8-.67v-1.47h.47v1.2c0,.27.13.47.4.53h.07c.33,0,.6-.27.6-.6v-1.07h.47v-.07Z"/>
      <path class="cls-12" d="m42.6,131.63v.47c-.33-.07-.67.2-.73.6v1.13h-.47v-2.14h.47v.4c.13-.33.4-.47.73-.47Z"/>
      <path class="cls-12" d="m44.8,132.9h-1.53c.07.33.33.53.67.53.2,0,.47-.07.6-.27l.27.27c-.2.27-.53.33-.87.33-.53.07-1.07-.4-1.07-.93v-.13c0-.53.4-1.07,1-1.07h.07c.67,0,.93.47.87,1.27Zm-.33-.33c0-.27-.2-.53-.53-.53h-.07c-.33,0-.6.2-.6.53h1.2Z"/>
      <path class="cls-12" d="m48.74,131.9c0,.6-.4,1-1.13,1h-.67v.87h-.47v-2.8h1.13c.73,0,1.13.33,1.13.93Zm-.47,0c0-.33-.27-.53-.67-.53h-.6v1.13h.6c.47,0,.67-.2.67-.6h0Z"/>
      <path class="cls-12" d="m50.47,133.77v-.27c-.2.2-.4.27-.67.27-.33.07-.67-.2-.73-.6v-.07c0-.4.27-.67.8-.67h.67c0-.27-.2-.4-.53-.4-.2,0-.47.07-.6.2l-.2-.33c.27-.2.6-.27.93-.27.53,0,.87.27.87.73v1.4h-.53Zm0-.73v-.2h-.6c-.33,0-.47.07-.47.27s.13.33.4.33c.33,0,.6-.13.67-.4Z"/>
      <path class="cls-12" d="m51.61,134.57c-.2,0-.33-.07-.47-.2l.2-.33c.07.07.2.07.27.13.13,0,.27-.07.33-.2l.07-.13-.87-2.07h.47l.6,1.6.6-1.6h.47l-.93,2.4c-.13.2-.4.4-.73.4Z"/>
      <path class="cls-12" d="m57.14,132.43v1.33h-.47v-1.2c0-.27-.13-.47-.4-.53h-.07c-.33,0-.6.27-.6.6v1.13h-.47v-1.2c0-.27-.13-.47-.4-.53h-.07c-.33,0-.6.27-.6.67h0v1.07h-.47v-2.14h.47v.4c.13-.27.47-.47.8-.4.33,0,.67.2.73.53.13-.33.47-.53.8-.53.4,0,.73.27.8.67-.07.07-.07.13-.07.13Z"/>
      <path class="cls-12" d="m59.61,132.9h-1.6c.07.33.33.53.67.53.2,0,.47-.07.6-.27l.27.27c-.2.27-.53.33-.87.33-.53.07-1.07-.4-1.07-.93v-.13c0-.6.4-1.07,1-1.07h.07c.67,0,1,.47.93,1.27Zm-.4-.33c0-.33-.27-.53-.53-.53h-.07c-.33,0-.6.2-.6.53h1.2Z"/>
      <path class="cls-12" d="m62.08,132.43v1.33h-.47v-1.2c0-.27-.2-.47-.4-.53h-.07c-.33,0-.6.27-.6.6v1.13h-.47v-2.14h.47v.4c.13-.27.47-.47.73-.4.4-.07.8.27.8.67v.13Z"/>
      <path class="cls-12" d="m63.89,133.63c-.13.07-.33.13-.53.13-.33,0-.6-.2-.6-.53v-1.13h-.27v-.33h.27v-.6h.53v.6h.6v.33h-.6v1c0,.2.07.27.2.27s.2-.07.33-.07l.07.33Z"/>
      <path class="cls-12" d="m64.95,132.03c-.2,0-.33.07-.33.2,0,.4,1.13.2,1.13.93,0,.47-.4.6-.8.6-.33,0-.6-.07-.87-.27l.13-.33c.2.2.47.27.73.27.2,0,.33-.07.33-.2,0-.47-1.13-.2-1.13-.93,0-.47.4-.6.8-.6.27,0,.53.07.73.2l-.2.33c-.13-.13-.33-.2-.53-.2Z"/>
    </g>
    <g>
      <path class="cls-1" d="m125.45,117.77v-7.02h-11.72c6.86,0,9.77,3.87,11.72,7.02Z"/>
      <path class="cls-1" d="m95.7,126.22v11.66l6.17-.51c.81,6.99,6.6,7.76,8.81,7.76s8.46-.36,8.69-5.32c.23-4.96-7.95-5.19-15.26-7.45-4.97-1.53-7.42-4.45-8.41-6.15Z"/>
      <path class="cls-1" d="m125.45,132.1v-9.49l-7.42.36c-.52-5.5-5.55-5.86-7.01-5.9-1.46-.04-8,.18-7.76,3.83.24,3.65,4.17,3.86,12.71,6.1,5.81,1.53,8.01,3.8,9.47,5.1Z"/>
      <path class="cls-1" d="m116.74,151.71h8.71v-5.31c-2.44,3.28-6.56,4.82-8.71,5.31Z"/>
      <path class="cls-1" d="m107.69,110.75h-11.99v6.26c2.74-3.92,7.21-6.26,11.99-6.26Z"/>
      <path class="cls-1" d="m95.7,145.36v6.35h12.24c-6.75-.49-10.78-3.28-12.24-6.35Z"/>
      <path class="cls-9" d="m98.61,157.27l.53.14c-.09.38-.29.73-.6.98-.3.23-.67.35-1.05.34-.37.02-.73-.08-1.04-.26-.27-.19-.48-.45-.6-.76-.14-.34-.21-.7-.21-1.06,0-.37.07-.74.23-1.08.15-.29.38-.54.67-.7.29-.16.63-.24.96-.24.36-.01.71.09,1,.3.28.21.48.51.57.85l-.52.13c-.06-.25-.2-.47-.4-.63-.19-.14-.43-.21-.66-.2-.27,0-.54.07-.76.22-.2.15-.36.36-.43.6-.18.53-.18,1.11,0,1.65.08.23.25.43.46.56.2.12.43.19.67.18.27,0,.54-.08.75-.25.23-.2.38-.48.42-.78Z"/>
      <path class="cls-9" d="m104.09,156.73c-.03-.56.16-1.12.53-1.54.35-.37.85-.57,1.37-.55.35,0,.69.08.99.26.29.17.52.42.67.73.16.33.24.7.23,1.07,0,.37-.08.74-.24,1.07-.15.31-.39.56-.69.72-.29.16-.62.25-.96.24-.35,0-.7-.09-1-.27-.29-.18-.52-.43-.67-.74-.15-.31-.23-.65-.23-1Zm.54,0c-.02.42.13.83.42,1.14.25.27.6.42.97.41.37.01.73-.14.97-.42.28-.33.42-.76.39-1.19,0-.29-.05-.58-.17-.85-.1-.23-.27-.42-.48-.55-.21-.14-.46-.21-.71-.2-.36,0-.7.13-.95.38-.32.35-.47.82-.44,1.29h0Z"/>
      <path class="cls-9" d="m113.36,158.66v-3.97h1.36c.24,0,.48.02.71.06.22.04.42.14.6.28.21.18.37.42.47.68.19.56.21,1.17.05,1.74-.05.21-.15.41-.27.6-.1.14-.22.26-.36.36-.14.1-.3.16-.47.2-.21.05-.42.07-.64.07l-1.44-.02Zm.53-.47h.85c.2,0,.4-.02.6-.07.13-.04.25-.11.35-.21.14-.14.24-.31.29-.5.07-.25.11-.51.1-.76.02-.33-.05-.66-.2-.95-.11-.2-.29-.36-.5-.45-.22-.05-.44-.07-.66-.05h-.83v3Z"/>
      <path class="cls-9" d="m122.42,158.66v-3.97h2.86v.5h-2.34v1.19h2.2v.47h-2.2v1.32h2.43v.47l-2.95.02Z"/>
      <path class="cls-7" d="m126.36,154.74v-.8h.31s.09,0,.14,0c.04.01.06.04.08.08.07.1.04.23-.06.3-.03.02-.07.03-.11.04l.06.04.08.11.12.21h-.12l-.09-.12-.07-.11-.05-.05h-.2v.35l-.1-.05Zm.1-.44h.2s.06,0,.1,0c.02,0,.04-.03.05-.05,0-.02,0-.05,0-.07,0-.04-.01-.07-.04-.1-.03-.03-.07-.04-.11-.04h-.21l.02.25Z"/>
    </g>
    <g>
      <path class="cls-24" d="m123.81,25.87v2.53s0,.04,0,.04v2.45c0,.33.27.59.59.59s.59-.27.59-.59v-2.45s0-.02,0-.01v-.03c0-.53.18-1.02.5-1.39.31-.35.71-.54,1.13-.54.42,0,.82.19,1.13.54.32.37.5.86.5,1.39v2.48c0,.33.27.59.59.59s.59-.27.59-.59v-2.48c0-.82-.28-1.59-.8-2.18-.53-.61-1.25-.94-2.02-.94-.59,0-1.16.2-1.63.57,0-.32-.27-.57-.59-.57s-.59.27-.59.59"/>
      <path class="cls-24" d="m119.31,45.86v-6.86c0-2.11-.73-4.09-2.05-5.6-1.36-1.54-3.17-2.39-5.12-2.39-1.84,0-3.57.76-4.9,2.15v-7.87c0-.63-.51-1.14-1.14-1.14s-1.14.51-1.14,1.14v13.06s0,.02,0,.03v7.36c0,.63.51,1.14,1.14,1.14s1.14-.51,1.14-1.14v-6.9c.04-1.49.55-2.89,1.48-3.93.93-1.05,2.14-1.62,3.42-1.62,1.28,0,2.49.58,3.42,1.62.96,1.09,1.48,2.54,1.48,4.1v6.86c0,.63.51,1.14,1.14,1.14s1.14-.51,1.14-1.14m-15.85-2.61c.09-.37.12-.79.1-1.13,0,0,0-.13,0-.18,0-.05-.01-.09-.01-.09-.26-2.31-2.21-4.05-4.54-4.05h-4.85c-.61,0-1.19-.24-1.62-.67-.43-.43-.67-1.01-.67-1.62,0-.61.24-1.19.67-1.62.43-.43,1.01-.67,1.62-.67h7.19c.63,0,1.14-.51,1.14-1.14s-.51-1.14-1.14-1.14h-7.19c-2.52,0-4.57,2.05-4.57,4.56s2.05,4.56,4.57,4.56h4.85c.61,0,1.19.24,1.62.67.34.34.57.78.64,1.25,0,.02.02.12.03.34,0,.12,0,.25-.04.39-.1.42-.32.75-.32.75-.02.03-.02.02-.04.06-.03.04-.71,1.04-2.8,1.04-.03,0-.15,0-.18,0h-6.56c-.62,0-1.13.51-1.13,1.13s.51,1.13,1.13,1.13h6.56s.14,0,.18,0c3.22,0,4.48-1.73,4.71-2.1.11-.16.46-.73.64-1.49m-14.96-4.31s0-.06,0-.09c0-2.11-.73-4.1-2.05-5.6-1.36-1.54-3.17-2.39-5.12-2.39-.08,0-.16,0-.24.03-.93.02-2.22.23-3.44,1-.53.33-.69,1.03-.35,1.56.22.34.58.53.96.53.21,0,.42-.06.6-.18,1.42-.9,3.08-.61,3.09-.61.03,0,.06,0,.09,0,1.01.17,1.95.71,2.7,1.56.71.81,1.19,1.84,1.38,2.96h-6.33c-2.52,0-4.56,2.05-4.57,4.56,0,2.52,2.05,4.56,4.57,4.57h0s.17,0,.2,0h4.2c1.49,0,2.64-.41,3.41-1.22.87-.92.9-2.01.89-2.27v-4.32s0-.05,0-.08m-2.25,4.49s-.01.36-.28.64c-.32.34-.93.51-1.76.51h-4.2c-.05,0-.09,0-.2,0-.61,0-1.19-.24-1.62-.67-.43-.43-.67-1.01-.67-1.62s.24-1.19.67-1.62c.43-.43,1.01-.67,1.62-.67h6.44v3.38s0,.04,0,.07m-11.74-8.49c.47-.41.51-1.13.1-1.6-1.36-1.54-3.17-2.39-5.12-2.39s-3.76.85-5.12,2.39c-1.32,1.5-2.05,3.49-2.05,5.6,0,1.1.21,2.18.59,3.18v.02s.11.27.11.27c.05.11.11.22.16.33.02.05.04.1.07.14.02.04.04.07.06.1.39.72.88,1.38,1.45,1.96,0,0,0,0,0,0,.07.08,1.69,1.95,4.96,2.15.02,0,.05,0,.07,0,.01,0,.23,0,.34,0,.93,0,2.33-.17,3.64-1,.53-.33.69-1.03.35-1.56-.33-.53-1.03-.69-1.56-.35-.97.61-2.04.67-2.63.65-.02,0-.1,0-.12,0-1.58-.11-2.65-.78-3.08-1.14,0,0-.01-.02-.02-.02-.62-.54-1.13-1.2-1.51-1.97-.4-.84-.61-1.79-.61-2.76,0-1.55.53-3.01,1.48-4.1.92-1.05,2.14-1.62,3.41-1.62,1.28,0,2.49.58,3.42,1.62.4.45,1.15.5,1.6.1m-11.47-2.86c0-.63-.51-1.14-1.14-1.14h-4.9v-5.72c0-.63-.51-1.14-1.14-1.14s-1.14.51-1.14,1.14v16.94s0,0,0,0v1.18c0,.25.02,1.46.94,2.42.47.49,1.35,1.08,2.86,1.08.63,0,1.13-.51,1.13-1.13s-.51-1.13-1.13-1.13c-.56,0-.97-.12-1.22-.37-.31-.32-.32-.8-.32-.8,0-.02,0-.03,0-.05v-1.12s0-9.03,0-9.03h4.9c.63,0,1.14-.51,1.14-1.14m-10.41,7.66c.21-.21.33-.5.33-.8,0-2.11-.73-4.09-2.05-5.6-1.36-1.54-3.17-2.39-5.12-2.39s-3.78.87-5.12,2.39c-1.32,1.5-2.05,3.49-2.05,5.6,0,1.1.21,2.18.6,3.18v.02s.11.27.11.27c.04.08.08.16.12.24.04.07.07.15.11.22.02.05.05.09.08.14.39.71.87,1.36,1.43,1.93,0,0,0,0,0,.01.06.07,1.42,1.62,4.12,2.06.01,0,.35.06.77.09.02,0,.15,0,.15,0,.07,0,.14,0,.21,0,.93,0,2.33-.17,3.64-1,.53-.33.69-1.04.35-1.57-.34-.53-1.04-.69-1.57-.35-.93.59-1.95.67-2.56.65-.01,0-.03,0-.04,0-1.67-.1-2.68-.78-3.12-1.14,0,0-.02-.02-.03-.03-.62-.54-1.13-1.21-1.51-1.98-.24-.51-.41-1.05-.51-1.62h10.84c.3,0,.59-.12.8-.33m-2.04-1.94h-9.6c.19-1.12.67-2.16,1.38-2.96.92-1.05,2.14-1.62,3.41-1.62,1.28,0,2.49.58,3.42,1.62.71.81,1.19,1.84,1.38,2.96m-13.56,7.89v-6.75c0-2.11-.73-4.1-2.05-5.6-1.36-1.54-3.17-2.39-5.12-2.39-1.84,0-3.57.76-4.9,2.15v-1.02c0-.63-.51-1.13-1.14-1.13s-1.14.51-1.14,1.13v6.86s0,.04,0,.06c0,.02,0,.04,0,.06v6.64c0,.63.51,1.14,1.14,1.14s1.14-.51,1.14-1.14v-6.64s0-.04,0-.06c0-.02,0-.04,0-.06,0-1.56.53-3.01,1.48-4.1.92-1.05,2.14-1.62,3.41-1.62,1.28,0,2.49.58,3.42,1.62.96,1.09,1.49,2.55,1.48,4.1v6.75c0,.63.51,1.13,1.14,1.13s1.14-.51,1.14-1.13"/>
      <path class="cls-21" d="m126.43,34.36c-1.01,0-2.02-.26-2.9-.74-.29-.16-.39-.52-.23-.8.16-.29.52-.39.8-.23.71.39,1.52.59,2.34.59.96,0,1.89-.28,2.68-.8.27-.18.64-.1.82.17.18.27.1.64-.17.82-.99.65-2.14,1-3.33,1"/>
      <path class="cls-18" d="m130.64,32.37c-.13,0-.27-.04-.38-.13-.25-.21-.29-.58-.08-.83.72-.87,1.11-1.97,1.11-3.1,0-.79-.19-1.57-.56-2.26-.15-.29-.04-.65.25-.8.29-.15.65-.04.8.25.45.86.69,1.83.69,2.81,0,1.4-.49,2.77-1.38,3.85-.12.14-.29.21-.46.21"/>
      <path class="cls-24" d="m122.61,32.8c-.15,0-.3-.06-.41-.17-1.18-1.15-1.82-2.69-1.82-4.33,0-3.34,2.72-6.06,6.06-6.06,1.62,0,3.14.63,4.28,1.77.23.23.23.6,0,.84-.23.23-.6.23-.84,0-.92-.92-2.14-1.43-3.45-1.43-2.69,0-4.87,2.19-4.87,4.87,0,1.32.52,2.56,1.47,3.48.23.23.24.6,0,.84-.12.12-.27.18-.42.18"/>
    </g>
    <text class="cls-29" transform="translate(41.15 18.24)"><tspan class="cls-30" x="0" y="0">P</tspan><tspan x="7.51" y="0">ayments by:</tspan></text>
    <g id="Layer_2-3" data-name="Layer 2">
      <polygon class="cls-10" points="104.11 73.75 108.55 73.75 105.56 92.95 100.96 92.95 104.11 73.75"/>
      <path class="cls-5" d="m123.13,74.21l-.7,3.94s-4.35-2.03-6.44-.25c-1.75,1.63,3.32,3.72,3.32,3.72,1.71.97,2.85,2.71,3.06,4.66,0,2.96-1.73,5.77-6.81,6.14-5.08.37-6.76-.75-6.76-.75l.53-4.06c1.5.65,3.08,1.09,4.71,1.29,1.87,0,3.17-.53,3.45-1.48.28-.95-.7-1.78-1.94-2.35s-5.42-2.77-4.84-6.07c.58-3.3,4.28-7.16,12.42-4.78Z"/>
      <path class="cls-15" d="m134.97,92.95h4.56l-4-19.24h-4c-.97.22-1.78.88-2.19,1.78-.53,1.48-7.13,17.42-7.13,17.42h4.66l1.27-3.83h6.16c.31,1.28.53,2.57.67,3.88Zm-5.55-7.03l2.62-6.91s.13-.4.22,0c0,.22.71,3.66,1.36,6.87l-4.2.04Z"/>
      <circle class="cls-28" cx="141.16" cy="91.23" r="1.04"/>
      <path class="cls-8" d="m140.73,91.8v-1.11h.43c.06-.02.13-.02.19,0,.05.01.09.05.1.1.02.05.02.11,0,.16.02.15-.1.29-.25.31,0,0-.01,0-.02,0,.02,0,.05,0,.07,0,.04.04.08.09.1.15l.18.3h-.16l-.13-.22c-.03-.05-.06-.11-.09-.16l-.07-.07h-.19v.49l-.16.06Zm.12-.62h.41l.09-.07s0-.07,0-.1c.01-.09-.05-.17-.14-.18-.02,0-.05,0-.07,0h-.25l-.04.36Z"/>
      <path class="cls-20" d="m96.96,73.75h4.66l-7.49,19.24h-5.17l-4.69-19.24h3.33s1.87-.24,2.31,2.31,1.82,9.93,1.82,9.93c0,0,0,.61.28.19s4.94-12.43,4.94-12.43Z"/>
      <path class="cls-19" d="m83.99,73.75h3.61s1.87-.24,2.31,2.31c.27,1.6.92,5.11,1.38,7.5,0,0-2.38-6.62-11.84-9.81h8.38"/>
    </g>
    <g>
      <path class="cls-23" d="m27.26,98.04c-.14-.16-.32-.28-.52-.34-.21-.09-.44-.13-.66-.13h-.41c-.14.01-.27.05-.4.11-.14.05-.27.13-.38.23-.13.11-.23.23-.32.37-.14-.23-.34-.42-.57-.55-.25-.14-.54-.21-.83-.2h-.33c-.11.02-.23.06-.33.1-.11.05-.22.12-.32.19-.11.09-.2.19-.28.31v-.51h-.88v4.25h.89v-2.32c0-.16.03-.32.09-.47.05-.13.13-.26.23-.36.1-.09.21-.17.33-.22.14-.02.27-.02.41,0,.26-.02.52.08.7.28.18.23.27.52.26.82v2.27h.89v-2.32c0-.3.11-.6.31-.83.1-.09.22-.16.34-.22.14-.02.27-.02.41,0,.26-.02.52.09.7.28.17.24.26.53.24.82v2.27h.91v-2.63c0-.24-.04-.47-.13-.69-.07-.2-.19-.37-.34-.51Z"/>
      <path class="cls-23" d="m31.96,98.18c-.15-.19-.34-.35-.55-.46-.24-.12-.51-.17-.78-.17-.29,0-.57.05-.83.17-.25.11-.48.27-.68.46-.2.2-.35.44-.45.7-.11.28-.17.59-.17.89,0,.31.05.61.17.89.1.26.25.5.45.7.19.2.42.36.68.46.26.11.54.17.83.17.28.03.56-.02.82-.13.21-.11.4-.26.55-.45v.45h.92v-4.2h-.96v.51Zm0,2.13c-.06.16-.15.3-.26.43-.12.12-.26.21-.41.28-.16.07-.34.11-.52.1-.18,0-.37-.04-.54-.1-.15-.07-.28-.17-.4-.29-.11-.13-.19-.28-.26-.43-.06-.17-.09-.35-.09-.52,0-.18.03-.35.09-.52.06-.16.15-.3.26-.43.12-.12.25-.22.4-.29.17-.07.35-.1.54-.1.18,0,.36.03.52.1.15.07.29.17.41.28.11.13.19.28.26.43.12.35.12.73,0,1.07h0Z"/>
      <path class="cls-23" d="m37.16,99.77c-.32-.23-.69-.37-1.09-.41l-.43-.05h-.27l-.23-.08c-.05-.04-.1-.08-.14-.13-.02-.06-.02-.12,0-.18,0-.15.07-.29.2-.37.18-.1.38-.15.59-.14.13-.01.26-.01.4,0l.36.09.32.11.23.13.36-.72c-.24-.14-.51-.25-.78-.33-.31-.08-.63-.12-.95-.11-.25,0-.49.03-.73.1-.2.06-.38.15-.55.27-.15.11-.27.25-.34.42-.08.18-.12.37-.11.56-.01.32.12.62.36.83.31.24.68.38,1.07.42h.43c.2.02.39.07.56.17.11.06.18.18.18.31,0,.16-.1.3-.24.37-.23.1-.48.15-.73.14-.15.01-.31.01-.46,0-.13-.02-.25-.05-.37-.09-.11-.04-.21-.08-.31-.14-.09-.05-.18-.1-.26-.17l-.42.69c.14.11.3.21.47.28.16.07.33.13.5.17l.46.08h.38c.28,0,.55-.03.82-.1.22-.06.43-.15.63-.28.15-.11.28-.26.37-.43.08-.18.13-.37.13-.56.01-.33-.14-.65-.41-.84Z"/>
      <path class="cls-23" d="m45.79,98.17c-.17-.19-.39-.35-.63-.45-.25-.11-.53-.17-.8-.17-.29,0-.59.05-.86.17-.25.1-.48.25-.66.45-.19.2-.34.44-.43.7-.11.29-.16.6-.15.91,0,.31.05.62.15.92.1.26.25.5.45.7.2.2.43.35.69.45.28.11.57.16.87.15.31,0,.62-.04.92-.13.3-.09.58-.25.82-.46l-.46-.66c-.17.14-.37.25-.57.33-.2.07-.42.11-.64.11-.14.02-.29.02-.43,0-.14-.04-.27-.1-.38-.19-.11-.09-.21-.21-.28-.33-.09-.15-.14-.31-.17-.49h3.13v-.34c0-.31-.05-.61-.14-.91-.08-.28-.22-.54-.41-.77Zm-2.55,1.28c.02-.15.06-.29.13-.42.06-.12.14-.23.23-.33.1-.09.21-.17.33-.22.14-.05.29-.08.43-.08.27-.01.53.09.73.28.2.21.32.48.34.77h-2.2Z"/>
      <path class="cls-23" d="m58.05,98.18c-.15-.19-.33-.35-.55-.46-.24-.12-.51-.18-.78-.17-.29,0-.57.05-.83.17-.25.11-.47.27-.66.46-.2.2-.35.44-.46.7-.1.29-.16.59-.15.89,0,.3.05.61.15.89.11.26.26.5.46.7.18.2.41.36.66.46.26.11.54.17.83.17.27.02.53-.02.78-.13.21-.11.4-.26.55-.45v.45h.93v-4.2h-.93v.51Zm0,2.13c-.05.16-.14.31-.26.43-.11.12-.25.21-.4.28-.16.07-.34.11-.52.1-.18,0-.37-.03-.54-.1-.3-.15-.54-.41-.65-.73-.06-.17-.09-.34-.09-.52,0-.18.03-.36.09-.52.05-.16.14-.31.26-.43.11-.12.25-.22.4-.29.17-.07.35-.1.54-.1.18,0,.36.04.52.1.15.07.28.17.4.28.12.12.2.27.26.43.14.34.14.73,0,1.07h0Z"/>
      <path class="cls-23" d="m41.12,101.05c-.14.05-.29.08-.45.08-.08.01-.17.01-.26,0-.08-.03-.16-.08-.22-.14-.06-.07-.11-.15-.14-.24-.02-.12-.02-.25,0-.37v-1.88h1.48v-.83h-1.53v-1.28h-.93v1.28h-.84v.83h.84v1.86c-.05.46.1.93.41,1.28.3.28.7.42,1.11.4.25,0,.49-.04.73-.11.14-.06.27-.12.4-.19l-.32-.77-.28.09Z"/>
      <path class="cls-23" d="m49.44,97.55c-.24,0-.48.05-.7.14-.22.13-.4.31-.52.52v-.55h-.84v4.2h.86v-2.3c0-.16.02-.33.08-.49.04-.13.11-.26.2-.36.09-.1.2-.17.32-.22.13-.05.26-.08.4-.08h.55l.28-.88h-.61Z"/>
      <path class="cls-23" d="m62.27,97.55c-.24,0-.48.05-.7.14-.22.13-.4.31-.52.52v-.55h-.83v4.2h.84v-2.3c0-.16.02-.33.08-.49.04-.13.11-.25.2-.36.09-.1.2-.17.32-.22.13-.05.27-.08.41-.08h.55l.27-.88h-.61Z"/>
      <path class="cls-23" d="m66.58,95.94v2.23c-.15-.19-.34-.35-.55-.46-.24-.12-.51-.17-.78-.17-.29,0-.57.05-.83.17-.25.11-.48.27-.68.46-.2.2-.35.44-.45.7-.11.28-.17.59-.17.89,0,.31.05.61.17.89.1.26.25.5.45.7.19.2.42.36.68.46.26.11.54.17.83.17.27,0,.54-.05.78-.17.21-.11.4-.26.55-.45v.49h.92v-5.93h-.92Zm0,4.37c-.06.16-.15.3-.26.43-.12.12-.26.21-.41.28-.16.07-.34.11-.52.1-.18,0-.37-.04-.54-.1-.15-.07-.28-.17-.4-.29-.11-.13-.19-.28-.26-.43-.06-.17-.09-.35-.09-.52,0-.18.03-.35.09-.52.06-.16.15-.3.26-.43.12-.12.25-.22.4-.29.17-.07.35-.1.54-.1.18,0,.36.03.52.1.15.07.29.17.41.28.11.13.19.28.26.43.12.35.12.73,0,1.07h0Z"/>
      <path class="cls-23" d="m51.65,98.8c.12-.13.26-.22.42-.28.17-.07.34-.1.52-.1h0c.2,0,.39.04.57.1.17.06.32.15.45.27l.45-.74c-.17-.14-.36-.25-.56-.33-.29-.11-.6-.17-.91-.17-.31,0-.62.05-.91.17-.27.1-.51.27-.72.47-.21.2-.37.44-.49.7-.22.57-.22,1.2,0,1.76.11.26.28.5.49.7.2.21.45.37.72.47.29.11.6.17.91.17.31,0,.62-.05.91-.17.2-.08.39-.19.56-.33l-.4-.73c-.13.11-.28.2-.45.26-.18.07-.38.11-.57.1h0c-.18,0-.36-.03-.52-.1-.16-.06-.3-.15-.42-.27-.12-.13-.21-.27-.28-.43-.14-.35-.14-.74,0-1.1.05-.15.13-.3.23-.42Z"/>
      <path class="cls-23" d="m69.44,101.27c.06-.01.12-.01.18,0,.11.04.19.12.23.23.05.1.05.23,0,.33-.04.11-.12.19-.23.23-.11.05-.24.05-.36,0-.11-.02-.21-.09-.27-.19-.05-.1-.05-.23,0-.33.04-.11.12-.19.23-.23.07-.03.14-.04.22-.04Zm0,.74s.09.01.13,0c.03,0,.06,0,.09,0,0-.03,0-.06,0-.09.03-.08.03-.17,0-.26,0-.03,0-.06,0-.09-.03,0-.06,0-.09,0-.04-.01-.09-.01-.13,0-.04-.01-.08-.01-.11,0h-.1c-.07.11-.07.24,0,.34v.09h.1s.08.01.11,0Zm0-.5s.08-.01.11,0c.01.03.01.06,0,.09,0,.02,0,.05,0,.08-.02.01-.05.01-.08,0l.11.14h-.13l-.1-.14h0v.19h-.11v-.38l.19.03Zm-.08.09v.08h.11-.11v-.08Z"/>
      <path class="cls-26" d="m38.18,77.9c0-4.88,2.23-9.48,6.05-12.5-6.9-5.48-16.94-4.32-22.41,2.58-5.48,6.9-4.32,16.94,2.58,22.41,5.81,4.61,14.02,4.61,19.83,0-3.83-3.01-6.06-7.62-6.05-12.49Z"/>
      <ellipse class="cls-6" cx="44.23" cy="77.9" rx="6.05" ry="12.5"/>
      <path class="cls-11" d="m54.12,61.96c-3.59,0-7.07,1.21-9.88,3.44,6.9,5.45,8.08,15.47,2.62,22.37-.77.97-1.65,1.85-2.62,2.62,6.9,5.47,16.92,4.31,22.39-2.59,5.47-6.9,4.31-16.92-2.59-22.39-2.82-2.24-6.32-3.45-9.92-3.45Z"/>
    </g>
    <g>
      <rect class="cls-27" x="20.16" y="143.81" width="47.35" height="18.77" rx="2.96" ry="2.96"/>
      <g>
        <g>
          <path class="cls-2" d="m37.63,151.25v.5h.02c.1-.22.27-.36.49-.46s.46-.14.73-.14c.29,0,.56.05.78.17.22.1.39.26.53.43.15.19.24.38.32.63s.12.5.12.77-.02.53-.1.77-.17.46-.32.63c-.17.19-.34.34-.56.43s-.46.14-.75.14c-.1,0-.19,0-.32-.02s-.22-.05-.34-.1c-.12-.05-.22-.1-.32-.17-.1-.07-.19-.17-.24-.29h-.05v1.95h-.61v-5.24h.61Zm2.26,1.35c-.05-.17-.12-.31-.22-.46-.1-.12-.22-.24-.36-.31s-.32-.12-.53-.12-.39.05-.53.12c-.15.07-.27.19-.36.34-.1.14-.17.29-.19.46-.05.17-.07.34-.07.53s.02.36.07.53c.05.17.12.34.22.46s.22.24.36.31.34.12.56.12.39-.05.53-.12c.15-.07.27-.19.34-.34.1-.14.15-.29.19-.48.05-.17.05-.36.05-.55,0-.12,0-.31-.05-.48"/>
          <path class="cls-2" d="m44.55,155.05c-.1.07-.27.1-.44.1s-.29-.05-.39-.14-.15-.24-.15-.43c-.17.22-.36.36-.61.43-.22.1-.46.14-.73.14-.17,0-.34-.02-.49-.05-.15-.05-.29-.1-.39-.19-.12-.07-.19-.19-.27-.34-.07-.14-.1-.29-.1-.48,0-.22.05-.38.12-.53s.17-.24.29-.34.27-.14.41-.19.32-.07.46-.12c.17-.02.34-.05.49-.07s.29-.05.41-.07.22-.07.27-.14c.07-.07.1-.14.1-.26,0-.14-.02-.24-.07-.34-.05-.07-.12-.14-.19-.19s-.17-.07-.27-.1c-.1-.02-.19-.02-.29-.02-.27,0-.49.05-.66.14-.17.1-.27.29-.29.58h-.63c0-.24.05-.43.15-.6s.19-.29.36-.38c.15-.1.32-.17.51-.22.19-.05.39-.07.61-.07.17,0,.34.02.51.05.17.02.32.07.46.14.15.07.24.19.34.31.07.14.12.31.12.53v1.95c0,.14,0,.26.02.31.02.07.07.1.17.1.05,0,.12,0,.19-.02v.53h-.05Zm-1-1.95c-.07.05-.17.1-.32.12-.12.02-.27.05-.39.07-.15.02-.29.05-.41.05-.15.02-.27.05-.39.1-.12.05-.19.12-.27.22-.07.1-.1.22-.1.36,0,.1.02.19.07.26.05.07.1.12.17.17.07.05.15.07.24.1s.17.02.27.02c.19,0,.39-.02.53-.07.15-.05.27-.12.36-.22s.17-.17.19-.29c.05-.1.07-.19.07-.29v-.6h-.05Z"/>
          <path class="cls-2" d="m46.47,155.56c-.07.19-.15.34-.22.48-.07.12-.15.24-.24.31s-.17.14-.29.17c-.1.05-.22.05-.36.05-.07,0-.15,0-.22-.02-.07,0-.15-.02-.22-.05v-.55s.12.05.19.07c.07.02.12.02.17.02.12,0,.24-.02.32-.1.1-.07.15-.14.19-.26l.27-.65-1.51-3.77h.7l1.12,3.1h.02l1.07-3.1h.66l-1.65,4.3Z"/>
          <path class="cls-2" d="m48.3,151.81v-.55h.63v-.55c0-.31.1-.55.27-.7.17-.17.44-.24.78-.24.05,0,.12,0,.19.02.07,0,.15.02.19.05v.55s-.12-.02-.17-.05h-.17c-.15,0-.27.02-.36.1-.07.05-.12.17-.12.34v.53h.73v.55h-.73v3.25h-.63v-3.25h-.61v-.05Z"/>
          <rect class="cls-2" x="50.87" y="149.81" width=".63" height="5.24"/>
          <path class="cls-2" d="m55,154.81c-.29.22-.63.31-1.07.31-.29,0-.56-.05-.78-.14-.22-.1-.41-.24-.56-.41-.15-.17-.27-.38-.34-.63s-.12-.5-.12-.79.05-.55.12-.79c.1-.24.22-.46.36-.63.17-.17.34-.31.56-.41s.46-.14.7-.14c.34,0,.61.07.85.22.22.14.41.31.53.53.15.22.22.46.27.7.05.26.07.5.07.72h-2.84c0,.17.02.31.05.48.05.14.12.29.22.38.1.12.22.22.36.26.15.07.34.1.53.1.27,0,.49-.07.66-.19s.29-.31.34-.55h.61c-.05.46-.24.77-.53.99m-.15-2.43c-.05-.12-.12-.24-.22-.34s-.22-.17-.34-.22-.27-.1-.44-.1-.32.02-.44.1c-.12.05-.24.14-.34.24s-.17.22-.22.34c-.05.12-.1.26-.1.41h2.19c0-.17-.05-.31-.1-.43"/>
          <polygon class="cls-2" points="55.69 151.25 56.46 151.25 57.39 152.6 58.33 151.25 59.09 151.25 57.78 153.01 59.23 155.05 58.43 155.05 57.39 153.49 56.32 155.05 55.56 155.05 57 153.06 55.69 151.25"/>
        </g>
        <g>
          <path class="cls-2" d="m34.54,151.2c.05-.05.13-.1.18-.18h0c.28-.28.28-.77,0-1.05-.03-.03-.05-.05-.08-.08-.23-.18-.56-.18-.82-.05-.05.03-.1.08-.15.1-.05.05-.13.13-.18.18-.28.33-.51.67-.69,1.05-.15.33-.28.69-.36,1.05.36-.08.72-.18,1.05-.36.38-.15.74-.38,1.05-.67"/>
          <path class="cls-2" d="m29.67,150.15c-.05-.05-.1-.13-.18-.18h0c-.28-.28-.77-.28-1.05,0-.03.03-.08.08-.1.13-.15.23-.15.54-.03.79.03.05.08.1.1.15.05.05.13.13.18.18.31.28.67.51,1.02.69.33.15.69.28,1.05.36-.08-.36-.18-.72-.36-1.05-.13-.38-.36-.74-.64-1.08"/>
          <path class="cls-2" d="m34.72,155.24c-.05-.05-.13-.13-.18-.18-.31-.28-.67-.51-1.02-.69-.33-.15-.69-.28-1.05-.36.08.36.18.72.36,1.05.18.38.41.72.69,1.05.05.05.1.13.18.18h0c.28.28.77.28,1.05,0,.03-.03.05-.05.05-.08.18-.23.2-.56.05-.82-.03-.05-.08-.1-.13-.15"/>
          <path class="cls-2" d="m28.65,155.06c-.05.05-.13.1-.18.18-.05.05-.1.13-.13.18-.15.28-.1.64.13.87.05.05.08.08.13.1.2.13.46.15.67.05.08-.03.18-.1.23-.15.05-.05.13-.13.18-.18.28-.33.51-.67.69-1.05.15-.33.28-.69.36-1.05-.36.08-.69.18-1.02.36-.38.18-.74.41-1.05.69"/>
          <path class="cls-22" d="m31.59,153.94c-.31,0-.59.03-.87.08-.08.36-.18.72-.36,1.05-.18.38-.41.72-.69,1.05-.05.05-.1.13-.18.18-.08.08-.15.13-.23.15.08-.03.15-.08.23-.15.05-.05.1-.1.18-.15.56-.49,1.23-.72,1.92-.72s1.36.23,1.92.72c.05.05.13.1.18.15-.05-.05-.13-.13-.18-.18-.28-.33-.51-.67-.69-1.05-.15-.33-.28-.69-.36-1.05-.28-.05-.59-.08-.87-.08m-2.33,2.51h0"/>
          <path class="cls-22" d="m28.34,150.89c.03.05.08.1.1.15.05.05.1.1.15.18.95,1.1.95,2.76,0,3.87-.05.05-.1.1-.15.18.05-.05.13-.1.18-.18.31-.28.67-.51,1.02-.69.33-.15.69-.28,1.05-.36.13-.59.13-1.18,0-1.77-.36-.08-.72-.18-1.05-.36-.36-.18-.72-.41-1.02-.69-.05-.05-.13-.1-.18-.18-.03-.05-.08-.1-.1-.15m.13,4.35s-.03,0,0,0c-.05.05-.1.13-.13.18,0-.05.05-.13.13-.18-.03,0,0,0,0,0"/>
          <path class="cls-22" d="m34.72,151.02c-.05.05-.13.13-.18.18-.31.28-.67.51-1.02.69-.33.15-.69.28-1.05.36-.13.59-.13,1.18,0,1.77.36.08.72.18,1.05.36.36.18.72.41,1.02.69.05.05.13.1.18.18.05.05.1.1.13.18-.03-.05-.08-.13-.13-.18s-.1-.1-.15-.18c-.95-1.1-.95-2.76,0-3.87.05-.05.1-.1.15-.18"/>
          <path class="cls-22" d="m33.82,149.87c-.05.03-.1.08-.15.1-.05.05-.1.1-.18.15-.56.49-1.23.72-1.92.72s-1.36-.23-1.92-.72c-.05-.05-.13-.1-.18-.15.05.05.13.13.18.18.28.33.51.67.69,1.05.15.33.28.69.36,1.05.28.05.59.08.87.08.31,0,.59-.03.87-.08.08-.36.18-.72.36-1.05.18-.38.41-.72.69-1.05.05-.05.1-.13.18-.18.05-.05.1-.08.15-.1"/>
        </g>
      </g>
    </g>
  </g>
</svg>