<?xml version="1.0" encoding="UTF-8"?>
<svg xmlns="http://www.w3.org/2000/svg" xmlns:xlink="http://www.w3.org/1999/xlink" viewBox="0 0 155.16 281.52">
  <defs>
    <style>
      .cls-1 {
        fill: #a0ec00;
      }

      .cls-1, .cls-2, .cls-3, .cls-4, .cls-5, .cls-6, .cls-7, .cls-8, .cls-9, .cls-10, .cls-11, .cls-12, .cls-13, .cls-14, .cls-15, .cls-16, .cls-17, .cls-18, .cls-19, .cls-20, .cls-21, .cls-22, .cls-23, .cls-24, .cls-25, .cls-26, .cls-27, .cls-28, .cls-29 {
        stroke-width: 0px;
      }

      .cls-2, .cls-23 {
        fill: #002751;
      }

      .cls-3 {
        fill: #dad9d8;
      }

      .cls-30 {
        fill: none;
        stroke: #2b3894;
        stroke-width: .26px;
      }

      .cls-4 {
        fill: url(#linear-gradient);
      }

      .cls-31 {
        font-family: Roboto-Regular, Roboto;
        font-size: 12px;
      }

      .cls-31, .cls-26 {
        fill: blue;
      }

      .cls-5 {
        fill: url(#linear-gradient-6);
      }

      .cls-6 {
        fill: #ea610a;
      }

      .cls-8 {
        fill: #2b3894;
      }

      .cls-9 {
        fill: #a7a7a7;
      }

      .cls-10 {
        fill: url(#linear-gradient-5);
      }

      .cls-11 {
        fill: #f59e00;
      }

      .cls-32 {
        letter-spacing: 0em;
      }

      .cls-12 {
        fill: #00b0a0;
      }

      .cls-13 {
        fill: #fff;
      }

      .cls-14 {
        fill: url(#linear-gradient-2);
      }

      .cls-15 {
        fill: url(#linear-gradient-7);
      }

      .cls-16 {
        fill: url(#linear-gradient-3);
      }

      .cls-17 {
        fill: #231f20;
      }

      .cls-18 {
        fill: #e54a94;
      }

      .cls-19 {
        fill: url(#linear-gradient-9);
      }

      .cls-20 {
        fill: url(#radial-gradient);
      }

      .cls-21 {
        fill: url(#linear-gradient-8);
      }

      .cls-22 {
        fill: #05b0a8;
      }

      .cls-23 {
        isolation: isolate;
        opacity: .5;
      }

      .cls-24 {
        fill: #004a98;
      }

      .cls-25 {
        fill: #1d1d1b;
      }

      .cls-27 {
        fill: url(#linear-gradient-4);
      }

      .cls-28 {
        fill: #e20d17;
      }

      .cls-29 {
        fill: #cbaeff;
      }
    </style>
    <linearGradient id="linear-gradient" x1="23.83" y1="1140.74" x2="40.03" y2="1159.08" gradientTransform="translate(0 -898)" gradientUnits="userSpaceOnUse">
      <stop offset="0" stop-color="#00ad88"/>
      <stop offset="1" stop-color="#00aec3"/>
    </linearGradient>
    <linearGradient id="linear-gradient-2" x1="20.68" y1="1143.53" x2="36.87" y2="1161.87" xlink:href="#linear-gradient"/>
    <linearGradient id="linear-gradient-3" x1="19.39" y1="1144.66" x2="35.58" y2="1163.01" xlink:href="#linear-gradient"/>
    <linearGradient id="linear-gradient-4" x1="19.43" y1="1144.63" x2="35.63" y2="1162.97" xlink:href="#linear-gradient"/>
    <linearGradient id="linear-gradient-5" x1="104.75" y1="-689.85" x2="104.75" y2="-711.65" gradientTransform="translate(0 -618.21) scale(1 -1)" gradientUnits="userSpaceOnUse">
      <stop offset="0" stop-color="#2b3894"/>
      <stop offset="1" stop-color="#293681"/>
    </linearGradient>
    <linearGradient id="linear-gradient-6" x1="115.97" y1="-689.92" x2="115.97" y2="-711.1" xlink:href="#linear-gradient-5"/>
    <linearGradient id="linear-gradient-7" x1="130.87" x2="130.87" y2="-711.65" xlink:href="#linear-gradient-5"/>
    <linearGradient id="linear-gradient-8" x1="92.95" y1="-689.85" x2="92.95" y2="-711.65" xlink:href="#linear-gradient-5"/>
    <linearGradient id="linear-gradient-9" x1="86.13" y1="-701.96" x2="84.41" y2="-690.47" gradientTransform="translate(0 -618.21) scale(1 -1)" gradientUnits="userSpaceOnUse">
      <stop offset="0" stop-color="#f78610"/>
      <stop offset="1" stop-color="#f79510"/>
    </linearGradient>
    <radialGradient id="radial-gradient" cx="-42.7" cy="843.37" fx="-42.7" fy="843.37" r="53.16" gradientTransform="translate(67.29 -634.11) scale(.97)" gradientUnits="userSpaceOnUse">
      <stop offset="0" stop-color="#9dd5f6"/>
      <stop offset=".07" stop-color="#98d3f5"/>
      <stop offset=".16" stop-color="#89cef3"/>
      <stop offset=".25" stop-color="#70c6ef"/>
      <stop offset=".35" stop-color="#4ebbea"/>
      <stop offset=".45" stop-color="#23ade3"/>
      <stop offset=".5" stop-color="#0da6e0"/>
      <stop offset="1" stop-color="#2e77bc"/>
    </radialGradient>
  </defs>
  <g id="Layer_2" data-name="Layer 2">
    <rect class="cls-3" x="-567.65" y="-12.26" width="927.32" height="498.37"/>
    <rect class="cls-13" width="153.89" height="279.81"/>
  </g>
  <g id="katman_1" data-name="katman 1">
    <g>
      <path class="cls-1" d="m123.85,122.43v-7.02h-11.72c6.86,0,9.77,3.87,11.72,7.02Z"/>
      <path class="cls-1" d="m94.1,130.88v11.66l6.17-.51c.81,6.99,6.6,7.76,8.81,7.76s8.46-.36,8.69-5.32-7.95-5.19-15.26-7.45c-4.97-1.53-7.42-4.45-8.41-6.15Z"/>
      <path class="cls-1" d="m123.85,136.76v-9.49l-7.42.36c-.52-5.5-5.55-5.86-7.01-5.9s-8,.18-7.76,3.83,4.17,3.86,12.71,6.1c5.81,1.53,8.01,3.8,9.47,5.1Z"/>
      <path class="cls-1" d="m115.14,156.37h8.71v-5.31c-2.44,3.28-6.56,4.82-8.71,5.31Z"/>
      <path class="cls-1" d="m106.09,115.41h-11.99v6.26c2.74-3.92,7.21-6.26,11.99-6.26Z"/>
      <path class="cls-1" d="m94.1,150.02v6.35h12.24c-6.75-.49-10.78-3.28-12.24-6.35Z"/>
      <path class="cls-9" d="m97,161.93l.53.14c-.09.38-.29.73-.6.98-.3.23-.67.35-1.05.34-.37.02-.73-.08-1.04-.26-.27-.19-.48-.45-.6-.76-.14-.34-.21-.7-.21-1.06,0-.37.07-.74.23-1.08.15-.29.38-.54.67-.7.29-.16.63-.24.96-.24.36-.01.71.09,1,.3.28.21.48.51.57.85l-.52.13c-.06-.25-.2-.47-.4-.63-.19-.14-.43-.21-.66-.2-.27,0-.54.07-.76.22-.2.15-.36.36-.43.6-.18.53-.18,1.11,0,1.65.08.23.25.43.46.56.2.12.43.19.67.18.27,0,.54-.08.75-.25.23-.2.38-.48.42-.78Z"/>
      <path class="cls-9" d="m102.49,161.39c-.03-.56.16-1.12.53-1.54.35-.37.85-.57,1.37-.55.35,0,.69.08.99.26.29.17.52.42.67.73.16.33.24.7.23,1.07,0,.37-.08.74-.24,1.07-.15.31-.39.56-.69.72-.29.16-.62.25-.96.24-.35,0-.7-.09-1-.27-.29-.18-.52-.43-.67-.74-.15-.31-.23-.65-.23-1Zm.54,0c-.02.42.13.83.42,1.14.25.27.6.42.97.41.37.01.73-.14.97-.42.28-.33.42-.76.39-1.19,0-.29-.05-.58-.17-.85-.1-.23-.27-.42-.48-.55-.21-.14-.46-.21-.71-.2-.36,0-.7.13-.95.38-.32.35-.47.82-.44,1.29h0Z"/>
      <path class="cls-9" d="m111.75,163.32v-3.97h1.36c.24,0,.48.02.71.06.22.04.42.14.6.28.21.18.37.42.47.68.19.56.21,1.17.05,1.74-.05.21-.15.41-.27.6-.1.14-.22.26-.36.36-.14.1-.3.16-.47.2-.21.05-.42.07-.64.07l-1.44-.02Zm.53-.47h.85c.2,0,.4-.02.6-.07.13-.04.25-.11.35-.21.14-.14.24-.31.29-.5.07-.25.11-.51.1-.76.02-.33-.05-.66-.2-.95-.11-.2-.29-.36-.5-.45-.22-.05-.44-.07-.66-.05h-.83v3Z"/>
      <path class="cls-9" d="m120.82,163.32v-3.97h2.86v.5h-2.34v1.19h2.2v.47h-2.2v1.32h2.43v.47l-2.95.02Z"/>
      <path class="cls-7" d="m124.76,159.4v-.8h.31s.09,0,.14,0c.04.01.06.04.08.08.07.1.04.23-.06.3-.03.02-.07.03-.11.04l.06.04.08.11.12.21h-.12l-.09-.12-.07-.11-.05-.05h-.2v.35l-.1-.05Zm.1-.44h.2s.06,0,.1,0c.02,0,.04-.03.05-.05,0-.02,0-.05,0-.07,0-.04-.01-.07-.04-.1-.03-.03-.07-.04-.11-.04h-.21l.02.25Z"/>
    </g>
    <g id="Layer_2-2" data-name="Layer 2">
      <path class="cls-17" d="m69.12,247.48c-2.91,0-5.31,2.4-5.31,5.31s2.4,5.31,5.31,5.31,5.31-2.4,5.31-5.31h0c0-2.98-2.4-5.31-5.31-5.31Zm0,8.29c-1.67,0-3.05-1.38-3.05-3.05s1.38-3.05,3.05-3.05,3.05,1.38,3.05,3.05-1.38,3.05-3.05,3.05h0Z"/>
      <path class="cls-17" d="m48.12,247.48c-2.91,0-5.31,2.4-5.31,5.31s2.4,5.31,5.31,5.31,5.31-2.4,5.31-5.31h0c0-2.98-2.4-5.31-5.31-5.31Zm0,8.29c-1.67,0-3.05-1.38-3.05-3.05s1.38-3.05,3.05-3.05,3.05,1.38,3.05,3.05h0c-.07,1.74-1.38,3.05-3.05,3.05h0Z"/>
      <path class="cls-17" d="m63.24,257.8h-9.01v-1.74l5.45-6.18h-4.36c-.58,0-1.02-.44-1.02-1.02v-1.16h8.94v1.82l-5.67,6.11h4.65c.58,0,1.02.44,1.02,1.02h0v1.16Z"/>
      <path class="cls-17" d="m86.86,257.87h-2.47l-1.96-5.96-2.04,5.96h-2.4l-3.34-10.18h1.6c.58,0,1.16.36,1.31.94l1.67,5.31,2.04-6.25h2.11l2.04,6.25,1.67-5.31c.22-.58.73-.94,1.31-.94h1.82l-3.34,10.18Z"/>
      <path class="cls-4" d="m38.67,255.33c-.44.07-.87-.29-.94-.73h0c-.51-4.07-4-7.12-8.07-7.12-2.18,0-4.29.87-5.82,2.4h0c-.36.36-.87.36-1.24,0h0c-.36-.36-.36-.87,0-1.24h0c1.82-1.89,4.36-2.91,6.98-2.91,4.94,0,9.16,3.71,9.81,8.65h0c.07.51-.29.87-.73.94h0Z"/>
      <path class="cls-14" d="m29.58,258.74c-1.74,0-3.13-1.45-3.13-3.13s1.45-3.13,3.13-3.13,3.13,1.38,3.13,3.13c.07,1.74-1.31,3.13-3.13,3.13q.07,0,0,0Zm0-4.51c-.8,0-1.45.65-1.45,1.45s.65,1.45,1.45,1.45,1.45-.65,1.45-1.45-.58-1.45-1.45-1.45Z"/>
      <path class="cls-16" d="m31.61,250.09v.22c-.07.36-.44.65-.8.65h-.22c-.29-.07-.65-.15-1.02-.15-1.16,0-2.33.44-3.27,1.24-.44.36-.8.8-1.24,1.24l-.58.65-2.98,2.98-1.02,1.02c-.15.15-.44.15-.58,0-.07-.07-.07-.15-.15-.22,0-.22-.07-.44-.07-.65-.07-.44.07-.87.44-1.16l1.45-1.45,1.74-1.74.58-.58c.44-.44.87-.94,1.31-1.31,1.6-1.31,3.71-1.89,5.74-1.45.36,0,.65.36.65.73Z"/>
      <path class="cls-27" d="m29.58,265.51c-3.42,0-6.61-1.89-8.43-4.87-.22-.36-.15-.73.15-1.02l2.47-2.47c.36-.36.87-.36,1.16,0,.07.07.15.15.22.29.94,2.47,3.78,3.63,6.25,2.69,1.82-.73,3.05-2.54,3.05-4.51v-.51c-.15-1.09-.65-2.11-1.45-2.83h0c-.29-.36-.29-.87,0-1.24h0c.36-.36.87-.36,1.16,0h0c1.09,1.02,1.74,2.4,1.96,3.85v.8c0,3.56-2.91,6.47-6.47,6.54-2.18,0-4.29-1.09-5.45-2.98l-1.24,1.16c2.62,3.71,7.71,4.58,11.34,1.96.65-.44,1.16-.94,1.67-1.53h0c.29-.36.8-.44,1.16-.15h0c.36.29.44.8.15,1.16h0c-1.89,2.25-4.72,3.63-7.71,3.63Z"/>
      <path class="cls-12" d="m44.48,261.29c-.29,0-.51.15-.51.29,0,.65,1.67.29,1.6,1.38,0,.51-.51.87-1.16.87-.44,0-.87-.15-1.24-.51l.22-.44c.29.29.65.44,1.02.44s.58-.15.58-.36c0-.65-1.67-.29-1.67-1.38,0-.51.44-.87,1.09-.87.36,0,.73.07,1.09.29l-.22.44c-.15-.07-.51-.15-.8-.15Z"/>
      <path class="cls-12" d="m48.19,262.89h-1.74c.07.36.36.58.73.58.22,0,.51-.07.65-.29l.29.29c-.22.29-.58.36-.94.36-.58.07-1.16-.44-1.16-1.02v-.15c0-.58.44-1.16,1.09-1.16h.07c.8,0,1.09.51,1.02,1.38Zm-.44-.36c0-.29-.22-.58-.58-.58h-.07c-.36,0-.65.22-.65.58h1.31Z"/>
      <path class="cls-12" d="m49.71,261.94c-.44,0-.73.29-.73.73s.29.73.73.73c.29,0,.51-.07.65-.29l.29.29c-.22.29-.58.44-.94.44-.65,0-1.16-.51-1.16-1.16s.51-1.16,1.16-1.16c.36,0,.73.15.94.36l-.29.29c-.22-.15-.44-.22-.65-.22Z"/>
      <path class="cls-12" d="m53.28,261.51v2.33h-.51v-.44c-.15.29-.51.51-.8.44-.44,0-.8-.29-.87-.73v-1.6h.51v1.31c0,.29.15.51.44.58h.07c.36,0,.65-.29.65-.65v-1.16h.51v-.07Z"/>
      <path class="cls-12" d="m55.31,261.51v.51c-.36-.07-.73.22-.8.65v1.24h-.51v-2.33h.51v.44c.15-.36.44-.51.8-.51Z"/>
      <path class="cls-12" d="m57.71,262.89h-1.67c.07.36.36.58.73.58.22,0,.51-.07.65-.29l.29.29c-.22.29-.58.36-.94.36-.58.07-1.16-.44-1.16-1.02v-.15c0-.58.44-1.16,1.09-1.16h.07c.73,0,1.02.51.94,1.38Zm-.36-.36c0-.29-.22-.58-.58-.58h-.07c-.36,0-.65.22-.65.58h1.31Z"/>
      <path class="cls-12" d="m62,261.8c0,.65-.44,1.09-1.24,1.09h-.73v.94h-.51v-3.05h1.24c.8,0,1.24.36,1.24,1.02Zm-.51,0c0-.36-.29-.58-.73-.58h-.65v1.24h.65c.51,0,.73-.22.73-.65h0Z"/>
      <path class="cls-12" d="m63.89,263.83v-.29c-.22.22-.44.29-.73.29-.36.07-.73-.22-.8-.65v-.07c0-.44.29-.73.87-.73h.73c0-.29-.22-.44-.58-.44-.22,0-.51.07-.65.22l-.22-.36c.29-.22.65-.29,1.02-.29.58,0,.94.29.94.8v1.53s-.58,0-.58,0Zm0-.8v-.22h-.65c-.36,0-.51.07-.51.29s.15.36.44.36c.36,0,.65-.15.73-.44Z"/>
      <path class="cls-12" d="m65.13,264.71c-.22,0-.36-.07-.51-.22l.22-.36c.07.07.22.07.29.15.15,0,.29-.07.36-.22l.07-.15-.94-2.25h.51l.65,1.74.65-1.74h.51l-1.02,2.62c-.15.22-.44.44-.8.44Z"/>
      <path class="cls-12" d="m71.16,262.38v1.45h-.51v-1.31c0-.29-.15-.51-.44-.58h-.07c-.36,0-.65.29-.65.65v1.24h-.51v-1.31c0-.29-.15-.51-.44-.58h-.07c-.36,0-.65.29-.65.73h0v1.16h-.51v-2.33h.51v.44c.15-.29.51-.51.87-.44.36,0,.73.22.8.58.15-.36.51-.58.87-.58.44,0,.8.29.87.73-.07.07-.07.15-.07.15Z"/>
      <path class="cls-12" d="m73.85,262.89h-1.74c.07.36.36.58.73.58.22,0,.51-.07.65-.29l.29.29c-.22.29-.58.36-.94.36-.58.07-1.16-.44-1.16-1.02v-.15c0-.65.44-1.16,1.09-1.16h.07c.73,0,1.09.51,1.02,1.38Zm-.44-.36c0-.36-.29-.58-.58-.58h-.07c-.36,0-.65.22-.65.58h1.31Z"/>
      <path class="cls-12" d="m76.54,262.38v1.45h-.51v-1.31c0-.29-.22-.51-.44-.58h-.07c-.36,0-.65.29-.65.65v1.24h-.51v-2.33h.51v.44c.15-.29.51-.51.8-.44.44-.07.87.29.87.73v.15Z"/>
      <path class="cls-12" d="m78.5,263.69c-.15.07-.36.15-.58.15-.36,0-.65-.22-.65-.58v-1.24h-.29v-.36h.29v-.65h.58v.65h.65v.36h-.65v1.09c0,.22.07.29.22.29s.22-.07.36-.07l.07.36Z"/>
      <path class="cls-12" d="m79.66,261.94c-.22,0-.36.07-.36.22,0,.44,1.24.22,1.24,1.02,0,.51-.44.65-.87.65-.36,0-.65-.07-.94-.29l.15-.36c.22.22.51.29.8.29.22,0,.36-.07.36-.22,0-.51-1.24-.22-1.24-1.02,0-.51.44-.65.87-.65.29,0,.58.07.8.22l-.22.36c-.15-.15-.36-.22-.58-.22Z"/>
    </g>
    <g>
      <path class="cls-28" d="m37.87,130.75c0-4.7,2.15-9.15,5.84-12.06-6.66-5.28-16.34-4.17-21.62,2.49-5.28,6.66-4.17,16.34,2.49,21.62,5.6,4.44,13.53,4.44,19.13,0-3.69-2.91-5.85-7.35-5.84-12.05Z"/>
      <ellipse class="cls-6" cx="43.71" cy="130.75" rx="5.84" ry="12.06"/>
      <path class="cls-11" d="m53.25,115.37c-3.46,0-6.82,1.16-9.54,3.31,6.66,5.26,7.79,14.92,2.53,21.58-.74.94-1.59,1.79-2.53,2.53,6.66,5.28,16.33,4.16,21.6-2.5,5.28-6.66,4.16-16.33-2.5-21.6-2.72-2.16-6.09-3.33-9.57-3.33Z"/>
      <g>
        <path class="cls-7" d="m51.72,149.58c-.69-.16-1.32-.06-1.82.49-.06-.08-.02-.17-.03-.25-.01-.06.03-.14-.04-.19h0s0,0,0,0c-.02-.03-.05-.04-.08-.04-.26,0-.51,0-.77,0-.03,0-.06,0-.07.04h0s0,.09,0,.13c0,1.84,0,3.69,0,5.53,0,.04,0,.09,0,.13,0,.02.02.03.04.03h.88c.07-.04.04-.11.04-.16,0-.54,0-1.09,0-1.63,0-.06-.03-.14.03-.19,0,0,0,0,0,0,.27.29.59.48.99.52.08.05.16.04.24.03,0,0,0,0,0,0,0,0,0,0,0,0,.06,0,.12,0,.18,0,.08.01.16,0,.23-.03,0,0,0,0,0,0,.5-.07.93-.29,1.25-.68.59-.71.7-1.51.41-2.37-.24-.71-.74-1.18-1.48-1.36Zm.49,2.89c-.24.47-.75.72-1.3.66-.53-.06-.95-.44-1.08-.97-.03-.13-.05-.27-.05-.4.01-.48.18-.89.6-1.16.57-.37,1.67-.27,1.94.79.1.38.06.75-.12,1.09Z"/>
        <path class="cls-7" d="m42.31,149.52c-.92.03-1.66.6-1.92,1.48-.12.39-.13.8-.08,1.2.12.86.71,1.53,1.56,1.74.48.12.95.09,1.42-.03.31-.08.59-.23.85-.42.07-.06.09-.1.03-.18-.11-.15-.21-.32-.32-.47-.03-.04-.04-.09-.1-.1-.27.21-.58.35-.92.4-.33.05-.65.04-.96-.11-.37-.18-.56-.49-.63-.89.08-.03.15-.01.22-.01.91,0,1.82,0,2.73,0,.04,0,.09,0,.13,0,.08,0,.11-.02.11-.1,0-.26,0-.53-.04-.79-.2-1.09-1.01-1.76-2.1-1.72Zm.49.91c.4.14.59.46.66.86h0c-.01.07-.06.08-.12.08-.64,0-1.27,0-1.91,0-.09,0-.11-.05-.12-.12.18-.84.95-1.01,1.49-.82Z"/>
        <path class="cls-7" d="m67.03,151.61c-.15-.08-.3-.14-.46-.18-.28-.08-.57-.1-.85-.15-.18-.03-.35-.05-.52-.12-.24-.12-.28-.39-.1-.58.1-.1.22-.15.36-.18.16-.04.33-.04.5-.03.06.03.13.04.2.03,0,0,0,0,0,0,0,0,0,0,0,0,.35.04.67.17.99.33.07-.14.14-.26.21-.38.06-.12.13-.25.19-.37-.35-.24-.84-.4-1.35-.43-.24-.05-.48-.06-.72,0h0s0,0,0,0c-.43.04-.82.16-1.13.48-.56.57-.42,1.5.28,1.88.16.09.34.15.52.19.29.07.58.09.87.14.16.03.33.06.47.14.23.13.26.38.08.57-.06.06-.13.11-.21.14-.11.04-.22.07-.34.08-.2,0-.41,0-.61,0,0,0,0,0,0,0-.41-.03-.78-.18-1.12-.42-.12.2-.24.4-.36.59-.08.14-.08.14.05.22.44.28.92.42,1.44.46.2.05.4.05.6,0,0,0,0,0,0,0,.11-.02.22-.02.33-.05.38-.08.73-.22,1-.51.45-.47.49-1.45-.3-1.85Z"/>
        <path class="cls-7" d="m62.73,151.73c-.13-.1-.28-.17-.44-.23-.25-.09-.52-.13-.79-.17-.23-.03-.46-.05-.68-.12-.13-.04-.25-.1-.3-.24,0-.08,0-.15,0-.23.07-.2.25-.28.44-.33.2-.05.41-.05.62-.02.38.05.73.16,1.07.35.13-.25.27-.5.4-.75-.42-.27-.87-.39-1.35-.43-.25-.06-.5-.06-.75,0h0s0,0,0,0c-.36.04-.69.15-.99.37-.58.44-.7,1.57.18,2,.12.06.23.11.36.14.25.08.52.11.78.15.22.03.44.05.64.15.13.06.24.14.25.29.01.17-.06.3-.2.38-.14.09-.29.13-.45.14-.21,0-.43,0-.64,0,0,0,0,0,0,0,0,0,0,0,0,0-.4-.04-.76-.18-1.1-.42-.15.25-.29.48-.44.73.48.35,1.01.51,1.58.55.18.05.35.05.53,0h0s0,0,0,0c.38-.02.75-.11,1.08-.31.33-.2.55-.49.61-.88.05-.14.05-.27,0-.41-.04-.29-.19-.53-.43-.7Z"/>
        <path class="cls-7" d="m34.82,151.55c-.3-.13-.61-.19-.92-.23-.05-.04-.1-.04-.16-.03,0,0,0,0,0,0,0,0,0,0,0,0-.21-.02-.42-.04-.61-.13-.27-.11-.32-.4-.11-.61.09-.08.19-.13.31-.16.24-.06.48-.05.71-.02.32.04.62.14.91.29.05.02.09.05.12-.01.12-.23.25-.46.37-.7-.42-.26-.85-.39-1.32-.42-.09-.04-.18-.03-.28-.03,0,0,0,0,0,0,0,0,0,0,0,0-.09,0-.19,0-.28,0-.08,0-.16-.01-.24.03,0,0,0,0,0,0-.25.01-.48.08-.7.19-.38.19-.63.48-.69.91,0,0,0,0,0,0h0c-.05.15-.05.3,0,.46.03.25.15.45.34.61.15.14.33.23.53.3.31.11.63.14.96.19.21.03.42.06.6.15.26.13.3.42.07.62-.06.05-.12.08-.19.11-.12.05-.25.07-.38.08-.18,0-.35,0-.53,0,0,0,0,0,0,0-.42-.04-.81-.18-1.16-.43-.14.23-.26.44-.39.64-.05.07-.02.11.04.15.14.09.28.17.44.24.56.24,1.14.3,1.73.24.38-.04.74-.15,1.06-.38.66-.47.75-1.65-.23-2.07Z"/>
        <path class="cls-7" d="m39.47,153.01c-.04-.11-.04-.11-.15-.06-.25.12-.5.2-.78.18-.23-.01-.41-.11-.5-.34-.03-.09-.05-.18-.05-.27,0-.67,0-1.34,0-2.01.44,0,.88,0,1.32,0,.06,0,.14.03.19-.04h0s.04-.03.04-.06c0-.24,0-.49,0-.73,0-.03-.01-.05-.04-.05h0c-.45,0-.91,0-1.36,0-.15,0-.15,0-.15-.15,0-.38,0-.76,0-1.14h0s0,0,0,0c-.01-.04-.04-.04-.07-.04-.27,0-.53,0-.8,0-.03,0-.06,0-.07.04h0c0,.07,0,.13,0,.2,0,.36,0,.72,0,1.08-.25,0-.49,0-.74,0-.09,0-.12.03-.11.12,0,.21,0,.42,0,.62,0,.11.04.12.13.12.24,0,.48,0,.72,0,0,.07,0,.13,0,.2,0,.57,0,1.14,0,1.7,0,.1-.02.21.03.31,0,.17.04.34.09.5.13.39.39.64.79.75.28.08.57.09.86.06.28-.03.55-.11.8-.25.08-.04.1-.09.07-.18-.07-.19-.13-.38-.2-.57Z"/>
        <path class="cls-7" d="m46.39,150.06c-.06-.08-.02-.18-.03-.27,0-.06.03-.12-.04-.16h0c-.29,0-.59-.01-.88,0-.08.04-.04.12-.04.18,0,1.31,0,2.62,0,3.93,0,.06,0,.11,0,.17h0s0,0,0,0h0s0,0,0,0c.01.03.04.04.07.04.27,0,.53,0,.8,0,.03,0,.06,0,.07-.04h0c0-.29,0-.59,0-.88,0-.58,0-1.16,0-1.74h0s0,0,0,0c.02-.09.03-.18.05-.27.1-.32.3-.53.64-.58.15,0,.31,0,.46,0,0,0,0,0,0,0,.09,0,.17.03.25.06.05.02.08.02.1-.03.09-.27.18-.54.26-.81-.65-.24-1.34-.15-1.74.42Z"/>
        <path class="cls-7" d="m30.82,149.63h0c-.28,0-.55,0-.83,0-.07,0-.1.02-.09.09,0,.12,0,.25,0,.38-.02,0-.03.01-.05.02-.03-.04-.06-.09-.1-.13-.19-.19-.42-.32-.67-.39-.8-.23-1.7.07-2.21.73-.36.46-.49.99-.47,1.57.05,1.23.99,2.19,2.27,2.12.43-.02.81-.17,1.12-.49.03-.03.04-.08.12-.07v.45s.04.04.08.04c.26,0,.51,0,.77,0,.03,0,.06,0,.07-.04h0c.05-.03.04-.09.04-.13,0-.18,0-.36,0-.53,0-1.13,0-2.27,0-3.4,0-.07.03-.15-.04-.2Zm-1.3,3.19c-.57.54-1.84.46-2.11-.67-.12-.49-.04-.95.3-1.33.35-.4.81-.5,1.31-.37.48.13.77.47.89.94.03.13.05.25.04.33,0,.46-.13.81-.43,1.1Z"/>
        <path class="cls-7" d="m58.43,149.63h0c-.27,0-.54,0-.81,0-.08,0-.11.03-.11.11,0,.12,0,.24,0,.4-.25-.28-.51-.46-.82-.54-.43-.11-.86-.1-1.27.06-.85.33-1.28.97-1.39,1.86-.05.17-.05.35,0,.52.13,1.24,1.07,2.06,2.29,1.99.43-.02.8-.18,1.1-.5.02-.02.04-.07.1-.06v.44h0s.04.04.07.04c.27,0,.53,0,.8,0,.03,0,.06,0,.07-.04h0c0-.07,0-.13,0-.2,0-.76,0-1.51,0-2.27,0-.55,0-1.09,0-1.64,0-.05.04-.12-.04-.16Zm-1.85,3.47c-.85.18-1.49-.34-1.58-1.13-.03-.24-.01-.48.07-.71.19-.55.65-.87,1.25-.87.56,0,1.02.36,1.19.9.02.06.03.13.04.2,0,.17,0,.35,0,.52-.09.57-.44.97-.97,1.08Z"/>
        <path class="cls-7" d="m25.56,150.99c-.05-.71-.49-1.23-1.18-1.41-.22-.06-.45-.07-.68-.06-.46.03-.86.2-1.17.55-.05.06-.1.12-.16.2-.31-.47-.73-.71-1.28-.75-.55-.04-1.01.12-1.37.57-.01-.13-.02-.25-.01-.37,0-.08-.03-.11-.11-.11-.27,0-.54,0-.81,0h0c-.08.04-.04.11-.04.16,0,1.33,0,2.65,0,3.98,0,.04,0,.09,0,.13.01.03.04.04.07.04.27,0,.53,0,.8,0,.03,0,.06,0,.07-.04h0c0-.76,0-1.52,0-2.28,0-.09,0-.17,0-.26.04-.5.32-.84.77-.93.57-.12,1.11.09,1.18.85,0,.1,0,.19,0,.29,0,.71,0,1.43,0,2.14,0,.06-.04.13.03.19h0s0,0,0,0c.02.03.05.03.08.03.26,0,.51,0,.77,0,.03,0,.06,0,.07-.04h0c.06-.05.04-.12.04-.19,0-.58,0-1.16,0-1.73,0-.23,0-.47,0-.7.06-.54.45-.87,1-.88.52,0,.83.25.93.76.03.14.03.28.03.42,0,.77,0,1.55,0,2.32h0s.04.04.07.04c.27,0,.53,0,.8,0,.03,0,.06,0,.07-.04h0s0-.05,0-.07c0-.89,0-1.78,0-2.67,0-.06,0-.12-.03-.18Z"/>
        <path class="cls-7" d="m68.58,153.73s0-.05-.03-.06c-.04-.02-.05.01-.07.04-.02.02-.01.06-.04.07-.06-.02-.04-.14-.13-.1-.07.03-.02.11-.03.17,0,.01,0,.02,0,.04,0,.03.04.04.05.03.08-.08.16,0,.24,0,0-.05,0-.11,0-.16Z"/>
        <path class="cls-7" d="m68.04,153.67c0,.06.08.06.07.12,0,.04-.02.1.07.12.02-.08-.02-.18.08-.24-.08,0-.15-.04-.21,0Z"/>
      </g>
    </g>
    <g>
      <path class="cls-26" d="m123.81,25.87v2.53s0,.04,0,.04v2.45c0,.33.27.59.59.59s.59-.27.59-.59v-2.45s0-.02,0-.01v-.03c0-.53.18-1.02.5-1.39.31-.35.71-.54,1.13-.54.42,0,.82.19,1.13.54.32.37.5.86.5,1.39v2.48c0,.33.27.59.59.59s.59-.27.59-.59v-2.48c0-.82-.28-1.59-.8-2.18-.53-.61-1.25-.94-2.02-.94-.59,0-1.16.2-1.63.57,0-.32-.27-.57-.59-.57s-.59.27-.59.59"/>
      <path class="cls-26" d="m119.31,45.86v-6.86c0-2.11-.73-4.09-2.05-5.6-1.36-1.54-3.17-2.39-5.12-2.39-1.84,0-3.57.76-4.9,2.15v-7.87c0-.63-.51-1.14-1.14-1.14s-1.14.51-1.14,1.14v13.06s0,.02,0,.03v7.36c0,.63.51,1.14,1.14,1.14s1.14-.51,1.14-1.14v-6.9c.04-1.49.55-2.89,1.48-3.93.93-1.05,2.14-1.62,3.42-1.62,1.28,0,2.49.58,3.42,1.62.96,1.09,1.48,2.54,1.48,4.1v6.86c0,.63.51,1.14,1.14,1.14s1.14-.51,1.14-1.14m-15.85-2.61c.09-.37.12-.79.1-1.13,0,0,0-.13,0-.18,0-.05-.01-.09-.01-.09-.26-2.31-2.21-4.05-4.54-4.05h-4.85c-.61,0-1.19-.24-1.62-.67-.43-.43-.67-1.01-.67-1.62,0-.61.24-1.19.67-1.62.43-.43,1.01-.67,1.62-.67h7.19c.63,0,1.14-.51,1.14-1.14s-.51-1.14-1.14-1.14h-7.19c-2.52,0-4.57,2.05-4.57,4.56s2.05,4.56,4.57,4.56h4.85c.61,0,1.19.24,1.62.67.34.34.57.78.64,1.25,0,.02.02.12.03.34,0,.12,0,.25-.04.39-.1.42-.32.75-.32.75-.02.03-.02.02-.04.06-.03.04-.71,1.04-2.8,1.04-.03,0-.15,0-.18,0h-6.56c-.62,0-1.13.51-1.13,1.13s.51,1.13,1.13,1.13h6.56s.14,0,.18,0c3.22,0,4.48-1.73,4.71-2.1.11-.16.46-.73.64-1.49m-14.96-4.31s0-.06,0-.09c0-2.11-.73-4.1-2.05-5.6-1.36-1.54-3.17-2.39-5.12-2.39-.08,0-.16,0-.24.03-.93.02-2.22.23-3.44,1-.53.33-.69,1.03-.35,1.56.22.34.58.53.96.53.21,0,.42-.06.6-.18,1.42-.9,3.08-.61,3.09-.61.03,0,.06,0,.09,0,1.01.17,1.95.71,2.7,1.56.71.81,1.19,1.84,1.38,2.96h-6.33c-2.52,0-4.56,2.05-4.57,4.56,0,2.52,2.05,4.56,4.57,4.57h0s.17,0,.2,0h4.2c1.49,0,2.64-.41,3.41-1.22.87-.92.9-2.01.89-2.27v-4.32s0-.05,0-.08m-2.25,4.49s-.01.36-.28.64c-.32.34-.93.51-1.76.51h-4.2c-.05,0-.09,0-.2,0-.61,0-1.19-.24-1.62-.67-.43-.43-.67-1.01-.67-1.62s.24-1.19.67-1.62c.43-.43,1.01-.67,1.62-.67h6.44v3.38s0,.04,0,.07m-11.74-8.49c.47-.41.51-1.13.1-1.6-1.36-1.54-3.17-2.39-5.12-2.39s-3.76.85-5.12,2.39c-1.32,1.5-2.05,3.49-2.05,5.6,0,1.1.21,2.18.59,3.18v.02s.11.27.11.27c.05.11.11.22.16.33.02.05.04.1.07.14.02.04.04.07.06.1.39.72.88,1.38,1.45,1.96,0,0,0,0,0,0,.07.08,1.69,1.95,4.96,2.15.02,0,.05,0,.07,0,.01,0,.23,0,.34,0,.93,0,2.33-.17,3.64-1,.53-.33.69-1.03.35-1.56-.33-.53-1.03-.69-1.56-.35-.97.61-2.04.67-2.63.65-.02,0-.1,0-.12,0-1.58-.11-2.65-.78-3.08-1.14,0,0-.01-.02-.02-.02-.62-.54-1.13-1.2-1.51-1.97-.4-.84-.61-1.79-.61-2.76,0-1.55.53-3.01,1.48-4.1.92-1.05,2.14-1.62,3.41-1.62,1.28,0,2.49.58,3.42,1.62.4.45,1.15.5,1.6.1m-11.47-2.86c0-.63-.51-1.14-1.14-1.14h-4.9v-5.72c0-.63-.51-1.14-1.14-1.14s-1.14.51-1.14,1.14v16.94s0,0,0,0v1.18c0,.25.02,1.46.94,2.42.47.49,1.35,1.08,2.86,1.08.63,0,1.13-.51,1.13-1.13s-.51-1.13-1.13-1.13c-.56,0-.97-.12-1.22-.37-.31-.32-.32-.8-.32-.8,0-.02,0-.03,0-.05v-1.12s0-9.03,0-9.03h4.9c.63,0,1.14-.51,1.14-1.14m-10.41,7.66c.21-.21.33-.5.33-.8,0-2.11-.73-4.09-2.05-5.6-1.36-1.54-3.17-2.39-5.12-2.39s-3.78.87-5.12,2.39c-1.32,1.5-2.05,3.49-2.05,5.6,0,1.1.21,2.18.6,3.18v.02s.11.27.11.27c.04.08.08.16.12.24.04.07.07.15.11.22.02.05.05.09.08.14.39.71.87,1.36,1.43,1.93,0,0,0,0,0,.01.06.07,1.42,1.62,4.12,2.06.01,0,.35.06.77.09.02,0,.15,0,.15,0,.07,0,.14,0,.21,0,.93,0,2.33-.17,3.64-1,.53-.33.69-1.04.35-1.57-.34-.53-1.04-.69-1.57-.35-.93.59-1.95.67-2.56.65-.01,0-.03,0-.04,0-1.67-.1-2.68-.78-3.12-1.14,0,0-.02-.02-.03-.03-.62-.54-1.13-1.21-1.51-1.98-.24-.51-.41-1.05-.51-1.62h10.84c.3,0,.59-.12.8-.33m-2.04-1.94h-9.6c.19-1.12.67-2.16,1.38-2.96.92-1.05,2.14-1.62,3.41-1.62,1.28,0,2.49.58,3.42,1.62.71.81,1.19,1.84,1.38,2.96m-13.56,7.89v-6.75c0-2.11-.73-4.1-2.05-5.6-1.36-1.54-3.17-2.39-5.12-2.39-1.84,0-3.57.76-4.9,2.15v-1.02c0-.63-.51-1.13-1.14-1.13s-1.14.51-1.14,1.13v6.86s0,.04,0,.06c0,.02,0,.04,0,.06v6.64c0,.63.51,1.14,1.14,1.14s1.14-.51,1.14-1.14v-6.64s0-.04,0-.06c0-.02,0-.04,0-.06,0-1.56.53-3.01,1.48-4.1.92-1.05,2.14-1.62,3.41-1.62,1.28,0,2.49.58,3.42,1.62.96,1.09,1.49,2.55,1.48,4.1v6.75c0,.63.51,1.13,1.14,1.13s1.14-.51,1.14-1.13"/>
      <path class="cls-22" d="m126.43,34.36c-1.01,0-2.02-.26-2.9-.74-.29-.16-.39-.52-.23-.8.16-.29.52-.39.8-.23.71.39,1.52.59,2.34.59.96,0,1.89-.28,2.68-.8.27-.18.64-.1.82.17.18.27.1.64-.17.82-.99.65-2.14,1-3.33,1"/>
      <path class="cls-18" d="m130.64,32.37c-.13,0-.27-.04-.38-.13-.25-.21-.29-.58-.08-.83.72-.87,1.11-1.97,1.11-3.1,0-.79-.19-1.57-.56-2.26-.15-.29-.04-.65.25-.8.29-.15.65-.04.8.25.45.86.69,1.83.69,2.81,0,1.4-.49,2.77-1.38,3.85-.12.14-.29.21-.46.21"/>
      <path class="cls-26" d="m122.61,32.8c-.15,0-.3-.06-.41-.17-1.18-1.15-1.82-2.69-1.82-4.33,0-3.34,2.72-6.06,6.06-6.06,1.62,0,3.14.63,4.28,1.77.23.23.23.6,0,.84-.23.23-.6.23-.84,0-.92-.92-2.14-1.43-3.45-1.43-2.69,0-4.87,2.19-4.87,4.87,0,1.32.52,2.56,1.47,3.48.23.23.24.6,0,.84-.12.12-.27.18-.42.18"/>
    </g>
    <text class="cls-31" transform="translate(41.15 18.24)"><tspan class="cls-32" x="0" y="0">P</tspan><tspan x="7.51" y="0">ayments by:</tspan></text>
    <g id="Layer_2-3" data-name="Layer 2">
      <polygon class="cls-10" points="104.11 73.75 108.55 73.75 105.56 92.95 100.96 92.95 104.11 73.75"/>
      <path class="cls-5" d="m123.13,74.21l-.7,3.94s-4.35-2.03-6.44-.25c-1.75,1.63,3.32,3.72,3.32,3.72,1.71.97,2.85,2.71,3.06,4.66,0,2.96-1.73,5.77-6.81,6.14s-6.76-.75-6.76-.75l.53-4.06c1.5.65,3.08,1.09,4.71,1.29,1.87,0,3.17-.53,3.45-1.48.28-.95-.7-1.78-1.94-2.35s-5.42-2.77-4.84-6.07c.58-3.3,4.28-7.16,12.42-4.78Z"/>
      <path class="cls-15" d="m134.97,92.95h4.56l-4-19.24h-4c-.97.22-1.78.88-2.19,1.78-.53,1.48-7.13,17.42-7.13,17.42h4.66l1.27-3.83h6.16c.31,1.28.53,2.57.67,3.88Zm-5.55-7.03l2.62-6.91s.13-.4.22,0c0,.22.71,3.66,1.36,6.87l-4.2.04Z"/>
      <circle class="cls-30" cx="141.16" cy="91.23" r="1.04"/>
      <path class="cls-8" d="m140.73,91.8v-1.11h.43c.06-.02.13-.02.19,0,.05.01.09.05.1.1.02.05.02.11,0,.16.02.15-.1.29-.25.31,0,0-.01,0-.02,0,.02,0,.05,0,.07,0,.04.04.08.09.1.15l.18.3h-.16l-.13-.22c-.03-.05-.06-.11-.09-.16l-.07-.07h-.19v.49l-.16.06Zm.12-.62h.41l.09-.07s0-.07,0-.1c.01-.09-.05-.17-.14-.18-.02,0-.05,0-.07,0h-.25l-.04.36Z"/>
      <path class="cls-21" d="m96.96,73.75h4.66l-7.49,19.24h-5.17l-4.69-19.24h3.33s1.87-.24,2.31,2.31,1.82,9.93,1.82,9.93c0,0,0,.61.28.19s4.94-12.43,4.94-12.43Z"/>
      <path class="cls-19" d="m83.99,73.75h3.61s1.87-.24,2.31,2.31c.27,1.6.92,5.11,1.38,7.5,0,0-2.38-6.62-11.84-9.81h8.38"/>
    </g>
    <g>
      <path class="cls-25" d="m26.74,98.04c-.14-.16-.32-.28-.52-.34-.21-.09-.44-.13-.66-.13h-.41c-.14.01-.27.05-.4.11-.14.05-.27.13-.38.23-.13.11-.23.23-.32.37-.14-.23-.34-.42-.57-.55-.25-.14-.54-.21-.83-.2h-.33c-.11.02-.23.06-.33.1-.11.05-.22.12-.32.19-.11.09-.2.19-.28.31v-.51h-.88v4.25h.89v-2.32c0-.16.03-.32.09-.47.05-.13.13-.26.23-.36.1-.09.21-.17.33-.22.14-.02.27-.02.41,0,.26-.02.52.08.7.28.18.23.27.52.26.82v2.27h.89v-2.32c0-.3.11-.6.31-.83.1-.09.22-.16.34-.22.14-.02.27-.02.41,0,.26-.02.52.09.7.28.17.24.26.53.24.82v2.27h.91v-2.63c0-.24-.04-.47-.13-.69-.07-.2-.19-.37-.34-.51Z"/>
      <path class="cls-25" d="m31.44,98.18c-.15-.19-.34-.35-.55-.46-.24-.12-.51-.17-.78-.17-.29,0-.57.05-.83.17-.25.11-.48.27-.68.46-.2.2-.35.44-.45.7-.11.28-.17.59-.17.89,0,.31.05.61.17.89.1.26.25.5.45.7.19.2.42.36.68.46.26.11.54.17.83.17.28.03.56-.02.82-.13.21-.11.4-.26.55-.45v.45h.92v-4.2h-.96v.51Zm0,2.13c-.06.16-.15.3-.26.43-.12.12-.26.21-.41.28-.16.07-.34.11-.52.1-.18,0-.37-.04-.54-.1-.15-.07-.28-.17-.4-.29-.11-.13-.19-.28-.26-.43-.06-.17-.09-.35-.09-.52,0-.18.03-.35.09-.52.06-.16.15-.3.26-.43.12-.12.25-.22.4-.29.17-.07.35-.1.54-.1.18,0,.36.03.52.1.15.07.29.17.41.28.11.13.19.28.26.43.12.35.12.73,0,1.07h0Z"/>
      <path class="cls-25" d="m36.64,99.77c-.32-.23-.69-.37-1.09-.41l-.43-.05h-.27l-.23-.08c-.05-.04-.1-.08-.14-.13-.02-.06-.02-.12,0-.18,0-.15.07-.29.2-.37.18-.1.38-.15.59-.14.13-.01.26-.01.4,0l.36.09.32.11.23.13.36-.72c-.24-.14-.51-.25-.78-.33-.31-.08-.63-.12-.95-.11-.25,0-.49.03-.73.1-.2.06-.38.15-.55.27-.15.11-.27.25-.34.42-.08.18-.12.37-.11.56-.01.32.12.62.36.83.31.24.68.38,1.07.42h.43c.2.02.39.07.56.17.11.06.18.18.18.31,0,.16-.1.3-.24.37-.23.1-.48.15-.73.14-.15.01-.31.01-.46,0-.13-.02-.25-.05-.37-.09-.11-.04-.21-.08-.31-.14-.09-.05-.18-.1-.26-.17l-.42.69c.14.11.3.21.47.28.16.07.33.13.5.17l.46.08h.38c.28,0,.55-.03.82-.1.22-.06.43-.15.63-.28.15-.11.28-.26.37-.43.08-.18.13-.37.13-.56.01-.33-.14-.65-.41-.84Z"/>
      <path class="cls-25" d="m45.27,98.17c-.17-.19-.39-.35-.63-.45-.25-.11-.53-.17-.8-.17-.29,0-.59.05-.86.17-.25.1-.48.25-.66.45-.19.2-.34.44-.43.7-.11.29-.16.6-.15.91,0,.31.05.62.15.92.1.26.25.5.45.7.2.2.43.35.69.45.28.11.57.16.87.15.31,0,.62-.04.92-.13.3-.09.58-.25.82-.46l-.46-.66c-.17.14-.37.25-.57.33-.2.07-.42.11-.64.11-.14.02-.29.02-.43,0-.14-.04-.27-.1-.38-.19-.11-.09-.21-.21-.28-.33-.09-.15-.14-.31-.17-.49h3.13v-.34c0-.31-.05-.61-.14-.91-.08-.28-.22-.54-.41-.77Zm-2.55,1.28c.02-.15.06-.29.13-.42.06-.12.14-.23.23-.33.1-.09.21-.17.33-.22.14-.05.29-.08.43-.08.27-.01.53.09.73.28.2.21.32.48.34.77h-2.2Z"/>
      <path class="cls-25" d="m57.53,98.18c-.15-.19-.33-.35-.55-.46-.24-.12-.51-.18-.78-.17-.29,0-.57.05-.83.17-.25.11-.47.27-.66.46-.2.2-.35.44-.46.7-.1.29-.16.59-.15.89,0,.3.05.61.15.89.11.26.26.5.46.7.18.2.41.36.66.46.26.11.54.17.83.17.27.02.53-.02.78-.13.21-.11.4-.26.55-.45v.45h.93v-4.2h-.93v.51Zm0,2.13c-.05.16-.14.31-.26.43-.11.12-.25.21-.4.28-.16.07-.34.11-.52.1-.18,0-.37-.03-.54-.1-.3-.15-.54-.41-.65-.73-.06-.17-.09-.34-.09-.52,0-.18.03-.36.09-.52.05-.16.14-.31.26-.43.11-.12.25-.22.4-.29.17-.07.35-.1.54-.1.18,0,.36.04.52.1.15.07.28.17.4.28.12.12.2.27.26.43.14.34.14.73,0,1.07h0Z"/>
      <path class="cls-25" d="m40.6,101.05c-.14.05-.29.08-.45.08-.08.01-.17.01-.26,0-.08-.03-.16-.08-.22-.14-.06-.07-.11-.15-.14-.24-.02-.12-.02-.25,0-.37v-1.88h1.48v-.83h-1.53v-1.28h-.93v1.28h-.84v.83h.84v1.86c-.05.46.1.93.41,1.28.3.28.7.42,1.11.4.25,0,.49-.04.73-.11.14-.06.27-.12.4-.19l-.32-.77-.28.09Z"/>
      <path class="cls-25" d="m48.92,97.55c-.24,0-.48.05-.7.14-.22.13-.4.31-.52.52v-.55h-.84v4.2h.86v-2.3c0-.16.02-.33.08-.49.04-.13.11-.26.2-.36.09-.1.2-.17.32-.22.13-.05.26-.08.4-.08h.55l.28-.88h-.61Z"/>
      <path class="cls-25" d="m61.75,97.55c-.24,0-.48.05-.7.14-.22.13-.4.31-.52.52v-.55h-.83v4.2h.84v-2.3c0-.16.02-.33.08-.49.04-.13.11-.25.2-.36.09-.1.2-.17.32-.22.13-.05.27-.08.41-.08h.55l.27-.88h-.61Z"/>
      <path class="cls-25" d="m66.06,95.94v2.23c-.15-.19-.34-.35-.55-.46-.24-.12-.51-.17-.78-.17-.29,0-.57.05-.83.17-.25.11-.48.27-.68.46-.2.2-.35.44-.45.7-.11.28-.17.59-.17.89,0,.31.05.61.17.89.1.26.25.5.45.7.19.2.42.36.68.46.26.11.54.17.83.17.27,0,.54-.05.78-.17.21-.11.4-.26.55-.45v.49h.92v-5.93h-.92Zm0,4.37c-.06.16-.15.3-.26.43-.12.12-.26.21-.41.28-.16.07-.34.11-.52.1-.18,0-.37-.04-.54-.1-.15-.07-.28-.17-.4-.29-.11-.13-.19-.28-.26-.43-.06-.17-.09-.35-.09-.52,0-.18.03-.35.09-.52.06-.16.15-.3.26-.43.12-.12.25-.22.4-.29.17-.07.35-.1.54-.1.18,0,.36.03.52.1.15.07.29.17.41.28.11.13.19.28.26.43.12.35.12.73,0,1.07h0Z"/>
      <path class="cls-25" d="m51.13,98.8c.12-.13.26-.22.42-.28.17-.07.34-.1.52-.1h0c.2,0,.39.04.57.1.17.06.32.15.45.27l.45-.74c-.17-.14-.36-.25-.56-.33-.29-.11-.6-.17-.91-.17-.31,0-.62.05-.91.17-.27.1-.51.27-.72.47-.21.2-.37.44-.49.7-.22.57-.22,1.2,0,1.76.11.26.28.5.49.7.2.21.45.37.72.47.29.11.6.17.91.17.31,0,.62-.05.91-.17.2-.08.39-.19.56-.33l-.4-.73c-.13.11-.28.2-.45.26-.18.07-.38.11-.57.1h0c-.18,0-.36-.03-.52-.1-.16-.06-.3-.15-.42-.27-.12-.13-.21-.27-.28-.43-.14-.35-.14-.74,0-1.1.05-.15.13-.3.23-.42Z"/>
      <path class="cls-25" d="m68.92,101.27c.06-.01.12-.01.18,0,.11.04.19.12.23.23.05.1.05.23,0,.33-.04.11-.12.19-.23.23-.11.05-.24.05-.36,0-.11-.02-.21-.09-.27-.19-.05-.1-.05-.23,0-.33.04-.11.12-.19.23-.23.07-.03.14-.04.22-.04Zm0,.74s.09.01.13,0c.03,0,.06,0,.09,0,0-.03,0-.06,0-.09.03-.08.03-.17,0-.26,0-.03,0-.06,0-.09-.03,0-.06,0-.09,0-.04-.01-.09-.01-.13,0-.04-.01-.08-.01-.11,0h-.1c-.07.11-.07.24,0,.34v.09h.1s.08.01.11,0Zm0-.5s.08-.01.11,0c.01.03.01.06,0,.09,0,.02,0,.05,0,.08-.02.01-.05.01-.08,0l.11.14h-.13l-.1-.14h0v.19h-.11v-.38l.19.03Zm-.08.09v.08h.11-.11v-.08Z"/>
      <path class="cls-28" d="m37.66,77.9c0-4.88,2.23-9.48,6.05-12.5-6.9-5.48-16.94-4.32-22.41,2.58-5.48,6.9-4.32,16.94,2.58,22.41,5.81,4.61,14.02,4.61,19.83,0-3.83-3.01-6.06-7.62-6.05-12.49Z"/>
      <ellipse class="cls-6" cx="43.71" cy="77.9" rx="6.05" ry="12.5"/>
      <path class="cls-11" d="m53.6,61.96c-3.59,0-7.07,1.21-9.88,3.44,6.9,5.45,8.08,15.47,2.62,22.37-.77.97-1.65,1.85-2.62,2.62,6.9,5.47,16.92,4.31,22.39-2.59,5.47-6.9,4.31-16.92-2.59-22.39-2.82-2.24-6.32-3.45-9.92-3.45Z"/>
    </g>
    <g>
      <path class="cls-24" d="m111.33,212.44c8.11,0,15.53-6.69,15.53-14.73-.1-8.38-6.97-15.09-15.35-14.99-.06,0-.12,0-.18,0h-6.99c-8.09-.19-14.8,6.22-14.98,14.31,0,.23,0,.45,0,.68.09,8.2,6.79,14.78,14.98,14.73h6.99Z"/>
      <path class="cls-13" d="m107.46,205.6v-16.07c4.44,1.73,6.63,6.73,4.9,11.17-.88,2.25-2.65,4.02-4.9,4.9m-11.72-8.03c.02-3.56,2.22-6.75,5.54-8.03v16.07c-3.33-1.28-5.53-4.47-5.54-8.03m8.62-13.6c-7.51,0-13.6,6.09-13.6,13.6s6.09,13.6,13.6,13.6,13.6-6.09,13.6-13.6c0,0,0,0,0-.01,0-7.51-6.09-13.6-13.6-13.6"/>
      <path class="cls-17" d="m82.78,222.26c0,.91.66,1.02,1.22,1.02,1.8.07,3.32-1.33,3.4-3.13,0-.17,0-.35-.02-.52.14-1.94-1.31-3.63-3.25-3.77-.14-.01-.28-.01-.41,0h-.92v6.41Zm-1.1-5.44c0-1.06-.55-.99-1.08-.99v-.35h3.36c2.35-.23,4.44,1.49,4.67,3.83,0,.09.01.18.02.26,0,1.16-.68,4.02-4.83,4.02h-3.27v-.31c.71-.07,1.04-.09,1.08-.9l.05-5.57Z"/>
      <path class="cls-17" d="m90.32,216.49c-.32,0-.58-.26-.58-.58s.26-.58.58-.58.58.26.58.58-.26.58-.58.58m-1.25,6.86h.21c.33,0,.56,0,.56-.39v-3.17c0-.52-.17-.59-.6-.82v-.19c.55-.17,1.21-.39,1.25-.43.07-.02.14-.02.21,0,0,0,.08.07.08.16v4.5c0,.39.25.39.59.39h.2v.31h-2.5v-.36Z"/>
      <path class="cls-17" d="m92.69,219.85c0-.43-.13-.55-.68-.78v-.21c.53-.16,1.05-.35,1.55-.56,0,0,.07,0,.07.11v.76c.56-.5,1.27-.8,2.02-.87,1,0,1.34.72,1.34,1.63v3.03c0,.39.25.39.59.39h.17v.31h-2.57v-.31h.21c.32,0,.56,0,.56-.39v-3.04c0-.67-.42-.99-1.08-.99-.48.08-.94.27-1.34.56v3.47c0,.39.25.39.59.39h.2v.31h-2.57v-.31h.21c.32,0,.56,0,.56-.39l.16-3.11Z"/>
      <path class="cls-17" d="m100.76,220.04c.29,0,.32-.15.32-.29.04-.55-.36-1.02-.91-1.07-.04,0-.07,0-.11,0-.71,0-1.21.52-1.34,1.34l2.04.03Zm-2.08.37c-.03.23-.03.46,0,.68-.04,1.03.72,1.91,1.74,2.02.61-.03,1.19-.31,1.59-.78l.16.16c-.46.77-1.27,1.27-2.17,1.34-1.3-.05-2.32-1.14-2.27-2.44,0-.04,0-.09,0-.13,0-2.3,1.54-2.97,2.37-2.97,1.02-.07,1.9.7,1.96,1.72,0,.04,0,.07,0,.11v.21l-.11.07h-3.29Z"/>
      <path class="cls-17" d="m102.37,223.34h.31c.33,0,.56,0,.56-.39v-3.29c0-.36-.43-.43-.6-.52v-.17c.86-.36,1.34-.67,1.43-.67s.09,0,.09.15v1.06h0c.29-.46.79-1.21,1.5-1.21.35-.02.65.26.67.61,0,0,0,0,0,0,0,.31-.24.57-.55.59-.36,0-.36-.28-.78-.28-.48.07-.85.48-.86.96v2.76c0,.39.24.39.56.39h.66v.31h-2.97l-.03-.29Z"/>
      <path class="cls-17" d="m106.87,222.02c.03.81.68,1.47,1.49,1.5.46.06.88-.27.94-.73,0-.03,0-.07,0-.1,0-1.34-2.56-.94-2.56-2.83.05-.89.81-1.56,1.7-1.51.04,0,.07,0,.11.01.47.01.92.13,1.34.33l.08,1.19h-.27c-.02-.66-.56-1.18-1.22-1.16-.04,0-.08,0-.12,0-.45-.05-.85.27-.91.72,0,.02,0,.04,0,.06,0,1.34,2.68.94,2.68,2.79,0,.76-.63,1.59-2.02,1.59-.5-.01-1-.15-1.43-.4l-.12-1.34.31-.13Z"/>
      <path class="cls-17" d="m120.82,217.58h-.31c-.16-1.22-1.27-2.08-2.49-1.92,0,0,0,0-.01,0-1.84,0-3.33,1.5-3.33,3.34,0,.12,0,.25.02.37-.12,2.06,1.43,3.85,3.49,4.02,1.15-.02,2.12-.85,2.32-1.98l.28.08-.28,1.7c-.81.39-1.69.6-2.58.63-2.29.17-4.29-1.54-4.47-3.84-.01-.19-.02-.38,0-.57.09-2.36,2.07-4.2,4.43-4.12.95.05,1.89.26,2.77.62l.16,1.67Z"/>
      <path class="cls-17" d="m121.23,223.34h.23c.32,0,.56,0,.56-.39v-6.52c0-.76-.17-.79-.63-.92v-.19c.42-.13.83-.3,1.22-.5.08-.05.16-.1.25-.13,0,0,.09,0,.09.16v8.03c0,.39.25.39.59.39h.19v.31h-2.56l.05-.24Z"/>
      <path class="cls-17" d="m128.76,222.99c0,.21.13.23.32.23h.47v.29c-.57.08-1.13.2-1.69.36h0v-.95c-.54.58-1.28.93-2.08.99-.74,0-1.34-.6-1.34-1.34v-3.08c0-.31,0-.6-.71-.66v-.23l1.51-.08c.13,0,.13.08.13.33v3.03c0,.35,0,1.34,1.02,1.34.54-.08,1.03-.33,1.42-.71v-3.2c0-.24-.56-.36-.99-.48v-.21c1.06,0,1.71-.16,1.83-.16s.09.08.09.21v4.31Z"/>
      <path class="cls-17" d="m131.09,222.32c.03.65.56,1.16,1.21,1.19,1.26,0,1.78-1.23,1.78-2.28.06-1.14-.75-2.13-1.87-2.32-.42.05-.82.24-1.11.55v2.85Zm0-3.19c.47-.47,1.08-.77,1.74-.84,1.26.05,2.24,1.1,2.19,2.36,0,.03,0,.07,0,.1.06,1.61-1.18,2.98-2.8,3.07-.57,0-1.13-.14-1.63-.42l-.35.27-.24-.16c.11-.69.16-1.39.16-2.09v-4.99c0-.76-.17-.79-.62-.92v-.19c.41-.13.82-.3,1.21-.5.08-.05.16-.1.25-.13,0,0,.09,0,.09.16v4.28Z"/>
      <path class="cls-17" d="m80.54,230.45h.09c.23,0,.47,0,.47-.36v-3.33c0-.33-.24-.36-.47-.36h-.09v-.2h1.95v.2h-.09c-.23,0-.47,0-.47.36v3.33c0,.33.24.36.47.36h.09v.2h-1.95v-.2Z"/>
      <path class="cls-17" d="m82.46,230.63v-.15h0c-.23,0-.5,0-.5-.39v-3.33c0-.35.27-.39.5-.39h0v-.17h-1.89v.15h0c.23,0,.5,0,.5.39v3.33c0,.36-.27.39-.5.39h0v.15h1.89m0,0h-1.95v-.25h.12c.23,0,.44,0,.44-.33v-3.25c0-.31-.21-.33-.44-.33h-.12v-.23h1.95v.25h-.12c-.23,0-.44,0-.44.33v3.33c0,.32.21.33.44.33h.12v.25-.11Z"/>
      <path class="cls-17" d="m86.88,229.39h0v-2.41c.04-.29-.16-.55-.45-.59-.04,0-.08,0-.11,0h-.13v-.2h1.65v.2h-.09c-.27,0-.58,0-.58.8v2.91c-.01.21-.01.43,0,.64h-.12l-3.28-3.66v2.68c0,.55.11.74.6.74h.11v.2h-1.69v-.2h.08c.44,0,.58-.29.58-.8v-2.68c0-.31-.25-.56-.56-.56,0,0,0,0-.01,0h-.08v-.27h1.3l2.8,3.2Z"/>
      <path class="cls-17" d="m86.85,229.38.12,1.34h.21c-.01-.21-.01-.41,0-.62v-2.91c0-.76.32-.83.6-.83h.07v-.17h-1.67v.15h.11c.3-.02.57.2.59.5,0,.04,0,.08,0,.11v2.41h0l-2.84-3.17h-1.27v.15h0c.33,0,.6.26.6.59v2.68c0,.51-.15.83-.6.84h0v.15h1.63v-.13h-.04c-.51,0-.63-.23-.63-.78v-2.68l3.24,3.71Zm.24,0h-.17l-3.24-3.6v2.56c0,.55.09.71.58.71h.13v.25h-1.69v-.25h.12c.43,0,.55-.27.55-.78v-2.68c0-.3-.24-.54-.54-.54,0,0,0,0-.01,0h-.12v-.2h1.31l2.8,3.16v-2.37c0-.5-.33-.56-.52-.56h-.16v-.23h1.58v.25h-.12c-.27,0-.54,0-.55.78v2.91c-.01.21-.01.42,0,.63h0l.05-.04Z"/>
      <path class="cls-17" d="m88.82,226.52c-.48,0-.5.12-.59.58h-.19v-.54c.01-.18.01-.36,0-.54h.33c0,.19.2.17.37.17h3.29c.17,0,.33,0,.35-.19h.15c0,.17,0,.35-.07.52s0,.35,0,.52h-.19c0-.24,0-.62-.48-.62h-1.04v3.39c0,.5.23.55.54.55h.12v.2h-2.12v-.2h.12c.35,0,.52,0,.52-.54v-3.32h-1.12Z"/>
      <path class="cls-17" d="m91.34,230.68h-2.12v-.25h.15c.35,0,.5,0,.5-.51v-3.37h-1.02,1.07v3.43c0,.52-.2.56-.55.58h-.09v.13h2.06v-.13h-.09c-.31,0-.56-.08-.56-.59v-3.47h1.07c.43,0,.48.36.5.6h.15v-.99h0c0,.19-.2.2-.36.19h-3.37c-.15,0-.32,0-.37-.17h-.11c.01.17.01.34,0,.51v.51h.13c.09-.44.15-.58.62-.58h0c-.47,0-.46.09-.56.56h-.25c0-.17,0-.36.07-.54.01-.18.01-.36,0-.54h.2c0,.16.16.16.32.16h3.32c.17,0,.31,0,.32-.17h.17v1.03h0l-.23.08h0c0-.24,0-.59-.46-.59h-1.02v3.36c0,.48.2.52.51.52h.15v.25h-.13Z"/>
      <path class="cls-17" d="m92.67,230.45h.09c.23,0,.47,0,.47-.36v-3.33c0-.33-.24-.36-.47-.36h-.09v-.2h3.23c-.02.33-.02.65,0,.98h-.2c0-.42-.11-.75-.78-.75h-.88v1.67h.76c.37,0,.46-.21.5-.56h.2v1.47h-.2c0-.39,0-.63-.5-.63h-.76v1.49c0,.42.37.42.78.42.76,0,1.1,0,1.34-.78h.17c-.08.33-.16.67-.21,1.02h-3.41l-.03-.07Z"/>
      <path class="cls-17" d="m96.06,230.63c0-.32.13-.66.21-.98h-.13c-.19.71-.56.78-1.34.78-.4,0-.8,0-.8-.44v-1.54h.79c.44,0,.5.25.52.63h.13v-1.42h-.13c0,.33-.13.56-.52.56h-.79v-1.77h.91c.67,0,.78.33.8.74h.13v-.99h-3.15v.15h.07c.23,0,.5,0,.5.39v3.33c0,.36-.27.39-.5.4h-.07v.13h3.36m0,0h-3.41v-.25h.12c.23,0,.44,0,.44-.33v-3.25c0-.31-.21-.33-.44-.33h-.12v-.23h3.23c0,.11,0,.22,0,.33v.64h-.23c0-.42-.09-.71-.75-.72h-.86v1.62h.74c.36,0,.43-.19.47-.54h.25v1.47h-.23c0-.39,0-.6-.47-.6h-.74v1.46c0,.39.33.39.75.39.76,0,1.07,0,1.27-.76h.2c-.08.35-.16.68-.21,1.02h0v.09Z"/>
      <path class="cls-17" d="m97.98,228.35h.31c.64,0,.99-.24.99-.99.03-.48-.33-.89-.81-.92-.04,0-.08,0-.13,0h-.36v1.91Zm-.82-1.47c0-.47-.25-.48-.46-.48h-.11v-.2h2.01c.8,0,1.53.23,1.53,1.12-.02.53-.38.99-.9,1.12l1.1,1.63c.12.23.36.38.62.37v.2h-1.22c-.5-.66-.94-1.35-1.34-2.08h-.43v1.34c0,.5.23.51.52.51h.12v.2h-2.02v-.2h.11c.24,0,.46-.11.46-.33v-3.21Z"/>
      <path class="cls-17" d="m98.28,228.32c.64,0,.95-.23.96-.96.03-.46-.32-.87-.79-.9-.04,0-.08,0-.13,0h-.33v1.85h.28Zm-.31,0h0v-1.89h.39c.49-.04.93.33.96.83,0,.04,0,.08,0,.12,0,.76-.36,1.02-1.02,1.02l-.33-.08Zm0,.17h.44c.41.71.85,1.4,1.34,2.06h1.19v-.08c-.26-.01-.49-.16-.62-.39l-1.11-1.66h0c.5-.14.85-.58.87-1.1,0-.88-.7-1.08-1.5-1.1h-1.98v.15h.08c.2,0,.48,0,.48.51v3.24c0,.25-.24.36-.48.37h-.08v.13h1.97v-.13h-.09c-.29,0-.55,0-.55-.55v-1.34l.04-.12Zm2.97,2.13h-1.25c-.49-.65-.94-1.34-1.34-2.05h-.37v1.34c0,.48.2.48.5.48h.15v.25h-2.02v-.25h.13c.24,0,.43-.09.43-.31v-3.21c0-.46-.23-.46-.43-.46h-.13v-.23h2.01c.8,0,1.55.23,1.55,1.15-.02.53-.37.98-.87,1.14l1.07,1.61c.12.22.34.36.59.36h0v.23-.05Z"/>
      <path class="cls-17" d="m105.27,229.39h0v-2.41c.05-.28-.14-.54-.42-.58-.04,0-.09,0-.13,0h-.15v-.2h1.69v.2h-.11c-.27,0-.56,0-.56.8v2.91c-.01.21-.01.43,0,.64h-.24l-3.28-3.66v2.68c0,.55.11.74.59.74h.11v.2h-1.69v-.2h.09c.44,0,.58-.29.58-.8v-2.68c0-.31-.25-.56-.56-.56,0,0,0,0-.01,0h-.09v-.27h1.3l2.89,3.2Z"/>
      <path class="cls-17" d="m105.26,229.38.13,1.34h.2c-.01-.21-.01-.41,0-.62v-2.91c0-.76.32-.83.59-.83h0v-.17h-1.62v.15h.12c.3-.02.56.21.58.52,0,.03,0,.07,0,.1v2.41h0l-2.83-3.17h-1.27v.15h0c.33,0,.6.26.6.59v2.68c0,.51-.15.83-.6.84h0v.15h1.63v-.13h-.08c-.5,0-.62-.23-.63-.78v-2.68l3.31,3.71Zm.24,0h-.27l-3.23-3.6v2.56c0,.55.08.71.56.71h.13v.25h-1.69v-.25h.12c.42,0,.54-.27.55-.78v-2.68c0-.3-.24-.54-.54-.54,0,0,0,0-.01,0h-.12v-.2h1.33l2.8,3.16v-2.37c0-.5-.33-.56-.52-.56h-.17v-.23h1.69v.25h-.13c-.25,0-.52,0-.54.78v2.91c-.02.21-.02.43,0,.64h0l.04-.05Z"/>
      <path class="cls-17" d="m108.23,226.92h0l-.6,1.79h1.19l-.59-1.79Zm-.94,2.83c-.08.15-.13.31-.17.47,0,.19.27.21.47.21h.08v.2h-1.46v-.2h0c.26,0,.49-.17.56-.42l1.02-2.92c.1-.26.18-.52.24-.79.2-.07.39-.17.58-.28h0c0,.05,0,.11,0,.16l1.18,3.33c.08.21.15.46.24.64.06.18.23.28.42.25h0v.2h-1.83v-.2h0c.15,0,.4,0,.4-.17-.03-.16-.07-.32-.13-.47l-.25-.74h-1.12l-.2.71Z"/>
      <path class="cls-17" d="m108.21,226.92-.55,1.77h1.12l-.56-1.7-.56,1.7Zm-.07,0l.6-1.85h0l.6,1.85h-1.21Zm1.34,1.87h1.78v-.13h0c-.19.02-.37-.09-.44-.27-.09-.21-.17-.43-.24-.66l-1.23-3.31s0-.1,0-.15h0c-.18.11-.36.19-.56.25-.06.27-.14.54-.24.8l-1.02,2.92c-.07.26-.32.44-.59.43h0v.13h1.34v-.13h0c-.2,0-.5,0-.5-.24.02-.17.07-.35.13-.51h0l.21-.68h1.49l.25.76c.06.15.11.31.13.47,0,.19-.28.2-.43.2h0l-.09.11Zm1.81,0h-1.83v-.25h.09c.15,0,.36,0,.36-.15-.02-.16-.06-.31-.12-.46l-.24-.72h-1.34l-.2.64c-.06.16-.11.33-.13.5,0,.15.24.19.44.19h.11v.25h-1.45v-.25h.07c.25,0,.46-.15.54-.39l1.02-2.93c.1-.26.19-.53.25-.8.2-.07.39-.17.58-.28h0v.16l1.18,3.33c.08.23.15.46.23.64.06.16.23.26.4.24h0v.25l.05.03Z"/>
      <path class="cls-17" d="m110.98,226.52c-.48,0-.5.12-.59.58h-.2c0-.17,0-.35.08-.54.01-.18.01-.36,0-.54h.15c0,.19.21.17.39.17h3.28c.17,0,.33,0,.35-.19h.16l-.08.52v.52h-.19c0-.24,0-.62-.47-.62h-1.04v3.39c0,.5.23.55.52.55h.12v.2h-2.12v-.2h.12c.36,0,.54,0,.54-.54v-3.32h-1.02Z"/>
      <path class="cls-17" d="m113.48,230.68h-2.12v-.25h.15c.36,0,.5,0,.51-.51v-3.37h-1.02,1.07v3.43c0,.52-.21.56-.56.56h-.09v.15h2.06v-.2h-.09c-.31,0-.55,0-.55-.58v-3.41h1.07c.43,0,.48.36.5.6h.13v-.99h-.09c0,.19-.21.2-.37.19h-3.27c-.15,0-.31,0-.36-.17h-.11c.01.17.01.34,0,.51,0,.17,0,.35-.07.51h.13c.08-.44.13-.58.62-.58h0c-.47,0-.47.09-.56.56h-.24l.08-.54c.01-.18.01-.36,0-.54h.2c0,.16.16.16.32.16h3.32c.19,0,.31,0,.32-.17h.19l-.08.51v.52h0l-.23.08h0c0-.24,0-.59-.44-.59h-1.02v3.36c0,.48.2.52.5.52h.15v.25h-.04Z"/>
      <path class="cls-17" d="m114.86,230.45h.09c.23,0,.47,0,.47-.36v-3.33c0-.33-.24-.36-.47-.36h-.09v-.2h1.94v.2h-.08c-.23,0-.48,0-.48.36v3.33c0,.33.25.36.48.36h.08v.2h-1.94v-.2Z"/>
      <path class="cls-17" d="m116.78,230.63v-.15h0c-.23,0-.51,0-.51-.39v-3.33c0-.35.28-.39.51-.39h0v-.17h-1.89v.15h0c.23,0,.5,0,.5.39v3.33c0,.36-.27.39-.5.39h0v.15h1.89m0,0h-1.94v-.25h.12c.23,0,.44,0,.44-.33v-3.25c0-.31-.21-.33-.44-.33h-.12v-.23h1.94v.25h-.11c-.24,0-.44,0-.46.33v3.33c0,.32.21.33.46.33h.11v.25-.11Z"/>
      <path class="cls-17" d="m119.44,230.47c1.25,0,1.46-1.1,1.46-2.02s-.51-2.06-1.57-2.06-1.5.99-1.5,1.85c0,1.14.52,2.24,1.55,2.24m-.09-4.37c1.22-.18,2.36.67,2.53,1.89.02.11.02.21.02.32.05,1.29-.95,2.38-2.25,2.44-.05,0-.11,0-.16,0-1.24.07-2.31-.87-2.38-2.11,0-.06,0-.12,0-.18-.02-1.28,1-2.33,2.28-2.36.02,0,.04,0,.07,0"/>
      <path class="cls-17" d="m117.83,228.23c0-.86.33-1.87,1.47-1.87s1.59,1.15,1.59,2.09-.21,2.05-1.49,2.05h0c1.22,0,1.43-1.07,1.43-2s-.5-2.04-1.54-2.04-1.42.98-1.42,1.82c0,1.14.52,2.21,1.53,2.21h0c-1.06,0-1.58-1.11-1.58-2.26m-.9.23c-.01-1.3,1.03-2.37,2.33-2.38.02,0,.04,0,.05,0h0c-1.26-.01-2.3,1-2.32,2.26,0,.02,0,.04,0,.07-.02,1.23.95,2.24,2.18,2.27.06,0,.12,0,.18,0,1.29.03,2.35-.99,2.38-2.27,0-.05,0-.1,0-.15-.08-1.22-1.14-2.14-2.36-2.05-.01,0-.03,0-.04,0h0c1.25-.13,2.37.78,2.5,2.03,0,.02,0,.05,0,.07.06,1.31-.95,2.42-2.26,2.48-.06,0-.12,0-.18,0-1.27.07-2.35-.91-2.42-2.18,0-.05,0-.09,0-.14"/>
      <path class="cls-17" d="m126.08,229.39h0v-2.41c.05-.28-.14-.54-.42-.58-.04,0-.09,0-.13,0h-.13v-.2h1.67v.2h-.09c-.27,0-.58,0-.58.8v2.91c-.01.21-.01.43,0,.64h-.24l-3.28-3.66v2.68c0,.55.11.74.59.74h.12v.2h-1.7v-.2h.09c.44,0,.58-.29.58-.8v-2.68c0-.31-.25-.56-.56-.56,0,0,0,0-.01,0h-.09v-.27h1.31l2.88,3.2Z"/>
      <path class="cls-17" d="m126.07,229.38.13,1.34h.21c-.01-.21-.01-.41,0-.62v-2.91c0-.76.32-.83.6-.83h0v-.17h-1.62v.15h.11c.3-.02.56.21.58.52,0,.03,0,.07,0,.1v2.41h0l-2.83-3.17h-1.29v.15h0c.33,0,.6.26.6.59v2.68c0,.51-.15.83-.6.84h0v.15h1.65v-.13h-.09c-.5,0-.62-.23-.62-.78v-2.68l3.29,3.71Zm.24,0h-.27l-3.23-3.6v2.56c0,.55.09.71.56.71h.15v.25h-1.7v-.25h.12c.43,0,.55-.27.55-.78v-2.68c0-.3-.24-.54-.54-.54,0,0,0,0-.01,0h-.12v-.2h1.33l2.8,3.16v-2.37c0-.5-.33-.56-.52-.56h-.17v-.23h1.67v.25h-.12c-.27,0-.54,0-.55.78v2.91c-.01.21-.01.43,0,.64h0l.05-.05Z"/>
      <path class="cls-17" d="m129.04,226.92h0l-.59,1.79h1.19l-.6-1.79Zm-.94,2.83c-.06.16-.1.33-.13.5,0,.19.27.21.47.21h.11v.2h-1.46v-.2h0c.26,0,.49-.17.56-.42l1.02-2.92c.1-.26.18-.52.24-.79.2-.07.39-.17.58-.28h0v.16l1.16,3.33c.08.21.16.46.24.64.06.17.23.28.42.25h0v.2h-1.83v-.2h0c.15,0,.4,0,.4-.17-.03-.16-.07-.32-.13-.47l-.24-.74h-1.18l-.21.68Z"/>
      <path class="cls-17" d="m129.01,226.92-.55,1.77h1.12l-.56-1.7-.56,1.7Zm0,0l.6-1.85h0l.6,1.85h-1.21Zm1.34,1.89h1.78v-.13h0c-.19.02-.37-.09-.44-.27-.08-.19-.16-.43-.24-.66l-1.29-3.32s0-.1,0-.15h-.07c-.17.11-.36.2-.56.25-.06.27-.14.54-.24.8l-1.02,2.92c-.07.26-.31.44-.58.43h0v.13h1.34v-.13h0c-.2,0-.5,0-.5-.24.03-.17.07-.34.13-.51h0l.21-.68h1.49l.25.76c.06.15.11.31.13.47,0,.19-.28.2-.43.2h0v.12Zm1.81,0h-1.83v-.25h.09c.15,0,.37,0,.37-.15-.03-.16-.07-.31-.13-.46l-.24-.72h-1.34l-.2.64c-.06.16-.11.33-.13.5,0,.15.24.19.44.19h-.09v.25h-1.46v-.25h0c.24,0,.45-.16.52-.39l1.02-2.93c.1-.26.19-.53.25-.8.2-.07.39-.17.58-.28h0s.05,0,.07,0v.16l1.16,3.33c.08.23.15.46.24.66.06.16.22.25.39.23h0v.25l.29.03Z"/>
      <path class="cls-17" d="m133.11,230.02c0,.25.17.33.39.36.28.02.55.02.83,0,.24-.03.46-.16.62-.35.09-.14.16-.29.2-.46h.19l-.24,1.08h-3.36v-.2h.08c.23,0,.48,0,.48-.43v-3.28c0-.33-.25-.36-.48-.36h-.08v-.2h1.97v.2h-.16c-.24,0-.43,0-.43.33v3.29Z"/>
      <path class="cls-17" d="m135.07,230.63c.08-.35.16-.68.23-1.03h-.13c-.04.16-.1.31-.19.44-.15.2-.38.33-.63.36h-.86c-.2,0-.4-.12-.4-.39v-3.28c0-.35.23-.36.46-.36h.13v-.17h-1.91v.15h0c.23,0,.51,0,.51.39v3.27c0,.42-.28.46-.51.46h0v.15h3.31m0,0h-3.36v-.25h.11c.23,0,.46,0,.46-.4v-3.19c0-.31-.21-.33-.46-.33h-.11v-.23h1.97v.25h-.19c-.24,0-.4,0-.4.31v3.29c0,.24.16.31.36.33h.94c.23-.04.44-.15.59-.33.1-.14.17-.29.2-.46h.24l-.24,1.08h0l-.11-.08Z"/>
      <path class="cls-17" d="m135.15,226.69h.09c.08,0,.12-.07.12-.17s0-.13-.13-.13h0l-.08.31Zm-.23.36h.09v-.51s0-.09-.09-.08h.32c.12,0,.23,0,.23.17,0,.1-.07.19-.16.21l.11.15c.04.06.09.11.15.16h-.13s-.11-.13-.24-.32h0v.23h.09-.36Zm.33.19c.29-.1.44-.41.34-.7-.06-.17-.19-.3-.36-.35-.3,0-.54.25-.54.55,0,.3.23.54.52.55,0,0,0,0,.01,0m0-1.22c.37,0,.67.3.67.67s-.3.67-.67.67-.67-.3-.67-.67c0-.36.28-.66.64-.67,0,0,.02,0,.03,0"/>
    </g>
    <g>
      <path class="cls-20" d="m70.97,176.76H15.88v54.9h55.09v-18.14c.23-.36.34-.78.32-1.21.03-.43-.08-.85-.32-1.21"/>
      <path class="cls-13" d="m20.85,200.5l-1.06-2.56-1.06,2.56m25.44-1.02c-.24.12-.5.17-.76.13h-1.86v-1.43h1.9c.25-.02.5.02.74.12.21.11.34.33.32.56.03.26-.09.52-.32.66v-.04Zm13.39,1.02l-1.07-2.56-1.06,2.56h2.13Zm-24.96,2.77h-1.59v-5.09l-2.25,5.09h-1.34l-2.28-5.09v5.09h-3.15l-.59-1.43h-3.23l-.6,1.43h-1.67l2.77-6.43h2.29l2.68,6.09v-6.09h2.53l2.02,4.37,1.82-4.37h2.58v6.43Zm6.32,0h-5.17v-6.43h5.17v1.34h-3.63v1.16h3.53v1.34h-3.53v1.34h3.63v1.25Zm7.28-4.69c.03.73-.38,1.4-1.04,1.71.3.1.56.29.76.54.21.35.3.77.25,1.18v1.26h-1.59v-.8c.07-.43-.02-.88-.24-1.26-.23-.23-.58-.27-1.12-.27h-1.67v2.33h-1.55v-6.43h3.56c.64-.06,1.29.04,1.87.31.52.28.82.84.78,1.43Zm2.48,4.69h-1.58v-6.43h1.58v6.43Zm18.33,0h-2.2l-2.93-4.82v4.82h-3.15l-.6-1.43h-3.23l-.58,1.43h-1.81c-.81.05-1.62-.2-2.25-.71-.61-.66-.91-1.55-.83-2.45-.07-.92.23-1.82.83-2.52.65-.56,1.5-.83,2.36-.75h1.5v1.34h-1.47c-.44-.05-.87.09-1.19.39-.32.41-.48.93-.44,1.45-.05.54.1,1.08.43,1.51.3.25.69.37,1.08.33h.66l2.21-5.02h2.33l2.68,6.08v-6.08h2.29l2.68,4.49v-4.49h1.58v6.43h.05Zm-51.14,1.27h2.68l.59-1.43h1.34l.58,1.43h5.21v-1.1l.47,1.1h2.68l.46-1.11v1.11h12.93v-2.34h.24c.19,0,.23,0,.23.31v2.04h6.69v-.55c.77.38,1.62.57,2.48.55h2.83l.6-1.43h1.34l.59,1.43h5.36v-1.34l.83,1.34h4.34v-8.97h-4.23v1.06l-.6-1.06h-4.42v1.06l-.52-1.06h-5.99c-.89-.04-1.78.14-2.58.52v-.52h-4.11v.52c-.5-.38-1.12-.57-1.75-.52h-15.02l-1.02,2.32-1.03-2.32h-4.73v1.06l-.52-1.06h-4.02l-1.87,4.26v4.71h-.03Z"/>
      <path class="cls-13" d="m70.97,209.28h-2.83c-.22-.02-.44.02-.63.12-.16.1-.24.27-.23.46,0,.22.13.41.33.48.2.05.4.08.6.07h.84c.63-.07,1.26.12,1.75.52.06.04.11.09.15.15m0,2.41c-.52.6-1.31.91-2.1.83h-3v-1.41h2.99c.22.03.45-.03.63-.16.11-.11.18-.26.17-.42,0-.16-.06-.32-.19-.43-.16-.11-.35-.17-.55-.15-1.45,0-3.27,0-3.27-1.98,0-.94.6-1.91,2.22-1.91h3.09v-1.34h-2.87c-.69-.04-1.37.15-1.94.52v-.52h-4.24c-.66-.03-1.3.15-1.85.52v-.52h-7.57v.52c-.64-.36-1.36-.54-2.09-.52h-4.99v.52c-.65-.4-1.41-.59-2.17-.52h-5.6l-1.34,1.34-1.21-1.34h-8.27v9.06h8.19l1.34-1.34,1.25,1.34h5.05v-2.09h.5c.73.05,1.47-.06,2.16-.32v2.41h4.14v-2.32h.2c.25,0,.28,0,.28.25v2.06h12.64c.74.03,1.48-.17,2.1-.58v.58h4.02c.78.02,1.56-.12,2.28-.42v-1.69Zm-6.19-2.56c.34.36.51.85.47,1.34,0,1.34-.87,2.04-2.44,2.04h-3.01v-1.39h3c.23.03.45-.03.64-.16.11-.11.18-.26.17-.42,0-.16-.07-.32-.19-.43-.16-.11-.35-.16-.55-.15-1.45,0-3.25,0-3.25-1.98,0-.94.59-1.91,2.21-1.91h3.11v1.34h-2.84c-.22-.03-.44.02-.63.12-.16.1-.24.27-.23.46,0,.22.13.41.33.48.2.06.4.08.6.07h.83c.65-.04,1.29.19,1.77.63v-.03Zm-13.97-.4c-.24.11-.5.16-.76.13h-1.87v-1.42h1.9c.25-.03.51.01.74.12.21.11.34.34.32.58.01.25-.11.48-.32.62v-.03Zm.94.8c.3.1.57.29.76.54.21.36.3.77.25,1.18v1.34h-1.55v-.8c.06-.44-.03-.88-.25-1.26-.32-.25-.73-.35-1.14-.29h-1.65v2.36h-1.57v-6.43h3.58c.64-.06,1.28.04,1.86.29.53.28.84.84.8,1.43,0,.73-.43,1.39-1.1,1.67v-.03Zm1.95-3.44h5.17v1.34h-3.63v1.16h3.53v1.34h-3.53v1.34h3.63v1.34h-5.17v-6.52Zm-10.44,2.96h-2v-1.61h2.01c.56,0,.95.23.95.79s-.4.84-.96.84v-.03Zm-3.55,2.88l-2.37-2.68,2.37-2.54v5.22Zm-6.13-.75h-3.8v-1.34h3.4v-1.34h-3.4v-1.16h3.88l1.69,1.87-1.77,1.97Zm12.31-2.97c0,1.78-1.34,2.16-2.68,2.16h-1.94v2.16h-3.01l-1.9-2.13-1.98,2.13h-6.13v-6.43h6.21l1.9,2.1,1.97-2.1h4.94c1.25.03,2.62.36,2.62,2.14v-.03Z"/>
    </g>
    <g>
      <rect class="cls-29" x="105.91" y="241.2" width="27.59" height="27.59" rx="2.96" ry="2.96"/>
      <g>
        <g>
          <path class="cls-2" d="m114.74,253.44v.4h.02c.08-.17.21-.28.38-.36s.36-.11.57-.11c.23,0,.44.04.61.13.17.08.31.21.42.34.11.15.19.3.25.49s.1.4.1.61-.02.42-.08.61-.13.36-.25.49c-.13.15-.27.27-.44.34s-.36.11-.59.11c-.08,0-.15,0-.25-.02s-.17-.04-.27-.08c-.1-.04-.17-.08-.25-.13-.08-.06-.15-.13-.19-.23h-.04v1.53h-.48v-4.13h.48Zm1.78,1.06c-.04-.13-.1-.25-.17-.36-.08-.09-.17-.19-.29-.25s-.25-.09-.42-.09-.31.04-.42.09c-.11.06-.21.15-.29.27-.08.11-.13.23-.15.36-.04.13-.06.27-.06.42s.02.28.06.42c.04.13.1.27.17.36s.17.19.29.25.27.09.44.09.31-.04.42-.09c.11-.06.21-.15.27-.27.08-.11.11-.23.15-.38.04-.13.04-.28.04-.44,0-.09,0-.25-.04-.38"/>
          <path class="cls-2" d="m120.2,256.43c-.08.06-.21.08-.34.08s-.23-.04-.31-.11-.11-.19-.11-.34c-.13.17-.29.28-.48.34-.17.08-.36.11-.57.11-.13,0-.27-.02-.38-.04-.11-.04-.23-.08-.31-.15-.1-.06-.15-.15-.21-.27-.06-.11-.08-.23-.08-.38,0-.17.04-.3.1-.42s.13-.19.23-.27.21-.11.33-.15.25-.06.36-.09c.13-.02.27-.04.38-.06s.23-.04.33-.06.17-.06.21-.11c.06-.06.08-.11.08-.21,0-.11-.02-.19-.06-.27-.04-.06-.1-.11-.15-.15s-.13-.06-.21-.08c-.08-.02-.15-.02-.23-.02-.21,0-.38.04-.52.11-.13.08-.21.23-.23.45h-.5c0-.19.04-.34.11-.47s.15-.23.29-.3c.11-.08.25-.13.4-.17.15-.04.31-.06.48-.06.13,0,.27.02.4.04.13.02.25.06.36.11.11.06.19.15.27.25.06.11.1.25.1.42v1.53c0,.11,0,.21.02.25.02.06.06.08.13.08.04,0,.1,0,.15-.02v.42h-.04Zm-.79-1.53c-.06.04-.13.08-.25.09-.1.02-.21.04-.31.06-.11.02-.23.04-.33.04-.11.02-.21.04-.31.08-.1.04-.15.09-.21.17-.06.08-.08.17-.08.28,0,.08.02.15.06.21.04.06.08.09.13.13.06.04.11.06.19.08s.13.02.21.02c.15,0,.31-.02.42-.06.11-.04.21-.09.29-.17s.13-.13.15-.23c.04-.08.06-.15.06-.23v-.47h-.04Z"/>
          <path class="cls-2" d="m121.71,256.83c-.06.15-.11.27-.17.38-.06.09-.11.19-.19.25s-.13.11-.23.13c-.08.04-.17.04-.29.04-.06,0-.11,0-.17-.02-.06,0-.11-.02-.17-.04v-.44s.1.04.15.06c.06.02.1.02.13.02.1,0,.19-.02.25-.08.08-.06.11-.11.15-.21l.21-.51-1.19-2.97h.56l.88,2.44h.02l.84-2.44h.52l-1.3,3.39Z"/>
          <path class="cls-2" d="m123.15,253.87v-.44h.5v-.44c0-.25.08-.44.21-.55.13-.13.34-.19.61-.19.04,0,.1,0,.15.02.06,0,.11.02.15.04v.44s-.1-.02-.13-.04h-.13c-.11,0-.21.02-.29.08-.06.04-.1.13-.1.27v.42h.57v.44h-.57v2.56h-.5v-2.56h-.48v-.04Z"/>
          <rect class="cls-2" x="125.18" y="252.3" width=".5" height="4.13"/>
          <path class="cls-2" d="m128.43,256.24c-.23.17-.5.25-.84.25-.23,0-.44-.04-.61-.11-.17-.08-.33-.19-.44-.32-.11-.13-.21-.3-.27-.49s-.1-.4-.1-.63.04-.44.1-.63c.08-.19.17-.36.29-.49.13-.13.27-.25.44-.32s.36-.11.56-.11c.27,0,.48.06.67.17.17.11.33.25.42.42.11.17.17.36.21.55.04.21.06.4.06.57h-2.24c0,.13.02.25.04.38.04.11.1.23.17.3.08.09.17.17.29.21.11.06.27.08.42.08.21,0,.38-.06.52-.15s.23-.25.27-.44h.48c-.04.36-.19.61-.42.78m-.11-1.91c-.04-.09-.1-.19-.17-.27s-.17-.13-.27-.17-.21-.08-.34-.08-.25.02-.34.08c-.1.04-.19.11-.27.19s-.13.17-.17.27c-.04.09-.08.21-.08.32h1.72c0-.13-.04-.25-.08-.34"/>
          <polygon class="cls-2" points="128.97 253.44 129.58 253.44 130.31 254.5 131.06 253.44 131.65 253.44 130.62 254.82 131.77 256.43 131.13 256.43 130.31 255.2 129.47 256.43 128.87 256.43 130 254.86 128.97 253.44"/>
        </g>
        <g>
          <path class="cls-2" d="m112.31,253.39s.1-.08.14-.14h0c.22-.22.22-.61,0-.83-.02-.02-.04-.04-.06-.06-.18-.14-.44-.14-.65-.04-.04.02-.08.06-.12.08-.04.04-.1.1-.14.14-.22.26-.4.52-.54.83-.12.26-.22.54-.28.83.28-.06.56-.14.83-.28.3-.12.59-.3.83-.52"/>
          <path class="cls-2" d="m108.47,252.57s-.08-.1-.14-.14h0c-.22-.22-.61-.22-.83,0-.02.02-.06.06-.08.1-.12.18-.12.42-.02.63.02.04.06.08.08.12.04.04.1.1.14.14.24.22.52.4.81.54.26.12.54.22.83.28-.06-.28-.14-.56-.28-.83-.1-.3-.28-.59-.5-.85"/>
          <path class="cls-2" d="m112.45,256.58s-.1-.1-.14-.14c-.24-.22-.52-.4-.81-.54-.26-.12-.54-.22-.83-.28.06.28.14.56.28.83.14.3.32.56.54.83.04.04.08.1.14.14h0c.22.22.61.22.83,0,.02-.02.04-.04.04-.06.14-.18.16-.44.04-.65-.02-.04-.06-.08-.1-.12"/>
          <path class="cls-2" d="m107.67,256.44s-.1.08-.14.14c-.04.04-.08.1-.1.14-.12.22-.08.5.1.69.04.04.06.06.1.08.16.1.36.12.52.04.06-.02.14-.08.18-.12.04-.04.1-.1.14-.14.22-.26.4-.52.54-.83.12-.26.22-.54.28-.83-.28.06-.54.14-.81.28-.3.14-.59.32-.83.54"/>
          <path class="cls-23" d="m109.99,255.55c-.24,0-.46.02-.69.06-.06.28-.14.56-.28.83-.14.3-.32.56-.54.83-.04.04-.08.1-.14.14-.06.06-.12.1-.18.12.06-.02.12-.06.18-.12.04-.04.08-.08.14-.12.44-.38.97-.56,1.51-.56s1.07.18,1.51.56c.04.04.1.08.14.12-.04-.04-.1-.1-.14-.14-.22-.26-.4-.52-.54-.83-.12-.26-.22-.54-.28-.83-.22-.04-.46-.06-.69-.06m-1.84,1.98h0"/>
          <path class="cls-23" d="m107.42,253.15s.06.08.08.12c.04.04.08.08.12.14.75.87.75,2.18,0,3.05-.04.04-.08.08-.12.14.04-.04.1-.08.14-.14.24-.22.52-.4.81-.54.26-.12.54-.22.83-.28.1-.46.1-.93,0-1.39-.28-.06-.56-.14-.83-.28-.28-.14-.56-.32-.81-.54-.04-.04-.1-.08-.14-.14-.02-.04-.06-.08-.08-.12m.1,3.43s-.02,0,0,0c-.04.04-.08.1-.1.14,0-.04.04-.1.1-.14-.02,0,0,0,0,0"/>
          <path class="cls-23" d="m112.45,253.25s-.1.1-.14.14c-.24.22-.52.4-.81.54-.26.12-.54.22-.83.28-.1.46-.1.93,0,1.39.28.06.56.14.83.28.28.14.56.32.81.54.04.04.1.08.14.14.04.04.08.08.1.14-.02-.04-.06-.1-.1-.14s-.08-.08-.12-.14c-.75-.87-.75-2.18,0-3.05.04-.04.08-.08.12-.14"/>
          <path class="cls-23" d="m111.74,252.34s-.08.06-.12.08c-.04.04-.08.08-.14.12-.44.38-.97.56-1.51.56s-1.07-.18-1.51-.56c-.04-.04-.1-.08-.14-.12.04.04.1.1.14.14.22.26.4.52.54.83.12.26.22.54.28.83.22.04.46.06.69.06.24,0,.46-.02.69-.06.06-.28.14-.56.28-.83.14-.3.32-.56.54-.83.04-.04.08-.1.14-.14.04-.04.08-.06.12-.08"/>
        </g>
      </g>
    </g>
  </g>
</svg>