<?xml version="1.0" encoding="UTF-8"?>
<svg xmlns="http://www.w3.org/2000/svg" xmlns:xlink="http://www.w3.org/1999/xlink" viewBox="0 0 155.16 195.79">
  <defs>
    <style>
      .cls-1 {
        fill: #a0ec00;
      }

      .cls-1, .cls-2, .cls-3, .cls-4, .cls-5, .cls-6, .cls-7, .cls-8, .cls-9, .cls-10, .cls-11, .cls-12, .cls-13, .cls-14, .cls-15, .cls-16, .cls-17, .cls-18, .cls-19, .cls-20, .cls-21, .cls-22, .cls-23, .cls-24, .cls-25, .cls-26, .cls-27, .cls-28, .cls-29, .cls-30, .cls-31 {
        stroke-width: 0px;
      }

      .cls-2 {
        fill: #f2f2f3;
      }

      .cls-3, .cls-25 {
        fill: #002751;
      }

      .cls-4 {
        fill: #dad9d8;
      }

      .cls-32 {
        fill: none;
        stroke: #2b3894;
        stroke-width: .26px;
      }

      .cls-5 {
        fill: url(#linear-gradient);
      }

      .cls-33 {
        font-family: Roboto-Regular, Roboto;
        font-size: 12px;
      }

      .cls-33, .cls-28 {
        fill: blue;
      }

      .cls-6 {
        fill: url(#linear-gradient-6);
      }

      .cls-7 {
        fill: #ea610a;
      }

      .cls-9 {
        fill: #f7ba07;
      }

      .cls-10 {
        fill: #2b3894;
      }

      .cls-11 {
        fill: #a7a7a7;
      }

      .cls-12 {
        fill: url(#linear-gradient-5);
      }

      .cls-13 {
        fill: #f59e00;
      }

      .cls-34 {
        letter-spacing: 0em;
      }

      .cls-14 {
        fill: #00b0a0;
      }

      .cls-15 {
        fill: #fff;
      }

      .cls-16 {
        fill: #f8f8f8;
      }

      .cls-17 {
        fill: url(#linear-gradient-2);
      }

      .cls-18 {
        fill: url(#linear-gradient-7);
      }

      .cls-19 {
        fill: url(#linear-gradient-3);
      }

      .cls-20 {
        fill: #231f20;
      }

      .cls-21 {
        fill: #e54a94;
      }

      .cls-22 {
        fill: url(#linear-gradient-9);
      }

      .cls-23 {
        fill: url(#linear-gradient-8);
      }

      .cls-24 {
        fill: #05b0a8;
      }

      .cls-25 {
        isolation: isolate;
        opacity: .5;
      }

      .cls-26 {
        fill: #1d1d1b;
      }

      .cls-27 {
        fill: #161e6f;
      }

      .cls-29 {
        fill: url(#linear-gradient-4);
      }

      .cls-30 {
        fill: #e20d17;
      }

      .cls-31 {
        fill: #cbaeff;
      }
    </style>
    <linearGradient id="linear-gradient" x1="103.06" y1="-1033.66" x2="103.06" y2="-1056.12" gradientTransform="translate(0 -971.57) scale(1 -1)" gradientUnits="userSpaceOnUse">
      <stop offset="0" stop-color="#2b3894"/>
      <stop offset="1" stop-color="#293681"/>
    </linearGradient>
    <linearGradient id="linear-gradient-2" x1="114.61" y1="-1033.74" x2="114.61" y2="-1055.55" xlink:href="#linear-gradient"/>
    <linearGradient id="linear-gradient-3" x1="129.96" y1="-1033.66" x2="129.96" y2="-1056.12" xlink:href="#linear-gradient"/>
    <linearGradient id="linear-gradient-4" x1="90.9" y1="-1033.66" x2="90.9" xlink:href="#linear-gradient"/>
    <linearGradient id="linear-gradient-5" x1="83.88" y1="-1046.13" x2="82.11" y2="-1034.31" gradientTransform="translate(0 -971.57) scale(1 -1)" gradientUnits="userSpaceOnUse">
      <stop offset="0" stop-color="#f78610"/>
      <stop offset="1" stop-color="#f79510"/>
    </linearGradient>
    <linearGradient id="linear-gradient-6" x1="74.99" y1="1036.72" x2="89.86" y2="1053.55" gradientTransform="translate(0 -898)" gradientUnits="userSpaceOnUse">
      <stop offset="0" stop-color="#00ad88"/>
      <stop offset="1" stop-color="#00aec3"/>
    </linearGradient>
    <linearGradient id="linear-gradient-7" x1="72.1" y1="1039.28" x2="86.97" y2="1056.11" xlink:href="#linear-gradient-6"/>
    <linearGradient id="linear-gradient-8" x1="70.92" y1="1040.32" x2="85.78" y2="1057.16" xlink:href="#linear-gradient-6"/>
    <linearGradient id="linear-gradient-9" x1="70.95" y1="1040.29" x2="85.82" y2="1057.13" xlink:href="#linear-gradient-6"/>
  </defs>
  <g id="Layer_2" data-name="Layer 2">
    <rect class="cls-4" x="-23.31" y="-188.94" width="927.32" height="498.37"/>
    <rect class="cls-15" x="0" y=".66" width="153.89" height="194.39"/>
  </g>
  <g id="katman_1" data-name="katman 1">
    <g>
      <path class="cls-28" d="m123.81,25.87v2.53s0,.04,0,.04v2.45c0,.33.27.59.59.59s.59-.27.59-.59v-2.45s0-.02,0-.01v-.03c0-.53.18-1.02.5-1.39.31-.35.71-.54,1.13-.54.42,0,.82.19,1.13.54.32.37.5.86.5,1.39v2.48c0,.33.27.59.59.59s.59-.27.59-.59v-2.48c0-.82-.28-1.59-.8-2.18-.53-.61-1.25-.94-2.02-.94-.59,0-1.16.2-1.63.57,0-.32-.27-.57-.59-.57s-.59.27-.59.59"/>
      <path class="cls-28" d="m119.31,45.86v-6.86c0-2.11-.73-4.09-2.05-5.6-1.36-1.54-3.17-2.39-5.12-2.39-1.84,0-3.57.76-4.9,2.15v-7.87c0-.63-.51-1.14-1.14-1.14s-1.14.51-1.14,1.14v13.06s0,.02,0,.03v7.36c0,.63.51,1.14,1.14,1.14s1.14-.51,1.14-1.14v-6.9c.04-1.49.55-2.89,1.48-3.93.93-1.05,2.14-1.62,3.42-1.62,1.28,0,2.49.58,3.42,1.62.96,1.09,1.48,2.54,1.48,4.1v6.86c0,.63.51,1.14,1.14,1.14s1.14-.51,1.14-1.14m-15.85-2.61c.09-.37.12-.79.1-1.13,0,0,0-.13,0-.18,0-.05-.01-.09-.01-.09-.26-2.31-2.21-4.05-4.54-4.05h-4.85c-.61,0-1.19-.24-1.62-.67-.43-.43-.67-1.01-.67-1.62,0-.61.24-1.19.67-1.62.43-.43,1.01-.67,1.62-.67h7.19c.63,0,1.14-.51,1.14-1.14s-.51-1.14-1.14-1.14h-7.19c-2.52,0-4.57,2.05-4.57,4.56s2.05,4.56,4.57,4.56h4.85c.61,0,1.19.24,1.62.67.34.34.57.78.64,1.25,0,.02.02.12.03.34,0,.12,0,.25-.04.39-.1.42-.32.75-.32.75-.02.03-.02.02-.04.06-.03.04-.71,1.04-2.8,1.04-.03,0-.15,0-.18,0h-6.56c-.62,0-1.13.51-1.13,1.13s.51,1.13,1.13,1.13h6.56s.14,0,.18,0c3.22,0,4.48-1.73,4.71-2.1.11-.16.46-.73.64-1.49m-14.96-4.31s0-.06,0-.09c0-2.11-.73-4.1-2.05-5.6-1.36-1.54-3.17-2.39-5.12-2.39-.08,0-.16,0-.24.03-.93.02-2.22.23-3.44,1-.53.33-.69,1.03-.35,1.56.22.34.58.53.96.53.21,0,.42-.06.6-.18,1.42-.9,3.08-.61,3.09-.61.03,0,.06,0,.09,0,1.01.17,1.95.71,2.7,1.56.71.81,1.19,1.84,1.38,2.96h-6.33c-2.52,0-4.56,2.05-4.57,4.56,0,2.52,2.05,4.56,4.57,4.57h0s.17,0,.2,0h4.2c1.49,0,2.64-.41,3.41-1.22.87-.92.9-2.01.89-2.27v-4.32s0-.05,0-.08m-2.25,4.49s-.01.36-.28.64c-.32.34-.93.51-1.76.51h-4.2c-.05,0-.09,0-.2,0-.61,0-1.19-.24-1.62-.67-.43-.43-.67-1.01-.67-1.62s.24-1.19.67-1.62c.43-.43,1.01-.67,1.62-.67h6.44v3.38s0,.04,0,.07m-11.74-8.49c.47-.41.51-1.13.1-1.6-1.36-1.54-3.17-2.39-5.12-2.39s-3.76.85-5.12,2.39c-1.32,1.5-2.05,3.49-2.05,5.6,0,1.1.21,2.18.59,3.18v.02s.11.27.11.27c.05.11.11.22.16.33.02.05.04.1.07.14.02.04.04.07.06.1.39.72.88,1.38,1.45,1.96,0,0,0,0,0,0,.07.08,1.69,1.95,4.96,2.15.02,0,.05,0,.07,0,.01,0,.23,0,.34,0,.93,0,2.33-.17,3.64-1,.53-.33.69-1.03.35-1.56-.33-.53-1.03-.69-1.56-.35-.97.61-2.04.67-2.63.65-.02,0-.1,0-.12,0-1.58-.11-2.65-.78-3.08-1.14,0,0-.01-.02-.02-.02-.62-.54-1.13-1.2-1.51-1.97-.4-.84-.61-1.79-.61-2.76,0-1.55.53-3.01,1.48-4.1.92-1.05,2.14-1.62,3.41-1.62,1.28,0,2.49.58,3.42,1.62.4.45,1.15.5,1.6.1m-11.47-2.86c0-.63-.51-1.14-1.14-1.14h-4.9v-5.72c0-.63-.51-1.14-1.14-1.14s-1.14.51-1.14,1.14v16.94s0,0,0,0v1.18c0,.25.02,1.46.94,2.42.47.49,1.35,1.08,2.86,1.08.63,0,1.13-.51,1.13-1.13s-.51-1.13-1.13-1.13c-.56,0-.97-.12-1.22-.37-.31-.32-.32-.8-.32-.8,0-.02,0-.03,0-.05v-1.12s0-9.03,0-9.03h4.9c.63,0,1.14-.51,1.14-1.14m-10.41,7.66c.21-.21.33-.5.33-.8,0-2.11-.73-4.09-2.05-5.6-1.36-1.54-3.17-2.39-5.12-2.39s-3.78.87-5.12,2.39c-1.32,1.5-2.05,3.49-2.05,5.6,0,1.1.21,2.18.6,3.18v.02s.11.27.11.27c.04.08.08.16.12.24.04.07.07.15.11.22.02.05.05.09.08.14.39.71.87,1.36,1.43,1.93,0,0,0,0,0,.01.06.07,1.42,1.62,4.12,2.06.01,0,.35.06.77.09.02,0,.15,0,.15,0,.07,0,.14,0,.21,0,.93,0,2.33-.17,3.64-1,.53-.33.69-1.04.35-1.57-.34-.53-1.04-.69-1.57-.35-.93.59-1.95.67-2.56.65-.01,0-.03,0-.04,0-1.67-.1-2.68-.78-3.12-1.14,0,0-.02-.02-.03-.03-.62-.54-1.13-1.21-1.51-1.98-.24-.51-.41-1.05-.51-1.62h10.84c.3,0,.59-.12.8-.33m-2.04-1.94h-9.6c.19-1.12.67-2.16,1.38-2.96.92-1.05,2.14-1.62,3.41-1.62,1.28,0,2.49.58,3.42,1.62.71.81,1.19,1.84,1.38,2.96m-13.56,7.89v-6.75c0-2.11-.73-4.1-2.05-5.6-1.36-1.54-3.17-2.39-5.12-2.39-1.84,0-3.57.76-4.9,2.15v-1.02c0-.63-.51-1.13-1.14-1.13s-1.14.51-1.14,1.13v6.86s0,.04,0,.06c0,.02,0,.04,0,.06v6.64c0,.63.51,1.14,1.14,1.14s1.14-.51,1.14-1.14v-6.64s0-.04,0-.06c0-.02,0-.04,0-.06,0-1.56.53-3.01,1.48-4.1.92-1.05,2.14-1.62,3.41-1.62,1.28,0,2.49.58,3.42,1.62.96,1.09,1.49,2.55,1.48,4.1v6.75c0,.63.51,1.13,1.14,1.13s1.14-.51,1.14-1.13"/>
      <path class="cls-24" d="m126.43,34.36c-1.01,0-2.02-.26-2.9-.74-.29-.16-.39-.52-.23-.8.16-.29.52-.39.8-.23.71.39,1.52.59,2.34.59.96,0,1.89-.28,2.68-.8.27-.18.64-.1.82.17.18.27.1.64-.17.82-.99.65-2.14,1-3.33,1"/>
      <path class="cls-21" d="m130.64,32.37c-.13,0-.27-.04-.38-.13-.25-.21-.29-.58-.08-.83.72-.87,1.11-1.97,1.11-3.1,0-.79-.19-1.57-.56-2.26-.15-.29-.04-.65.25-.8.29-.15.65-.04.8.25.45.86.69,1.83.69,2.81,0,1.4-.49,2.77-1.38,3.85-.12.14-.29.21-.46.21"/>
      <path class="cls-28" d="m122.61,32.8c-.15,0-.3-.06-.41-.17-1.18-1.15-1.82-2.69-1.82-4.33,0-3.34,2.72-6.06,6.06-6.06,1.62,0,3.14.63,4.28,1.77.23.23.23.6,0,.84-.23.23-.6.23-.84,0-.92-.92-2.14-1.43-3.45-1.43-2.69,0-4.87,2.19-4.87,4.87,0,1.32.52,2.56,1.47,3.48.23.23.24.6,0,.84-.12.12-.27.18-.42.18"/>
    </g>
    <text class="cls-33" transform="translate(41.15 18.24)"><tspan class="cls-34" x="0" y="0">P</tspan><tspan x="7.51" y="0">ayments by:</tspan></text>
    <g id="Layer_2-2" data-name="Layer 2">
      <polygon class="cls-5" points="102.4 64.27 106.97 64.27 103.89 84.04 99.15 84.04 102.4 64.27"/>
      <path class="cls-17" d="m121.98,64.74l-.72,4.05s-4.48-2.09-6.63-.26c-1.8,1.68,3.41,3.83,3.41,3.83,1.76,1,2.94,2.79,3.16,4.8,0,3.05-1.78,5.94-7.01,6.33s-6.97-.78-6.97-.78l.55-4.18c1.54.67,3.18,1.12,4.85,1.33,1.92,0,3.26-.55,3.55-1.52s-.72-1.83-2-2.42-5.58-2.85-4.98-6.25c.59-3.4,4.41-7.38,12.79-4.92Z"/>
      <path class="cls-19" d="m134.18,84.04h4.69l-4.12-19.82h-4.12c-1,.23-1.83.9-2.26,1.83-.55,1.52-7.35,17.94-7.35,17.94h4.8l1.31-3.95h6.34c.32,1.31.55,2.65.69,3.99Zm-5.72-7.24l2.7-7.12s.14-.41.23,0c0,.23.73,3.77,1.4,7.07l-4.33.05Z"/>
      <circle class="cls-32" cx="140.55" cy="82.27" r="1.07"/>
      <path class="cls-10" d="m140.11,82.85v-1.14h.44c.06-.02.13-.02.2,0,.05.01.09.05.11.11.02.05.02.11,0,.17.02.16-.1.3-.26.32,0,0-.01,0-.02,0,.02,0,.05,0,.08,0,.04.05.08.1.11.15l.18.3h-.17l-.14-.23c-.04-.05-.07-.11-.09-.17l-.08-.08h-.2v.5l-.17.06Zm.12-.64h.43l.09-.08s0-.07,0-.11c.01-.09-.05-.18-.14-.19-.02,0-.05,0-.07,0h-.26l-.05.37Z"/>
      <path class="cls-29" d="m95.03,64.27h4.8l-7.71,19.82h-5.32l-4.83-19.82h3.43s1.92-.24,2.38,2.38c.46,2.62,1.87,10.23,1.87,10.23,0,0,0,.62.29.2s5.09-12.8,5.09-12.8Z"/>
      <path class="cls-12" d="m81.68,64.27h3.72s1.92-.24,2.38,2.38c.27,1.65.95,5.26,1.42,7.73,0,0-2.45-6.81-12.19-10.11h8.63"/>
    </g>
    <g>
      <path class="cls-26" d="m27.71,90.77c-.14-.15-.31-.27-.51-.33-.2-.09-.42-.13-.64-.12h-.39c-.13.01-.26.05-.38.11-.14.05-.26.12-.37.22-.12.1-.23.22-.31.36-.13-.22-.32-.41-.55-.53-.24-.14-.52-.2-.8-.2h-.32c-.11.02-.22.05-.32.1-.11.05-.21.11-.31.18-.11.08-.2.18-.27.3v-.49h-.85v4.1h.86v-2.24c0-.16.02-.31.09-.46.05-.13.12-.25.22-.35.09-.09.2-.16.32-.21.13-.02.26-.02.39,0,.26-.02.51.08.68.27.17.23.26.51.25.79v2.19h.86v-2.24c0-.29.1-.58.3-.8.1-.09.21-.16.33-.21.13-.02.26-.02.39,0,.26-.02.5.08.68.27.17.23.25.51.23.79v2.19h.87v-2.54c0-.23-.04-.45-.12-.67-.07-.19-.18-.36-.33-.49Z"/>
      <path class="cls-26" d="m32.25,90.9c-.14-.18-.32-.33-.53-.44-.23-.11-.49-.17-.75-.16-.28,0-.55.05-.8.16-.24.11-.46.26-.65.44-.19.19-.34.42-.43.68-.11.27-.17.57-.16.86,0,.3.05.59.16.86.09.25.24.48.43.68.18.19.41.35.65.44.25.11.53.17.8.16.27.03.54-.02.79-.12.2-.1.39-.25.53-.43v.43h.89v-4.05h-.92v.49Zm0,2.06c-.06.15-.14.29-.25.42-.11.12-.25.21-.39.27-.16.07-.33.11-.51.1-.18,0-.35-.03-.52-.1-.14-.07-.27-.17-.38-.28-.1-.13-.19-.27-.25-.42-.05-.16-.08-.33-.09-.51,0-.17.03-.34.09-.51.06-.15.14-.29.25-.42.11-.11.24-.21.38-.28.16-.06.34-.1.52-.1.17,0,.34.03.51.1.15.07.28.16.39.27.1.13.19.27.25.42.11.34.11.7,0,1.04h0Z"/>
      <path class="cls-26" d="m37.26,92.44c-.31-.22-.67-.36-1.05-.39l-.42-.05h-.26l-.22-.07c-.05-.03-.1-.08-.14-.12-.02-.06-.02-.12,0-.17,0-.15.07-.28.2-.36.17-.1.37-.15.57-.14.13-.01.25-.01.38,0l.35.09.31.11.22.12.35-.69c-.24-.14-.49-.25-.75-.32-.3-.08-.6-.11-.91-.11-.24,0-.47.03-.7.1-.19.06-.37.14-.53.26-.14.11-.26.25-.33.41-.08.17-.12.36-.11.54-.01.31.11.6.35.8.3.23.66.37,1.04.41h.42c.19.02.37.07.54.16.11.06.17.17.17.3,0,.15-.1.29-.23.36-.22.1-.46.15-.7.14-.15.01-.3.01-.44,0-.12-.02-.24-.05-.36-.09-.1-.04-.2-.08-.3-.14-.09-.05-.17-.1-.25-.16l-.41.67c.14.11.29.2.46.27.15.07.32.12.48.16l.44.07h.37c.27,0,.53-.03.79-.1.22-.06.42-.15.6-.27.15-.11.27-.25.36-.42.08-.17.12-.35.12-.54.01-.32-.13-.63-.39-.81Z"/>
      <path class="cls-26" d="m45.59,90.89c-.17-.19-.37-.34-.6-.43-.24-.11-.51-.17-.78-.16-.28,0-.57.05-.83.16-.24.1-.46.24-.64.43-.19.19-.33.42-.42.68-.1.28-.15.58-.15.87,0,.3.05.6.15.89.1.25.24.48.43.68.19.19.42.34.67.43.27.1.55.15.84.15.3,0,.6-.04.89-.12.29-.09.56-.24.79-.44l-.44-.64c-.17.14-.35.25-.55.32-.2.07-.41.11-.62.11-.14.02-.28.02-.42,0-.13-.04-.26-.1-.37-.18-.11-.09-.2-.2-.27-.32-.08-.14-.14-.3-.16-.47h3.02v-.33c0-.3-.04-.59-.14-.87-.08-.27-.21-.52-.39-.74Zm-2.46,1.23c.02-.14.06-.28.12-.41.06-.12.13-.23.22-.32.09-.09.2-.16.32-.21.13-.05.28-.08.42-.07.26-.01.52.09.7.27.19.2.31.46.33.74h-2.12Z"/>
      <path class="cls-26" d="m57.42,90.9c-.14-.19-.32-.34-.53-.44-.23-.11-.49-.17-.75-.16-.28,0-.55.05-.8.16-.24.11-.46.26-.64.44-.19.2-.34.43-.44.68-.1.28-.15.57-.15.86,0,.29.05.59.15.86.1.25.25.48.44.68.18.19.4.35.64.44.25.11.53.16.8.16.26.02.51-.02.75-.12.21-.1.39-.25.53-.43v.43h.9v-4.05h-.9v.49Zm0,2.06c-.05.16-.13.3-.25.42-.11.11-.24.21-.38.27-.16.07-.33.1-.51.1-.18,0-.35-.03-.52-.1-.29-.14-.52-.39-.63-.7-.06-.16-.09-.33-.09-.51,0-.17.03-.34.09-.51.05-.16.13-.3.25-.42.11-.12.24-.21.38-.28.16-.07.34-.1.52-.1.17,0,.34.03.51.1.14.07.27.16.38.27.11.12.2.26.25.42.13.33.13.7,0,1.04h0Z"/>
      <path class="cls-26" d="m41.08,93.68c-.14.05-.28.07-.43.07-.08.01-.16.01-.25,0-.08-.03-.15-.08-.21-.14-.06-.07-.1-.15-.14-.23-.02-.12-.02-.24,0-.36v-1.81h1.43v-.8h-1.48v-1.23h-.9v1.23h-.81v.8h.81v1.8c-.04.45.1.89.39,1.23.29.27.68.41,1.07.38.24,0,.48-.03.7-.11.13-.05.26-.12.38-.18l-.31-.74-.27.09Z"/>
      <path class="cls-26" d="m49.12,90.3c-.23,0-.46.04-.68.14-.21.12-.38.3-.51.51v-.53h-.81v4.05h.83v-2.22c0-.16.02-.32.07-.47.04-.13.1-.25.2-.35.08-.09.19-.17.31-.21.12-.05.25-.08.38-.07h.53l.27-.85h-.59Z"/>
      <path class="cls-26" d="m61.49,90.3c-.23,0-.46.05-.68.14-.21.12-.38.3-.51.51v-.53h-.8v4.05h.81v-2.22c0-.16.02-.32.07-.47.04-.13.11-.25.2-.35.08-.09.19-.17.31-.21.13-.05.26-.08.39-.07h.53l.26-.85h-.59Z"/>
      <path class="cls-26" d="m65.65,88.75v2.16c-.14-.18-.32-.33-.53-.44-.23-.11-.49-.17-.75-.16-.28,0-.55.05-.8.16-.24.11-.46.26-.65.44-.19.19-.34.42-.43.68-.11.27-.17.57-.16.86,0,.3.05.59.16.86.09.25.24.48.43.68.18.19.41.35.65.44.25.11.53.17.8.16.26,0,.52-.05.75-.16.2-.1.39-.25.53-.43v.47h.89v-5.72h-.89Zm0,4.21c-.06.15-.14.29-.25.42-.11.12-.25.21-.39.27-.16.07-.33.11-.51.1-.18,0-.35-.03-.52-.1-.14-.07-.27-.17-.38-.28-.1-.13-.19-.27-.25-.42-.05-.16-.08-.33-.09-.51,0-.17.03-.34.09-.51.06-.15.14-.29.25-.42.11-.11.24-.21.38-.28.16-.06.34-.1.52-.1.17,0,.34.03.51.1.15.07.28.16.39.27.1.13.19.27.25.42.11.34.11.7,0,1.04h0Z"/>
      <path class="cls-26" d="m51.25,91.51c.11-.12.25-.21.41-.27.16-.07.33-.1.51-.1h0c.19,0,.38.03.55.1.16.06.31.14.43.26l.43-.71c-.16-.13-.35-.24-.54-.32-.28-.11-.58-.16-.87-.16-.3,0-.6.05-.87.16-.26.1-.5.26-.69.46-.2.19-.36.42-.47.68-.21.55-.21,1.15,0,1.7.11.26.27.49.47.68.19.2.43.36.69.46.28.11.58.17.87.16.3,0,.6-.05.87-.16.2-.08.38-.19.54-.32l-.38-.7c-.13.11-.27.19-.43.25-.18.07-.36.1-.55.1h0c-.17,0-.35-.03-.51-.1-.15-.06-.29-.14-.41-.26-.12-.12-.21-.26-.27-.42-.13-.34-.13-.72,0-1.06.05-.15.12-.29.22-.41Z"/>
      <path class="cls-26" d="m68.41,93.89c.06-.01.12-.01.17,0,.1.04.18.12.22.22.05.1.05.22,0,.32-.04.1-.12.18-.22.22-.11.05-.24.05-.35,0-.11-.02-.2-.09-.26-.18-.05-.1-.05-.22,0-.32.04-.1.12-.18.22-.22.07-.03.14-.04.21-.04Zm0,.71s.08.01.12,0c.03,0,.06,0,.09,0,0-.03,0-.06,0-.09.03-.08.03-.17,0-.25,0-.03,0-.06,0-.09-.03,0-.06,0-.09,0-.04-.01-.08-.01-.12,0-.04-.01-.08-.01-.11,0h-.1c-.07.1-.07.23,0,.33v.09h.1s.08.01.11,0Zm0-.48s.08-.01.11,0c.01.03.01.06,0,.09,0,.02,0,.05,0,.07-.02.01-.05.01-.07,0l.11.14h-.12l-.1-.14h0v.18h-.11v-.37l.18.02Zm-.07.09v.07h.11-.11v-.07Z"/>
      <path class="cls-30" d="m38.25,71.34c0-4.7,2.15-9.15,5.84-12.06-6.66-5.28-16.34-4.17-21.62,2.49-5.28,6.66-4.17,16.34,2.49,21.62,5.6,4.44,13.53,4.44,19.13,0-3.69-2.91-5.85-7.35-5.84-12.05Z"/>
      <ellipse class="cls-7" cx="44.09" cy="71.34" rx="5.84" ry="12.06"/>
      <path class="cls-13" d="m53.63,55.96c-3.46,0-6.82,1.16-9.54,3.31,6.66,5.26,7.79,14.92,2.53,21.58-.74.94-1.59,1.79-2.53,2.53,6.66,5.28,16.33,4.16,21.6-2.5,5.28-6.66,4.16-16.33-2.5-21.6-2.72-2.16-6.09-3.33-9.57-3.33Z"/>
    </g>
    <g id="Layer_2-3" data-name="Layer 2">
      <path class="cls-20" d="m116.58,143.07c-2.67,0-4.87,2.2-4.87,4.87s2.2,4.87,4.87,4.87,4.87-2.2,4.87-4.87h0c0-2.74-2.2-4.87-4.87-4.87Zm0,7.61c-1.53,0-2.8-1.27-2.8-2.8s1.27-2.8,2.8-2.8,2.8,1.27,2.8,2.8-1.27,2.8-2.8,2.8h0Z"/>
      <path class="cls-20" d="m97.29,143.07c-2.67,0-4.87,2.2-4.87,4.87s2.2,4.87,4.87,4.87,4.87-2.2,4.87-4.87h0c0-2.74-2.2-4.87-4.87-4.87Zm0,7.61c-1.53,0-2.8-1.27-2.8-2.8s1.27-2.8,2.8-2.8,2.8,1.27,2.8,2.8h0c-.07,1.6-1.27,2.8-2.8,2.8h0Z"/>
      <path class="cls-20" d="m111.17,152.55h-8.28v-1.6l5.01-5.67h-4c-.53,0-.93-.4-.93-.93v-1.07h8.21v1.67l-5.21,5.61h4.27c.53,0,.93.4.93.93h0v1.07Z"/>
      <path class="cls-20" d="m132.86,152.61h-2.27l-1.8-5.47-1.87,5.47h-2.2l-3.07-9.34h1.47c.53,0,1.07.33,1.2.87l1.53,4.87,1.87-5.74h1.94l1.87,5.74,1.53-4.87c.2-.53.67-.87,1.2-.87h1.67l-3.07,9.34Z"/>
      <path class="cls-6" d="m88.61,150.28c-.4.07-.8-.27-.87-.67h0c-.47-3.74-3.67-6.54-7.41-6.54-2,0-3.94.8-5.34,2.2h0c-.33.33-.8.33-1.13,0h0c-.33-.33-.33-.8,0-1.13h0c1.67-1.74,4-2.67,6.41-2.67,4.54,0,8.41,3.4,9.01,7.94h0c.07.47-.27.8-.67.87h0Z"/>
      <path class="cls-18" d="m80.27,153.41c-1.6,0-2.87-1.33-2.87-2.87s1.33-2.87,2.87-2.87,2.87,1.27,2.87,2.87c.07,1.6-1.2,2.87-2.87,2.87q.07,0,0,0Zm0-4.14c-.73,0-1.33.6-1.33,1.33s.6,1.33,1.33,1.33,1.33-.6,1.33-1.33-.53-1.33-1.33-1.33Z"/>
      <path class="cls-23" d="m82.14,145.47v.2c-.07.33-.4.6-.73.6h-.2c-.27-.07-.6-.13-.93-.13-1.07,0-2.14.4-3,1.13-.4.33-.73.73-1.13,1.13l-.53.6-2.74,2.74-.93.93c-.13.13-.4.13-.53,0-.07-.07-.07-.13-.13-.2,0-.2-.07-.4-.07-.6-.07-.4.07-.8.4-1.07l1.33-1.33,1.6-1.6.53-.53c.4-.4.8-.87,1.2-1.2,1.47-1.2,3.4-1.74,5.27-1.33.33,0,.6.33.6.67Z"/>
      <path class="cls-22" d="m80.27,159.62c-3.14,0-6.07-1.74-7.74-4.47-.2-.33-.13-.67.13-.93l2.27-2.27c.33-.33.8-.33,1.07,0,.07.07.13.13.2.27.87,2.27,3.47,3.34,5.74,2.47,1.67-.67,2.8-2.34,2.8-4.14v-.47c-.13-1-.6-1.94-1.33-2.6h0c-.27-.33-.27-.8,0-1.13h0c.33-.33.8-.33,1.07,0h0c1,.93,1.6,2.2,1.8,3.54v.73c0,3.27-2.67,5.94-5.94,6.01-2,0-3.94-1-5.01-2.74l-1.13,1.07c2.4,3.4,7.07,4.2,10.41,1.8.6-.4,1.07-.87,1.53-1.4h0c.27-.33.73-.4,1.07-.13h0c.33.27.4.73.13,1.07h0c-1.74,2.07-4.34,3.34-7.07,3.34Z"/>
      <path class="cls-14" d="m93.95,155.75c-.27,0-.47.13-.47.27,0,.6,1.53.27,1.47,1.27,0,.47-.47.8-1.07.8-.4,0-.8-.13-1.13-.47l.2-.4c.27.27.6.4.93.4s.53-.13.53-.33c0-.6-1.53-.27-1.53-1.27,0-.47.4-.8,1-.8.33,0,.67.07,1,.27l-.2.4c-.13-.07-.47-.13-.73-.13Z"/>
      <path class="cls-14" d="m97.36,157.22h-1.6c.07.33.33.53.67.53.2,0,.47-.07.6-.27l.27.27c-.2.27-.53.33-.87.33-.53.07-1.07-.4-1.07-.93v-.13c0-.53.4-1.07,1-1.07h.07c.73,0,1,.47.93,1.27Zm-.4-.33c0-.27-.2-.53-.53-.53h-.07c-.33,0-.6.2-.6.53h1.2Z"/>
      <path class="cls-14" d="m98.76,156.35c-.4,0-.67.27-.67.67s.27.67.67.67c.27,0,.47-.07.6-.27l.27.27c-.2.27-.53.4-.87.4-.6,0-1.07-.47-1.07-1.07s.47-1.07,1.07-1.07c.33,0,.67.13.87.33l-.27.27c-.2-.13-.4-.2-.6-.2Z"/>
      <path class="cls-14" d="m102.03,155.95v2.14h-.47v-.4c-.13.27-.47.47-.73.4-.4,0-.73-.27-.8-.67v-1.47h.47v1.2c0,.27.13.47.4.53h.07c.33,0,.6-.27.6-.6v-1.07h.47v-.07Z"/>
      <path class="cls-14" d="m103.9,155.95v.47c-.33-.07-.67.2-.73.6v1.13h-.47v-2.14h.47v.4c.13-.33.4-.47.73-.47Z"/>
      <path class="cls-14" d="m106.1,157.22h-1.53c.07.33.33.53.67.53.2,0,.47-.07.6-.27l.27.27c-.2.27-.53.33-.87.33-.53.07-1.07-.4-1.07-.93v-.13c0-.53.4-1.07,1-1.07h.07c.67,0,.93.47.87,1.27Zm-.33-.33c0-.27-.2-.53-.53-.53h-.07c-.33,0-.6.2-.6.53h1.2Z"/>
      <path class="cls-14" d="m110.04,156.22c0,.6-.4,1-1.13,1h-.67v.87h-.47v-2.8h1.13c.73,0,1.13.33,1.13.93Zm-.47,0c0-.33-.27-.53-.67-.53h-.6v1.13h.6c.47,0,.67-.2.67-.6h0Z"/>
      <path class="cls-14" d="m111.77,158.09v-.27c-.2.2-.4.27-.67.27-.33.07-.67-.2-.73-.6v-.07c0-.4.27-.67.8-.67h.67c0-.27-.2-.4-.53-.4-.2,0-.47.07-.6.2l-.2-.33c.27-.2.6-.27.93-.27.53,0,.87.27.87.73v1.4h-.53Zm0-.73v-.2h-.6c-.33,0-.47.07-.47.27s.13.33.4.33c.33,0,.6-.13.67-.4Z"/>
      <path class="cls-14" d="m112.9,158.89c-.2,0-.33-.07-.47-.2l.2-.33c.07.07.2.07.27.13.13,0,.27-.07.33-.2l.07-.13-.87-2.07h.47l.6,1.6.6-1.6h.47l-.93,2.4c-.13.2-.4.4-.73.4Z"/>
      <path class="cls-14" d="m118.44,156.75v1.33h-.47v-1.2c0-.27-.13-.47-.4-.53h-.07c-.33,0-.6.27-.6.6v1.13h-.47v-1.2c0-.27-.13-.47-.4-.53h-.07c-.33,0-.6.27-.6.67h0v1.07h-.47v-2.14h.47v.4c.13-.27.47-.47.8-.4.33,0,.67.2.73.53.13-.33.47-.53.8-.53.4,0,.73.27.8.67-.07.07-.07.13-.07.13Z"/>
      <path class="cls-14" d="m120.91,157.22h-1.6c.07.33.33.53.67.53.2,0,.47-.07.6-.27l.27.27c-.2.27-.53.33-.87.33-.53.07-1.07-.4-1.07-.93v-.13c0-.6.4-1.07,1-1.07h.07c.67,0,1,.47.93,1.27Zm-.4-.33c0-.33-.27-.53-.53-.53h-.07c-.33,0-.6.2-.6.53h1.2Z"/>
      <path class="cls-14" d="m123.38,156.75v1.33h-.47v-1.2c0-.27-.2-.47-.4-.53h-.07c-.33,0-.6.27-.6.6v1.13h-.47v-2.14h.47v.4c.13-.27.47-.47.73-.4.4-.07.8.27.8.67v.13Z"/>
      <path class="cls-14" d="m125.18,157.95c-.13.07-.33.13-.53.13-.33,0-.6-.2-.6-.53v-1.13h-.27v-.33h.27v-.6h.53v.6h.6v.33h-.6v1c0,.2.07.27.2.27s.2-.07.33-.07l.07.33Z"/>
      <path class="cls-14" d="m126.25,156.35c-.2,0-.33.07-.33.2,0,.4,1.13.2,1.13.93,0,.47-.4.6-.8.6-.33,0-.6-.07-.87-.27l.13-.33c.2.2.47.27.73.27.2,0,.33-.07.33-.2,0-.47-1.13-.2-1.13-.93,0-.47.4-.6.8-.6.27,0,.53.07.73.2l-.2.33c-.13-.13-.33-.2-.53-.2Z"/>
    </g>
    <g>
      <path class="cls-1" d="m57,151.75v-6.34h-10.58c6.19,0,8.82,3.49,10.58,6.34Z"/>
      <path class="cls-1" d="m30.15,159.38v10.53l5.57-.46c.73,6.31,5.96,7,7.95,7s7.64-.32,7.84-4.8-7.18-4.68-13.77-6.72c-4.49-1.38-6.69-4.01-7.59-5.55Z"/>
      <path class="cls-1" d="m57,164.68v-8.56l-6.7.32c-.47-4.96-5.01-5.29-6.33-5.33s-7.22.16-7,3.46,3.76,3.48,11.48,5.51c5.24,1.38,7.23,3.43,8.55,4.6Z"/>
      <path class="cls-1" d="m49.15,182.38h7.86v-4.79c-2.2,2.96-5.92,4.35-7.86,4.79Z"/>
      <path class="cls-1" d="m40.98,145.41h-10.82v5.65c2.47-3.54,6.51-5.65,10.82-5.65Z"/>
      <path class="cls-1" d="m30.15,176.65v5.73h11.05c-6.1-.44-9.73-2.96-11.05-5.73Z"/>
      <path class="cls-11" d="m32.77,187.4l.47.12c-.08.35-.27.66-.54.89-.27.21-.61.32-.95.31-.33.01-.66-.07-.94-.24-.24-.17-.43-.41-.54-.68-.13-.3-.19-.63-.19-.96,0-.34.06-.67.21-.97.14-.27.35-.49.61-.63.27-.14.56-.22.87-.22.32-.01.64.09.9.27.25.19.44.46.52.77l-.47.11c-.06-.22-.18-.42-.36-.57-.17-.12-.38-.19-.6-.18-.25,0-.49.06-.69.2-.18.13-.32.32-.39.54-.16.48-.16,1,0,1.49.08.21.22.39.41.51.18.11.39.17.6.17.25,0,.49-.07.68-.23.21-.18.34-.43.38-.7Z"/>
      <path class="cls-11" d="m37.72,186.91c-.03-.51.14-1.01.48-1.39.32-.34.77-.52,1.23-.5.31,0,.62.08.89.24.26.15.47.38.6.66.14.3.22.63.21.96,0,.34-.07.67-.22.97-.13.28-.35.5-.62.65-.27.15-.56.22-.87.22-.32,0-.63-.08-.9-.24-.26-.16-.47-.39-.6-.67-.14-.28-.21-.59-.2-.9Zm.48,0c-.02.38.12.75.38,1.03.22.24.54.38.87.37.33.01.66-.13.88-.38.25-.3.38-.69.35-1.08,0-.26-.05-.52-.15-.76-.09-.21-.24-.38-.43-.5-.19-.12-.41-.19-.64-.18-.32,0-.63.12-.86.34-.29.32-.43.74-.39,1.17h0Z"/>
      <path class="cls-11" d="m46.09,188.66v-3.58h1.23c.21,0,.43.01.64.05.2.04.38.13.54.25.19.17.34.38.43.61.17.51.19,1.06.04,1.57-.05.19-.13.37-.24.54-.09.12-.2.23-.33.32-.13.09-.27.15-.43.18-.19.05-.38.07-.58.06l-1.3-.02Zm.47-.43h.76c.18,0,.36-.02.54-.06.12-.04.23-.1.32-.19.12-.13.21-.28.26-.45.07-.22.1-.46.09-.69.02-.3-.05-.6-.18-.86-.1-.18-.26-.32-.45-.4-.2-.05-.4-.06-.6-.05h-.75v2.71Z"/>
      <path class="cls-11" d="m54.27,188.66v-3.58h2.58v.45h-2.12v1.08h1.98v.42h-1.98v1.2h2.2v.43l-2.67.02Z"/>
      <path class="cls-8" d="m57.83,185.11v-.72h.28s.08,0,.12,0c.03.01.06.04.07.07.06.09.04.21-.05.27-.03.02-.06.03-.1.03l.05.04.07.1.11.19h-.11l-.08-.11-.06-.1-.04-.05h-.18v.32l-.09-.04Zm.09-.4h.18s.06,0,.09,0c.02,0,.04-.02.05-.04,0-.02,0-.04,0-.06,0-.03-.01-.06-.03-.09-.03-.02-.07-.04-.1-.03h-.19l.02.23Z"/>
    </g>
    <g>
      <path class="cls-30" d="m38.25,116.34c0-4.7,2.15-9.15,5.84-12.06-6.66-5.28-16.34-4.17-21.62,2.49-5.28,6.66-4.17,16.34,2.49,21.62,5.6,4.44,13.53,4.44,19.13,0-3.69-2.91-5.85-7.35-5.84-12.05Z"/>
      <ellipse class="cls-7" cx="44.09" cy="116.34" rx="5.84" ry="12.06"/>
      <path class="cls-13" d="m53.63,100.96c-3.46,0-6.82,1.16-9.54,3.31,6.66,5.26,7.79,14.92,2.53,21.58-.74.94-1.59,1.79-2.53,2.53,6.66,5.28,16.33,4.16,21.6-2.5,5.28-6.66,4.16-16.33-2.5-21.6-2.72-2.16-6.09-3.33-9.57-3.33Z"/>
      <g>
        <path class="cls-8" d="m52.1,135.17c-.69-.16-1.32-.06-1.82.49-.06-.08-.02-.17-.03-.25-.01-.06.03-.14-.04-.19h0s0,0,0,0c-.02-.03-.05-.04-.08-.04-.26,0-.51,0-.77,0-.03,0-.06,0-.07.04h0s0,.09,0,.13c0,1.84,0,3.69,0,5.53,0,.04,0,.09,0,.13,0,.02.02.03.04.03h.88c.07-.04.04-.11.04-.16,0-.54,0-1.09,0-1.63,0-.06-.03-.14.03-.19,0,0,0,0,0,0,.27.29.59.48.99.52.08.05.16.04.24.03,0,0,0,0,0,0,0,0,0,0,0,0,.06,0,.12,0,.18,0,.08.01.16,0,.23-.03,0,0,0,0,0,0,.5-.07.93-.29,1.25-.68.59-.71.7-1.51.41-2.37-.24-.71-.74-1.18-1.48-1.36Zm.49,2.89c-.24.47-.75.72-1.3.66-.53-.06-.95-.44-1.08-.97-.03-.13-.05-.27-.05-.4.01-.48.18-.89.6-1.16.57-.37,1.67-.27,1.94.79.1.38.06.75-.12,1.09Z"/>
        <path class="cls-8" d="m42.68,135.11c-.92.03-1.66.6-1.92,1.48-.12.39-.13.8-.08,1.2.12.86.71,1.53,1.56,1.74.48.12.95.09,1.42-.03.31-.08.59-.23.85-.42.07-.06.09-.1.03-.18-.11-.15-.21-.32-.32-.47-.03-.04-.04-.09-.1-.1-.27.21-.58.35-.92.4-.33.05-.65.04-.96-.11-.37-.18-.56-.49-.63-.89.08-.03.15-.01.22-.01.91,0,1.82,0,2.73,0,.04,0,.09,0,.13,0,.08,0,.11-.02.11-.1,0-.26,0-.53-.04-.79-.2-1.09-1.01-1.76-2.1-1.72Zm.49.91c.4.14.59.46.66.86h0c-.01.07-.06.08-.12.08-.64,0-1.27,0-1.91,0-.09,0-.11-.05-.12-.12.18-.84.95-1.01,1.49-.82Z"/>
        <path class="cls-8" d="m67.41,137.2c-.15-.08-.3-.14-.46-.18-.28-.08-.57-.1-.85-.15-.18-.03-.35-.05-.52-.12-.24-.12-.28-.39-.1-.58.1-.1.22-.15.36-.18.16-.04.33-.04.5-.03.06.03.13.04.2.03,0,0,0,0,0,0,0,0,0,0,0,0,.35.04.67.17.99.33.07-.14.14-.26.21-.38.06-.12.13-.25.19-.37-.35-.24-.84-.4-1.35-.43-.24-.05-.48-.06-.72,0h0s0,0,0,0c-.43.04-.82.16-1.13.48-.56.57-.42,1.5.28,1.88.16.09.34.15.52.19.29.07.58.09.87.14.16.03.33.06.47.14.23.13.26.38.08.57-.06.06-.13.11-.21.14-.11.04-.22.07-.34.08-.2,0-.41,0-.61,0,0,0,0,0,0,0-.41-.03-.78-.18-1.12-.42-.12.2-.24.4-.36.59-.08.14-.08.14.05.22.44.28.92.42,1.44.46.2.05.4.05.6,0,0,0,0,0,0,0,.11-.02.22-.02.33-.05.38-.08.73-.22,1-.51.45-.47.49-1.45-.3-1.85Z"/>
        <path class="cls-8" d="m63.11,137.32c-.13-.1-.28-.17-.44-.23-.25-.09-.52-.13-.79-.17-.23-.03-.46-.05-.68-.12-.13-.04-.25-.1-.3-.24,0-.08,0-.15,0-.23.07-.2.25-.28.44-.33.2-.05.41-.05.62-.02.38.05.73.16,1.07.35.13-.25.27-.5.4-.75-.42-.27-.87-.39-1.35-.43-.25-.06-.5-.06-.75,0h0s0,0,0,0c-.36.04-.69.15-.99.37-.58.44-.7,1.57.18,2,.12.06.23.11.36.14.25.08.52.11.78.15.22.03.44.05.64.15.13.06.24.14.25.29.01.17-.06.3-.2.38-.14.09-.29.13-.45.14-.21,0-.43,0-.64,0,0,0,0,0,0,0,0,0,0,0,0,0-.4-.04-.76-.18-1.1-.42-.15.25-.29.48-.44.73.48.35,1.01.51,1.58.55.18.05.35.05.53,0h0s0,0,0,0c.38-.02.75-.11,1.08-.31.33-.2.55-.49.61-.88.05-.14.05-.27,0-.41-.04-.29-.19-.53-.43-.7Z"/>
        <path class="cls-8" d="m35.2,137.14c-.3-.13-.61-.19-.92-.23-.05-.04-.1-.04-.16-.03,0,0,0,0,0,0,0,0,0,0,0,0-.21-.02-.42-.04-.61-.13-.27-.11-.32-.4-.11-.61.09-.08.19-.13.31-.16.24-.06.48-.05.71-.02.32.04.62.14.91.29.05.02.09.05.12-.01.12-.23.25-.46.37-.7-.42-.26-.85-.39-1.32-.42-.09-.04-.18-.03-.28-.03,0,0,0,0,0,0,0,0,0,0,0,0-.09,0-.19,0-.28,0-.08,0-.16-.01-.24.03,0,0,0,0,0,0-.25.01-.48.08-.7.19-.38.19-.63.48-.69.91,0,0,0,0,0,0h0c-.05.15-.05.3,0,.46.03.25.15.45.34.61.15.14.33.23.53.3.31.11.63.14.96.19.21.03.42.06.6.15.26.13.3.42.07.62-.06.05-.12.08-.19.11-.12.05-.25.07-.38.08-.18,0-.35,0-.53,0,0,0,0,0,0,0-.42-.04-.81-.18-1.16-.43-.14.23-.26.44-.39.64-.05.07-.02.11.04.15.14.09.28.17.44.24.56.24,1.14.3,1.73.24.38-.04.74-.15,1.06-.38.66-.47.75-1.65-.23-2.07Z"/>
        <path class="cls-8" d="m39.85,138.6c-.04-.11-.04-.11-.15-.06-.25.12-.5.2-.78.18-.23-.01-.41-.11-.5-.34-.03-.09-.05-.18-.05-.27,0-.67,0-1.34,0-2.01.44,0,.88,0,1.32,0,.06,0,.14.03.19-.04h0s.04-.03.04-.06c0-.24,0-.49,0-.73,0-.03-.01-.05-.04-.05h0c-.45,0-.91,0-1.36,0-.15,0-.15,0-.15-.15,0-.38,0-.76,0-1.14h0s0,0,0,0c-.01-.04-.04-.04-.07-.04-.27,0-.53,0-.8,0-.03,0-.06,0-.07.04h0c0,.07,0,.13,0,.2,0,.36,0,.72,0,1.08-.25,0-.49,0-.74,0-.09,0-.12.03-.11.12,0,.21,0,.42,0,.62,0,.11.04.12.13.12.24,0,.48,0,.72,0,0,.07,0,.13,0,.2,0,.57,0,1.14,0,1.7,0,.1-.02.21.03.31,0,.17.04.34.09.5.13.39.39.64.79.75.28.08.57.09.86.06.28-.03.55-.11.8-.25.08-.04.1-.09.07-.18-.07-.19-.13-.38-.2-.57Z"/>
        <path class="cls-8" d="m46.77,135.65c-.06-.08-.02-.18-.03-.27,0-.06.03-.12-.04-.16h0c-.29,0-.59-.01-.88,0-.08.04-.04.12-.04.18,0,1.31,0,2.62,0,3.93,0,.06,0,.11,0,.17h0s0,0,0,0h0s0,0,0,0c.01.03.04.04.07.04.27,0,.53,0,.8,0,.03,0,.06,0,.07-.04h0c0-.29,0-.59,0-.88,0-.58,0-1.16,0-1.74,0,0,0,0,0,0h0c.02-.09.03-.18.05-.27.1-.32.3-.53.64-.58.15,0,.31,0,.46,0,0,0,0,0,0,0,.09,0,.17.03.25.06.05.02.08.02.1-.03.09-.27.18-.54.26-.81-.65-.24-1.34-.15-1.74.42Z"/>
        <path class="cls-8" d="m31.2,135.22h0c-.28,0-.55,0-.83,0-.07,0-.1.02-.09.09,0,.12,0,.25,0,.38-.02,0-.03.01-.05.02-.03-.04-.06-.09-.1-.13-.19-.19-.42-.32-.67-.39-.8-.23-1.7.07-2.21.73-.36.46-.49.99-.47,1.57.05,1.23.99,2.19,2.27,2.12.43-.02.81-.17,1.12-.49.03-.03.04-.08.12-.07v.45s.04.04.08.04c.26,0,.51,0,.77,0,.03,0,.06,0,.07-.04h0c.05-.03.04-.09.04-.13,0-.18,0-.36,0-.53,0-1.13,0-2.27,0-3.4,0-.07.03-.15-.04-.2Zm-1.3,3.19c-.57.54-1.84.46-2.11-.67-.12-.49-.04-.95.3-1.33.35-.4.81-.5,1.31-.37.48.13.77.47.89.94.03.13.05.25.04.33,0,.46-.13.81-.43,1.1Z"/>
        <path class="cls-8" d="m58.81,135.23s0,0,0,0c-.27,0-.54,0-.81,0-.08,0-.11.03-.11.11,0,.12,0,.24,0,.4-.25-.28-.51-.46-.82-.54-.43-.11-.86-.1-1.27.06-.85.33-1.28.97-1.39,1.86-.05.17-.05.35,0,.52.13,1.24,1.07,2.06,2.29,1.99.43-.02.8-.18,1.1-.5.02-.02.04-.07.1-.06v.44h0s.04.04.07.04c.27,0,.53,0,.8,0,.03,0,.06,0,.07-.04h0c0-.07,0-.13,0-.2,0-.76,0-1.51,0-2.27,0-.55,0-1.09,0-1.64,0-.05.04-.12-.04-.16Zm-1.85,3.47c-.85.18-1.49-.34-1.58-1.13-.03-.24-.01-.48.07-.71.19-.55.65-.87,1.25-.87.56,0,1.02.36,1.19.9.02.06.03.13.04.2,0,.17,0,.35,0,.52-.09.57-.44.97-.97,1.08Z"/>
        <path class="cls-8" d="m25.94,136.58c-.05-.71-.49-1.23-1.18-1.41-.22-.06-.45-.07-.68-.06-.46.03-.86.2-1.17.55-.05.06-.1.12-.16.2-.31-.47-.73-.71-1.28-.75-.55-.04-1.01.12-1.37.57-.01-.13-.02-.25-.01-.37,0-.08-.03-.11-.11-.11-.27,0-.54,0-.81,0h0c-.08.04-.04.11-.04.16,0,1.33,0,2.65,0,3.98,0,.04,0,.09,0,.13.01.03.04.04.07.04.27,0,.53,0,.8,0,.03,0,.06,0,.07-.04h0c0-.76,0-1.52,0-2.28,0-.09,0-.17,0-.26.04-.5.32-.84.77-.93.57-.12,1.11.09,1.18.85,0,.1,0,.19,0,.29,0,.71,0,1.43,0,2.14,0,.06-.04.13.03.19h0s0,0,0,0c.02.03.05.03.08.03.26,0,.51,0,.77,0,.03,0,.06,0,.07-.04h0c.06-.05.04-.12.04-.19,0-.58,0-1.16,0-1.73,0-.23,0-.47,0-.7.06-.54.45-.87,1-.88.52,0,.83.25.93.76.03.14.03.28.03.42,0,.77,0,1.55,0,2.32h0s.04.04.07.04c.27,0,.53,0,.8,0,.03,0,.06,0,.07-.04h0s0-.05,0-.07c0-.89,0-1.78,0-2.67,0-.06,0-.12-.03-.18Z"/>
        <path class="cls-8" d="m68.96,139.32s0-.05-.03-.06c-.04-.02-.05.01-.07.04-.02.02-.01.06-.04.07-.06-.02-.04-.14-.13-.1-.07.03-.02.11-.03.17,0,.01,0,.02,0,.04,0,.03.04.04.05.03.08-.08.16,0,.24,0,0-.05,0-.11,0-.16Z"/>
        <path class="cls-8" d="m68.42,139.26c0,.06.08.06.07.12,0,.04-.02.1.07.12.02-.08-.02-.18.08-.24-.08,0-.15-.04-.21,0Z"/>
      </g>
    </g>
    <g>
      <g>
        <path class="cls-27" d="m123.22,99.18h-28.13c-1.57,0-2.86.69-3.11,1.6h34.34c-.25-.91-1.54-1.6-3.11-1.6Z"/>
        <path class="cls-27" d="m120.42,97.68h-22.21c-1.43,0-2.62.58-3.01,1.37h28.24c-.39-.79-1.58-1.37-3.01-1.37Z"/>
        <rect class="cls-27" x="87.25" y="100.99" width="44.13" height="30.24" rx="3.16" ry="3.16"/>
      </g>
      <g>
        <path class="cls-2" d="m96.21,123.69c-.58,0-1.02-.14-1.34-.42-.32-.29-.47-.69-.47-1.22,0-.42.07-.8.21-1.14s.33-.63.57-.89c.24-.24.52-.43.86-.57.34-.14.68-.2,1.05-.2.29,0,.57.03.82.09s.48.15.68.26l-.25,1.03h-.13c-.18-.2-.36-.34-.54-.43s-.39-.14-.63-.14c-.42,0-.78.17-1.06.51-.28.34-.41.78-.41,1.31,0,.34.08.59.23.74.16.16.38.23.67.23.26,0,.51-.05.74-.16.23-.11.45-.24.66-.41h.11l-.25,1.02c-.08.04-.19.08-.3.13s-.23.09-.33.12c-.14.04-.27.07-.39.09-.11.04-.28.04-.49.04h0Z"/>
        <path class="cls-2" d="m102.08,121.11s0,.11-.01.18-.02.14-.04.22l-.48,2.1h-1.05l.37-1.6c.02-.12.05-.23.07-.31s.02-.16.02-.23c0-.13-.03-.22-.1-.28s-.18-.08-.35-.08c-.08,0-.18.02-.29.05s-.23.09-.36.16l-.53,2.29h-1.04l1.03-4.47h1.04l-.37,1.6c.21-.14.41-.25.58-.33s.37-.12.58-.12c.29,0,.52.07.68.22.16.13.24.34.24.6h0Z"/>
        <path class="cls-2" d="m105.64,120.57c-.25-.2-.61-.29-1.09-.29-.32,0-.61.05-.87.16-.27.11-.49.25-.66.43-.19.19-.33.4-.42.65-.1.25-.15.51-.15.81,0,.43.15.77.45,1.01s.72.36,1.27.36h0c.25,0,.48-.02.72-.06.22-.04.43-.11.63-.2l.19-.83h-.11c-.15.1-.32.18-.53.26s-.42.11-.65.11c-.32,0-.57-.07-.72-.19-.16-.13-.24-.31-.24-.53v-.07h2.4c.04-.12.07-.25.1-.37s.04-.25.04-.38c0-.38-.12-.66-.36-.86Zm-.68.92s0,.06-.01.1h0s-1.4,0-1.4,0c.07-.21.19-.37.33-.48s.32-.17.54-.17c.18,0,.31.04.41.12.1.08.14.2.14.35,0,.03,0,.06,0,.09Z"/>
        <path class="cls-2" d="m107.77,123.7c-.22,0-.42-.03-.62-.08s-.36-.14-.5-.26c-.14-.11-.25-.26-.33-.42s-.12-.37-.12-.59c0-.29.05-.56.17-.81.11-.25.26-.47.47-.65.2-.18.44-.33.72-.43.28-.11.59-.16.92-.16.2,0,.39.02.59.07.2.04.38.11.54.19l-.22.89h-.15c-.11-.14-.24-.24-.38-.31s-.31-.1-.48-.1c-.32,0-.59.11-.78.35s-.3.52-.3.87c0,.24.06.42.19.54.12.12.31.18.57.18.2,0,.38-.04.54-.12.16-.08.31-.17.42-.27h.15l-.22.89c-.21.09-.39.16-.54.19s-.36.05-.61.05h0Z"/>
        <polygon class="cls-2" points="112.89 123.61 111.8 123.61 111.16 122.18 110.7 122.59 110.46 123.61 109.42 123.61 110.45 119.14 111.49 119.14 110.88 121.81 112.32 120.38 113.51 120.38 112.02 121.79 112.89 123.61"/>
        <path class="cls-2" d="m116.57,120.62c-.26-.23-.62-.34-1.11-.34-.33,0-.63.05-.89.17s-.49.27-.67.46c-.19.2-.33.42-.42.68-.1.26-.14.53-.14.82,0,.41.13.73.38.96.26.23.63.35,1.11.35.34,0,.63-.05.89-.16s.47-.26.66-.45c.19-.19.33-.42.43-.68.1-.26.15-.54.15-.85h0c0-.4-.13-.71-.38-.95Zm-.77,1.56c-.04.16-.11.31-.2.44h0c-.08.12-.18.22-.3.28-.11.07-.23.1-.36.1-.17,0-.3-.05-.4-.14-.1-.1-.15-.25-.15-.47,0-.19.02-.37.07-.55.05-.18.11-.33.19-.45.08-.13.19-.23.29-.3s.24-.11.38-.11c.19,0,.33.05.41.16.09.11.13.26.13.45,0,.23-.02.42-.07.58Z"/>
        <path class="cls-2" d="m121.08,120.38l-.75,3.23h-1.04l.08-.36c-.1.07-.2.13-.31.19-.1.06-.19.11-.28.14-.11.05-.22.08-.31.1s-.19.02-.28.02c-.28,0-.51-.07-.67-.2s-.25-.34-.25-.6c0-.07,0-.14.01-.2,0-.06.02-.13.04-.2l.48-2.1h1.05l-.37,1.6c-.03.13-.05.23-.07.32-.01.09-.02.16-.02.23,0,.13.03.22.09.28.06.05.18.08.35.08.08,0,.18-.02.29-.05.11-.04.23-.09.36-.16l.53-2.29h1.05Z"/>
        <path class="cls-2" d="m122.4,123.67c-.36,0-.62-.06-.77-.18-.16-.12-.23-.29-.23-.53,0-.06,0-.12.01-.18.01-.06.02-.13.04-.2l.35-1.53h-.42l.16-.68h.42l.22-.92h1.04l-.21.92h.97l-.16.68h-.97l-.27,1.17c-.02.08-.04.16-.05.25s-.02.15-.02.21c0,.11.03.2.1.24.07.05.16.07.3.07.05,0,.13-.01.21-.03.09-.02.16-.04.21-.07h.08l-.16.69c-.12.03-.24.05-.37.07s-.29.03-.47.03h0Z"/>
      </g>
      <path class="cls-2" d="m103.1,108.66l-2.51,6.29-1.02-5.32c-.1-.61-.56-.92-1.13-.92h-4.04v.26c.82.2,1.79.46,2.35.77.36.2.46.36.56.82l1.89,7.37h2.51l3.89-9.21h-2.51v-.05Zm3.53,0l-2,9.21h2.41l2-9.21h-2.41Zm13.71,2.51l.72,3.48h-2l1.28-3.48Zm-.36-2.51c-.46,0-.87.26-1.02.67l-3.58,8.6h2.51l.51-1.38h3.07l.31,1.38h2.2l-1.94-9.21h-2.05v-.05Zm-6.24-.15c-2.35,0-4.04,1.28-4.04,3.07,0,1.33,1.18,2.05,2.1,2.51.92.46,1.23.77,1.23,1.13,0,.61-.77.87-1.43.92-1.18,0-1.89-.31-2.46-.56l-.41,2.05c.56.26,1.59.46,2.66.51,2.51,0,4.14-1.23,4.14-3.17,0-2.46-3.38-2.56-3.33-3.68,0-.31.31-.67,1.02-.77.36-.05,1.28-.1,2.35.41l.41-1.94c-.61-.26-1.33-.46-2.25-.46Z"/>
      <circle class="cls-9" cx="129.2" cy="103.6" r="5.92"/>
      <polygon class="cls-16" points="128.31 107.05 125.34 104.08 126.6 102.82 128.31 104.53 132.06 100.78 133.32 102.04 128.31 107.05"/>
    </g>
    <g>
      <rect class="cls-31" x="84.5" y="168.57" width="45.46" height="20.37" rx="2.96" ry="2.96"/>
      <g>
        <g>
          <path class="cls-3" d="m100.94,176.79v.51h.02c.1-.22.27-.36.49-.46s.47-.15.74-.15c.3,0,.57.05.79.17.22.1.39.27.54.44.15.19.25.39.32.63s.12.51.12.78-.02.54-.1.78-.17.46-.32.63c-.17.19-.34.34-.57.44s-.47.15-.76.15c-.1,0-.2,0-.32-.02s-.22-.05-.34-.1c-.12-.05-.22-.1-.32-.17-.1-.07-.2-.17-.25-.29h-.05v1.97h-.61v-5.3h.61Zm2.29,1.36c-.05-.17-.12-.32-.22-.46-.1-.12-.22-.24-.37-.32s-.32-.12-.54-.12-.39.05-.54.12c-.15.07-.27.19-.37.34-.1.15-.17.29-.2.46-.05.17-.07.34-.07.54s.02.36.07.54c.05.17.12.34.22.46s.22.24.37.32.34.12.57.12.39-.05.54-.12c.15-.07.27-.19.34-.34.1-.15.15-.29.2-.49.05-.17.05-.36.05-.56,0-.12,0-.32-.05-.49"/>
          <path class="cls-3" d="m107.95,180.63c-.1.07-.27.1-.44.1s-.3-.05-.39-.15-.15-.24-.15-.44c-.17.22-.37.36-.61.44-.22.1-.47.15-.74.15-.17,0-.34-.02-.49-.05-.15-.05-.3-.1-.39-.19-.12-.07-.2-.19-.27-.34-.07-.15-.1-.29-.1-.49,0-.22.05-.39.12-.54s.17-.24.3-.34.27-.15.42-.19.32-.07.47-.12c.17-.02.34-.05.49-.07s.3-.05.42-.07.22-.07.27-.15c.07-.07.1-.15.1-.27,0-.15-.02-.24-.07-.34-.05-.07-.12-.15-.2-.19s-.17-.07-.27-.1c-.1-.02-.2-.02-.3-.02-.27,0-.49.05-.66.15-.17.1-.27.29-.3.58h-.64c0-.24.05-.44.15-.61s.2-.29.37-.39c.15-.1.32-.17.52-.22.2-.05.39-.07.61-.07.17,0,.34.02.52.05.17.02.32.07.47.15.15.07.25.19.34.32.07.15.12.32.12.54v1.97c0,.15,0,.27.02.32.02.07.07.1.17.1.05,0,.12,0,.2-.02v.54h-.05Zm-1.01-1.97c-.07.05-.17.1-.32.12-.12.02-.27.05-.39.07-.15.02-.3.05-.42.05-.15.02-.27.05-.39.1-.12.05-.2.12-.27.22-.07.1-.1.22-.1.36,0,.1.02.19.07.27.05.07.1.12.17.17.07.05.15.07.25.1s.17.02.27.02c.2,0,.39-.02.54-.07.15-.05.27-.12.37-.22s.17-.17.2-.29c.05-.1.07-.19.07-.29v-.61h-.05Z"/>
          <path class="cls-3" d="m109.89,181.14c-.07.19-.15.34-.22.49-.07.12-.15.24-.25.32s-.17.15-.3.17c-.1.05-.22.05-.37.05-.07,0-.15,0-.22-.02-.07,0-.15-.02-.22-.05v-.56s.12.05.2.07c.07.02.12.02.17.02.12,0,.25-.02.32-.1.1-.07.15-.15.2-.27l.27-.66-1.52-3.82h.71l1.13,3.14h.02l1.08-3.14h.66l-1.67,4.35Z"/>
          <path class="cls-3" d="m111.74,177.35v-.56h.64v-.56c0-.32.1-.56.27-.71.17-.17.44-.24.79-.24.05,0,.12,0,.2.02.07,0,.15.02.2.05v.56s-.12-.02-.17-.05h-.17c-.15,0-.27.02-.37.1-.07.05-.12.17-.12.34v.54h.74v.56h-.74v3.28h-.64v-3.28h-.61v-.05Z"/>
          <rect class="cls-3" x="114.34" y="175.33" width=".64" height="5.3"/>
          <path class="cls-3" d="m118.52,180.39c-.3.22-.64.32-1.08.32-.3,0-.57-.05-.79-.15-.22-.1-.42-.24-.57-.41-.15-.17-.27-.39-.34-.63s-.12-.51-.12-.8.05-.56.12-.8c.1-.24.22-.46.37-.63.17-.17.34-.32.57-.41s.47-.15.71-.15c.34,0,.61.07.86.22.22.15.42.32.54.54.15.22.22.46.27.71.05.27.07.51.07.73h-2.88c0,.17.02.32.05.49.05.15.12.29.22.39.1.12.22.22.37.27.15.07.34.1.54.1.27,0,.49-.07.66-.19s.3-.32.34-.56h.61c-.05.46-.25.78-.54,1m-.15-2.46c-.05-.12-.12-.24-.22-.34s-.22-.17-.34-.22-.27-.1-.44-.1-.32.02-.44.1c-.12.05-.25.15-.34.24s-.17.22-.22.34c-.05.12-.1.27-.1.41h2.21c0-.17-.05-.32-.1-.44"/>
          <polygon class="cls-3" points="119.21 176.79 120 176.79 120.93 178.15 121.89 176.79 122.65 176.79 121.33 178.56 122.8 180.63 121.99 180.63 120.93 179.05 119.85 180.63 119.09 180.63 120.54 178.61 119.21 176.79"/>
        </g>
        <g>
          <path class="cls-3" d="m97.81,176.73c.05-.05.13-.1.18-.18h0c.28-.28.28-.78,0-1.06-.03-.03-.05-.05-.08-.08-.23-.18-.57-.18-.83-.05-.05.03-.1.08-.16.1-.05.05-.13.13-.18.18-.28.34-.52.67-.7,1.06-.16.34-.28.7-.36,1.06.36-.08.73-.18,1.06-.36.39-.16.75-.39,1.06-.67"/>
          <path class="cls-3" d="m92.89,175.67c-.05-.05-.1-.13-.18-.18h0c-.28-.28-.78-.28-1.06,0-.03.03-.08.08-.1.13-.16.23-.16.54-.03.8.03.05.08.1.1.16.05.05.13.13.18.18.31.28.67.52,1.04.7.34.16.7.28,1.06.36-.08-.36-.18-.73-.36-1.06-.13-.39-.36-.75-.65-1.09"/>
          <path class="cls-3" d="m97.99,180.82c-.05-.05-.13-.13-.18-.18-.31-.28-.67-.52-1.04-.7-.34-.16-.7-.28-1.06-.36.08.36.18.73.36,1.06.18.39.41.73.7,1.06.05.05.1.13.18.18h0c.28.28.78.28,1.06,0,.03-.03.05-.05.05-.08.18-.23.21-.57.05-.83-.03-.05-.08-.1-.13-.16"/>
          <path class="cls-3" d="m91.86,180.64c-.05.05-.13.1-.18.18-.05.05-.1.13-.13.18-.16.28-.1.65.13.88.05.05.08.08.13.1.21.13.47.16.67.05.08-.03.18-.1.23-.16.05-.05.13-.13.18-.18.28-.34.52-.67.7-1.06.16-.34.28-.7.36-1.06-.36.08-.7.18-1.04.36-.39.18-.75.41-1.06.7"/>
          <path class="cls-25" d="m94.83,179.5c-.31,0-.6.03-.88.08-.08.36-.18.73-.36,1.06-.18.39-.41.73-.7,1.06-.05.05-.1.13-.18.18-.08.08-.16.13-.23.16.08-.03.16-.08.23-.16.05-.05.1-.1.18-.16.57-.49,1.24-.73,1.94-.73s1.37.23,1.94.73c.05.05.13.1.18.16-.05-.05-.13-.13-.18-.18-.28-.34-.52-.67-.7-1.06-.16-.34-.28-.7-.36-1.06-.28-.05-.6-.08-.88-.08m-2.36,2.54h0"/>
          <path class="cls-25" d="m91.54,176.42c.03.05.08.1.1.16.05.05.1.1.16.18.96,1.11.96,2.8,0,3.91-.05.05-.1.1-.16.18.05-.05.13-.1.18-.18.31-.28.67-.52,1.04-.7.34-.16.7-.28,1.06-.36.13-.6.13-1.19,0-1.79-.36-.08-.73-.18-1.06-.36-.36-.18-.73-.41-1.04-.7-.05-.05-.13-.1-.18-.18-.03-.05-.08-.1-.1-.16m.13,4.4s-.03,0,0,0c-.05.05-.1.13-.13.18,0-.05.05-.13.13-.18-.03,0,0,0,0,0"/>
          <path class="cls-25" d="m97.99,176.55c-.05.05-.13.13-.18.18-.31.28-.67.52-1.04.7-.34.16-.7.28-1.06.36-.13.6-.13,1.19,0,1.79.36.08.73.18,1.06.36.36.18.73.41,1.04.7.05.05.13.1.18.18.05.05.1.1.13.18-.03-.05-.08-.13-.13-.18s-.1-.1-.16-.18c-.96-1.11-.96-2.8,0-3.91.05-.05.1-.1.16-.18"/>
          <path class="cls-25" d="m97.09,175.38c-.05.03-.1.08-.16.1-.05.05-.1.1-.18.16-.57.49-1.24.73-1.94.73s-1.37-.23-1.94-.73c-.05-.05-.13-.1-.18-.16.05.05.13.13.18.18.28.34.52.67.7,1.06.16.34.28.7.36,1.06.28.05.6.08.88.08.31,0,.6-.03.88-.08.08-.36.18-.73.36-1.06.18-.39.41-.73.7-1.06.05-.05.1-.13.18-.18.05-.05.1-.08.16-.1"/>
        </g>
      </g>
    </g>
  </g>
</svg>